<svg width="30" height="30" viewBox="0 0 30 30" fill="none" xmlns="http://www.w3.org/2000/svg">
<path d="M30 15C30 6.71573 23.2843 0 15 0C6.71573 0 0 6.71573 0 15C0 23.2843 6.71573 30 15 30C23.2843 30 30 23.2843 30 15Z" fill="#0061FE"/>
<path d="M18.9384 7.99752C19.5582 8.11491 20.1064 8.31812 20.5961 8.6637C21.4069 9.23255 21.8882 10.0066 22.0456 10.9725C22.0901 11.2396 22.0991 11.5174 22.1027 11.7896C22.1067 11.9999 21.9336 12.1254 21.7398 12.0809C21.6006 12.0503 21.522 11.942 21.5122 11.7829C21.4922 11.4997 21.4888 11.2141 21.4305 10.9387C21.2056 9.86985 20.549 9.15663 19.5263 8.76961C19.2563 8.66806 18.9669 8.62305 18.6857 8.55374C18.6584 8.5481 18.6228 8.56404 18.5926 8.56925C18.6033 8.599 18.6086 8.63402 18.6248 8.65837C18.8199 8.92113 19.0204 9.18402 19.2154 9.44945C19.2885 9.54699 19.2932 9.64938 19.2296 9.75413C19.1743 9.84532 19.0837 9.89857 18.9773 9.87367C18.9063 9.85701 18.8245 9.81599 18.7812 9.76183C18.4397 9.31749 18.1065 8.87048 17.7734 8.42087C17.6597 8.26644 17.6936 8.10769 17.8638 8.00911C18.3332 7.73468 18.8055 7.46027 19.2777 7.18588C19.4259 7.10063 19.5815 7.13941 19.6598 7.27202C19.7382 7.40731 19.6961 7.55527 19.5479 7.64319C19.3584 7.75511 19.1607 7.86697 18.9384 7.99752Z" fill="white"/>
<path d="M11.0502 22.2797C10.4296 22.1665 9.88006 21.9671 9.38785 21.6248C8.57309 21.0615 8.08646 20.2907 7.92239 19.3259C7.87598 19.059 7.86495 18.7814 7.8595 18.5092C7.85405 18.2989 8.02629 18.1723 8.22041 18.2154C8.35988 18.2451 8.43913 18.3529 8.45004 18.5119C8.47197 18.7949 8.47742 19.0806 8.53758 19.3555C8.76993 20.4228 9.43166 21.1316 10.4569 21.5116C10.7276 21.6113 11.0174 21.6544 11.299 21.7218C11.3264 21.7272 11.3619 21.7111 11.392 21.7056C11.3811 21.6759 11.3756 21.6409 11.3592 21.6167C11.1623 21.3553 10.96 21.0938 10.7632 20.8297C10.6894 20.7327 10.6838 20.6303 10.7467 20.5252C10.8014 20.4336 10.8917 20.3796 10.9982 20.4039C11.0694 20.42 11.1514 20.4605 11.1951 20.5144C11.5396 20.9564 11.876 21.4011 12.2123 21.8485C12.327 22.0021 12.2942 22.1612 12.1247 22.2608C11.6572 22.5385 11.1869 22.816 10.7167 23.0937C10.569 23.1799 10.4132 23.1421 10.3339 23.01C10.2546 22.8753 10.2956 22.727 10.4433 22.6382C10.6319 22.5249 10.8288 22.4118 11.0502 22.2797Z" fill="white"/>
<path d="M16.6154 8.01231V13.284H15.1308C14.1902 13.284 13.4301 14.036 13.4301 14.9604V17.1273H7.36851C6.42802 17.1273 5.66797 16.3754 5.66797 15.4509V8.01231C5.66797 7.08518 6.42802 6.33594 7.36851 6.33594H14.9147C15.8525 6.33594 16.6154 7.08518 16.6154 8.01231Z" fill="white"/>
<g filter="url(#filter0_d_63_6233)">
<path d="M9.6764 10.9659C10.1931 11.2921 10.7016 11.6128 11.2184 11.939C11.0653 12.036 10.9231 12.1249 10.781 12.2166C10.4283 12.4376 10.0755 12.6585 9.72281 12.8823C9.69276 12.9011 9.6681 12.9093 9.6326 12.8876C9.14318 12.575 8.6511 12.265 8.16168 11.9525C8.15344 11.947 8.14526 11.9389 8.12891 11.9282C8.64292 11.6048 9.15136 11.2841 9.67356 10.9579C9.15682 10.6371 8.64837 10.3191 8.13981 10.0038C8.13709 9.9796 8.15617 9.97694 8.16714 9.96876C8.65655 9.66158 9.14318 9.35429 9.6326 9.047C9.65993 9.03088 9.67913 9.02276 9.70918 9.04433C10.2013 9.35429 10.6935 9.66425 11.1856 9.97415C11.1939 9.97954 11.202 9.98766 11.2157 9.99844C10.7016 10.3191 10.1931 10.6399 9.6764 10.9659Z" fill="#0061FE"/>
<path d="M12.7477 13.2221C12.5727 13.3326 12.406 13.4377 12.2364 13.5454C11.9084 13.753 11.5802 13.9579 11.2549 14.1654C11.2221 14.187 11.2002 14.187 11.1674 14.1654C10.6807 13.8581 10.1913 13.5509 9.70465 13.2436C9.69375 13.2356 9.68551 13.2275 9.67188 13.2167C10.0956 12.9499 10.5194 12.683 10.9404 12.4189C11.0171 12.3704 11.0963 12.3219 11.1701 12.2734C11.1974 12.2545 11.2194 12.2518 11.2494 12.2706C11.7443 12.5833 12.2392 12.8959 12.7341 13.2086C12.7341 13.2086 12.7368 13.2113 12.7477 13.2221Z" fill="#0061FE"/>
<path d="M11.2188 11.929C11.4649 11.7754 11.7 11.6246 11.9378 11.4763C12.1948 11.3145 12.4491 11.1528 12.7061 10.9939C12.7307 10.9776 12.7471 10.9615 12.7827 10.983C13.2775 11.2956 13.7724 11.6057 14.2701 11.9183C14.2782 11.9237 14.2837 11.929 14.2973 11.9399C14.2263 11.9857 14.1606 12.0287 14.0923 12.0693C13.6658 12.3387 13.2366 12.6056 12.81 12.8751C12.7717 12.8994 12.7444 12.9047 12.7034 12.8777C12.2113 12.5624 11.7191 12.2498 11.2188 11.929Z" fill="#0061FE"/>
<path d="M11.2188 9.99306C11.432 9.85832 11.637 9.7263 11.8421 9.59689C12.1292 9.41361 12.419 9.23301 12.7061 9.0524C12.7335 9.03628 12.7526 9.02005 12.7882 9.04168C13.2803 9.3543 13.7751 9.66426 14.2701 9.97416C14.2782 9.97955 14.2837 9.985 14.2946 9.99306C14.2235 10.0389 14.1552 10.0847 14.0868 10.1278C13.6603 10.3946 13.2338 10.6614 12.8073 10.9309C12.7854 10.9444 12.769 10.9633 12.7362 10.9444C12.2359 10.6264 11.73 10.3138 11.2188 9.99306Z" fill="#0061FE"/>
</g>
<path d="M24.2716 14.7506V22.1892C24.2716 23.1164 23.5088 23.8682 22.5711 23.8682H15.0249C14.0843 23.8682 13.3242 23.1164 13.3242 22.1892V16.9175H14.8088C15.7466 16.9175 16.5095 16.1655 16.5095 15.2411V13.0742H22.5711C23.5088 13.0742 24.2716 13.8262 24.2716 14.7506Z" fill="white"/>
<g filter="url(#filter1_d_63_6233)">
<path d="M18.8748 15.7699C17.3601 15.7941 16.0586 17.0473 16.0586 18.6078C16.0614 20.2357 17.4586 21.4701 18.9541 21.4486C20.4879 21.4243 21.7948 20.1738 21.7921 18.6133C21.7948 17.0285 20.4688 15.7456 18.8748 15.7699ZM18.9759 21.2976C17.4613 21.3246 16.2282 20.1144 16.209 18.6051C16.1927 17.1902 17.423 15.9585 18.8447 15.9181C20.3321 15.875 21.6472 17.104 21.6445 18.616C21.6445 19.9742 20.507 21.2733 18.9759 21.2976Z" fill="#0061FE"/>
<path d="M20.5687 16.7824C20.4649 16.839 20.3691 16.8767 20.2926 16.9387C20.1368 17.0654 20.1067 17.2487 20.1969 17.459C20.2379 17.5586 20.2872 17.6557 20.3473 17.7446C20.5852 18.0922 20.6289 18.4669 20.5141 18.8658C20.402 19.2539 20.2816 19.6419 20.1641 20.03C20.1614 20.0436 20.1531 20.0543 20.1341 20.0894C19.8333 19.2026 19.5379 18.3375 19.24 17.459C19.322 17.4534 19.3876 17.4508 19.456 17.4427C19.4915 17.4373 19.5352 17.4347 19.5544 17.4131C19.579 17.3861 19.5872 17.343 19.5899 17.3053C19.5899 17.2971 19.5462 17.2756 19.5216 17.2756C19.1115 17.2756 18.6986 17.2783 18.2885 17.2783C18.2748 17.2783 18.2584 17.2783 18.2447 17.281C18.2037 17.2917 18.1299 17.273 18.1381 17.3403C18.1408 17.3753 18.201 17.4023 18.2338 17.432C18.2366 17.4347 18.2447 17.4347 18.2502 17.4347C18.4279 17.4184 18.4963 17.5263 18.5455 17.6718C18.6385 17.9333 18.7424 18.192 18.8381 18.4507C18.849 18.4804 18.8517 18.5208 18.8436 18.5504C18.674 19.0518 18.5017 19.5503 18.3322 20.0516C18.3295 20.0624 18.3213 20.0705 18.3022 20.1055C18.0014 19.2189 17.7062 18.3537 17.4054 17.4751C17.4956 17.4616 17.5667 17.4534 17.635 17.4401C17.6952 17.4266 17.7772 17.4211 17.7718 17.3457C17.7663 17.2649 17.6843 17.273 17.6241 17.273C17.4218 17.2756 17.2222 17.281 17.0199 17.2864C16.9734 17.2864 16.9269 17.2864 16.875 17.273C17.2194 16.7635 17.6788 16.4132 18.283 16.2596C19.1361 16.0386 19.8907 16.2434 20.5687 16.7824Z" fill="#0061FE"/>
<path d="M18.9869 18.8281C19.2385 19.5154 19.49 20.2026 19.7497 20.9116C19.6048 20.9439 19.4708 20.9789 19.3368 21.0059C19.006 21.0705 18.678 21.0516 18.3526 20.9789C18.2186 20.9492 18.2158 20.9412 18.2596 20.8172C18.4811 20.1811 18.7025 19.5451 18.9267 18.9091C18.935 18.882 18.9486 18.8578 18.9624 18.8309C18.9678 18.8309 18.976 18.8281 18.9869 18.8281Z" fill="#0061FE"/>
<path d="M16.6978 17.6328C17.086 18.6813 17.4743 19.7324 17.8625 20.7807C17.8543 20.7861 17.8434 20.7915 17.8352 20.7969C17.3074 20.5355 16.9165 20.1366 16.6787 19.603C16.3861 18.9507 16.4162 18.2904 16.6649 17.6355C16.6732 17.6355 16.6841 17.6328 16.6978 17.6328Z" fill="#0061FE"/>
<path d="M21.1133 17.4688C21.4003 18.0536 21.4659 18.6628 21.2855 19.2907C21.1078 19.9079 20.7278 20.3796 20.1562 20.7003C20.1646 20.6733 20.17 20.6464 20.1782 20.6221C20.4297 19.8998 20.6813 19.1775 20.9301 18.4552C21.0257 18.1776 21.0941 17.8947 21.0777 17.5982C21.075 17.555 21.0832 17.5119 21.0859 17.4688C21.0941 17.4715 21.1051 17.4688 21.1133 17.4688Z" fill="#0061FE"/>
</g>
<defs>
<filter id="filter0_d_63_6233" x="4.12891" y="9.03125" width="14.1685" height="13.1504" filterUnits="userSpaceOnUse" color-interpolation-filters="sRGB">
<feFlood flood-opacity="0" result="BackgroundImageFix"/>
<feColorMatrix in="SourceAlpha" type="matrix" values="0 0 0 0 0 0 0 0 0 0 0 0 0 0 0 0 0 0 127 0" result="hardAlpha"/>
<feOffset dy="4"/>
<feGaussianBlur stdDeviation="2"/>
<feComposite in2="hardAlpha" operator="out"/>
<feColorMatrix type="matrix" values="0 0 0 0 0 0 0 0 0 0 0 0 0 0 0 0 0 0 0.07 0"/>
<feBlend mode="normal" in2="BackgroundImageFix" result="effect1_dropShadow_63_6233"/>
<feBlend mode="normal" in="SourceGraphic" in2="effect1_dropShadow_63_6233" result="shape"/>
</filter>
<filter id="filter1_d_63_6233" x="12.0586" y="15.7695" width="13.7336" height="13.6792" filterUnits="userSpaceOnUse" color-interpolation-filters="sRGB">
<feFlood flood-opacity="0" result="BackgroundImageFix"/>
<feColorMatrix in="SourceAlpha" type="matrix" values="0 0 0 0 0 0 0 0 0 0 0 0 0 0 0 0 0 0 127 0" result="hardAlpha"/>
<feOffset dy="4"/>
<feGaussianBlur stdDeviation="2"/>
<feComposite in2="hardAlpha" operator="out"/>
<feColorMatrix type="matrix" values="0 0 0 0 0 0 0 0 0 0 0 0 0 0 0 0 0 0 0.07 0"/>
<feBlend mode="normal" in2="BackgroundImageFix" result="effect1_dropShadow_63_6233"/>
<feBlend mode="normal" in="SourceGraphic" in2="effect1_dropShadow_63_6233" result="shape"/>
</filter>
</defs>
</svg>
