<svg width="35" height="46" viewBox="0 0 35 46" fill="none" xmlns="http://www.w3.org/2000/svg">
<path fill-rule="evenodd" clip-rule="evenodd" d="M18.0827 35.6093C20.0514 37.587 22.1264 39.4587 24.3644 41.2134C25.4151 42.0384 25.9531 42.4242 27.0132 43.1033C27.1203 43.1721 27.3206 43.352 27.4425 43.4214C27.5362 43.4743 27.6264 43.4873 27.6836 43.4871C27.8991 43.4843 28.0624 43.3781 28.1827 43.2405C28.2406 43.1755 28.3417 43.0449 28.3145 42.8632C28.2026 42.0728 28.0257 41.3131 27.7966 40.5815C28.7127 41.6793 29.5905 42.7423 30.5651 43.8279C31.0435 44.3596 31.7161 45.0795 31.8058 45.1613C32.0295 45.3681 32.3995 45.1006 32.4194 45.0845C32.4454 45.0633 32.7594 44.8012 32.5883 44.5665C27.2173 37.1458 21.5891 29.9204 16.3786 22.3822C16.3581 22.3525 14.9745 20.3226 13.8626 18.5658C14.4264 19.225 15.1038 20.0456 15.9027 21.0252C19.6214 25.5855 23.1466 30.2914 27.0724 34.6981C28.9763 36.8348 28.9375 36.7785 30.933 38.802C32.0598 39.9456 31.9814 39.915 33.2315 41.0156C33.3415 41.1129 33.4769 41.3754 33.5933 41.482C33.6793 41.5582 33.7769 41.589 33.8528 41.5952C33.9806 41.6038 34.1036 41.5674 34.2231 41.4981C34.3255 41.4387 34.4549 41.3387 34.5428 41.1577C34.6372 40.9651 34.675 40.7287 34.64 40.4663C34.599 40.1639 34.4618 39.8086 34.2608 39.4335C33.5323 38.0704 31.9523 36.3902 31.6467 35.9602C29.3587 32.7524 26.8102 29.7319 24.4525 26.572C24.4808 26.5541 24.5067 26.5363 24.5312 26.5163C24.6314 26.4363 24.7317 26.3218 24.7785 26.1643C24.8248 26.0025 24.7775 25.653 24.6388 25.2366C24.5104 24.849 24.3188 24.3765 24.1399 23.9329C24.5317 24.363 24.9512 24.8022 25.2534 25.0607C25.385 25.172 25.6875 25.4898 25.7503 25.5186C25.9587 25.613 26.1677 25.4864 26.2561 25.4239C26.3063 25.3893 26.6183 25.1557 26.4795 24.8708C25.2864 22.4168 23.4902 20.3187 22.3829 17.8228C22.3103 17.6584 22.0616 17.6338 21.8272 17.7687C21.5928 17.9035 21.4612 18.146 21.5339 18.3105C22.1069 19.6038 22.8644 20.7904 23.6282 21.9758C23.4407 21.9186 23.2575 21.9821 23.1472 22.044C23.0151 22.1193 22.8538 22.2492 22.7941 22.4782C22.7643 22.5911 22.7647 22.8101 22.8413 23.1503C22.9424 23.5989 23.3223 24.4662 23.6057 25.2106C23.4211 25.0292 23.2397 24.8457 23.0609 24.6588C21.9504 23.0984 20.6537 21.2294 19.6486 19.7873C18.8355 18.6171 17.985 17.4272 17.7774 17.1882C17.7055 17.1046 17.6347 17.0781 17.6155 17.071C17.5314 17.046 17.4525 17.0564 17.3947 17.0696C17.2213 17.1092 17.0845 17.2018 16.9812 17.3466C16.9643 17.3707 16.8362 17.542 16.9339 17.7393C18.317 20.4899 20.133 23.0159 22.2735 25.2464C22.5307 25.6095 22.7795 25.9534 23.0107 26.2717C25.5385 29.748 28.3447 33.0248 30.8402 36.5235C31.1341 36.9364 32.6219 38.5141 33.3649 39.8391C32.7167 39.2552 32.5876 39.0921 31.6959 38.1858C29.7086 36.1707 29.7457 36.2281 27.8493 34.0988C23.9288 29.6964 20.4065 24.9946 16.6922 20.4408C14.5136 17.7699 13.2063 16.2636 12.6666 15.962C12.4218 15.8252 12.1861 15.8748 12.0604 15.9316C11.91 15.9976 11.7756 16.1043 11.6845 16.2704C11.6604 16.3151 11.6296 16.3849 11.627 16.4712C11.3824 16.123 11.1394 15.7736 10.8964 15.4243C8.75056 12.3362 6.57897 9.26278 4.48897 6.13784C4.3604 5.94767 4.23345 5.75638 4.10738 5.56292C3.11073 3.98046 2.10776 2.39923 1.09093 0.829105L1.08597 0.818434C0.669997 0.193613 0.118041 1.12646 0.264114 1.35938C0.278585 1.38386 0.384896 1.54865 0.424079 1.61249C0.707447 2.06557 0.977861 2.52757 1.26447 2.97842C1.9323 4.02792 2.60557 5.07839 3.29358 6.11556C8.29685 14.0673 13.1597 22.1204 18.8806 29.581C21.0773 32.4446 23.3478 35.2558 25.6638 38.0325C26.3439 39.3115 26.8978 40.6603 27.2277 42.121C26.4674 41.6206 25.9541 41.2429 25.0845 40.5594C22.5922 38.6055 20.3037 36.5035 18.135 34.2736C12.9843 28.9694 8.94776 22.8134 3.72925 17.5668C3.63593 17.4729 3.55766 17.4564 3.54209 17.4546C3.33572 17.4151 3.17163 17.5202 3.07054 17.6024C3.02737 17.6368 2.75839 17.8706 2.88873 18.1049C2.93402 18.188 3.35797 18.7134 3.51706 18.9202C3.82354 19.3166 4.14046 19.7074 4.44046 20.1084C5.61704 21.6781 6.81488 23.1815 8.05142 24.7099C12.6841 30.4413 17.5083 36.1004 21.6556 42.1849C21.7566 42.3314 22.02 42.3254 22.2443 42.1725C22.4663 42.0196 22.5675 41.7745 22.4673 41.629C21.0704 39.58 19.5992 37.579 18.0827 35.6093Z" fill="#8746FF"/>
</svg>
