<svg width="66" height="57" viewBox="0 0 66 57" fill="none" xmlns="http://www.w3.org/2000/svg">
<path d="M53.3462 19.9251C54.0536 15.338 56.2587 11.2887 58.7092 7.38016C59.8695 5.53054 58.7417 3.64122 56.4734 4.56332C55.7733 4.84843 55.2175 5.39339 54.5769 5.78497C49.6668 9.07098 44.4915 11.9401 39.2693 14.7119C39.2345 14.7304 39.204 14.7561 39.1797 14.7871C39.1554 14.8182 39.1378 14.8539 39.1281 14.8922C39.1185 14.9304 39.1169 14.9702 39.1234 15.0091C39.13 15.0479 39.1447 15.085 39.1664 15.1179C39.2036 15.1756 39.2586 15.2196 39.3231 15.2431C39.3877 15.2666 39.4581 15.2682 39.5237 15.2478C41.5646 14.6505 48.9919 13.0156 51.9838 9.68812C43.5748 19.0427 35.2037 25.8872 27.1141 34.215C17.229 44.0062 7.0943 53.5322 -3.29004 62.793C-3.33143 62.8293 -3.35702 62.8804 -3.3614 62.9353C-3.36578 62.9902 -3.3486 63.0446 -3.3135 63.0871C-3.28343 63.1243 -3.24003 63.1484 -3.19251 63.1541C-3.14499 63.1598 -3.09711 63.1468 -3.05905 63.1178C8.08378 54.707 19.0768 46.0345 29.2182 36.4381C38.201 27.9389 44.838 21.0024 52.0289 13.0535C49.3673 15.9967 51.3829 22.5452 52.0614 24.8081C52.0835 24.8823 52.1302 24.9467 52.1939 24.9907C52.2575 25.0346 52.3343 25.0555 52.4115 25.0499C52.5203 25.0404 52.6222 24.9928 52.6995 24.9156C52.7767 24.8384 52.8242 24.7364 52.8337 24.6276C52.9871 23.0162 53.1062 21.4391 53.3462 19.9251Z" fill="url(#paint0_linear_154_36626)"/>
<path d="M31.4882 25.0245C26.5439 31.3105 20.7121 36.8444 14.1757 41.4527C14.1458 41.4793 14.1066 41.4929 14.0666 41.4905C14.0267 41.4881 13.9893 41.47 13.9628 41.4401C13.9362 41.4102 13.9226 41.3709 13.925 41.331C13.9274 41.2911 13.9455 41.2537 13.9754 41.2272C19.3513 35.3589 25.1314 29.8742 31.2734 24.8134C31.3014 24.7849 31.3396 24.7687 31.3795 24.7684C31.4194 24.768 31.4579 24.7835 31.4863 24.8115C31.5148 24.8395 31.531 24.8777 31.5313 24.9176C31.5317 24.9576 31.5161 24.996 31.4882 25.0245Z" fill="url(#paint1_linear_154_36626)"/>
<path d="M12.6981 42.6357C12.5147 43.124 12.2266 43.5662 11.8541 43.9312C11.4816 44.2963 11.0336 44.5753 10.5417 44.7488C10.5045 44.7623 10.464 44.7636 10.426 44.7526C10.388 44.7415 10.3545 44.7186 10.3304 44.6873C10.3063 44.6559 10.2928 44.6177 10.2918 44.5781C10.2909 44.5386 10.3026 44.4997 10.3252 44.4673C10.9225 43.6974 11.6232 43.0136 12.4076 42.4354C12.4384 42.4103 12.4766 42.3958 12.5163 42.3942C12.5561 42.3926 12.5953 42.4039 12.628 42.4265C12.6608 42.4491 12.6853 42.4817 12.698 42.5194C12.7106 42.5571 12.7106 42.5979 12.6981 42.6357Z" fill="url(#paint2_linear_154_36626)"/>
<defs>
<linearGradient id="paint0_linear_154_36626" x1="60.2918" y1="0.729417" x2="6.62822" y2="51.685" gradientUnits="userSpaceOnUse">
<stop stop-color="#F4E9FF"/>
<stop offset="1" stop-color="#F4E9FF" stop-opacity="0"/>
</linearGradient>
<linearGradient id="paint1_linear_154_36626" x1="31.9692" y1="23.7082" x2="16.1128" y2="37.3949" gradientUnits="userSpaceOnUse">
<stop stop-color="#F4E9FF"/>
<stop offset="1" stop-color="#F4E9FF" stop-opacity="0"/>
</linearGradient>
<linearGradient id="paint2_linear_154_36626" x1="12.712" y1="42.2941" x2="10.6863" y2="44.2368" gradientUnits="userSpaceOnUse">
<stop stop-color="#F4E9FF"/>
<stop offset="1" stop-color="#F4E9FF" stop-opacity="0"/>
</linearGradient>
</defs>
</svg>
