<svg width="25" height="19" viewBox="0 0 25 19" fill="none" xmlns="http://www.w3.org/2000/svg">
<path d="M24.7812 1.9668L17.1992 9.49995L24.7812 17.0331C24.9183 16.7466 25.0014 16.4299 25.0014 16.0917V2.90815C25.0014 2.56992 24.9183 2.25327 24.7812 1.9668Z" fill="#8000FF"/>
<path d="M22.8046 0.710938H2.19917C1.86094 0.710938 1.54429 0.794092 1.25781 0.931152L10.9484 10.5729C11.8052 11.4297 13.1986 11.4297 14.0554 10.5729L23.746 0.931152C23.4595 0.794092 23.1429 0.710938 22.8046 0.710938Z" fill="#8000FF"/>
<path d="M0.220215 1.9668C0.0831543 2.25327 0 2.56992 0 2.90815V16.0917C0 16.43 0.0831543 16.7467 0.220215 17.0331L7.8022 9.49995L0.220215 1.9668Z" fill="#8000FF"/>
<path d="M16.164 10.5356L15.0911 11.6085C13.6634 13.0362 11.3403 13.0362 9.91265 11.6085L8.83979 10.5356L1.25781 18.0688C1.54429 18.2059 1.86094 18.289 2.19917 18.289H22.8046C23.1429 18.289 23.4595 18.2059 23.746 18.0688L16.164 10.5356Z" fill="#8000FF"/>
</svg>
