<svg width="97" height="107" viewBox="0 0 97 107" fill="none" xmlns="http://www.w3.org/2000/svg">
<g opacity="0.5">
<path d="M26.2558 89.4637C25.3394 87.7828 24.0736 86.3177 22.5435 85.1669C46.2155 96.0246 68.4236 82.3074 72.0092 56.8335C74.785 34.6558 60.9466 13.1787 43.7627 0.317776C43.6985 0.270927 43.6253 0.237922 43.5477 0.220848C43.4702 0.203774 43.3899 0.202998 43.312 0.218584C43.2341 0.234169 43.1603 0.265764 43.0952 0.311375C43.0302 0.356985 42.9754 0.415616 42.9342 0.483542C42.8636 0.599001 42.8358 0.735598 42.8557 0.869455C42.8756 1.00331 42.9419 1.12592 43.043 1.21586C58.1732 14.6422 70.5886 35.2919 67.0833 55.973C62.1157 77.4971 44.0183 87.0509 22.8863 83.595C25.4361 82.2809 27.6814 80.4459 29.4767 78.2088C29.511 78.1669 29.5298 78.1145 29.5298 78.0603C29.5299 78.0062 29.5112 77.9537 29.4769 77.9118C29.4427 77.8699 29.395 77.8411 29.342 77.8303C29.2889 77.8195 29.2338 77.8274 29.1859 77.8526C25.8521 79.5217 22.7113 81.0987 18.6354 82.2343C16.1741 82.9162 15.2442 83.2771 17.8298 84.7338C20.9702 86.503 24.4123 88.4422 26.4116 91.5389C26.455 91.5976 26.5171 91.6397 26.5877 91.6583C26.6583 91.6769 26.7332 91.6708 26.7998 91.641C26.8665 91.6112 26.9209 91.5595 26.9542 91.4945C26.9875 91.4296 26.9976 91.3552 26.9828 91.2837C26.8146 90.65 26.5705 90.0389 26.2558 89.4637Z" fill="white"/>
<path d="M74.7299 29.5379C81.4224 39.4158 83.4443 53.5177 76.8703 63.7982C76.8337 63.8491 76.7801 63.8854 76.7191 63.9004C76.6581 63.9155 76.5938 63.9083 76.5376 63.8803C76.4814 63.8522 76.4371 63.8051 76.4125 63.7473C76.3879 63.6896 76.3846 63.6249 76.4033 63.565C80.2694 52.5153 78.3397 40.5938 74.2699 29.7703C74.2505 29.7111 74.253 29.6469 74.2769 29.5893C74.3008 29.5318 74.3445 29.4847 74.4001 29.4566C74.4557 29.4285 74.5196 29.4212 74.5801 29.4362C74.6406 29.4511 74.6937 29.4872 74.7299 29.5379Z" fill="white"/>
<path d="M72.0035 25.7135C70.8588 24.6939 70.031 23.3671 69.6182 21.8908C69.6016 21.8365 69.601 21.7786 69.6165 21.724C69.6321 21.6694 69.6631 21.6204 69.7059 21.5831C69.7486 21.5457 69.8012 21.5215 69.8574 21.5134C69.9136 21.5053 69.971 21.5136 70.0225 21.5373C70.7451 21.9225 71.3538 22.4908 71.7877 23.1852C72.2215 23.8797 72.4653 24.676 72.4945 25.4943C72.4946 25.5512 72.4782 25.607 72.4473 25.6547C72.4163 25.7025 72.3722 25.7403 72.3202 25.7635C72.2683 25.7867 72.2107 25.7943 72.1544 25.7854C72.0982 25.7766 72.0458 25.7516 72.0035 25.7135Z" fill="white"/>
</g>
</svg>
