<svg width="25" height="24" viewBox="0 0 25 24" fill="none" xmlns="http://www.w3.org/2000/svg">
<g clip-path="url(#clip0_695_37795)">
<path d="M1.04167 0.0409547C0.46637 0.0409547 0 0.499143 0 1.06435C0 1.62955 0.46637 2.08774 1.04167 2.08774H2.8951C3.04676 2.08774 3.19458 2.13462 3.31761 2.22175C3.44065 2.30888 3.53266 2.43183 3.58061 2.57319L7.01497 12.6974C7.16749 13.1469 7.18688 13.6309 7.06991 14.0906L6.78711 15.2039C6.37217 16.8346 7.66415 18.462 9.375 18.462H21.875C22.4503 18.462 22.9167 18.0038 22.9167 17.4386C22.9167 16.8734 22.4503 16.4152 21.875 16.4152H9.375C8.96939 16.4152 8.709 16.0882 8.80737 15.7016L9.02064 14.8648C9.05677 14.723 9.1401 14.5972 9.25739 14.5072C9.37468 14.4173 9.51919 14.3684 9.66797 14.3684H20.8333C21.2818 14.3687 21.6802 14.0869 21.8221 13.6689L24.5992 5.48172C24.8242 4.81878 24.3217 4.1342 23.6104 4.13452H6.8278C6.67614 4.13452 6.52832 4.08764 6.40528 4.00052C6.28224 3.91339 6.19023 3.79044 6.14226 3.64909L5.15544 0.740539C5.01349 0.322546 4.61518 0.0407244 4.16667 0.0409547H1.04167ZM8.33333 19.4854C7.18274 19.4854 6.25 20.4018 6.25 21.5322C6.25 22.6626 7.18274 23.579 8.33333 23.579C9.48393 23.579 10.4167 22.6626 10.4167 21.5322C10.4167 20.4018 9.48393 19.4854 8.33333 19.4854ZM20.8333 19.4854C19.6827 19.4854 18.75 20.4018 18.75 21.5322C18.75 22.6626 19.6827 23.579 20.8333 23.579C21.9839 23.579 22.9167 22.6626 22.9167 21.5322C22.9167 20.4018 21.9839 19.4854 20.8333 19.4854Z" fill="white"/>
</g>
<defs>
<clipPath id="clip0_695_37795">
<rect width="25" height="23.5789" fill="white"/>
</clipPath>
</defs>
</svg>
