<svg width="255" height="53" viewBox="0 0 255 53" fill="none" xmlns="http://www.w3.org/2000/svg">
<path d="M0.409482 1.80702C-0.0362252 1.48089 -0.133159 0.85519 0.192975 0.409481C0.519109 -0.0362244 1.14481 -0.13316 1.59052 0.192974L0.409482 1.80702ZM254.433 33.636C254.931 33.875 255.141 34.4723 254.902 34.9702L251.007 43.0838C250.768 43.5817 250.17 43.7916 249.672 43.5526C249.175 43.3136 248.965 42.7162 249.204 42.2183L252.666 35.0062L245.454 31.5442C244.956 31.3051 244.746 30.7078 244.985 30.2099C245.224 29.712 245.821 29.5021 246.319 29.7411L254.433 33.636ZM3.55431 1.61582C4.00306 1.93776 4.10586 2.56253 3.78392 3.01127C3.46198 3.46002 2.83721 3.56281 2.38847 3.24087L3.55431 1.61582ZM10.5371 8.85849C10.0767 8.55354 9.95059 7.93305 10.2555 7.47259C10.5605 7.01213 11.181 6.88607 11.6414 7.19102L10.5371 8.85849ZM15.7677 9.8692C16.2337 10.1656 16.3712 10.7836 16.0748 11.2497C15.7784 11.7157 15.1604 11.8532 14.6944 11.5568L15.7677 9.8692ZM23.1164 16.6995C22.6399 16.4203 22.4799 15.8077 22.759 15.3311C23.0382 14.8546 23.6508 14.6946 24.1274 14.9738L23.1164 16.6995ZM28.3829 17.4148C28.8645 17.6853 29.0356 18.2949 28.7652 18.7764C28.4948 19.258 27.8852 19.4291 27.4036 19.1587L28.3829 17.4148ZM36.1245 23.848C35.6333 23.5954 35.44 22.9925 35.6926 22.5013C35.9452 22.0102 36.5481 21.8168 37.0392 22.0694L36.1245 23.848ZM41.4111 24.2676C41.9068 24.5112 42.1111 25.1105 41.8676 25.6062C41.624 26.1018 41.0247 26.3062 40.529 26.0626L41.4111 24.2676ZM49.4948 30.265C48.9905 30.0399 48.7642 29.4486 48.9893 28.9442C49.2144 28.4399 49.8057 28.2136 50.31 28.4387L49.4948 30.265ZM54.7983 30.3926C55.3067 30.6083 55.5439 31.1954 55.3282 31.7038C55.1124 32.2122 54.5254 32.4494 54.017 32.2336L54.7983 30.3926ZM63.1966 35.9291C62.6805 35.7325 62.4215 35.1547 62.6182 34.6386C62.8148 34.1225 63.3926 33.8635 63.9087 34.0602L63.1966 35.9291ZM68.5018 35.7613C69.0215 35.9482 69.2912 36.5211 69.1043 37.0408C68.9173 37.5604 68.3445 37.8302 67.8248 37.6432L68.5018 35.7613ZM77.2005 40.8179C76.6742 40.6507 76.383 40.0885 76.5502 39.5621C76.7175 39.0357 77.2797 38.7446 77.8061 38.9118L77.2005 40.8179ZM82.4823 40.3489C83.0117 40.5062 83.3134 41.0628 83.1562 41.5923C82.9989 42.1217 82.4422 42.4234 81.9128 42.2661L82.4823 40.3489ZM91.4539 44.9035C90.9188 44.7665 90.5962 44.2218 90.7331 43.6867C90.8701 43.1517 91.4149 42.829 91.9499 42.966L91.4539 44.9035ZM96.7002 44.1341C97.2378 44.2609 97.5708 44.7994 97.444 45.337C97.3172 45.8745 96.7787 46.2075 96.2412 46.0807L96.7002 44.1341ZM105.91 48.1667C105.368 48.0606 105.015 47.5352 105.121 46.9932C105.227 46.4512 105.752 46.0978 106.294 46.2039L105.91 48.1667ZM111.116 47.1001C111.66 47.1959 112.023 47.7144 111.927 48.2583C111.832 48.8022 111.313 49.1656 110.769 49.0699L111.116 47.1001ZM120.535 50.5966C119.988 50.5217 119.605 50.0175 119.68 49.4703C119.755 48.9231 120.259 48.5402 120.806 48.615L120.535 50.5966ZM125.69 49.2356C126.239 49.3 126.631 49.7968 126.567 50.3453C126.502 50.8938 126.006 51.2863 125.457 51.222L125.69 49.2356ZM135.289 52.1863C134.738 52.1429 134.327 51.6613 134.37 51.1107C134.414 50.5602 134.895 50.1491 135.446 50.1926L135.289 52.1863ZM140.334 50.532C140.885 50.565 141.305 51.0387 141.272 51.59C141.239 52.1413 140.765 52.5614 140.214 52.5284L140.334 50.532ZM150.096 52.9342C149.544 52.9219 149.106 52.4644 149.119 51.9122C149.131 51.3601 149.589 50.9224 150.141 50.9347L150.096 52.9342ZM155.04 50.9982C155.593 51.0002 156.039 51.4496 156.037 52.0019C156.035 52.5542 155.585 53.0002 155.033 52.9982L155.04 50.9982ZM164.916 52.8515C164.364 52.8699 163.902 52.4373 163.883 51.8853C163.865 51.3334 164.297 50.871 164.849 50.8526L164.916 52.8515ZM169.766 50.6441C170.317 50.6156 170.787 51.0397 170.816 51.5912C170.844 52.1428 170.42 52.6129 169.869 52.6414L169.766 50.6441ZM179.731 51.9539C179.181 52.0022 178.695 51.5953 178.647 51.0452C178.599 50.495 179.006 50.0099 179.556 49.9616L179.731 51.9539ZM184.423 49.4909C184.972 49.4329 185.464 49.8312 185.522 50.3804C185.58 50.9296 185.182 51.4219 184.633 51.4799L184.423 49.4909ZM194.442 50.2699C193.895 50.347 193.389 49.9662 193.312 49.4193C193.235 48.8725 193.616 48.3666 194.163 48.2895L194.442 50.2699ZM199.029 47.5603C199.575 47.4738 200.087 47.8458 200.174 48.3913C200.26 48.9367 199.888 49.4491 199.343 49.5356L199.029 47.5603ZM209.071 47.8236C208.529 47.9284 208.004 47.5738 207.899 47.0316C207.795 46.4893 208.149 45.9648 208.691 45.86L209.071 47.8236ZM213.498 44.8898C214.038 44.7761 214.568 45.122 214.682 45.6624C214.796 46.2029 214.45 46.7332 213.91 46.8469L213.498 44.8898ZM223.551 44.6543C223.014 44.7854 222.473 44.4567 222.342 43.9202C222.211 43.3837 222.54 42.8425 223.076 42.7114L223.551 44.6543ZM227.823 41.5116C228.357 41.3721 228.904 41.6922 229.043 42.2266C229.183 42.7609 228.863 43.3072 228.328 43.4468L227.823 41.5116ZM237.844 40.8039C237.315 40.9598 236.759 40.6567 236.603 40.1269C236.447 39.597 236.75 39.0411 237.28 38.8852L237.844 40.8039ZM242.007 37.4549C242.534 37.291 243.095 37.5857 243.259 38.1131C243.423 38.6405 243.128 39.2009 242.601 39.3648L242.007 37.4549ZM251.973 36.2999C251.451 36.4791 250.882 36.201 250.703 35.6786C250.523 35.1563 250.802 34.5874 251.324 34.4082L251.973 36.2999ZM1.59052 0.192974C2.23659 0.665718 2.8912 1.14008 3.55431 1.61582L2.38847 3.24087C1.72024 2.76147 1.06057 2.28344 0.409482 1.80702L1.59052 0.192974ZM11.6414 7.19102C12.9884 8.08305 14.3639 8.97632 15.7677 9.8692L14.6944 11.5568C13.28 10.6572 11.8942 9.75724 10.5371 8.85849L11.6414 7.19102ZM24.1274 14.9738C25.5222 15.7909 26.9407 16.605 28.3829 17.4148L27.4036 19.1587C25.9507 18.3428 24.5216 17.5227 23.1164 16.6995L24.1274 14.9738ZM37.0392 22.0694C38.4761 22.8085 39.9335 23.5415 41.4111 24.2676L40.529 26.0626C39.0404 25.3311 37.5721 24.5925 36.1245 23.848L37.0392 22.0694ZM50.31 28.4387C51.7882 29.0985 53.2843 29.7501 54.7983 30.3926L54.017 32.2336C52.4915 31.5863 50.9841 30.9298 49.4948 30.265L50.31 28.4387ZM63.9087 34.0602C65.4236 34.6374 66.9547 35.2047 68.5018 35.7613L67.8248 37.6432C66.2658 37.0824 64.7231 36.5107 63.1966 35.9291L63.9087 34.0602ZM77.8061 38.9118C79.3503 39.4024 80.909 39.8817 82.4823 40.3489L81.9128 42.2661C80.3274 41.7953 78.7566 41.3123 77.2005 40.8179L77.8061 38.9118ZM91.9499 42.966C93.5201 43.368 95.1036 43.7576 96.7002 44.1341L96.2412 46.0807C94.6321 45.7013 93.0363 45.3086 91.4539 44.9035L91.9499 42.966ZM106.294 46.2039C107.889 46.5162 109.497 46.8152 111.116 47.1001L110.769 49.0699C109.137 48.7827 107.518 48.4814 105.91 48.1667L106.294 46.2039ZM120.806 48.615C122.423 48.8362 124.051 49.0433 125.69 49.2356L125.457 51.222C123.805 51.0281 122.164 50.8195 120.535 50.5966L120.806 48.615ZM135.446 50.1926C137.065 50.3204 138.694 50.4337 140.334 50.532L140.214 52.5284C138.562 52.4293 136.92 52.3152 135.289 52.1863L135.446 50.1926ZM150.141 50.9347C151.765 50.9709 153.398 50.9922 155.04 50.9982L155.033 52.9982C153.378 52.9922 151.732 52.9707 150.096 52.9342L150.141 50.9347ZM164.849 50.8526C166.479 50.7984 168.118 50.729 169.766 50.6441L169.869 52.6414C168.209 52.727 166.558 52.7969 164.916 52.8515L164.849 50.8526ZM179.556 49.9616C181.17 49.8199 182.793 49.6631 184.423 49.4909L184.633 51.4799C182.991 51.6533 181.357 51.8112 179.731 51.9539L179.556 49.9616ZM194.163 48.2895C195.778 48.0617 197.4 47.8187 199.029 47.5603L199.343 49.5356C197.702 49.7958 196.068 50.0405 194.442 50.2699L194.163 48.2895ZM208.691 45.86C210.287 45.5516 211.889 45.2283 213.498 44.8898L213.91 46.8469C212.29 47.1877 210.677 47.5132 209.071 47.8236L208.691 45.86ZM223.076 42.7114C224.652 42.3262 226.235 41.9264 227.823 41.5116L228.328 43.4468C226.73 43.8642 225.137 44.2666 223.551 44.6543L223.076 42.7114ZM237.28 38.8852C238.85 38.4231 240.426 37.9465 242.007 37.4549L242.601 39.3648C241.01 39.8593 239.424 40.3389 237.844 40.8039L237.28 38.8852ZM251.324 34.4082C252.104 34.1404 252.886 33.869 253.669 33.594L254.331 35.4809C253.544 35.7576 252.758 36.0305 251.973 36.2999L251.324 34.4082Z" fill="#E0F5FF"/>
</svg>
