<svg width="30" height="30" viewBox="0 0 30 30" fill="none" xmlns="http://www.w3.org/2000/svg">
<g clip-path="url(#clip0_154_36070)">
<path d="M29.2921 11.0302L19.575 10.129L15.7151 1.16601C15.4449 0.538413 14.555 0.538413 14.2848 1.16601L10.4249 10.1291L0.707828 11.0302C0.0274383 11.0934 -0.247542 11.9396 0.265797 12.3906L7.59739 18.8313L5.4518 28.3513C5.30157 29.0179 6.02145 29.5409 6.60897 29.192L15 24.2096L23.391 29.192C23.9785 29.5409 24.6985 29.0179 24.5482 28.3513L22.4026 18.8313L29.7342 12.3906C30.2475 11.9396 29.9725 11.0934 29.2921 11.0302Z" fill="#FFC500"/>
<path d="M15.7151 1.16601C15.4449 0.538413 14.555 0.538413 14.2848 1.16601L10.4249 10.1291L0.707828 11.0302C0.0274383 11.0934 -0.247542 11.9396 0.265797 12.3906L7.59738 18.8313L5.4518 28.3513C5.30157 29.0179 6.02145 29.5409 6.60897 29.192L8.4818 28.08C8.74102 17.41 13.6986 9.89617 17.6237 5.5978L15.7151 1.16601Z" fill="#FFB616"/>
</g>
<defs>
<clipPath id="clip0_154_36070">
<rect width="30" height="30" fill="white"/>
</clipPath>
</defs>
</svg>
