<svg width="18" height="12" viewBox="0 0 18 12" fill="none" xmlns="http://www.w3.org/2000/svg">
<path d="M17.1562 4.56484C17.2969 4.56484 17.4375 4.42422 17.4375 4.28359V1.33047C17.4375 0.824219 17.0156 0.402344 16.5375 0.402344H14.0062V1.38672C14.0062 1.52734 13.8938 1.66797 13.725 1.66797C13.5844 1.66797 13.4437 1.52734 13.4437 1.38672V0.402344H1.4625C0.95625 0.402344 0.5625 0.824219 0.5625 1.33047V4.28359C0.5625 4.42422 0.703125 4.56484 0.84375 4.56484C1.63125 4.56484 2.25 5.21172 2.25 5.99922C2.25 6.78672 1.60312 7.43359 0.84375 7.43359C0.703125 7.43359 0.5625 7.57422 0.5625 7.71484V10.668C0.5625 11.1742 0.984375 11.5961 1.4625 11.5961H13.4156V10.6117C13.4156 10.443 13.5563 10.3305 13.6969 10.3305C13.8656 10.3305 13.9781 10.443 13.9781 10.6117V11.5961H16.5094C17.0156 11.5961 17.4094 11.1742 17.4094 10.668V7.71484C17.4094 7.57422 17.2688 7.43359 17.1281 7.43359C16.3406 7.43359 15.7219 6.78672 15.7219 5.99922C15.75 5.21172 16.3687 4.56484 17.1562 4.56484ZM7.84687 8.92422C6.21562 8.92422 4.92188 7.60234 4.92188 5.99922C4.92188 4.39609 6.24375 3.07422 7.84687 3.07422C9.47812 3.07422 10.7719 4.39609 10.7719 5.99922C10.7719 7.60234 9.47812 8.92422 7.84687 8.92422ZM14.0062 9.28984C14.0062 9.43047 13.8938 9.57109 13.725 9.57109C13.5844 9.57109 13.4437 9.43047 13.4437 9.28984V7.96797C13.4437 7.82734 13.5844 7.68672 13.725 7.68672C13.8938 7.68672 14.0062 7.82734 14.0062 7.96797V9.28984ZM14.0062 6.64609C14.0062 6.81484 13.8938 6.92734 13.725 6.92734C13.5844 6.92734 13.4437 6.81484 13.4437 6.64609V5.32422C13.4437 5.18359 13.5844 5.04297 13.725 5.04297C13.8938 5.04297 14.0062 5.18359 14.0062 5.32422V6.64609ZM14.0062 4.03047C14.0062 4.17109 13.8938 4.31172 13.725 4.31172C13.5844 4.31172 13.4437 4.17109 13.4437 4.03047V2.70859C13.4437 2.56797 13.5844 2.42734 13.725 2.42734C13.8938 2.42734 14.0062 2.56797 14.0062 2.70859V4.03047Z" fill="white"/>
<path d="M9.05625 4.92813L7.50938 6.475L6.66563 5.60312C6.55313 5.49062 6.38438 5.49062 6.27188 5.60312C6.15938 5.71562 6.15938 5.88437 6.27188 5.99687L7.34063 7.06562C7.39688 7.12187 7.48125 7.15 7.5375 7.15C7.62188 7.15 7.67813 7.12187 7.73438 7.06562L9.47813 5.32187C9.59063 5.20937 9.59063 5.04063 9.47813 4.92813C9.36563 4.81563 9.16875 4.81563 9.05625 4.92813Z" fill="white"/>
</svg>
