<svg width="15" height="15" viewBox="0 0 15 15" fill="none" xmlns="http://www.w3.org/2000/svg">
<g clip-path="url(#clip0_581_2841)">
<path d="M10.1733 8.82418L8.08184 7.25563V4.06045C8.08184 3.73918 7.82215 3.47949 7.50088 3.47949C7.17961 3.47949 6.91992 3.73918 6.91992 4.06045V7.54613C6.91992 7.72912 7.00591 7.90168 7.1523 8.0109L9.47607 9.75374C9.58063 9.83217 9.70266 9.86993 9.82406 9.86993C10.0013 9.86993 10.1755 9.79033 10.2894 9.63696C10.4823 9.38073 10.43 9.01648 10.1733 8.82418Z" fill="#0061FE"/>
<path d="M7.5 0C3.36425 0 0 3.36425 0 7.5C0 11.6358 3.36425 15 7.5 15C11.6358 15 15 11.6358 15 7.5C15 3.36425 11.6358 0 7.5 0ZM7.5 13.8381C4.00562 13.8381 1.16188 10.9944 1.16188 7.5C1.16188 4.00562 4.00562 1.16188 7.5 1.16188C10.995 1.16188 13.8381 4.00562 13.8381 7.5C13.8381 10.9944 10.9944 13.8381 7.5 13.8381Z" fill="#0061FE"/>
</g>
<defs>
<clipPath id="clip0_581_2841">
<rect width="15" height="15" fill="white"/>
</clipPath>
</defs>
</svg>
