<svg width="626" height="426" viewBox="0 0 626 426" fill="none" xmlns="http://www.w3.org/2000/svg">
<ellipse cx="313" cy="402" rx="313" ry="24" fill="#D4F4FF"/>
<path d="M554.484 345.245C551.867 343.601 548.869 342.569 545.795 342.254C544.375 342.108 542.824 342.15 541.685 343.01C541.443 343.192 541.208 343.463 541.262 343.76C541.301 343.979 541.487 344.138 541.664 344.274C545.199 346.971 550.547 347.311 554.484 345.245Z" fill="url(#paint0_linear_695_45498)"/>
<path d="M554.259 344.998C552.291 343.463 550.313 341.917 548.646 340.059C546.98 338.202 545.626 335.997 545.128 333.552C544.977 332.811 544.93 331.964 545.406 331.375C549.88 334.869 553.394 339.388 554.259 344.998Z" fill="url(#paint1_linear_695_45498)"/>
<path d="M554.434 345.208C554.097 342.761 553.976 340.246 554.538 337.84C555.1 335.435 556.408 333.132 558.462 331.76C559.236 333.566 558.903 335.648 558.358 337.536C557.517 340.455 556.197 343.234 554.466 345.731" fill="url(#paint2_linear_695_45498)"/>
<path d="M558.822 353.066C556.16 353.39 553.841 354.793 551.853 356.593C549.866 358.393 548.453 360.819 547.867 363.435C550.478 363.274 552.693 361.433 554.301 359.368C555.907 357.303 557.02 355.038 558.786 353.107" fill="url(#paint3_linear_695_45498)"/>
<path d="M559.776 354.327C557.632 349.046 558.409 342.681 561.761 338.07C563.277 343.465 562.72 349.559 559.776 354.327Z" fill="url(#paint4_linear_695_45498)"/>
<path d="M565.571 361.225C563.155 361.074 560.698 361.65 558.601 362.858C556.503 364.065 554.771 365.9 553.688 368.065C553.54 368.359 553.411 368.733 553.608 368.996C553.779 369.225 554.111 369.246 554.396 369.228C556.738 369.077 558.814 367.668 560.527 366.063C562.239 364.459 563.731 362.605 565.624 361.218" fill="url(#paint5_linear_695_45498)"/>
<path d="M565.385 360.85C564.139 356.862 564.062 352.517 565.165 348.487C565.6 346.896 566.331 345.221 567.803 344.475C567.929 344.411 568.075 344.354 568.207 344.404C568.332 344.451 568.405 344.579 568.462 344.699C568.985 345.793 569.138 347.035 569.084 348.246C569.03 349.457 568.779 350.65 568.528 351.836C568.065 354.031 567.818 356.389 566.614 358.282C566.329 358.731 566.077 359.216 565.849 359.698C565.621 360.179 565.62 360.348 565.411 360.73" fill="url(#paint6_linear_695_45498)"/>
<path d="M580.723 363.136C579.587 358.813 580.793 353.573 583.516 350.03C583.717 349.769 583.983 349.489 584.31 349.52C584.812 349.566 584.942 350.234 584.919 350.738C584.723 355.155 583.25 359.508 580.723 363.136Z" fill="url(#paint7_linear_695_45498)"/>
<path d="M582.109 364.08C587.361 365.447 593.386 364.118 597.753 360.898C595.165 359.586 592.114 359.212 589.285 359.859C586.456 360.506 583.87 361.774 582.109 364.08Z" fill="url(#paint8_linear_695_45498)"/>
<path d="M583.27 361.202C586.211 356.407 591.85 353.277 597.467 352.992C596.82 355.277 594.942 357.053 592.824 358.126C590.705 359.2 588.34 359.667 586.008 360.12C585.101 360.296 583.858 360.489 583.27 361.202Z" fill="url(#paint9_linear_695_45498)"/>
<path d="M581.012 347.233C581.809 344.505 582.61 341.752 582.828 338.918C583.047 336.084 582.643 333.126 581.172 330.693C578.425 336.01 578.147 342.221 580.93 347.518" fill="url(#paint10_linear_695_45498)"/>
<path d="M590.266 342.558C593.478 336.719 600.033 332.054 606.666 331.4C604.107 337.771 597.129 342.694 590.266 342.558Z" fill="url(#paint11_linear_695_45498)"/>
<path d="M588.246 343.702C593.038 344.432 597.12 347.492 601.597 349.348C602.555 349.744 603.588 350.061 604.616 349.926C605.643 349.791 606.658 349.101 606.888 348.091C607.079 347.252 606.697 346.361 606.095 345.746C605.493 345.131 604.697 344.747 603.903 344.416C599.026 342.385 593.796 342.334 588.659 343.566" fill="url(#paint12_linear_695_45498)"/>
<path d="M585.469 347.064C586.554 347.374 586.924 347.936 587.784 348.668C590.698 351.15 594.193 352.945 597.908 353.869C598.295 353.965 598.802 354.003 598.994 353.653C599.161 353.348 598.949 352.979 598.732 352.707C597.175 350.759 594.955 349.427 592.619 348.557C590.282 347.687 588.258 346.638 585.469 346.863" fill="url(#paint13_linear_695_45498)"/>
<path d="M582.34 326.77C586.236 330.407 591.724 332.274 597.03 331.768C597.271 331.745 597.534 331.707 597.699 331.528C598.068 331.126 597.624 330.505 597.194 330.169C592.875 326.802 587.644 325.406 582.34 326.77Z" fill="url(#paint14_linear_695_45498)"/>
<path d="M586.051 325.407C591.201 321.546 598.263 320.38 604.381 322.383C602.073 324.658 598.87 325.882 595.646 326.217C592.422 326.553 589.194 326.195 586.051 325.407Z" fill="url(#paint15_linear_695_45498)"/>
<path d="M584.574 316.082C584.15 311.771 584.425 308.368 584.126 304.037C584.102 303.691 584.028 303.275 583.704 303.15C583.253 302.976 582.878 303.53 582.729 303.99C581.446 307.982 582.147 312.562 584.568 315.987" fill="url(#paint16_linear_695_45498)"/>
<path d="M584.266 316.558C587.188 314.751 589.379 312.391 591.406 309.617C592.817 307.688 594.006 305.376 593.685 303.007C591.704 302.967 589.822 304.06 588.534 305.565C587.246 307.07 586.48 308.951 585.909 310.848C585.337 312.745 584.937 314.694 584.266 316.558Z" fill="url(#paint17_linear_695_45498)"/>
<path d="M591.283 314.611C597.695 312.24 603.678 308.713 608.857 304.249C606.757 303.404 604.354 303.91 602.255 304.757C597.461 306.693 593.543 309.959 591.191 314.565" fill="url(#paint18_linear_695_45498)"/>
<path d="M586.242 318.918C589.486 319.273 592.782 319.504 596 318.966C599.164 318.437 602.154 317.183 605.11 315.939C605.355 315.836 605.621 315.712 605.729 315.469C605.846 315.205 605.721 314.884 605.507 314.69C605.293 314.496 605.008 314.404 604.73 314.326C601.517 313.427 598.048 313.848 594.885 314.914C591.724 315.98 589.131 317.247 586.242 318.918Z" fill="url(#paint19_linear_695_45498)"/>
<path d="M567.716 326.913C565.502 322.445 565.646 317.232 567.558 312.627C568.904 314.678 569.068 317.289 568.822 319.73C568.576 322.171 567.833 324.682 567.785 327.135" fill="url(#paint20_linear_695_45498)"/>
<path d="M558.872 322.455C553.347 322.349 547.819 324.704 544.066 328.762C546.825 329.195 549.665 328.484 552.174 327.259C554.683 326.034 556.912 324.315 559.122 322.609" fill="url(#paint21_linear_695_45498)"/>
<path d="M552.928 320.467C550.225 320.248 547.624 319.914 545.024 320.71C542.425 321.507 540.059 323.315 539 325.818C541.529 326.103 544.093 325.469 546.41 324.419C548.728 323.368 550.835 321.914 552.928 320.467Z" fill="url(#paint22_linear_695_45498)"/>
<path d="M561.728 320.556C559.295 318.963 556.798 317.34 553.967 316.68C551.135 316.02 547.853 316.508 545.879 318.642C548.171 319.987 550.952 320.146 553.61 320.144C556.268 320.142 559.526 320.112 562.032 320.998" fill="url(#paint23_linear_695_45498)"/>
<path d="M561.75 320.688C557.592 316.605 556.017 309.271 557.689 303.689C560.957 308.655 562.421 314.781 561.75 320.688Z" fill="url(#paint24_linear_695_45498)"/>
<path d="M573.176 309.118C573.96 307.295 574.511 305.382 575.215 303.526C575.918 301.671 576.793 299.845 578.122 298.372C579.452 296.898 581.29 295.801 583.272 295.703C582.031 301.321 578.3 306.34 573.278 309.147" fill="url(#paint25_linear_695_45498)"/>
<path d="M571.107 311.528C569.809 309.742 568.31 307.318 566.55 305.985C564.79 304.652 562.499 303.845 560.352 304.356C562.536 308.261 566.663 311.013 571.107 311.528Z" fill="url(#paint26_linear_695_45498)"/>
<path d="M571.521 309.266C570.671 307.104 569.814 304.92 569.47 302.623C569.126 300.326 569.335 297.873 570.51 295.869C572.792 300.183 573.527 304.814 571.637 309.314" fill="url(#paint27_linear_695_45498)"/>
<path d="M573.199 295.872C574.492 291.595 578.408 288.447 582.636 287.001C583.169 286.819 583.734 286.667 584.291 286.753C584.847 286.839 585.393 287.22 585.51 287.771C585.664 288.499 585.064 289.151 584.498 289.634C581.206 292.449 577.336 294.586 573.199 295.872Z" fill="url(#paint28_linear_695_45498)"/>
<path d="M573.243 292.374C573.408 289.617 573.58 286.819 574.477 284.207C575.374 281.594 577.102 279.143 579.617 278C580.045 280.785 578.816 283.556 577.334 285.952C575.853 288.349 574.066 290.611 573.176 293.284" fill="url(#paint29_linear_695_45498)"/>
<path d="M573.175 294.272C572.107 291.155 571.996 287.196 570.13 284.481C568.826 282.583 566.737 281.29 565.612 279.279C564.866 281.157 565.094 283.32 565.875 285.184C566.657 287.048 567.947 288.652 569.328 290.127C570.709 291.602 571.891 292.712 573.175 294.272Z" fill="url(#paint30_linear_695_45498)"/>
<path d="M573.2 386.06C573.117 386.06 573.045 365.268 573.039 339.625C573.034 313.974 573.096 293.186 573.179 293.186C573.262 293.186 573.334 313.973 573.34 339.625C573.346 365.268 573.283 386.06 573.2 386.06Z" fill="url(#paint31_linear_695_45498)"/>
<path d="M591.369 323.781C591.375 323.801 591.096 323.904 590.587 324.074C590.025 324.264 589.302 324.508 588.435 324.8C586.621 325.418 584.129 326.313 581.425 327.421C578.747 328.57 576.221 329.503 574.783 330.749C574.064 331.364 573.652 332.029 573.448 332.514C573.242 333.002 573.205 333.301 573.178 333.296C573.167 333.295 573.171 333.22 573.187 333.078C573.21 332.938 573.246 332.728 573.339 332.472C573.515 331.959 573.915 331.248 574.642 330.59C575.365 329.931 576.371 329.338 577.523 328.8C578.676 328.262 579.954 327.701 581.31 327.143C584.024 326.031 586.534 325.165 588.369 324.598C589.286 324.312 590.034 324.101 590.553 323.962C591.072 323.827 591.363 323.761 591.369 323.781Z" fill="url(#paint32_linear_695_45498)"/>
<path d="M597.324 309.151C597.331 309.159 597.255 309.239 597.105 309.385C596.927 309.551 596.707 309.758 596.438 310.012C595.818 310.575 594.975 311.341 593.947 312.274C591.796 314.19 588.879 316.786 585.656 319.656C582.42 322.537 579.624 325.289 577.686 327.361C576.715 328.396 575.951 329.253 575.43 329.852C575.186 330.13 574.987 330.357 574.827 330.54C574.688 330.696 574.611 330.774 574.602 330.768C574.594 330.762 574.656 330.67 574.78 330.502C574.906 330.334 575.089 330.085 575.34 329.777C575.835 329.154 576.576 328.273 577.53 327.217C579.433 325.103 582.214 322.318 585.456 319.432C588.704 316.558 591.659 313.976 593.806 312.115C594.86 311.211 595.725 310.469 596.361 309.924C596.645 309.688 596.878 309.495 597.065 309.339C597.228 309.208 597.317 309.144 597.324 309.151Z" fill="url(#paint33_linear_695_45498)"/>
<path d="M582.163 322.581C582.079 322.544 582.755 320.983 583.428 319.009C584.108 317.035 584.428 315.369 584.514 315.383C584.593 315.391 584.401 317.106 583.713 319.105C583.374 320.103 583 320.981 582.706 321.603C582.412 322.227 582.2 322.598 582.163 322.581Z" fill="url(#paint34_linear_695_45498)"/>
<path d="M573.219 335.169C573.203 335.181 573.026 334.974 572.721 334.59C572.382 334.156 571.954 333.607 571.443 332.952C570.37 331.565 568.886 329.65 567.224 327.555C565.56 325.459 564.032 323.58 562.925 322.22C562.403 321.573 561.965 321.032 561.619 320.604C561.314 320.219 561.153 320 561.169 319.987C561.185 319.974 561.376 320.167 561.709 320.528C562.042 320.889 562.513 321.42 563.088 322.083C564.238 323.409 565.794 325.27 567.46 327.368C569.125 329.466 570.583 331.404 571.614 332.824C572.129 333.534 572.54 334.115 572.815 334.521C573.091 334.926 573.236 335.157 573.219 335.169Z" fill="url(#paint35_linear_695_45498)"/>
<path d="M569.232 330.053C569.183 330.105 568.12 328.844 567.563 326.928C567.152 325.578 567.134 324.343 567.184 323.778L567.317 323.789C567.258 324.03 567.214 324.157 567.19 324.153C567.167 324.149 567.165 324.015 567.185 323.767L567.318 323.778C567.367 324.338 567.451 325.531 567.851 326.843C568.389 328.699 569.313 330.002 569.232 330.053Z" fill="url(#paint36_linear_695_45498)"/>
<path d="M564.089 323.578C564.051 323.62 563.709 323.189 562.924 322.901C562.146 322.6 560.974 322.534 559.689 322.644C558.402 322.739 557.253 322.968 556.431 323.17C555.609 323.374 555.106 323.534 555.09 323.491C555.076 323.456 555.555 323.225 556.374 322.965C557.191 322.708 558.356 322.44 559.666 322.344C560.966 322.232 562.199 322.332 563.004 322.704C563.819 323.066 564.116 323.571 564.089 323.578Z" fill="url(#paint37_linear_695_45498)"/>
<path d="M562.864 322.013C562.841 322.06 562.185 321.741 561.079 321.363C559.974 320.983 558.401 320.584 556.625 320.446C554.848 320.313 553.232 320.469 552.082 320.677C550.931 320.883 550.235 321.098 550.219 321.048C550.213 321.029 550.381 320.958 550.692 320.847C551.002 320.731 551.463 320.599 552.04 320.468C553.193 320.204 554.838 320.011 556.647 320.146C558.456 320.287 560.052 320.727 561.152 321.163C561.702 321.379 562.138 321.58 562.427 321.741C562.718 321.899 562.873 321.994 562.864 322.013Z" fill="url(#paint38_linear_695_45498)"/>
<path d="M573.174 315.387C573.093 315.407 572.51 313.382 571.872 310.864C571.233 308.346 570.78 306.288 570.861 306.268C570.941 306.247 571.524 308.272 572.163 310.79C572.801 313.308 573.254 315.366 573.174 315.387Z" fill="url(#paint39_linear_695_45498)"/>
<path d="M573.263 315.385C573.174 315.414 572.799 314.061 571.821 312.677C570.868 311.264 569.652 310.555 569.697 310.485C569.712 310.454 570.048 310.577 570.516 310.908C570.986 311.235 571.566 311.788 572.066 312.504C573.082 313.945 573.336 315.38 573.263 315.385Z" fill="url(#paint40_linear_695_45498)"/>
<path d="M573.197 374.976C573.164 374.981 573.103 374.476 572.869 373.594C572.637 372.711 572.201 371.458 571.479 369.994C570.043 367.058 567.429 363.336 564.107 359.608C562.461 357.728 560.864 355.954 559.509 354.255C558.152 352.559 557.036 350.943 556.221 349.513C555.404 348.085 554.872 346.859 554.562 345.994C554.409 345.561 554.297 345.222 554.236 344.988C554.17 344.756 554.14 344.632 554.15 344.629C554.177 344.621 554.328 345.105 554.671 345.953C555.014 346.8 555.571 348.003 556.405 349.406C557.238 350.812 558.363 352.404 559.726 354.082C561.086 355.763 562.685 357.527 564.334 359.411C567.665 363.149 570.272 366.918 571.671 369.902C572.375 371.391 572.785 372.668 572.983 373.566C573.079 374.016 573.144 374.367 573.167 374.609C573.197 374.849 573.207 374.975 573.197 374.976Z" fill="url(#paint41_linear_695_45498)"/>
<path d="M589.616 356.428C589.626 356.45 589.312 356.609 588.756 356.911C588.204 357.221 587.421 357.698 586.524 358.386C585.626 359.073 584.623 359.975 583.593 361.06C582.564 362.147 581.504 363.409 580.422 364.761C578.26 367.475 576.237 369.876 575.026 371.792C574.411 372.743 573.964 373.545 573.671 374.107C573.376 374.668 573.219 374.983 573.197 374.973C573.188 374.969 573.215 374.885 573.277 374.729C573.341 374.574 573.428 374.342 573.566 374.055C573.828 373.474 574.25 372.651 574.846 371.678C576.022 369.716 578.029 367.282 580.188 364.573C581.272 363.218 582.345 361.953 583.393 360.868C584.443 359.784 585.473 358.888 586.397 358.215C587.32 357.542 588.13 357.087 588.702 356.806C588.987 356.663 589.22 356.575 589.374 356.509C589.528 356.446 589.612 356.418 589.616 356.428Z" fill="url(#paint42_linear_695_45498)"/>
<path d="M589.934 362.446C589.938 362.489 589.239 362.574 588.115 362.71C586.995 362.855 585.435 363.042 583.801 363.56C582.173 364.09 580.82 364.897 579.939 365.586C579.049 366.275 578.629 366.844 578.587 366.811C578.573 366.8 578.66 366.645 578.857 366.392C579.051 366.137 579.37 365.797 579.804 365.422C580.671 364.675 582.038 363.819 583.708 363.274C585.382 362.744 586.963 362.591 588.093 362.499C589.228 362.416 589.931 362.407 589.934 362.446Z" fill="url(#paint43_linear_695_45498)"/>
<path d="M579.117 366.149C579.022 366.095 579.842 364.843 580.477 363.159C581.074 361.46 581.213 359.969 581.321 359.986C581.36 359.991 581.358 360.364 581.29 360.962C581.219 361.559 581.076 362.388 580.76 363.262C580.442 364.134 580.025 364.862 579.705 365.37C579.381 365.877 579.151 366.169 579.117 366.149Z" fill="url(#paint44_linear_695_45498)"/>
<path d="M594.934 340.279C594.938 340.289 594.838 340.342 594.643 340.434C594.418 340.536 594.135 340.665 593.789 340.822C593.414 340.983 592.96 341.186 592.448 341.456C591.934 341.721 591.335 341.994 590.71 342.37C590.393 342.55 590.062 342.738 589.718 342.934C589.374 343.132 589.034 343.367 588.671 343.593C587.94 344.037 587.208 344.583 586.425 345.141C584.895 346.303 583.286 347.678 581.736 349.265C580.202 350.869 578.883 352.524 577.774 354.094C577.243 354.895 576.722 355.646 576.303 356.392C576.089 356.762 575.866 357.11 575.68 357.46C575.496 357.811 575.32 358.149 575.15 358.471C574.796 359.108 574.544 359.716 574.297 360.239C574.044 360.76 573.856 361.221 573.709 361.601C573.563 361.952 573.444 362.239 573.35 362.468C573.264 362.665 573.215 362.768 573.205 362.764C573.195 362.761 573.226 362.652 573.293 362.448C573.374 362.213 573.475 361.919 573.6 361.559C573.731 361.172 573.904 360.702 574.143 360.173C574.377 359.641 574.617 359.023 574.96 358.376C575.125 358.048 575.297 357.706 575.476 357.35C575.658 356.995 575.877 356.641 576.088 356.266C576.5 355.51 577.017 354.748 577.546 353.937C578.65 352.347 579.974 350.672 581.52 349.057C583.082 347.456 584.709 346.077 586.261 344.919C587.053 344.363 587.797 343.82 588.539 343.383C588.906 343.159 589.252 342.928 589.601 342.734C589.951 342.543 590.287 342.359 590.609 342.183C591.243 341.818 591.853 341.557 592.376 341.305C592.897 341.048 593.36 340.86 593.743 340.715C594.1 340.578 594.39 340.467 594.622 340.377C594.823 340.303 594.93 340.27 594.934 340.279Z" fill="url(#paint45_linear_695_45498)"/>
<path d="M581.944 348.985C581.918 348.981 582.063 348.476 582.659 347.921C583.241 347.367 584.302 346.853 585.538 346.817C586.77 346.784 587.838 347.128 588.567 347.409C589.301 347.696 589.727 347.93 589.713 347.965C589.696 348.007 589.239 347.843 588.497 347.609C587.759 347.383 586.715 347.085 585.548 347.117C584.384 347.153 583.38 347.6 582.798 348.082C582.202 348.562 581.992 349.015 581.944 348.985Z" fill="url(#paint46_linear_695_45498)"/>
<path d="M579.999 350.989C579.916 350.943 580.649 349.869 580.816 348.33C581.008 346.793 580.542 345.579 580.633 345.553C580.666 345.539 580.83 345.822 580.971 346.328C581.113 346.831 581.207 347.564 581.114 348.364C581.02 349.164 580.76 349.856 580.505 350.313C580.252 350.773 580.028 351.01 579.999 350.989Z" fill="url(#paint47_linear_695_45498)"/>
<path d="M558.84 377.955C559.288 385.901 561.682 393.982 565.365 402.152H581.381C584.894 394.063 587.123 385.994 587.519 377.955H558.84Z" fill="url(#paint48_linear_695_45498)"/>
<path d="M584.921 390.814C584.921 390.897 579.648 390.964 573.145 390.964C566.639 390.964 561.367 390.897 561.367 390.814C561.367 390.731 566.639 390.664 573.145 390.664C579.648 390.664 584.921 390.731 584.921 390.814Z" fill="#FAFAFA"/>
<path d="M584.566 393.689C584.566 393.772 579.622 393.84 573.526 393.84C567.427 393.84 562.484 393.773 562.484 393.689C562.484 393.606 567.427 393.539 573.526 393.539C579.622 393.539 584.566 393.606 584.566 393.689Z" fill="#FAFAFA"/>
<path d="M565.619 383.174C565.702 383.174 565.769 384.826 565.769 386.863C565.769 388.901 565.702 390.552 565.619 390.552C565.536 390.552 565.469 388.901 565.469 386.863C565.469 384.826 565.536 383.174 565.619 383.174Z" fill="#FAFAFA"/>
<path d="M574.205 383.174C574.288 383.174 574.355 384.884 574.355 386.994C574.355 389.104 574.288 390.814 574.205 390.814C574.122 390.814 574.055 389.104 574.055 386.994C574.054 384.884 574.122 383.174 574.205 383.174Z" fill="#FAFAFA"/>
<path d="M582.259 383.109C582.342 383.109 582.41 384.854 582.41 387.006C582.41 389.158 582.342 390.902 582.259 390.902C582.177 390.902 582.109 389.158 582.109 387.006C582.109 384.854 582.177 383.109 582.259 383.109Z" fill="#FAFAFA"/>
<path d="M587.005 383.174C587.005 383.257 580.82 383.324 573.193 383.324C565.562 383.324 559.379 383.257 559.379 383.174C559.379 383.091 565.562 383.023 573.193 383.023C580.82 383.024 587.005 383.091 587.005 383.174Z" fill="#FAFAFA"/>
<mask id="mask0_695_45498" style="mask-type:luminance" maskUnits="userSpaceOnUse" x="86" y="0" width="465" height="376">
<path d="M86.5492 239.749C84.7644 208.555 122.781 173.261 125.271 142.111C127.974 108.28 112.663 35.1235 159.802 11.967C217.752 -16.5021 248.993 14.9574 306.93 13.4717C364.868 11.986 435.233 -9.25278 477.626 12.736C525.476 37.5549 506.309 118.059 509.892 135.824C513.69 154.664 549.362 203.494 550.345 221.586C557.347 350.486 470.434 302.975 435.097 319.518C404.716 333.741 380.077 374.912 345.651 375.087C331.732 375.157 315.746 365.504 299.536 353.527C187.858 271.007 168.575 351.6 109.926 297.031C97.0998 285.095 88.1037 266.912 86.5492 239.749Z" fill="white"/>
</mask>
<g mask="url(#mask0_695_45498)">
<path d="M86.5492 239.749C84.7644 208.555 122.781 173.261 125.271 142.111C127.974 108.28 112.663 35.1235 159.802 11.967C217.752 -16.5021 248.993 14.9574 306.93 13.4717C364.868 11.986 435.233 -9.25278 477.626 12.736C525.476 37.5549 506.309 118.059 509.892 135.824C513.69 154.664 549.362 203.494 550.345 221.586C557.347 350.486 470.434 302.975 435.097 319.518C404.716 333.741 380.077 374.912 345.651 375.087C331.732 375.157 315.746 365.504 299.536 353.527C187.858 271.007 168.575 351.6 109.926 297.031C97.0998 285.095 88.1037 266.912 86.5492 239.749Z" fill="#D5F4FF"/>
</g>
<mask id="mask1_695_45498" style="mask-type:luminance" maskUnits="userSpaceOnUse" x="86" y="0" width="465" height="376">
<path d="M86.5492 239.749C84.7644 208.555 122.781 173.261 125.271 142.111C127.974 108.28 112.663 35.1235 159.802 11.967C217.752 -16.5021 248.993 14.9574 306.93 13.4717C364.868 11.986 435.233 -9.25278 477.626 12.736C525.476 37.5549 506.309 118.059 509.892 135.824C513.69 154.664 549.362 203.494 550.345 221.586C557.347 350.486 470.434 302.975 435.097 319.518C404.716 333.741 380.077 374.912 345.651 375.087C331.732 375.157 315.746 365.504 299.536 353.527C187.858 271.007 168.575 351.6 109.926 297.031C97.0998 285.095 88.1037 266.912 86.5492 239.749Z" fill="white"/>
</mask>
<g mask="url(#mask1_695_45498)">
<path d="M349.051 163.015C334.872 189.475 318.888 174.408 289.989 223.897C289.809 224.198 289.629 224.514 289.447 224.831C289.146 225.358 288.83 225.884 288.529 226.426C288.529 226.426 288.513 225.432 288.484 223.701V222.933C288.393 211.028 288.544 172.27 294.007 161.87C300.464 149.529 313.349 148.444 321.386 137.081C329.423 125.702 325.901 114.956 333.488 103.065C341.074 91.1893 353.28 52.1922 362.882 74.2427C383.699 122.015 361.333 140.121 349.051 163.015Z" fill="white"/>
<path d="M352.427 104.345C350.997 109.673 350.335 114.445 349.688 119.08C348.529 127.419 347.43 135.291 341.802 143.764C337.347 150.476 331.492 153.502 325.818 156.437C320.505 159.191 314.995 162.051 310.662 167.996C302.022 179.857 296.107 201.109 289.996 223.896C289.816 224.198 289.635 224.513 289.454 224.83C289.273 225.402 289.093 225.974 288.927 226.531L288.535 226.425L287.812 226.229C288.038 225.387 288.265 224.543 288.49 223.7C288.821 222.482 289.137 221.262 289.468 220.058C295.293 198.445 301.088 178.578 309.441 167.107C313.985 160.876 319.66 157.942 325.125 155.112C330.874 152.132 336.308 149.317 340.552 142.92C345.986 134.747 347.009 127.388 348.198 118.867C348.846 114.202 349.522 109.369 350.968 103.951L352.427 104.345Z" fill="white"/>
<path d="M290.853 220.511C290.371 221.972 289.905 223.402 289.452 224.831C289.272 225.403 289.092 225.975 288.926 226.531C276.117 267.185 272.986 296.129 271.286 339.942L269.781 339.882C271.513 294.803 274.794 265.424 288.49 222.934C288.792 221.986 289.107 221.023 289.423 220.045L289.468 220.059L290.853 220.511Z" fill="white"/>
<path d="M223.738 245.406C223.738 245.406 199.436 238.087 190.168 226.146C180.901 214.206 186.926 194.267 177.624 180.846C168.321 167.425 150.687 171.061 143.806 156.251C136.926 141.442 124.567 99.8743 148.418 92.46C172.268 85.0446 197.007 141.314 209.631 168.933C222.256 196.552 223.738 245.406 223.738 245.406Z" fill="white"/>
<path d="M224.253 245.029L223.741 245.406L223.139 245.858C223.034 245.707 222.914 245.556 222.793 245.406V245.39C222.703 245.269 222.597 245.134 222.507 245.014C219.632 241.206 216.877 238.135 214.213 235.14C209.05 229.375 204.174 223.941 200.366 214.895C197.747 208.649 197.657 201.47 197.552 193.869C197.416 184.312 197.281 174.437 192.329 164.76C183.373 147.24 171.031 138.496 153.934 126.41L154.807 125.176C172.07 137.397 184.548 146.218 193.669 164.068C198.771 174.063 198.922 184.583 199.057 193.855C199.163 201.305 199.253 208.334 201.767 214.309C205.454 223.13 210.029 228.231 215.328 234.132C217.495 236.555 219.723 239.039 222.025 241.929C222.582 242.62 223.139 243.343 223.696 244.097C223.847 244.277 223.982 244.473 224.133 244.669V244.684L224.253 245.029Z" fill="white"/>
<path d="M224.131 244.684C223.98 244.218 223.829 243.765 223.649 243.315C223.543 243.273 222.234 242.502 222.023 241.93L221.617 242.08C221.978 243.058 222.34 244.053 222.685 245.076C222.715 245.181 222.76 245.287 222.791 245.391C232.138 272.68 237.27 311.798 238.489 364.763L239.994 364.733C238.775 311.678 233.642 272.454 224.25 245.03L224.131 244.684Z" fill="white"/>
<path d="M302.111 138.196C298.695 154.061 301.855 177.661 300.004 182.493C294.901 195.964 275.951 209.21 270.729 214.07C270.458 214.326 270.218 214.567 270.022 214.777C269.765 213.949 269.525 213.136 269.284 212.339C269.284 212.309 269.268 212.278 269.268 212.249C269.133 211.796 268.998 211.361 268.877 210.939C254.473 161.631 269.042 170.179 271.225 144.833C272.324 132.25 270.623 117.666 275.394 102.162C283.732 75.0698 276.493 53.0205 294.87 41.822C300.124 38.6169 308.371 59.2516 313.007 77.0574C322.536 113.737 307.439 113.437 302.111 138.196Z" fill="white"/>
<path d="M297.882 71.895C293.096 128.774 285.299 162.112 270.865 209.539C270.579 210.518 270.278 211.496 269.978 212.474L269.3 212.262L269.271 212.248C269.135 211.796 269 211.361 268.879 210.938C283.629 162.623 291.531 129.225 296.377 71.7598L297.882 71.895Z" fill="white"/>
<path d="M269.418 209.497L264.414 334.174L265.918 334.234L270.921 209.557L269.418 209.497Z" fill="white"/>
<path d="M253.098 209.853C253.053 210.123 253.024 210.394 252.979 210.68C252.949 210.876 252.918 211.072 252.888 211.267C252.497 210.77 252.001 210.259 251.413 209.702C251.398 209.687 251.384 209.673 251.368 209.673C244.489 203.351 224.998 193.191 217.698 175.536C214.973 168.958 219.173 146.849 213.845 125.19C209.179 106.179 196.897 98.2774 196.174 79.0726C195.452 59.882 188.874 25.6552 220 21.0498C228.444 19.8002 236.692 31.1043 234.6 43.8822C233.185 52.5211 231.665 64.8932 245.075 84.0838C257.839 102.356 247.213 114.487 249.199 131.721C253.294 167.077 264.101 135.59 253.098 209.853Z" fill="white"/>
<path d="M252.981 210.681L253.011 211.223L252.891 211.268L252.198 211.568C251.942 210.966 251.687 210.363 251.415 209.777C251.4 209.732 251.385 209.702 251.37 209.672C248.526 203.184 245.74 197.752 243.031 192.483C237.478 181.676 232.691 172.36 229.32 157.91C226.46 145.657 226.685 133.211 226.926 121.169C227.106 111.387 227.273 102.13 225.767 93.7316C222.38 75.0073 218.421 65.1343 211.227 47.1933L212.627 46.6367C219.851 64.6526 223.825 74.5872 227.242 93.461C228.791 102.01 228.611 111.326 228.431 121.2C228.205 133.151 227.964 145.494 230.779 157.564C234.105 171.833 238.861 181.09 244.37 191.791C246.989 196.892 249.683 202.146 252.438 208.332C252.589 208.694 252.739 209.039 252.904 209.4C252.965 209.551 253.025 209.701 253.1 209.852C253.056 210.124 253.027 210.395 252.981 210.681Z" fill="white"/>
<path d="M260.141 339.868L258.636 339.943L251.412 209.779V209.705L251.336 208.395L252.435 208.334L252.901 209.403L252.977 210.682L253.007 211.223L260.141 339.868Z" fill="white"/>
</g>
<mask id="mask2_695_45498" style="mask-type:luminance" maskUnits="userSpaceOnUse" x="86" y="0" width="465" height="376">
<path d="M86.5492 239.749C84.7644 208.555 122.781 173.261 125.271 142.111C127.974 108.28 112.663 35.1235 159.802 11.967C217.752 -16.5021 248.993 14.9574 306.93 13.4717C364.868 11.986 435.233 -9.25278 477.626 12.736C525.476 37.5549 506.309 118.059 509.892 135.824C513.69 154.664 549.362 203.494 550.345 221.586C557.347 350.486 470.434 302.975 435.097 319.518C404.716 333.741 380.077 374.912 345.651 375.087C331.732 375.157 315.746 365.504 299.536 353.527C187.858 271.007 168.575 351.6 109.926 297.031C97.0998 285.095 88.1037 266.912 86.5492 239.749Z" fill="white"/>
</mask>
<g mask="url(#mask2_695_45498)">
<path d="M278.12 338.94H407.515C409.428 337.286 411.345 335.657 413.271 334.074V332.909H269.927V334.074C272.594 335.588 275.325 337.207 278.12 338.94ZM92.4727 213.414V269.071V270.235C93.5596 273.186 94.7771 275.967 96.111 278.583V277.419V205.771V204.607C94.8068 207.163 93.5822 209.712 92.4727 212.25V213.414ZM517.559 308.54V309.704C518.794 309.175 520.008 308.598 521.198 307.969V306.805V161.224V160.06C519.92 157.721 518.697 155.439 517.559 153.238V154.402V308.54ZM432.543 111.497V219.187H351.164V111.497H432.543ZM347.524 111.497V219.187H266.146V111.497H347.524ZM181.128 111.497H262.506V219.187H181.128V111.497ZM177.49 4.79273V105.465H125.077V106.629C125.114 108.269 125.156 109.893 125.198 111.496H177.488V219.186H96.9867V220.35V224.053V225.217H177.487V314.564V315.728C178.688 315.568 179.9 315.406 181.125 315.25V314.086V225.217H262.504V328.88V330.044C263.704 330.664 264.917 331.306 266.142 331.972V330.808V225.217H347.521V331.732V332.896H351.159V331.732V225.217H432.538V319.616V320.781C433.385 320.338 434.236 319.917 435.093 319.516C435.449 319.35 435.809 319.189 436.176 319.035V317.871V225.217H516.677V224.053V220.35V219.186H436.175V111.496H510.119C510.201 109.916 510.282 108.292 510.356 106.629V105.465H436.175V3.0436V1.8783C434.97 1.82016 433.757 1.77269 432.537 1.73828V2.90357V105.465H351.158V9.7494V8.5841C349.944 8.73006 348.731 8.87365 347.52 9.01486V10.1802V105.465H266.141V9.56785V8.40255C264.92 8.16284 263.707 7.91601 262.503 7.66563V8.83093V105.464H181.124V3.70813V2.54283C179.922 2.87865 178.709 3.2394 177.486 3.62625V4.79273H177.49Z" fill="white"/>
<path d="M96.1149 -228.494H92.4766V332.898H96.1149V-228.494Z" fill="#EFFBFF"/>
<path d="M181.13 -228.494H177.492V332.898H181.13V-228.494Z" fill="#EFFBFF"/>
<path d="M266.15 -228.494H262.512V332.898H266.15V-228.494Z" fill="#EFFBFF"/>
<path d="M351.17 -228.494H347.531V332.898H351.17V-228.494Z" fill="#EFFBFF"/>
<path d="M436.185 -228.494H432.547V332.898H436.185V-228.494Z" fill="#EFFBFF"/>
<path d="M521.201 -228.494H517.562V332.898H521.201V-228.494Z" fill="#EFFBFF"/>
<path d="M516.684 334.072H96.9922V338.939H516.684V334.072Z" fill="#EFFBFF"/>
<path d="M516.684 220.35H96.9922V225.216H516.684V220.35Z" fill="#EFFBFF"/>
<path d="M516.684 106.629H96.9922V111.495H516.684V106.629Z" fill="#EFFBFF"/>
</g>
<path d="M370.789 107.831C364.398 105.756 357.119 107.17 351.591 110.989C346.062 114.808 342.25 120.843 340.533 127.34C339.836 129.977 339.452 132.727 338.285 135.193C337.118 137.659 334.931 139.874 332.213 140.114C330.316 140.282 328.466 139.477 326.564 139.38C323.692 139.234 320.917 140.754 318.999 142.897C317.081 145.04 315.915 147.749 315.027 150.483C313.258 155.928 312.797 162.717 317.009 166.594C319.594 168.973 323.302 169.614 326.801 169.923C340.196 171.106 354.681 168.506 364.474 159.291C374.464 149.892 379.462 137.255 382.314 123.839L383.245 122.315C382.389 115.651 377.18 109.906 370.789 107.831Z" fill="black"/>
<path d="M330.105 147.366C330.097 147.37 330.055 147.294 329.982 147.144C329.899 146.964 329.796 146.743 329.67 146.47C329.405 145.873 329.026 144.988 328.601 143.821C328.185 142.652 327.71 141.201 327.384 139.459C327.061 137.724 326.893 135.677 327.236 133.458C327.576 131.26 328.453 128.832 330.288 126.879C332.102 124.98 334.911 123.547 337.956 123.894C339.479 124.054 340.877 124.77 342.234 125.454C343.59 126.133 345.007 126.862 346.535 126.866C348.067 126.913 349.496 125.998 350.44 124.734C351.422 123.467 351.929 121.88 352.194 120.237C352.472 118.591 352.556 116.915 352.854 115.274C353.147 113.628 353.696 112.058 354.412 110.61C355.87 107.723 358.089 105.351 360.674 103.868C363.266 102.385 366.166 101.834 368.796 102.042C371.436 102.236 373.82 103.17 375.616 104.522C377.431 105.871 378.602 107.614 379.337 109.223C380.069 110.849 380.336 112.386 380.392 113.629C380.442 114.88 380.267 115.843 380.124 116.48C380.044 116.798 379.959 117.033 379.91 117.193C379.857 117.352 379.826 117.432 379.818 117.429C379.733 117.418 380.324 116.107 380.19 113.64C380.105 112.42 379.813 110.921 379.073 109.344C378.33 107.784 377.167 106.103 375.397 104.818C373.644 103.528 371.327 102.643 368.766 102.473C366.213 102.289 363.409 102.841 360.914 104.284C358.421 105.728 356.277 108.034 354.867 110.84C354.176 112.248 353.645 113.77 353.363 115.367C353.073 116.966 352.99 118.638 352.706 120.325C352.436 122.003 351.901 123.698 350.85 125.049C349.849 126.399 348.245 127.434 346.533 127.378C344.832 127.363 343.363 126.577 342.008 125.899C340.648 125.206 339.311 124.523 337.897 124.371C335.048 124.027 332.344 125.371 330.598 127.178C328.83 129.031 327.951 131.375 327.597 133.517C327.238 135.68 327.376 137.69 327.668 139.409C327.962 141.133 328.405 142.583 328.79 143.755C329.184 144.926 329.532 145.822 329.765 146.43C329.872 146.711 329.958 146.938 330.029 147.123C330.088 147.281 330.114 147.363 330.105 147.366Z" fill="black"/>
<path d="M293.069 183.926C293.069 183.926 278.515 183.491 272.643 180.938C266.77 178.385 260.759 176.277 261.481 172.215C261.947 169.595 263.707 169.959 263.707 169.959C263.707 169.959 262.34 166.56 263.053 164.063C263.752 161.617 267.026 162.299 267.026 162.299C267.026 162.299 261.412 158.403 267.281 156.937C270.749 156.071 293.069 170.214 293.069 170.214V183.926Z" fill="#FFCCBB"/>
<path d="M254.438 146.479L259.243 182.96L278.493 182.948L281.562 146.479H254.438Z" fill="url(#paint49_linear_695_45498)"/>
<path d="M259.212 182.993L259.208 182.964L254.398 146.445H281.596L281.593 146.481L278.521 182.982H278.49L259.212 182.993ZM254.472 146.512L259.268 182.927L278.46 182.915L281.524 146.512H254.472Z" fill="#263238"/>
<path d="M283.389 143.602H252.484V147.625H283.389V143.602Z" fill="#FFEAD0"/>
<path d="M255.266 144.403C255.33 144.211 256.865 140.629 256.865 140.629L278.422 137.75L280.725 144.403H255.266Z" fill="#FFEAD0"/>
<path d="M283.393 143.602C283.393 143.729 276.55 143.831 268.111 143.831C259.669 143.831 252.828 143.729 252.828 143.602C252.828 143.476 259.669 143.373 268.111 143.373C276.55 143.373 283.393 143.475 283.393 143.602Z" fill="#263238"/>
<path d="M293.068 168.426L288.472 167.149C288.472 167.149 284.897 159.234 282.089 156.425C279.28 153.616 264.471 154.893 264.471 154.893C264.471 154.893 263.45 158.212 267.28 159.744C271.11 161.276 273.408 161.514 273.408 161.514C273.408 161.514 270.22 169.957 278.708 175.319C287.196 180.681 293.068 177.617 293.068 177.617V168.426Z" fill="#FFCCBB"/>
<path d="M259.038 176.247C259.038 176.247 261.2 178.128 262.861 174.526C264.522 170.924 256.489 169.209 256.489 169.209C256.489 169.209 260.123 170.923 261.655 168.081C263.188 165.24 256.733 162.939 256.733 162.939C256.733 162.939 257.848 163.703 258.855 162.007C259.863 160.311 256.342 158.425 256.342 158.425C256.342 158.425 253.522 157.258 252.692 159.469C252.316 160.472 252.662 161.607 253.44 162.343L253.581 162.476C253.581 162.476 250.009 163.584 253.386 168.127C253.386 168.127 251.773 168.971 252.482 171.634C253.193 174.298 255.952 175.475 259.038 176.247Z" fill="#FFCCBB"/>
<path d="M293.068 166.023C293.068 166.4 358.224 158.235 358.224 158.235C358.224 158.235 412.318 142.684 434.894 146.853L438.271 177.023C438.271 177.023 375.631 184.018 360.822 183.238C346.013 182.459 290.746 184.203 290.746 184.203L293.068 166.023Z" fill="url(#paint50_linear_695_45498)"/>
<path d="M299.287 178.893C299.143 178.888 299.138 175.904 299.276 172.229C299.414 168.553 299.642 165.578 299.785 165.584C299.929 165.589 299.934 168.573 299.796 172.249C299.658 175.923 299.43 178.899 299.287 178.893Z" fill="url(#paint51_linear_695_45498)"/>
<path d="M294.727 169.469C294.704 169.453 294.727 169.339 294.879 169.208C295.027 169.077 295.324 168.971 295.68 169.024C296.02 169.078 296.472 169.286 296.664 169.799C296.86 170.32 296.539 170.945 296.052 171.213C295.579 171.513 294.891 171.481 294.522 171.096C294.15 170.731 294.094 170.259 294.138 169.92C294.253 169.191 294.761 169.006 294.767 169.071C294.822 169.131 294.498 169.389 294.505 169.947C294.51 170.211 294.603 170.542 294.844 170.741C295.073 170.948 295.455 170.961 295.788 170.764C296.118 170.572 296.293 170.22 296.207 169.943C296.132 169.662 295.848 169.458 295.601 169.384C295.071 169.214 294.78 169.526 294.727 169.469Z" fill="url(#paint52_linear_695_45498)"/>
<path d="M416.096 357.34L430.914 379.809C430.914 379.809 411.652 403.077 413.962 407.508L461.229 379.081L437.753 344.24L416.096 357.34Z" fill="black"/>
<path d="M461.23 379.08L458.906 375.541L414.457 404.12C414.457 404.12 412.877 406.25 413.964 407.507L461.23 379.08Z" fill="#002D43"/>
<path d="M430.008 380.042C430.148 380.255 431.362 379.66 432.922 379.678C434.485 379.656 435.643 380.249 435.803 380.034C435.99 379.864 434.855 378.767 432.964 378.779C431.075 378.773 429.837 379.872 430.008 380.042Z" fill="white"/>
<path d="M426.226 384.959C426.301 385.202 427.526 384.972 428.869 385.422C430.227 385.834 431.03 386.712 431.254 386.564C431.492 386.468 430.877 385.096 429.195 384.567C427.518 384.023 426.105 384.748 426.226 384.959Z" fill="white"/>
<path d="M426.809 392.257C427.047 392.177 426.707 390.895 425.391 390.058C424.081 389.211 422.707 389.395 422.719 389.635C422.697 389.893 423.786 390.112 424.856 390.816C425.943 391.494 426.566 392.374 426.809 392.257Z" fill="white"/>
<path d="M427.235 374.53C427.452 374.671 428.329 373.733 429.684 373.032C431.026 372.305 432.292 372.108 432.299 371.848C432.337 371.61 430.857 371.399 429.271 372.246C427.68 373.082 427.018 374.427 427.235 374.53Z" fill="white"/>
<path d="M467.024 229.912C465.628 229.912 392.038 237.041 379.516 242.844C368.366 248.012 364.266 259.419 367.057 269.655C369.849 279.891 419.376 368.05 419.376 368.05L448.545 353.169C448.545 353.169 418.006 276.547 415.829 275.151C413.651 273.755 489.555 287.64 489.555 287.64C489.555 287.64 524.943 292.931 530.92 267.839C535.511 248.567 527.045 230.842 526.58 229.447C526.115 228.051 467.024 229.912 467.024 229.912Z" fill="url(#paint53_linear_695_45498)"/>
<path opacity="0.3" d="M426.873 300.287L389.395 314.211L396.463 327.186L431.36 311.144L426.873 300.287Z" fill="black"/>
<path d="M368.689 122.927C359.086 127.01 353.264 133.929 350.175 143.903C348.432 149.53 348.923 152.213 348.833 156.606C348.742 160.998 349.853 165.31 352.59 168.746C355.84 172.827 359.715 176.589 364.531 178.588C369.478 180.641 373.622 180.351 378.861 181.462C384.101 182.574 391.576 181.023 396.62 179.217L401.628 170.842C403.977 163.703 406.346 156.461 406.752 148.956C407.158 141.451 405.373 133.522 400.319 127.963C393.298 120.24 378.292 118.844 368.689 122.927Z" fill="black"/>
<path d="M422.511 146.402L372.355 130.981C369.816 130.335 367.204 131.742 366.344 134.218L354.353 149.605L353.554 154.306C350.605 164.548 359.821 174.898 368.081 177.384C377.258 180.145 388.57 183.154 395.777 183.672C410.268 184.713 414.801 173.399 414.801 173.399L428.357 175.851L431.628 153.972L422.511 146.402Z" fill="#FFCCBB"/>
<path d="M398.553 162.273C397.807 162.158 397.055 162.372 396.47 162.754C395.3 163.519 394.78 164.984 395.214 166.295C395.648 167.606 397.009 168.682 398.503 168.895C399.523 168.528 400.364 167.757 400.757 166.746C400.818 166.589 400.871 166.429 400.914 166.265C401.123 165.472 401.091 164.594 400.687 163.825C400.283 163.055 399.474 162.415 398.553 162.273Z" fill="#FFB5A3"/>
<path d="M381.051 170.863C380.762 171.025 381.418 172.632 380.924 174.551C380.458 176.475 379.112 177.633 379.294 177.902C379.372 178.031 379.849 177.912 380.452 177.412C381.05 176.921 381.745 176.001 382.045 174.803C382.342 173.605 382.159 172.486 381.855 171.793C381.553 171.088 381.183 170.781 381.051 170.863Z" fill="black"/>
<path d="M392.036 167.749C391.929 167.714 391.442 168.866 390.74 170.752C390.574 171.233 390.367 171.676 390.012 171.681C389.629 171.714 389.147 171.384 388.629 171.012C387.545 170.27 386.409 169.494 385.219 168.679C380.353 165.409 376.304 162.919 376.175 163.116C376.045 163.314 379.884 166.125 384.751 169.395C385.954 170.189 387.1 170.948 388.197 171.672C388.713 171.989 389.273 172.458 390.07 172.379C390.469 172.332 390.82 172.033 390.979 171.737C391.149 171.443 391.219 171.168 391.29 170.927C391.852 168.994 392.143 167.782 392.036 167.749Z" fill="black"/>
<path d="M414.777 173.416C414.777 173.416 417.577 164.149 414.152 153.521C414.152 153.521 422.674 160.771 418.103 174.464L414.777 173.416Z" fill="#FFB5A3"/>
<path d="M367.131 173.02C367.678 172.806 367.708 171.254 368.254 169.561C368.746 167.851 369.588 166.543 369.252 166.065C369.084 165.847 368.581 165.929 367.968 166.417C367.359 166.896 366.685 167.814 366.327 168.984C365.972 170.154 366.02 171.288 366.259 172.022C366.497 172.765 366.87 173.108 367.131 173.02Z" fill="black"/>
<path d="M384.992 160.244C384.765 160.003 385.869 158.665 385.97 156.686C386.099 154.71 385.159 153.203 385.413 153.001C385.526 152.901 385.946 153.157 386.372 153.814C386.797 154.461 387.185 155.547 387.115 156.779C387.042 158.012 386.533 159.024 386.037 159.595C385.537 160.179 385.093 160.362 384.992 160.244Z" fill="black"/>
<path d="M373.937 149.05C374.268 149.545 373.415 150.897 372.91 152.665C372.35 154.417 372.307 156.02 371.759 156.242C371.497 156.334 371.127 155.978 370.896 155.209C370.664 154.451 370.624 153.278 370.99 152.068C371.357 150.859 372.038 149.91 372.651 149.415C373.267 148.91 373.77 148.827 373.937 149.05Z" fill="black"/>
<path d="M394.776 140.097C393.736 139.852 391.563 138.075 391.643 137.009C391.856 134.163 393.23 129.263 400.211 130.844C409.753 133.005 405.616 142.148 405.338 142.103C405.12 142.067 398.367 140.944 394.776 140.097Z" fill="#FFCCBB"/>
<path d="M402.445 138.678C402.424 138.629 402.599 138.538 402.791 138.286C402.978 138.04 403.172 137.588 403.098 137.048C402.956 135.955 401.548 134.744 399.839 134.308C398.976 134.087 398.108 134.081 397.353 134.234C396.589 134.368 395.999 134.709 395.794 135.197C395.563 135.676 395.785 136.104 396.027 136.282C396.265 136.471 396.47 136.453 396.474 136.507C396.492 136.539 396.268 136.676 395.892 136.51C395.711 136.427 395.511 136.265 395.379 135.998C395.245 135.727 395.226 135.369 395.344 135.023C395.562 134.298 396.389 133.789 397.217 133.621C398.058 133.413 399.038 133.398 400.007 133.647C401.916 134.144 403.492 135.536 403.579 137.007C403.602 137.718 403.273 138.233 402.982 138.471C402.68 138.713 402.454 138.715 402.445 138.678Z" fill="#FFB5A3"/>
<path d="M391.779 136.633L393.554 139.738C380.707 147.156 350.19 160.073 351.986 159.379C351.986 159.379 351.145 151.481 354.681 144.207C358.217 136.934 366.279 123.534 375.234 126.391C384.189 129.249 391.779 136.633 391.779 136.633Z" fill="black"/>
<path d="M398.648 161.215C398.821 161.261 398.252 163.078 397.953 165.328C397.734 167.587 397.923 169.481 397.744 169.49C397.639 169.504 397.21 167.64 397.436 165.269C397.751 162.913 398.546 161.182 398.648 161.215Z" fill="black"/>
<path d="M388.924 153.97C388.974 153.928 389.262 154.15 389.557 154.648C389.852 155.139 390.124 155.931 390.078 156.83C390.032 157.729 389.681 158.49 389.338 158.948C388.993 159.414 388.685 159.606 388.639 159.559C388.518 159.468 389.481 158.418 389.557 156.803C389.646 155.192 388.795 154.048 388.924 153.97Z" fill="#FFB5A3"/>
<path d="M383.245 172.386C383.306 172.364 383.476 172.614 383.584 173.085C383.693 173.551 383.702 174.241 383.478 174.948C383.251 175.655 382.844 176.211 382.485 176.528C382.125 176.849 381.841 176.955 381.804 176.901C381.71 176.782 382.593 176.063 382.982 174.79C383.402 173.526 383.1 172.429 383.245 172.386Z" fill="#FFB5A3"/>
<path d="M380.568 120.472C380.586 120.641 377.363 120.36 372.435 121.651C369.986 122.294 367.133 123.368 364.273 125.115C362.853 126.002 361.429 127.036 360.05 128.227C358.688 129.437 357.37 130.793 356.151 132.291C354.931 133.789 353.87 135.36 352.962 136.939C352.038 138.51 351.283 140.104 350.71 141.676C349.52 144.809 349.065 147.829 348.898 150.357C348.733 152.893 348.8 154.958 348.824 156.383C348.836 157.049 348.846 157.593 348.854 158.026C348.856 158.402 348.849 158.601 348.831 158.602C348.813 158.603 348.785 158.406 348.749 158.031C348.713 157.657 348.667 157.104 348.621 156.391C348.534 154.966 348.41 152.897 348.53 150.335C348.651 147.782 349.074 144.706 350.259 141.51C350.83 139.907 351.588 138.282 352.52 136.684C353.436 135.078 354.508 133.484 355.747 131.962C356.985 130.44 358.326 129.065 359.714 127.841C361.119 126.636 362.573 125.593 364.023 124.704C366.943 122.952 369.854 121.897 372.344 121.293C373.586 120.964 374.74 120.818 375.745 120.653C376.758 120.557 377.632 120.474 378.346 120.441C379.015 120.439 379.56 120.439 379.994 120.438C380.37 120.444 380.568 120.454 380.568 120.472Z" fill="#455A64"/>
<path d="M424.402 143.458C424.402 143.458 462.806 134.056 487.998 156.396C513.19 178.736 529.708 221.622 530.638 238.442C530.638 238.442 519.704 243.556 492.531 243.421C480.59 243.362 472.847 238.572 462.738 232.216L457.635 229.008L461.516 211.906C461.516 211.906 442.503 211.431 431.095 189.566C419.687 167.701 421.967 174.864 421.967 174.864L424.402 143.458Z" fill="url(#paint54_linear_695_45498)"/>
<path d="M424.403 143.457L417.719 144.949L421.061 174.735L423.493 175.768L424.403 143.457Z" fill="url(#paint55_linear_695_45498)"/>
<path d="M424.428 171.342C424.392 171.34 424.376 170.958 424.379 170.268C424.387 169.465 424.395 168.492 424.406 167.351C424.431 164.889 424.428 161.49 424.296 157.738C424.162 153.985 423.925 150.593 423.726 148.14C423.635 147.003 423.557 146.033 423.493 145.232C423.442 144.545 423.431 144.162 423.466 144.158C423.502 144.153 423.581 144.528 423.694 145.209C423.809 145.89 423.946 146.879 424.092 148.104C424.385 150.554 424.681 153.954 424.816 157.72C424.948 161.485 424.892 164.897 424.773 167.362C424.714 168.595 424.647 169.591 424.58 170.278C424.517 170.965 424.464 171.344 424.428 171.342Z" fill="url(#paint56_linear_695_45498)"/>
<path d="M477.869 198.563C477.909 198.634 476.855 199.273 475.212 200.387C473.568 201.499 471.355 203.12 469.081 205.114C466.809 207.113 464.916 209.099 463.601 210.585C462.284 212.071 461.514 213.033 461.449 212.984C461.42 212.962 461.581 212.698 461.896 212.236C462.208 211.772 462.693 211.125 463.32 210.347C464.572 208.789 466.442 206.742 468.737 204.723C471.034 202.709 473.306 201.118 475.012 200.078C475.865 199.557 476.569 199.159 477.069 198.91C477.568 198.657 477.851 198.532 477.869 198.563Z" fill="url(#paint57_linear_695_45498)"/>
<path d="M480.141 211.957C480.141 212.035 479.093 212.086 477.407 212.207C475.721 212.327 473.397 212.54 470.851 212.925C468.304 213.313 466.021 213.799 464.376 214.185C462.73 214.57 461.715 214.832 461.692 214.758C461.672 214.695 462.651 214.308 464.283 213.829C465.914 213.349 468.205 212.801 470.773 212.41C473.341 212.022 475.691 211.865 477.391 211.839C479.091 211.812 480.141 211.891 480.141 211.957Z" fill="url(#paint58_linear_695_45498)"/>
<path d="M321.832 360.383L307.857 383.385C307.857 383.385 278.587 375.922 275.57 379.904L321.478 410.477L342.935 374.358L321.832 360.383Z" fill="black"/>
<path d="M321.478 410.478L323.684 406.864L278.843 378.903C278.843 378.903 276.242 378.386 275.57 379.905L321.478 410.478Z" fill="#002D43"/>
<path d="M307.261 382.669C307.128 382.887 308.185 383.73 308.836 385.148C309.524 386.552 309.484 387.852 309.746 387.905C309.98 388.001 310.486 386.507 309.667 384.802C308.865 383.09 307.342 382.442 307.261 382.669Z" fill="white"/>
<path d="M301.194 381.35C301.007 381.522 301.739 382.53 301.906 383.937C302.115 385.341 301.664 386.442 301.894 386.581C302.082 386.755 303.06 385.613 302.819 383.866C302.593 382.118 301.333 381.15 301.194 381.35Z" fill="white"/>
<path d="M294.849 384.998C295.023 385.179 296.037 384.324 296.231 382.776C296.437 381.229 295.683 380.066 295.471 380.18C295.229 380.271 295.496 381.348 295.317 382.616C295.169 383.889 294.64 384.828 294.849 384.998Z" fill="white"/>
<path d="M311.055 377.804C311.021 378.061 312.243 378.452 313.456 379.378C314.687 380.28 315.407 381.34 315.644 381.236C315.875 381.169 315.433 379.74 313.989 378.669C312.554 377.587 311.055 377.563 311.055 377.804Z" fill="white"/>
<path d="M466.024 243.422C463.232 243.422 375.854 270.97 369.071 279.304C365.569 283.606 307.438 378.197 307.438 378.197L334.423 387.968C334.423 387.968 371.945 349.497 381.882 327.482C389.435 310.748 414.452 304.683 432.598 297.704C450.744 290.725 489.829 293.516 504.718 290.26C519.607 287.003 528.973 280.029 531.269 266.068C533.562 252.105 466.024 243.422 466.024 243.422Z" fill="url(#paint59_linear_695_45498)"/>
<path d="M332.736 391.525C332.736 391.525 332.583 391.462 332.293 391.318C331.989 391.164 331.563 390.948 331.007 390.666C329.861 390.074 328.194 389.212 326.033 388.094C321.68 385.821 315.347 382.513 307.359 378.341L307.203 378.26L307.296 378.11C319.325 358.679 338.056 328.423 359.048 294.515C360.88 291.566 362.695 288.645 364.49 285.756C366.337 282.888 368.381 280.163 370.83 277.865C371.45 277.298 372.077 276.748 372.805 276.289C373.527 275.879 374.247 275.471 374.965 275.064C376.445 274.35 377.898 273.6 379.389 272.978C380.867 272.322 382.341 271.688 383.819 271.103C385.289 270.496 386.754 269.911 388.215 269.356C399.882 264.855 410.899 261.12 420.749 257.734C440.467 251.105 455.594 246.019 463.558 243.341L463.501 243.426C463.402 240.93 463.328 239.066 463.278 237.808C463.259 237.2 463.244 236.741 463.234 236.415C463.227 236.106 463.234 235.953 463.234 235.953C463.234 235.953 463.256 236.105 463.278 236.413C463.298 236.738 463.327 237.196 463.365 237.804C463.434 239.062 463.535 240.924 463.671 243.419L463.675 243.482L463.614 243.504C455.731 246.276 440.59 251.382 420.886 258.135C411.049 261.549 400.04 265.308 388.395 269.818C386.936 270.374 385.475 270.96 384.009 271.567C382.534 272.154 381.066 272.787 379.595 273.441C378.108 274.063 376.67 274.808 375.201 275.517C374.495 275.918 373.786 276.321 373.074 276.725C372.407 277.144 371.781 277.69 371.179 278.242C366.343 282.768 363.243 288.979 359.488 294.793C338.43 328.659 319.641 358.876 307.574 378.282L307.511 378.051C315.469 382.28 321.779 385.632 326.115 387.937C328.26 389.088 329.913 389.975 331.05 390.585C331.597 390.884 332.016 391.113 332.315 391.277C332.598 391.435 332.736 391.525 332.736 391.525Z" fill="url(#paint60_linear_695_45498)"/>
<path opacity="0.3" d="M463.387 298.58C463.387 298.58 467.889 259.811 467.793 249.517C467.697 239.223 457.587 217.309 457.587 217.309L451.258 298.069L463.387 298.58Z" fill="black"/>
<path d="M479.042 274.183C478.943 274.181 479.003 272.434 478.707 269.645C478.568 268.25 478.292 266.602 477.882 264.797C477.446 262.999 476.861 261.047 476.077 259.06C475.274 257.08 474.352 255.262 473.428 253.659C472.48 252.07 471.543 250.686 470.682 249.579C468.973 247.355 467.725 246.132 467.796 246.062C467.821 246.036 468.147 246.326 468.718 246.874C469.296 247.414 470.073 248.258 470.972 249.351C471.878 250.439 472.858 251.817 473.841 253.413C474.8 255.023 475.748 256.859 476.562 258.866C477.357 260.88 477.936 262.863 478.351 264.69C478.74 266.523 478.981 268.197 479.074 269.61C479.177 271.021 479.196 272.168 479.149 272.958C479.114 273.75 479.078 274.185 479.042 274.183Z" fill="url(#paint61_linear_695_45498)"/>
<path d="M441.734 410.435L445.557 410.316L470.989 298.58L464.982 298.617L441.734 410.435Z" fill="#27C8FF"/>
<path d="M440.915 299.188C441.09 300.413 440.04 327.891 440.915 331.041C441.79 334.191 447.215 342.767 448.616 343.467C450.016 344.167 456.317 346.967 457.192 345.392C458.067 343.817 458.067 343.817 458.067 343.817C458.067 343.817 459.642 345.217 460.692 343.467C461.742 341.717 460.692 340.492 460.692 340.492C460.692 340.492 463.2 338.217 461.159 336.992C459.117 335.767 457.542 336.292 457.542 336.292L452.817 332.442C452.817 332.442 455.679 322.816 454.16 318.616C452.642 314.416 452.116 310.806 452.116 310.806C452.116 310.806 455.122 296.913 454.577 297.088C454.031 297.262 440.915 299.188 440.915 299.188Z" fill="#FFCCBB"/>
<path d="M433.685 147.713C433.685 147.713 415.663 146.335 423.723 183.251C428.294 204.186 431.812 218.516 432.493 231.459C433.174 244.402 438.003 305.94 438.003 305.94L456.692 307.81C456.692 307.81 463.117 244.083 460.996 231.46C458.191 214.761 454.356 172.103 453.874 169.4C450.759 151.964 438.901 147.262 433.685 147.713Z" fill="url(#paint62_linear_695_45498)"/>
<path d="M433.685 147.713C433.685 147.713 433.982 147.689 434.562 147.668C435.142 147.672 436.009 147.743 437.12 147.981C439.308 148.498 442.552 149.777 445.719 152.756C447.283 154.245 448.836 156.11 450.158 158.393C451.453 160.688 452.532 163.355 453.346 166.321C453.658 167.823 454.093 169.365 454.228 171.008C454.403 172.636 454.584 174.315 454.77 176.044C455.127 179.503 455.505 183.16 455.902 187.002C456.702 194.685 457.579 203.108 458.638 212.146C459.164 216.665 459.739 221.338 460.419 226.14C460.706 228.555 461.249 230.939 461.435 233.466C461.639 235.97 461.667 238.509 461.638 241.075C461.602 246.211 461.362 251.468 461.063 256.837C460.773 262.207 460.386 267.687 459.973 273.268C459.13 284.429 458.114 295.986 456.95 307.833L456.925 308.092L456.666 308.066C454.601 307.86 452.376 307.637 450.14 307.413C445.973 306.996 441.841 306.582 437.977 306.196L437.76 306.174L437.744 305.958C436.045 282.865 434.436 260.998 432.978 241.187C432.594 236.237 432.301 231.403 431.904 226.74C431.431 222.078 430.706 217.585 429.912 213.263C428.291 204.624 426.468 196.651 424.887 189.368C424.094 185.728 423.305 182.269 422.721 178.962C422.124 175.659 421.758 172.509 421.605 169.556C421.286 163.664 421.936 158.471 423.703 154.674C424.572 152.778 425.742 151.293 426.938 150.229C428.154 149.179 429.389 148.561 430.418 148.206C431.456 147.858 432.288 147.747 432.844 147.707C433.4 147.671 433.685 147.713 433.685 147.713C433.685 147.713 433.399 147.705 432.846 147.759C432.295 147.815 431.472 147.942 430.45 148.302C429.435 148.669 428.223 149.294 427.035 150.341C425.866 151.402 424.724 152.875 423.879 154.756C422.16 158.521 421.54 163.678 421.884 169.542C422.05 172.481 422.428 175.616 423.035 178.907C423.628 182.199 424.429 185.654 425.234 189.293C426.838 196.571 428.682 204.539 430.324 213.188C431.129 217.515 431.865 222.017 432.348 226.697C432.756 231.389 433.056 236.211 433.447 241.162C434.92 260.969 436.546 282.831 438.263 305.919L438.03 305.681C441.893 306.067 446.026 306.481 450.193 306.897C452.428 307.121 454.654 307.343 456.719 307.55L456.434 307.783C457.599 295.942 458.619 284.386 459.47 273.232C459.886 267.654 460.278 262.177 460.573 256.812C460.876 251.448 461.123 246.195 461.165 241.074C461.197 238.515 461.173 235.982 460.975 233.511C460.802 231.049 460.255 228.611 459.974 226.206C459.301 221.396 458.734 216.719 458.217 212.197C457.176 203.153 456.321 194.727 455.544 187.041C455.16 183.198 454.794 179.54 454.449 176.08C454.27 174.352 454.096 172.673 453.927 171.045C453.8 169.417 453.375 167.891 453.072 166.395C452.277 163.448 451.22 160.798 449.949 158.516C448.652 156.246 447.125 154.389 445.586 152.902C442.468 149.927 439.264 148.628 437.099 148.082C435.999 147.83 435.141 147.742 434.563 147.721C433.982 147.724 433.685 147.713 433.685 147.713Z" fill="url(#paint63_linear_695_45498)"/>
<path d="M457.586 297.234C457.575 297.377 453.119 297.153 447.633 296.733C442.146 296.313 437.708 295.856 437.719 295.713C437.73 295.57 442.185 295.794 447.673 296.214C453.159 296.634 457.597 297.091 457.586 297.234Z" fill="#263238"/>
<path d="M452.541 302.604C452.514 302.606 452.459 302.498 452.56 302.32C452.665 302.151 452.949 302.004 453.291 302.071C453.457 302.105 453.665 302.196 453.785 302.412C453.901 302.615 453.915 302.866 453.841 303.094C453.7 303.54 453.237 303.911 452.7 303.909C452.124 303.907 451.687 303.621 451.369 303.361L451.288 303.295L451.28 303.206C451.227 302.598 451.489 302.134 451.718 301.896C451.954 301.651 452.15 301.598 452.175 301.637C452.208 301.683 452.081 301.813 451.945 302.064C451.81 302.309 451.671 302.706 451.748 303.144L451.659 302.989C451.952 303.195 452.323 303.392 452.693 303.388C453.012 303.396 453.289 303.174 453.389 302.935C453.483 302.686 453.397 302.496 453.196 302.426C452.997 302.348 452.805 302.391 452.712 302.454C452.615 302.521 452.581 302.609 452.541 302.604Z" fill="#263238"/>
<path d="M536.253 410.435L532.43 410.316L508.172 293.874L514.071 292.932L536.253 410.435Z" fill="#27C8FF"/>
<path d="M553.57 136.871C550.358 135.174 545.91 135.941 544.091 139.357C539.488 147.999 537.011 157.814 534.86 167.302C532.064 179.636 530.039 192.145 528.272 204.663C526.365 218.172 524.766 231.722 523.389 245.295C522.328 255.757 521.392 266.232 520.571 276.715C520.362 279.38 520.125 282.052 519.919 284.725C518.517 284.725 517.116 284.725 515.714 284.725C507.181 284.725 498.648 284.725 490.115 284.725C479.758 284.725 469.401 284.725 459.044 284.725C450.125 284.725 441.206 284.725 432.287 284.725C427.948 284.725 423.6 284.642 419.262 284.725C419.199 284.726 419.137 284.725 419.074 284.725C415.45 284.725 411.978 287.912 412.146 291.653C412.314 295.407 415.19 298.581 419.074 298.581C422.644 298.581 426.214 298.581 429.785 298.581C438.318 298.581 446.851 298.581 455.384 298.581C465.741 298.581 476.098 298.581 486.455 298.581C495.374 298.581 504.293 298.581 513.212 298.581C517.551 298.581 521.899 298.664 526.237 298.581C526.3 298.58 526.362 298.581 526.425 298.581C530.341 298.581 533.122 295.399 533.353 291.653C533.682 286.313 534.09 280.977 534.512 275.644C535.522 262.877 536.698 250.123 538.073 237.39C538.972 229.064 539.964 220.747 541.071 212.446C542.348 203.045 543.773 193.662 545.498 184.333C547.048 175.953 548.803 167.585 551.179 159.395C552.154 156.034 553.248 152.701 554.566 149.457C555.03 148.406 555.516 147.365 556.057 146.35C557.759 143.152 556.967 138.665 553.57 136.871Z" fill="black"/>
<path d="M244.416 182.877H316.566V179.47H244.416V182.877Z" fill="#D4F4FF"/>
<path d="M161.355 185.312H150.551V411.069H161.355V185.312Z" fill="white"/>
<path d="M161.356 411.069C161.356 411.069 161.371 410.695 161.379 409.94C161.384 409.165 161.392 408.043 161.402 406.576C161.413 403.589 161.428 399.213 161.448 393.575C161.471 382.232 161.504 365.827 161.546 345.5C161.58 304.741 161.628 248.263 161.681 185.314V184.967H161.356C157.936 184.967 154.26 184.967 150.563 184.967H150.552H150.227V185.314C150.227 292.043 150.323 382.293 150.456 411.07L150.457 411.173L150.552 411.172C154.239 411.145 156.944 411.126 158.746 411.113C159.619 411.103 160.27 411.095 160.721 411.089C161.153 411.082 161.356 411.069 161.356 411.069C161.356 411.069 161.13 411.057 160.688 411.05C160.232 411.045 159.574 411.037 158.691 411.026C156.901 411.013 154.214 410.994 150.552 410.967L150.648 411.069C150.781 382.292 150.877 292.042 150.877 185.313L150.552 185.66H150.563C154.26 185.66 157.936 185.66 161.356 185.66L161.031 185.314C161.084 248.163 161.132 304.55 161.166 345.244C161.207 365.606 161.241 382.038 161.264 393.401C161.284 399.074 161.299 403.477 161.31 406.483C161.32 407.97 161.327 409.107 161.333 409.893C161.341 410.662 161.356 411.069 161.356 411.069Z" fill="#27C8FF"/>
<path d="M378.269 186.004H367.465V410.373H378.269V186.004Z" fill="white"/>
<path d="M378.269 410.373C378.269 410.373 378.284 410.001 378.292 409.251C378.297 408.48 378.305 407.366 378.315 405.908C378.326 402.939 378.341 398.59 378.361 392.987C378.384 381.714 378.418 365.411 378.459 345.209C378.493 304.701 378.541 248.57 378.594 186.003V185.656H378.269C374.849 185.656 371.173 185.656 367.476 185.656H367.466H367.141V186.003C367.141 292.022 367.237 381.685 367.37 410.372V410.476L367.466 410.475C371.152 410.448 373.856 410.429 375.659 410.416C376.532 410.406 377.184 410.398 377.634 410.392C378.066 410.386 378.269 410.373 378.269 410.373C378.269 410.373 378.042 410.36 377.6 410.353C377.144 410.348 376.486 410.34 375.603 410.329C373.813 410.316 371.126 410.296 367.465 410.27L367.561 410.373C367.693 381.686 367.79 292.023 367.79 186.004L367.465 186.351H367.475C371.172 186.351 374.848 186.351 378.268 186.351L377.944 186.004C377.997 248.47 378.045 304.51 378.079 344.953C378.12 365.19 378.154 381.52 378.177 392.812C378.197 398.45 378.213 402.826 378.223 405.813C378.233 407.291 378.24 408.421 378.246 409.202C378.254 409.969 378.269 410.373 378.269 410.373Z" fill="#27C8FF"/>
<path d="M388.972 182.637H123V195.167H388.972V182.637Z" fill="#27C8FF"/>
<path d="M166 160.516C166.15 153.49 168.294 147.186 173.03 141.851C175.68 138.866 178.879 136.626 182.802 135.62C189.576 133.883 195.232 135.831 199.763 141.012C202.28 143.891 203.781 147.3 204.462 151.014C206.026 159.535 204.19 167.3 198.807 174.164C196.221 177.464 192.949 179.956 188.867 181.176C182.259 183.151 176.536 181.557 171.817 176.609C168.963 173.618 167.368 169.971 166.545 165.976C166.174 164.177 165.993 162.358 166 160.516ZM198.472 155.812C198.524 154.013 198.514 152.803 198.398 151.595C198.149 149.015 197.349 146.615 195.717 144.582C193.623 141.976 190.832 140.8 187.452 141.089C184.58 141.335 182.16 142.594 180.069 144.472C176.325 147.835 174.035 152.049 172.87 156.878C172.03 160.355 171.929 163.841 172.876 167.32C173.188 168.467 173.636 169.56 174.225 170.595C176.786 175.097 181.525 176.836 186.434 175.064C189.38 174.002 191.729 172.118 193.712 169.767C194.824 168.448 195.895 167.082 196.506 165.447C197.736 162.15 198.552 158.769 198.472 155.812Z" fill="black"/>
<path d="M142.174 155.729C145.134 155.724 148.004 155.703 150.873 155.579C151.661 155.544 151.594 155.679 151.815 154.832C152.87 150.804 153.859 146.759 155.023 142.759C155.406 141.443 155.828 140.139 156.35 138.871C156.519 138.459 156.694 138.039 156.934 137.665C157.677 136.51 159.5 136.208 160.599 137.021C160.934 137.268 161.006 137.6 161 137.979C160.986 138.821 160.868 139.653 160.727 140.478C159.659 146.731 158.562 152.98 157.51 159.236C156.921 162.736 156.469 166.259 155.707 169.728C155.029 172.815 154.63 175.951 154.027 179.05C153.904 179.682 153.756 180.307 153.512 180.906C153.243 181.565 152.762 181.939 152.04 181.978C150.999 182.034 149.958 181.97 148.919 181.918C148.442 181.894 148.163 181.599 148.052 181.137C147.94 180.665 147.985 180.192 148.014 179.718C148.138 177.679 148.45 175.663 148.757 173.646C149.05 171.712 149.287 169.77 149.531 167.829C149.79 165.773 150.296 163.766 150.704 161.739C150.727 161.63 150.758 161.522 150.776 161.411C150.873 160.774 150.848 160.723 150.204 160.765C146.243 161.025 142.272 160.883 138.308 161.071C136.091 161.177 133.863 161.158 131.658 160.779C130.936 160.656 130.226 160.482 129.54 160.23C127.862 159.615 126.999 158.359 127 156.569C127.001 154.798 127.344 153.07 127.673 151.34C128.628 146.315 129.682 141.312 130.879 136.339C130.97 135.959 131.073 135.579 131.209 135.213C131.542 134.315 132.05 133.954 133.004 134.005C133.761 134.045 134.517 134.148 135.268 134.256C135.815 134.334 136.039 134.664 136.033 135.37C136.026 136.211 135.892 137.043 135.724 137.864C134.654 143.094 133.788 148.361 132.84 153.613C132.735 154.196 132.751 154.782 132.718 155.368C132.693 155.829 132.929 155.965 133.32 155.957C133.826 155.947 134.332 155.922 134.837 155.894C137.311 155.758 139.788 155.781 142.174 155.729Z" fill="black"/>
<path d="M228.695 160.589C228.403 160.468 228.119 160.514 227.842 160.516C223.437 160.548 219.042 160.313 214.645 160.101C213.724 160.057 212.804 159.958 211.91 159.686C210.761 159.337 210.126 158.604 210.021 157.391C209.962 156.71 210.035 156.041 210.133 155.379C211.067 149.072 212.519 142.884 214.462 136.811C214.607 136.357 214.746 135.896 214.997 135.488C215.635 134.448 216.532 133.879 217.797 134.022C218.695 134.123 219.213 134.598 219.368 135.502C219.571 136.681 219.45 137.859 219.253 139.02C218.842 141.452 218.348 143.869 217.936 146.301C217.427 149.311 217.032 152.341 216.341 155.281C216.518 155.527 216.728 155.457 216.91 155.452C221.145 155.354 225.378 155.437 229.61 155.574C229.778 155.579 229.949 155.568 230.115 155.589C230.554 155.646 230.754 155.472 230.861 155.026C231.259 153.363 231.695 151.71 232.133 150.057C232.958 146.941 233.826 143.838 234.827 140.772C235.131 139.838 235.497 138.927 235.952 138.056C236.175 137.629 236.438 137.234 236.828 136.94C237.982 136.069 239.528 136.622 239.875 138.027C240.118 139.008 239.957 139.983 239.807 140.951C239.35 143.889 238.607 146.77 238.006 149.679C236.436 157.283 234.884 164.89 233.316 172.494C232.903 174.497 232.528 176.512 231.838 178.446C231.725 178.762 231.614 179.085 231.448 179.375C230.869 180.389 230.075 181.059 228.813 180.983C228.311 180.953 227.804 181.014 227.3 180.997C225.981 180.953 225.486 180.461 225.413 179.148C225.346 177.937 225.469 176.739 225.657 175.545C226.412 170.751 227.375 166.001 228.602 161.305C228.658 161.096 228.773 160.887 228.695 160.589Z" fill="black"/>
<path d="M73.1889 372.567C78.8343 372.444 84.4812 372.341 90.1258 372.183C91.4068 372.148 92.0195 372.342 91.3983 374.002C87.9598 383.192 84.5977 392.41 81.2087 401.619C81.1438 401.795 81.0651 401.967 81.0142 402.148C80.8676 402.674 80.5582 402.864 79.9864 402.881C77.6907 402.949 75.409 402.741 73.1241 402.606C69.6802 402.401 66.2441 402.057 62.7879 402.125C62.5996 402.129 62.4113 402.129 62.223 402.118C61.4298 402.074 61.172 401.891 60.9891 401.098C60.6936 399.815 60.4567 398.519 60.1666 397.235C58.9026 391.64 57.5661 386.06 56.4133 380.439C55.9727 378.29 55.475 376.153 55.0043 374.01C54.9641 373.826 54.914 373.64 54.907 373.454C54.8939 373.124 55.0482 372.918 55.4032 372.91C55.4973 372.908 55.5915 372.913 55.6856 372.911C61.52 372.794 67.3537 372.676 73.1882 372.559C73.1889 372.561 73.1889 372.564 73.1889 372.567Z" fill="url(#paint64_linear_695_45498)"/>
<path d="M71.3377 370.87C71.1895 370.594 71.0452 370.317 70.8924 370.044C68.9741 366.623 68.6948 363.037 69.8067 359.31C70.2203 357.924 70.7967 356.6 71.3238 355.256C72.046 353.415 72.7861 351.569 72.9581 349.577C73.1811 347.007 72.5608 344.673 70.5653 342.929C67.9039 340.603 66.1036 335.74 68.0636 331.27C68.7843 329.627 69.6925 328.087 70.5537 326.52C71.1131 325.503 71.6633 324.481 72.2089 323.456C72.3856 323.124 72.5368 322.778 72.6942 322.436C73.7923 320.051 73.8124 317.662 72.7992 315.232C72.0607 313.463 71.1926 311.758 70.3669 310.033C69.6717 308.581 69.1616 307.081 68.9186 305.48C68.6169 303.497 68.8946 301.588 69.5999 299.749C70.8438 296.503 72.5831 293.529 74.7638 290.821C75.4552 289.961 76.2593 289.212 77.2331 288.665C79.1568 287.585 81.0566 287.834 82.6871 289.312C84.2273 290.708 84.6872 292.522 84.806 294.478C84.9002 296.025 84.6926 297.548 84.3037 299.046C84.1386 299.684 83.9935 300.327 83.8237 300.963C83.2296 303.187 83.387 305.381 84.0923 307.547C84.3932 308.471 84.7582 309.374 85.0715 310.295C86.026 313.101 86.4219 315.969 85.8964 318.913C85.5669 320.758 84.8369 322.459 83.8322 324.033C83.0729 325.224 82.2449 326.37 81.4756 327.554C80.3065 329.354 79.7849 331.325 80.0596 333.47C80.2201 334.723 80.6376 335.909 81.1168 337.073C81.714 338.524 82.3252 339.968 82.7797 341.473C83.218 342.922 83.5691 344.398 83.5853 345.906C83.6169 348.865 83.0474 351.708 81.6114 354.336C80.8104 355.803 79.8613 357.164 78.7625 358.422C77.5016 359.868 76.348 361.392 75.3163 363.011C73.773 365.435 73.1294 368.114 72.945 370.943C73.283 370.997 73.3193 370.715 73.4242 370.558C74.6843 368.668 76.294 367.165 78.2895 366.069C79.3891 365.464 80.4701 364.825 81.5466 364.18C82.0304 363.89 82.5042 363.575 82.9456 363.226C84.8871 361.692 85.9064 359.699 85.9049 357.201C85.9041 355.847 85.6687 354.512 85.6201 353.164C85.4951 349.697 86.381 346.638 89.2461 344.404C89.9637 343.844 90.6845 343.286 91.3928 342.715C92.1274 342.123 92.8127 341.478 93.3953 340.731C94.5558 339.243 95.187 337.562 95.1261 335.669C95.0751 334.071 94.9432 332.474 94.8467 330.878C94.7973 330.06 94.8274 329.239 94.9594 328.436C95.187 327.041 95.7766 325.807 96.8021 324.805C97.7296 323.898 98.7629 323.141 99.9304 322.571C100.748 322.171 101.571 321.783 102.378 321.364C104.671 320.175 106.342 318.431 107.202 315.955C107.534 314.999 108.012 314.123 108.739 313.393C110.601 311.524 113.509 311.18 115.754 312.573C117.196 313.468 117.82 314.855 117.877 316.459C118.025 320.615 116.761 324.249 113.655 327.13C113.08 327.664 112.463 328.152 111.862 328.657C111.406 329.04 110.939 329.412 110.483 329.797C107.718 332.132 106.726 335.115 107.271 338.649C107.584 340.678 107.706 342.713 107.307 344.738C106.554 348.544 104.225 351.102 100.808 352.757C99.9334 353.181 99.0322 353.549 98.1347 353.924C95.623 354.972 93.8019 356.776 92.4947 359.118C91.8219 360.322 91.2377 361.575 90.6042 362.802C89.8233 364.315 88.8888 365.721 87.6982 366.951C86.1109 368.592 84.1918 369.548 81.9432 369.9C79.7695 370.24 77.6289 370.719 75.6134 371.642C74.787 372.021 73.9351 372.364 73.2591 372.997C72.8378 373.392 72.4342 373.167 72.0399 373.003C70.8184 372.498 69.5691 372.091 68.2634 371.871C67.7071 371.776 67.1476 371.698 66.5905 371.61C65.8443 371.492 65.1197 371.293 64.4145 371.023C62.8318 370.415 61.6126 369.381 60.7615 367.912C60.256 367.039 59.8671 366.116 59.543 365.163C59.3416 364.569 59.1487 363.971 58.9435 363.379C58.1587 361.112 56.5467 359.934 54.1747 359.742C53.17 359.661 52.1676 359.694 51.1629 359.726C49.9399 359.764 48.7145 359.816 47.5154 359.473C45.1711 358.804 43.5467 357.263 42.3607 355.204C41.3668 353.478 41.0497 351.559 40.8336 349.616C40.7364 348.743 40.6762 347.867 40.5134 347.001C40.1183 344.898 38.8914 343.513 36.9075 342.781C36.2909 342.553 35.6343 342.43 35.0247 342.188C29.3685 339.936 25.6221 335.97 24.1992 329.974C23.9006 328.714 23.9608 327.415 24.227 326.14C24.4646 324.998 24.8497 323.898 25.3173 322.838C27.008 319.009 30.9804 318.574 33.4366 319.651C35.2469 320.444 36.8141 321.585 38.0071 323.181C38.5696 323.934 39.0835 324.727 39.5913 325.518C40.6901 327.231 42.1478 328.426 44.1919 328.823C44.7451 328.931 45.2891 329.089 45.8347 329.235C51.0263 330.627 53.4169 335.643 52.8158 339.998C52.6615 341.117 52.4462 342.226 52.2587 343.34C52.1121 344.213 52.0866 345.096 52.1807 345.969C52.4516 348.493 53.9795 350.105 56.1231 351.227C56.7319 351.545 57.4017 351.746 58.0252 352.041C61.2515 353.566 63.2084 356.003 63.5332 359.646C63.6613 361.081 63.7385 362.521 64.0178 363.945C64.5595 366.701 66.1916 368.544 68.6686 369.715C69.5351 370.124 70.4719 370.387 71.2196 371.046C71.259 370.986 71.2983 370.928 71.3377 370.87Z" fill="#00D25B"/>
<path d="M73.1003 373.703C78.809 373.618 84.5177 373.53 90.2263 373.447C90.6021 373.442 90.9833 373.428 91.3529 373.479C92.3908 373.621 93.1671 374.486 93.2288 375.528C93.2913 376.571 92.6246 377.521 91.6153 377.795C91.0666 377.945 90.4987 377.946 89.9331 377.955C83.6287 378.05 77.3236 378.14 71.0192 378.245C66.0637 378.328 61.1081 378.432 56.1526 378.523C55.6835 378.531 55.2135 378.565 54.7467 378.458C53.5653 378.188 52.826 377.23 52.9225 376.076C53.0143 374.976 53.8739 374.105 55.0337 374.048C56.5994 373.971 58.1689 373.951 59.7369 373.925C64.1909 373.851 68.6448 373.787 73.0988 373.719C73.1011 373.714 73.1011 373.709 73.1003 373.703Z" fill="#C2EFFF"/>
<path d="M71.704 367.346C71.687 364.001 72.687 360.922 74.1624 357.97C74.6254 357.044 75.1185 356.133 75.5846 355.209C77.1024 352.2 77.7321 348.999 77.6048 345.645C77.5361 343.836 77.0075 342.128 76.367 340.45C75.8523 339.104 75.2767 337.779 74.9657 336.361C74.3669 333.634 74.5143 330.934 75.2783 328.265C76.0561 325.548 77.1503 322.94 78.0809 320.276C78.567 318.884 79.057 317.498 79.3039 316.034C79.7252 313.536 79.1434 311.17 78.4173 308.821C78.1303 307.893 77.7799 306.984 77.4828 306.059C76.418 302.746 76.2027 299.423 77.364 296.08C77.8062 294.807 78.2074 293.519 78.6395 292.242C78.9914 291.202 79.297 290.15 79.5362 289.076C79.5956 288.809 79.5455 288.298 79.966 288.373C80.4128 288.453 80.1551 288.878 80.1034 289.161C79.895 290.306 79.5624 291.416 79.1951 292.518C78.7599 293.827 78.3725 295.152 77.9204 296.456C76.891 299.423 77.0623 302.375 77.9335 305.338C78.4381 307.053 79.1049 308.712 79.5624 310.445C80.3696 313.499 80.1473 316.461 79.0778 319.411C78.0523 322.24 76.9496 325.044 76.0499 327.919C74.9032 331.58 74.938 335.2 76.4056 338.782C77.0353 340.319 77.6696 341.866 77.9628 343.511C78.6434 347.328 78.1179 351.012 76.5978 354.555C76.1409 355.62 75.5746 356.638 75.036 357.666C73.7311 360.158 72.7588 362.754 72.4278 365.571C72.194 367.561 72.4185 369.515 72.7688 371.468C72.8182 371.745 72.8584 372.024 72.8823 372.304C72.8938 372.435 72.8198 372.549 72.6824 372.586C72.5003 372.634 72.3815 372.538 72.3221 372.378C72.2681 372.232 72.2302 372.078 72.2024 371.924C71.9316 370.409 71.687 368.892 71.704 367.346Z" fill="url(#paint65_linear_695_45498)"/>
<path d="M101.875 334.985C101.825 333.245 101.708 331.648 102.15 330.073C102.909 327.367 104.566 325.278 106.634 323.474C107.579 322.649 108.578 321.886 109.541 321.079C111.291 319.613 112.73 317.886 113.862 315.901C114.427 314.911 114.876 313.884 115.037 312.746C115.066 312.542 115.024 312.241 115.355 312.295C115.621 312.339 115.652 312.609 115.613 312.829C115.535 313.259 115.448 313.692 115.318 314.11C114.797 315.783 113.856 317.229 112.812 318.61C111.571 320.251 110.024 321.581 108.414 322.844C107.003 323.95 105.668 325.13 104.595 326.589C103.151 328.553 102.364 330.706 102.447 333.165C102.492 334.482 102.522 335.802 102.488 337.119C102.374 341.462 100.807 345.121 97.3254 347.848C96.3369 348.622 95.3322 349.375 94.336 350.139C92.3529 351.66 91.001 353.587 90.3891 356.044C89.8103 358.368 88.9561 360.581 87.5278 362.551C85.4274 365.448 82.7389 367.582 79.454 368.977C77.3775 369.859 75.4893 371.006 74.027 372.767C73.9483 372.862 73.8511 372.948 73.7492 373.017C73.635 373.095 73.5139 373.079 73.4105 372.979C73.3079 372.879 73.2808 372.749 73.3534 372.639C73.4915 372.431 73.645 372.231 73.8102 372.044C75.0803 370.61 76.6313 369.564 78.3614 368.767C79.0451 368.452 79.7202 368.12 80.4024 367.801C83.1163 366.532 85.2344 364.565 86.9915 362.176C88.0255 360.77 88.7717 359.224 89.2748 357.557C89.4832 356.867 89.7038 356.179 89.8867 355.482C90.457 353.31 91.6515 351.545 93.3599 350.116C94.0336 349.553 94.7373 349.025 95.431 348.485C95.9758 348.061 96.5306 347.649 97.0723 347.222C99.777 345.087 101.211 342.245 101.725 338.883C101.932 337.54 101.874 336.192 101.875 334.985Z" fill="url(#paint66_linear_695_45498)"/>
<path d="M26.2142 321.719C26.1834 321.4 26.2489 321.198 26.4673 321.184C26.6988 321.17 26.7382 321.4 26.7806 321.586C27.2984 323.838 28.4667 325.755 29.8417 327.571C31.2554 329.439 33.0773 330.697 35.3274 331.336C36.322 331.618 37.3151 331.911 38.3183 332.163C42.1773 333.135 44.2206 335.774 44.9838 339.516C45.3341 341.234 45.4823 342.993 45.7601 344.726C46.0664 346.636 46.7331 348.423 47.7309 350.08C48.7772 351.817 50.2241 353.039 52.2288 353.549C53.0174 353.749 53.7983 353.991 54.57 354.25C57.0092 355.069 58.7917 356.658 59.9846 358.925C60.6143 360.122 61.1082 361.376 61.5843 362.639C62.0388 363.844 62.5388 365.03 63.2526 366.109C64.4679 367.945 66.1362 369.23 68.1618 370.065C69.2977 370.534 70.3973 371.064 71.3333 371.878C71.5439 372.062 71.7369 372.27 71.9128 372.487C71.9892 372.581 71.9791 372.725 71.885 372.832C71.7862 372.946 71.6574 372.929 71.5416 372.884C71.4575 372.852 71.3788 372.788 71.314 372.723C70.2692 371.676 68.9489 371.091 67.6201 370.519C64.9988 369.391 63.0859 367.527 61.8729 364.95C61.5526 364.269 61.2725 363.569 60.994 362.871C60.5402 361.735 60.0973 360.597 59.5556 359.497C58.3341 357.014 56.398 355.405 53.7451 354.646C53.1725 354.482 52.6031 354.307 52.0259 354.159C49.7927 353.585 48.2108 352.191 47.0734 350.239C45.9692 348.344 45.3056 346.297 45.0077 344.128C44.8194 342.76 44.6412 341.392 44.4413 340.027C44.314 339.154 44.0493 338.318 43.7044 337.505C42.7422 335.237 41.1425 333.665 38.7458 332.97C37.6624 332.655 36.5775 332.342 35.4863 332.056C32.7617 331.341 30.6165 329.82 28.9976 327.517C27.9443 326.019 27.0275 324.458 26.4719 322.705C26.3585 322.348 26.2814 321.978 26.2142 321.719Z" fill="url(#paint67_linear_695_45498)"/>
<defs>
<linearGradient id="paint0_linear_695_45498" x1="547.869" y1="342.189" x2="547.869" y2="346.58" gradientUnits="userSpaceOnUse">
<stop stop-color="#ADEAFF"/>
<stop offset="1" stop-color="#DCF6FF"/>
</linearGradient>
<linearGradient id="paint1_linear_695_45498" x1="549.641" y1="331.375" x2="549.641" y2="344.998" gradientUnits="userSpaceOnUse">
<stop stop-color="#ADEAFF"/>
<stop offset="1" stop-color="#DCF6FF"/>
</linearGradient>
<linearGradient id="paint2_linear_695_45498" x1="556.533" y1="331.76" x2="556.533" y2="345.731" gradientUnits="userSpaceOnUse">
<stop stop-color="#ADEAFF"/>
<stop offset="1" stop-color="#DCF6FF"/>
</linearGradient>
<linearGradient id="paint3_linear_695_45498" x1="553.345" y1="353.066" x2="553.345" y2="363.435" gradientUnits="userSpaceOnUse">
<stop stop-color="#ADEAFF"/>
<stop offset="1" stop-color="#DCF6FF"/>
</linearGradient>
<linearGradient id="paint4_linear_695_45498" x1="560.578" y1="338.07" x2="560.578" y2="354.327" gradientUnits="userSpaceOnUse">
<stop stop-color="#ADEAFF"/>
<stop offset="1" stop-color="#DCF6FF"/>
</linearGradient>
<linearGradient id="paint5_linear_695_45498" x1="559.566" y1="361.201" x2="559.566" y2="369.233" gradientUnits="userSpaceOnUse">
<stop stop-color="#ADEAFF"/>
<stop offset="1" stop-color="#DCF6FF"/>
</linearGradient>
<linearGradient id="paint6_linear_695_45498" x1="566.742" y1="344.385" x2="566.742" y2="360.85" gradientUnits="userSpaceOnUse">
<stop stop-color="#ADEAFF"/>
<stop offset="1" stop-color="#DCF6FF"/>
</linearGradient>
<linearGradient id="paint7_linear_695_45498" x1="582.609" y1="349.518" x2="582.609" y2="363.136" gradientUnits="userSpaceOnUse">
<stop stop-color="#ADEAFF"/>
<stop offset="1" stop-color="#DCF6FF"/>
</linearGradient>
<linearGradient id="paint8_linear_695_45498" x1="589.931" y1="359.549" x2="589.931" y2="364.614" gradientUnits="userSpaceOnUse">
<stop stop-color="#ADEAFF"/>
<stop offset="1" stop-color="#DCF6FF"/>
</linearGradient>
<linearGradient id="paint9_linear_695_45498" x1="590.368" y1="352.992" x2="590.368" y2="361.202" gradientUnits="userSpaceOnUse">
<stop stop-color="#ADEAFF"/>
<stop offset="1" stop-color="#DCF6FF"/>
</linearGradient>
<linearGradient id="paint10_linear_695_45498" x1="580.928" y1="330.693" x2="580.928" y2="347.518" gradientUnits="userSpaceOnUse">
<stop stop-color="#ADEAFF"/>
<stop offset="1" stop-color="#DCF6FF"/>
</linearGradient>
<linearGradient id="paint11_linear_695_45498" x1="598.466" y1="331.4" x2="598.466" y2="342.56" gradientUnits="userSpaceOnUse">
<stop stop-color="#ADEAFF"/>
<stop offset="1" stop-color="#DCF6FF"/>
</linearGradient>
<linearGradient id="paint12_linear_695_45498" x1="597.592" y1="342.744" x2="597.592" y2="349.957" gradientUnits="userSpaceOnUse">
<stop stop-color="#ADEAFF"/>
<stop offset="1" stop-color="#DCF6FF"/>
</linearGradient>
<linearGradient id="paint13_linear_695_45498" x1="592.261" y1="346.832" x2="592.261" y2="353.935" gradientUnits="userSpaceOnUse">
<stop stop-color="#ADEAFF"/>
<stop offset="1" stop-color="#DCF6FF"/>
</linearGradient>
<linearGradient id="paint14_linear_695_45498" x1="590.088" y1="326.252" x2="590.088" y2="331.85" gradientUnits="userSpaceOnUse">
<stop stop-color="#ADEAFF"/>
<stop offset="1" stop-color="#DCF6FF"/>
</linearGradient>
<linearGradient id="paint15_linear_695_45498" x1="595.216" y1="321.418" x2="595.216" y2="326.343" gradientUnits="userSpaceOnUse">
<stop stop-color="#ADEAFF"/>
<stop offset="1" stop-color="#DCF6FF"/>
</linearGradient>
<linearGradient id="paint16_linear_695_45498" x1="583.336" y1="303.117" x2="583.336" y2="316.082" gradientUnits="userSpaceOnUse">
<stop stop-color="#ADEAFF"/>
<stop offset="1" stop-color="#DCF6FF"/>
</linearGradient>
<linearGradient id="paint17_linear_695_45498" x1="589.002" y1="303.006" x2="589.002" y2="316.558" gradientUnits="userSpaceOnUse">
<stop stop-color="#ADEAFF"/>
<stop offset="1" stop-color="#DCF6FF"/>
</linearGradient>
<linearGradient id="paint18_linear_695_45498" x1="600.024" y1="303.814" x2="600.024" y2="314.611" gradientUnits="userSpaceOnUse">
<stop stop-color="#ADEAFF"/>
<stop offset="1" stop-color="#DCF6FF"/>
</linearGradient>
<linearGradient id="paint19_linear_695_45498" x1="596.008" y1="313.836" x2="596.008" y2="319.285" gradientUnits="userSpaceOnUse">
<stop stop-color="#ADEAFF"/>
<stop offset="1" stop-color="#DCF6FF"/>
</linearGradient>
<linearGradient id="paint20_linear_695_45498" x1="567.504" y1="312.627" x2="567.504" y2="327.135" gradientUnits="userSpaceOnUse">
<stop stop-color="#ADEAFF"/>
<stop offset="1" stop-color="#DCF6FF"/>
</linearGradient>
<linearGradient id="paint21_linear_695_45498" x1="551.594" y1="322.451" x2="551.594" y2="328.89" gradientUnits="userSpaceOnUse">
<stop stop-color="#ADEAFF"/>
<stop offset="1" stop-color="#DCF6FF"/>
</linearGradient>
<linearGradient id="paint22_linear_695_45498" x1="545.964" y1="320.207" x2="545.964" y2="325.886" gradientUnits="userSpaceOnUse">
<stop stop-color="#ADEAFF"/>
<stop offset="1" stop-color="#DCF6FF"/>
</linearGradient>
<linearGradient id="paint23_linear_695_45498" x1="553.955" y1="316.406" x2="553.955" y2="320.998" gradientUnits="userSpaceOnUse">
<stop stop-color="#ADEAFF"/>
<stop offset="1" stop-color="#DCF6FF"/>
</linearGradient>
<linearGradient id="paint24_linear_695_45498" x1="559.47" y1="303.689" x2="559.47" y2="320.688" gradientUnits="userSpaceOnUse">
<stop stop-color="#ADEAFF"/>
<stop offset="1" stop-color="#DCF6FF"/>
</linearGradient>
<linearGradient id="paint25_linear_695_45498" x1="578.224" y1="295.703" x2="578.224" y2="309.147" gradientUnits="userSpaceOnUse">
<stop stop-color="#ADEAFF"/>
<stop offset="1" stop-color="#DCF6FF"/>
</linearGradient>
<linearGradient id="paint26_linear_695_45498" x1="565.729" y1="304.201" x2="565.729" y2="311.528" gradientUnits="userSpaceOnUse">
<stop stop-color="#ADEAFF"/>
<stop offset="1" stop-color="#DCF6FF"/>
</linearGradient>
<linearGradient id="paint27_linear_695_45498" x1="571.017" y1="295.869" x2="571.017" y2="309.314" gradientUnits="userSpaceOnUse">
<stop stop-color="#ADEAFF"/>
<stop offset="1" stop-color="#DCF6FF"/>
</linearGradient>
<linearGradient id="paint28_linear_695_45498" x1="579.367" y1="286.729" x2="579.367" y2="295.872" gradientUnits="userSpaceOnUse">
<stop stop-color="#ADEAFF"/>
<stop offset="1" stop-color="#DCF6FF"/>
</linearGradient>
<linearGradient id="paint29_linear_695_45498" x1="576.439" y1="278" x2="576.439" y2="293.284" gradientUnits="userSpaceOnUse">
<stop stop-color="#ADEAFF"/>
<stop offset="1" stop-color="#DCF6FF"/>
</linearGradient>
<linearGradient id="paint30_linear_695_45498" x1="569.166" y1="279.279" x2="569.166" y2="294.272" gradientUnits="userSpaceOnUse">
<stop stop-color="#ADEAFF"/>
<stop offset="1" stop-color="#DCF6FF"/>
</linearGradient>
<linearGradient id="paint31_linear_695_45498" x1="573.19" y1="293.186" x2="573.19" y2="386.06" gradientUnits="userSpaceOnUse">
<stop stop-color="#ADEAFF"/>
<stop offset="1" stop-color="#DCF6FF"/>
</linearGradient>
<linearGradient id="paint32_linear_695_45498" x1="582.27" y1="323.777" x2="582.27" y2="333.296" gradientUnits="userSpaceOnUse">
<stop stop-color="#ADEAFF"/>
<stop offset="1" stop-color="#DCF6FF"/>
</linearGradient>
<linearGradient id="paint33_linear_695_45498" x1="585.963" y1="309.15" x2="585.963" y2="330.768" gradientUnits="userSpaceOnUse">
<stop stop-color="#ADEAFF"/>
<stop offset="1" stop-color="#DCF6FF"/>
</linearGradient>
<linearGradient id="paint34_linear_695_45498" x1="583.343" y1="315.383" x2="583.343" y2="322.582" gradientUnits="userSpaceOnUse">
<stop stop-color="#ADEAFF"/>
<stop offset="1" stop-color="#DCF6FF"/>
</linearGradient>
<linearGradient id="paint35_linear_695_45498" x1="567.194" y1="319.986" x2="567.194" y2="335.17" gradientUnits="userSpaceOnUse">
<stop stop-color="#ADEAFF"/>
<stop offset="1" stop-color="#DCF6FF"/>
</linearGradient>
<linearGradient id="paint36_linear_695_45498" x1="568.2" y1="323.767" x2="568.2" y2="330.054" gradientUnits="userSpaceOnUse">
<stop stop-color="#ADEAFF"/>
<stop offset="1" stop-color="#DCF6FF"/>
</linearGradient>
<linearGradient id="paint37_linear_695_45498" x1="559.59" y1="322.301" x2="559.59" y2="323.581" gradientUnits="userSpaceOnUse">
<stop stop-color="#ADEAFF"/>
<stop offset="1" stop-color="#DCF6FF"/>
</linearGradient>
<linearGradient id="paint38_linear_695_45498" x1="556.542" y1="320.102" x2="556.542" y2="322.018" gradientUnits="userSpaceOnUse">
<stop stop-color="#ADEAFF"/>
<stop offset="1" stop-color="#DCF6FF"/>
</linearGradient>
<linearGradient id="paint39_linear_695_45498" x1="572.017" y1="306.268" x2="572.017" y2="315.387" gradientUnits="userSpaceOnUse">
<stop stop-color="#ADEAFF"/>
<stop offset="1" stop-color="#DCF6FF"/>
</linearGradient>
<linearGradient id="paint40_linear_695_45498" x1="571.485" y1="310.48" x2="571.485" y2="315.385" gradientUnits="userSpaceOnUse">
<stop stop-color="#ADEAFF"/>
<stop offset="1" stop-color="#DCF6FF"/>
</linearGradient>
<linearGradient id="paint41_linear_695_45498" x1="563.674" y1="344.629" x2="563.674" y2="374.976" gradientUnits="userSpaceOnUse">
<stop stop-color="#ADEAFF"/>
<stop offset="1" stop-color="#DCF6FF"/>
</linearGradient>
<linearGradient id="paint42_linear_695_45498" x1="581.406" y1="356.426" x2="581.406" y2="374.973" gradientUnits="userSpaceOnUse">
<stop stop-color="#ADEAFF"/>
<stop offset="1" stop-color="#DCF6FF"/>
</linearGradient>
<linearGradient id="paint43_linear_695_45498" x1="584.26" y1="362.424" x2="584.26" y2="366.812" gradientUnits="userSpaceOnUse">
<stop stop-color="#ADEAFF"/>
<stop offset="1" stop-color="#DCF6FF"/>
</linearGradient>
<linearGradient id="paint44_linear_695_45498" x1="580.228" y1="359.986" x2="580.228" y2="366.15" gradientUnits="userSpaceOnUse">
<stop stop-color="#ADEAFF"/>
<stop offset="1" stop-color="#DCF6FF"/>
</linearGradient>
<linearGradient id="paint45_linear_695_45498" x1="584.069" y1="340.277" x2="584.069" y2="362.764" gradientUnits="userSpaceOnUse">
<stop stop-color="#ADEAFF"/>
<stop offset="1" stop-color="#DCF6FF"/>
</linearGradient>
<linearGradient id="paint46_linear_695_45498" x1="585.827" y1="346.814" x2="585.827" y2="348.987" gradientUnits="userSpaceOnUse">
<stop stop-color="#ADEAFF"/>
<stop offset="1" stop-color="#DCF6FF"/>
</linearGradient>
<linearGradient id="paint47_linear_695_45498" x1="580.572" y1="345.553" x2="580.572" y2="350.99" gradientUnits="userSpaceOnUse">
<stop stop-color="#ADEAFF"/>
<stop offset="1" stop-color="#DCF6FF"/>
</linearGradient>
<linearGradient id="paint48_linear_695_45498" x1="573.179" y1="377.955" x2="573.179" y2="402.152" gradientUnits="userSpaceOnUse">
<stop stop-color="#ADEAFF"/>
<stop offset="1" stop-color="white"/>
</linearGradient>
<linearGradient id="paint49_linear_695_45498" x1="268" y1="146.479" x2="268" y2="182.96" gradientUnits="userSpaceOnUse">
<stop stop-color="#FF9511"/>
<stop offset="1" stop-color="#FFCC8D"/>
</linearGradient>
<linearGradient id="paint50_linear_695_45498" x1="364.509" y1="146.143" x2="364.509" y2="184.203" gradientUnits="userSpaceOnUse">
<stop stop-color="#F57CFF"/>
<stop offset="1" stop-color="#B02EFF"/>
</linearGradient>
<linearGradient id="paint51_linear_695_45498" x1="299.536" y1="165.584" x2="299.536" y2="178.893" gradientUnits="userSpaceOnUse">
<stop stop-color="#FBE1FF"/>
<stop offset="1" stop-color="#DF8EFF"/>
</linearGradient>
<linearGradient id="paint52_linear_695_45498" x1="295.424" y1="169.01" x2="295.424" y2="171.414" gradientUnits="userSpaceOnUse">
<stop stop-color="#FBE1FF"/>
<stop offset="1" stop-color="#DF8EFF"/>
</linearGradient>
<linearGradient id="paint53_linear_695_45498" x1="449.246" y1="228.928" x2="449.246" y2="368.05" gradientUnits="userSpaceOnUse">
<stop stop-color="#011926"/>
<stop offset="1" stop-color="#013753"/>
</linearGradient>
<linearGradient id="paint54_linear_695_45498" x1="476.21" y1="141.494" x2="476.21" y2="243.424" gradientUnits="userSpaceOnUse">
<stop stop-color="#F57CFF"/>
<stop offset="1" stop-color="#B02EFF"/>
</linearGradient>
<linearGradient id="paint55_linear_695_45498" x1="421.061" y1="143.457" x2="421.061" y2="175.768" gradientUnits="userSpaceOnUse">
<stop stop-color="#F57CFF"/>
<stop offset="1" stop-color="#B02EFF"/>
</linearGradient>
<linearGradient id="paint56_linear_695_45498" x1="424.169" y1="144.158" x2="424.169" y2="171.342" gradientUnits="userSpaceOnUse">
<stop stop-color="#FBE1FF"/>
<stop offset="1" stop-color="#DF8EFF"/>
</linearGradient>
<linearGradient id="paint57_linear_695_45498" x1="469.658" y1="198.559" x2="469.658" y2="212.986" gradientUnits="userSpaceOnUse">
<stop stop-color="#FBE1FF"/>
<stop offset="1" stop-color="#DF8EFF"/>
</linearGradient>
<linearGradient id="paint58_linear_695_45498" x1="470.916" y1="211.834" x2="470.916" y2="214.771" gradientUnits="userSpaceOnUse">
<stop stop-color="#FBE1FF"/>
<stop offset="1" stop-color="#DF8EFF"/>
</linearGradient>
<linearGradient id="paint59_linear_695_45498" x1="419.382" y1="243.422" x2="419.382" y2="387.968" gradientUnits="userSpaceOnUse">
<stop stop-color="#001723"/>
<stop offset="1" stop-color="#003956"/>
</linearGradient>
<linearGradient id="paint60_linear_695_45498" x1="385.439" y1="235.953" x2="385.439" y2="391.525" gradientUnits="userSpaceOnUse">
<stop stop-color="white" stop-opacity="0"/>
<stop offset="1" stop-color="white" stop-opacity="0.5"/>
</linearGradient>
<linearGradient id="paint61_linear_695_45498" x1="473.483" y1="246.061" x2="473.483" y2="274.183" gradientUnits="userSpaceOnUse">
<stop stop-color="white" stop-opacity="0"/>
<stop offset="1" stop-color="white" stop-opacity="0.5"/>
</linearGradient>
<linearGradient id="paint62_linear_695_45498" x1="441.537" y1="147.684" x2="441.537" y2="307.81" gradientUnits="userSpaceOnUse">
<stop stop-color="#F57CFF"/>
<stop offset="1" stop-color="#B02EFF"/>
</linearGradient>
<linearGradient id="paint63_linear_695_45498" x1="441.588" y1="147.668" x2="441.588" y2="308.092" gradientUnits="userSpaceOnUse">
<stop stop-color="#FBE1FF"/>
<stop offset="1" stop-color="#DF8EFF"/>
</linearGradient>
<linearGradient id="paint64_linear_695_45498" x1="73.2745" y1="372.18" x2="73.2745" y2="402.894" gradientUnits="userSpaceOnUse">
<stop stop-color="white"/>
<stop offset="1" stop-color="#61D7FF"/>
</linearGradient>
<linearGradient id="paint65_linear_695_45498" x1="75.9636" y1="288.365" x2="75.9636" y2="372.598" gradientUnits="userSpaceOnUse">
<stop stop-color="white" stop-opacity="0"/>
<stop offset="1" stop-color="white"/>
</linearGradient>
<linearGradient id="paint66_linear_695_45498" x1="94.4696" y1="312.289" x2="94.4696" y2="373.066" gradientUnits="userSpaceOnUse">
<stop stop-color="white" stop-opacity="0"/>
<stop offset="1" stop-color="white"/>
</linearGradient>
<linearGradient id="paint67_linear_695_45498" x1="49.0853" y1="321.184" x2="49.0853" y2="372.918" gradientUnits="userSpaceOnUse">
<stop stop-color="white" stop-opacity="0"/>
<stop offset="1" stop-color="white"/>
</linearGradient>
</defs>
</svg>
