<svg width="1920" height="321" viewBox="0 0 1920 321" fill="none" xmlns="http://www.w3.org/2000/svg">
<g clip-path="url(#clip0_170_13208)">
<rect width="1920" height="321" fill="url(#paint0_linear_170_13208)"/>
<rect x="330.636" y="-105.176" width="100" height="400" transform="rotate(4.24902 330.636 -105.176)" fill="url(#paint1_linear_170_13208)"/>
<rect x="-28.3457" y="7.93164" width="100" height="400" transform="rotate(-8.00418 -28.3457 7.93164)" fill="url(#paint2_linear_170_13208)"/>
<rect x="108.049" y="-0.556641" width="100" height="421.064" transform="rotate(-17.0316 108.049 -0.556641)" fill="url(#paint3_linear_170_13208)"/>
<rect x="1757.18" y="476.189" width="100" height="400" transform="rotate(163.585 1757.18 476.189)" fill="url(#paint4_linear_170_13208)"/>
<rect x="2053.15" y="243.678" width="100" height="400" transform="rotate(151.332 2053.15 243.678)" fill="url(#paint5_linear_170_13208)"/>
<rect x="1928.53" y="299.752" width="100" height="421.064" transform="rotate(142.304 1928.53 299.752)" fill="url(#paint6_linear_170_13208)"/>
<g clip-path="url(#clip1_170_13208)">
<path d="M1618.35 264.819V293.06C1618.35 297.998 1613.93 302.002 1608.49 302.002H1281.85C1276.4 302.002 1271.99 297.998 1271.99 293.06V264.819C1271.99 259.88 1276.4 255.877 1281.85 255.877H1608.49C1613.93 255.877 1618.35 259.88 1618.35 264.819Z" fill="#E0F5FF"/>
<path d="M1618.44 264.819V293.06C1618.44 297.998 1614.45 302.002 1609.52 302.002H1568.04V255.877H1609.52C1614.45 255.877 1618.44 259.88 1618.44 264.819Z" fill="url(#paint7_linear_170_13208)"/>
<path d="M1590.87 287.201C1584.79 287.201 1579.84 282.239 1579.84 276.14C1579.84 270.04 1584.79 265.078 1590.87 265.078C1596.95 265.078 1601.9 270.04 1601.9 276.14C1601.9 282.239 1596.95 287.201 1590.87 287.201ZM1590.87 267.179C1585.94 267.179 1581.94 271.199 1581.94 276.14C1581.94 281.081 1585.94 285.101 1590.87 285.101C1595.79 285.101 1599.8 281.081 1599.8 276.14C1599.8 271.199 1595.79 267.179 1590.87 267.179Z" fill="white"/>
<path d="M1598.15 282.957L1596.67 284.442L1604.79 292.582L1606.27 291.097L1598.15 282.957Z" fill="white"/>
<mask id="mask0_170_13208" style="mask-type:luminance" maskUnits="userSpaceOnUse" x="1171" y="40" width="347" height="262">
<path d="M1517.57 40H1171V302H1517.57V40Z" fill="white"/>
</mask>
<g mask="url(#mask0_170_13208)">
<path d="M1503.66 267.188C1503.41 268.662 1503.16 270.18 1503.48 271.639C1503.97 273.885 1505.72 275.605 1507.39 277.185C1507.78 277.552 1508.28 277.949 1508.79 277.78C1509.19 277.646 1509.4 277.186 1509.41 276.762C1509.41 276.338 1509.24 275.933 1509.11 275.53C1508.73 274.403 1508.58 273.167 1508.91 272.027C1509.32 271.847 1509.81 271.998 1510.14 272.291C1510.48 272.583 1510.68 272.993 1510.86 273.4C1512.21 276.463 1512.55 279.891 1513.84 282.983C1514.07 283.535 1514.51 284.174 1515.09 284.03C1515.5 283.929 1515.71 283.483 1515.84 283.083C1516.49 281.086 1516.64 278.964 1516.79 276.867C1516.89 275.563 1516.98 274.258 1517.07 272.952C1517.14 272.023 1517.21 271.081 1517.05 270.163C1516.83 268.847 1516.17 267.654 1515.51 266.495C1514.27 264.326 1513.01 262.173 1511.72 260.037C1511.13 259.073 1510.4 258.011 1509.28 257.886C1508.94 257.847 1508.61 257.902 1508.27 257.964C1507.73 258.068 1507.19 258.195 1506.66 258.346C1506.08 258.509 1505.59 258.776 1505.21 259.239C1504.91 259.6 1504.88 260.039 1504.8 260.49C1504.56 261.923 1504.31 263.358 1504.07 264.793C1503.93 265.591 1503.79 266.389 1503.66 267.188Z" fill="#FFB27F"/>
<path d="M1372.3 108.468C1372.36 107.636 1372.45 106.732 1372.92 106.094C1373.61 105.16 1374.77 105.216 1375.75 105.351C1377.72 105.623 1379.68 105.895 1381.64 106.167C1382.4 106.272 1383.17 106.381 1383.86 106.74C1384.55 107.1 1385.16 107.751 1385.36 108.637C1385.67 109.973 1385.01 111.403 1384.38 112.635C1383.8 113.776 1383.21 114.917 1382.63 116.058C1382.35 116.592 1382.07 117.141 1381.65 117.512C1381.04 118.056 1380.25 118.126 1379.52 118.111C1377.62 118.071 1375.76 117.59 1374.05 116.713C1373.62 116.493 1373.2 116.247 1372.79 115.977C1372.51 115.795 1372.17 115.611 1371.99 115.28C1371.86 115.033 1371.86 114.729 1371.87 114.434C1371.9 113.875 1371.95 113.314 1371.99 112.756C1372.1 111.326 1372.2 109.897 1372.3 108.468Z" fill="#FFB27F"/>
<path d="M1468.01 263.214L1464.71 340.869L1485.18 422.499L1463.76 429.597L1435.26 343.56L1431.49 296.885L1417.26 355.513L1408.84 424.12L1386.59 420.567L1394.12 341.119L1404.96 257.262L1468.01 263.214Z" fill="#23324C"/>
<path d="M1440.65 123.736C1440.65 123.736 1438.82 131.814 1444.2 139.258L1442.25 146.354L1430.16 150.183L1424.94 146.882C1424.94 146.882 1426.64 139.946 1424.73 134.602C1422.81 129.26 1440.65 123.736 1440.65 123.736Z" fill="#FFB27F"/>
<path d="M1414.24 118.96C1414.04 121.742 1413.98 124.586 1414.74 127.271C1415.49 129.956 1417.16 132.494 1419.66 133.723C1421.4 134.58 1423.41 134.746 1425.34 134.557C1430.41 134.061 1435.09 131.168 1438.28 127.182C1441.47 123.196 1443.25 118.194 1443.88 113.122C1444.31 109.692 1444.21 106.042 1442.55 103.008C1440.8 99.794 1437.5 97.6592 1434.01 96.5716C1430.53 95.4841 1426.83 95.3249 1423.18 95.2164C1422.28 95.1896 1421.36 95.1677 1420.49 95.4268C1419.84 95.6226 1419.14 96.0216 1418.77 96.6201C1418.64 96.8354 1418.62 97.0394 1418.61 97.286C1418.6 97.6098 1418.54 97.8877 1418.44 98.1955C1417.89 99.8199 1417.39 101.461 1416.94 103.116C1416.48 104.779 1416.08 106.457 1415.74 108.145C1415.39 109.833 1415.09 111.532 1414.85 113.239C1414.61 114.945 1414.42 116.66 1414.28 118.378C1414.27 118.572 1414.25 118.766 1414.24 118.96Z" fill="#FFB27F"/>
<path d="M1429.88 105.59C1431.95 107.15 1433.29 109.639 1433.46 112.228C1433.52 113.112 1433.52 114.164 1434.26 114.651C1434.96 115.111 1435.89 114.771 1436.6 114.323C1437.3 113.875 1438.01 113.304 1438.84 113.319C1440.17 113.343 1441 114.897 1440.92 116.23C1440.84 117.564 1440.16 118.78 1439.82 120.07C1439.47 121.36 1439.56 122.962 1440.65 123.738C1441.56 124.39 1442.86 124.191 1443.79 123.567C1444.72 122.942 1445.36 121.975 1445.97 121.034C1448.02 117.865 1450.09 114.642 1451.23 111.039C1452.36 107.437 1452.48 103.347 1450.7 100.015C1449.24 97.2762 1446.67 95.3125 1444.01 93.7235C1435.17 88.4402 1424.43 86.4287 1414.28 88.1542C1412.78 88.4078 1411.24 88.7697 1410.08 89.7441C1408.01 91.4816 1407.82 94.8047 1409.13 97.1709C1410.44 99.537 1412.91 101.048 1415.47 101.912C1418.03 102.777 1420.73 103.095 1423.36 103.708C1425.99 104.321 1429.38 104.86 1431.31 106.752" fill="url(#paint8_linear_170_13208)"/>
<path d="M1182.41 40L1318.08 85.7864L1315.54 100.625L1170.58 90.4498L1182.41 40Z" fill="url(#paint9_linear_170_13208)"/>
<path fill-rule="evenodd" clip-rule="evenodd" d="M1314.16 101.963L1315.44 102.168C1315.97 102.252 1316.47 101.888 1316.55 101.358L1316.6 101.049L1404.1 113.354C1404.14 113.553 1404.3 113.716 1404.51 113.749L1405.15 113.852C1405.41 113.894 1405.66 113.713 1405.7 113.447L1406.44 108.792C1406.48 108.526 1406.3 108.276 1406.04 108.233L1405.4 108.131C1405.13 108.089 1404.88 108.27 1404.84 108.536L1404.83 108.61L1319 85.9354L1318.05 91.9434L1319.05 85.6262C1319.13 85.0964 1318.77 84.594 1318.24 84.5096L1316.96 84.3051C1316.43 84.2207 1315.93 84.5853 1315.85 85.1149L1313.35 100.846C1313.27 101.377 1313.63 101.879 1314.16 101.963Z" fill="url(#paint10_linear_170_13208)"/>
<path d="M1425.32 144.475C1424.3 150.896 1441.49 151.172 1444.2 139.26C1447 143.203 1446.01 155.704 1446.95 160.454C1449.95 175.654 1451.78 191.085 1452.44 206.566C1453.12 222.571 1455.16 237.937 1456.72 253.879C1457.09 257.664 1457.27 262.013 1454.56 264.671C1451.6 267.579 1446.79 266.935 1442.73 266.09C1436.91 264.88 1431.1 263.67 1425.29 262.459C1421.58 261.689 1417.7 260.83 1414.86 258.321C1410.31 254.292 1409.88 247.434 1409.87 241.342C1409.86 222.759 1410.71 204.176 1412.44 185.674C1413.69 172.244 1417.43 155.396 1425.32 144.475Z" fill="url(#paint11_linear_170_13208)"/>
<path fill-rule="evenodd" clip-rule="evenodd" d="M1418.7 264.15C1416.74 242.187 1416.31 220.091 1417.4 198.068C1417.41 197.767 1417.43 197.467 1417.44 197.166C1417.46 196.88 1417.48 196.592 1417.49 196.305C1417.74 191.622 1418.06 186.949 1418.51 182.288C1418.95 177.609 1419.51 172.934 1420.23 168.293C1420.94 163.674 1421.81 159.081 1422.89 154.537C1423.16 153.357 1423.56 151.938 1423.96 150.529C1424.32 149.24 1424.68 147.961 1424.94 146.882L1425.53 144.402C1413.34 148.506 1400.16 152.544 1387.36 153.868C1385.78 154.036 1384.08 154.151 1382.72 153.317C1380.61 152.026 1380.31 149.113 1380.31 146.635C1380.26 137.065 1381.77 127.52 1383.44 118.092C1380.59 116.371 1376.6 115.1 1373.28 114.931C1372.99 114.916 1372.58 114.842 1372.16 114.765C1371.55 114.655 1370.91 114.538 1370.5 114.57C1364.71 128.846 1361.44 144.627 1360.84 160.027C1360.66 164.526 1360.88 169.507 1363.95 172.795C1365.7 174.662 1368.13 175.708 1370.51 176.607C1381.31 180.719 1392.76 183.097 1404.29 183.622C1404.25 183.877 1404.09 184.235 1403.92 184.6C1403.73 185.02 1403.53 185.449 1403.51 185.745C1403.33 188.267 1403.17 190.591 1403.01 192.77C1401.61 212.084 1401.03 220.064 1403.07 253.667C1403.27 256.867 1406.05 260.727 1411.4 263.227C1413.18 264.066 1414.99 264.844 1416.81 265.566C1417.77 265.947 1418.8 265.181 1418.7 264.15ZM1498.38 193.948C1488.84 178.301 1469.17 151.197 1444.2 139.259C1442.37 142.777 1442.58 147.639 1442.78 152.243C1442.84 153.607 1442.9 154.948 1442.9 156.225C1442.93 163.893 1443.73 171.272 1444.55 178.812C1444.72 180.396 1444.89 181.987 1445.05 183.589C1445.74 190.153 1446.42 196.713 1447.11 203.276C1447.27 204.779 1447.42 206.282 1447.58 207.784C1448.44 215.986 1449.29 224.188 1449.81 232.417C1450.6 245.071 1450.56 257.783 1449.71 270.445C1449.65 271.26 1450.34 271.771 1451.15 271.843C1452.56 271.968 1453.27 271.971 1453.48 271.968C1457.64 271.915 1459.13 271.656 1462.96 270.045C1467.74 268.034 1471.13 262.034 1470.57 256.874C1468.57 238.746 1466.66 219.315 1470.11 203.473L1479.76 211.705C1484.31 215.582 1487.62 220.712 1489.28 226.451L1501.45 264.439L1515.02 261.668L1506.99 216.736C1505.54 208.67 1502.64 200.94 1498.38 193.948Z" fill="url(#paint12_linear_170_13208)"/>
<path d="M1385 101.159C1385.85 101.568 1386.81 102.27 1386.65 103.176C1386.56 103.684 1386.11 104.072 1385.62 104.251C1385.12 104.431 1384.58 104.438 1384.05 104.443C1381.88 104.463 1379.67 104.476 1377.6 103.809C1376.4 103.421 1375.27 102.772 1374.39 101.876C1373.79 101.264 1373.51 100.392 1373.93 99.613C1374.44 98.6759 1375.48 98.7595 1376.42 98.837C1377.82 98.9518 1379.21 99.1868 1380.56 99.5379C1381.92 99.8891 1383.25 100.356 1384.53 100.936C1384.69 101.008 1384.84 101.083 1385 101.159Z" fill="#FFB27F"/>
</g>
</g>
</g>
<defs>
<linearGradient id="paint0_linear_170_13208" x1="960" y1="0" x2="960" y2="321" gradientUnits="userSpaceOnUse">
<stop stop-color="#E0F5FF"/>
<stop offset="1" stop-color="white"/>
</linearGradient>
<linearGradient id="paint1_linear_170_13208" x1="380.636" y1="-105.176" x2="380.636" y2="294.824" gradientUnits="userSpaceOnUse">
<stop stop-color="#EEFAFF"/>
<stop offset="1" stop-color="white" stop-opacity="0"/>
</linearGradient>
<linearGradient id="paint2_linear_170_13208" x1="21.6543" y1="7.93164" x2="21.6543" y2="407.932" gradientUnits="userSpaceOnUse">
<stop stop-color="#EEFAFF"/>
<stop offset="1" stop-color="white" stop-opacity="0"/>
</linearGradient>
<linearGradient id="paint3_linear_170_13208" x1="159.434" y1="417.642" x2="157.066" y2="-120.046" gradientUnits="userSpaceOnUse">
<stop stop-color="#EEFAFF" stop-opacity="0"/>
<stop offset="1" stop-color="white"/>
</linearGradient>
<linearGradient id="paint4_linear_170_13208" x1="1808.56" y1="873.467" x2="1806.43" y2="362.676" gradientUnits="userSpaceOnUse">
<stop stop-color="#EDFAFF" stop-opacity="0"/>
<stop offset="1" stop-color="#EEFAFF"/>
</linearGradient>
<linearGradient id="paint5_linear_170_13208" x1="2104.54" y1="640.955" x2="2102.4" y2="130.165" gradientUnits="userSpaceOnUse">
<stop stop-color="#EDFAFF" stop-opacity="0"/>
<stop offset="1" stop-color="#EEFAFF"/>
</linearGradient>
<linearGradient id="paint6_linear_170_13208" x1="1979.91" y1="717.951" x2="1977.54" y2="180.262" gradientUnits="userSpaceOnUse">
<stop stop-color="#EDFAFF" stop-opacity="0"/>
<stop offset="1" stop-color="#EEFAFF"/>
</linearGradient>
<linearGradient id="paint7_linear_170_13208" x1="1568.04" y1="278.939" x2="1618.44" y2="278.939" gradientUnits="userSpaceOnUse">
<stop stop-color="#8566FF"/>
<stop offset="1" stop-color="#BBAAFF"/>
</linearGradient>
<linearGradient id="paint8_linear_170_13208" x1="1415.52" y1="55.6492" x2="1430.27" y2="124.122" gradientUnits="userSpaceOnUse">
<stop stop-color="#0011FF"/>
<stop offset="1" stop-color="#D500FF"/>
</linearGradient>
<linearGradient id="paint9_linear_170_13208" x1="1318.08" y1="95.2076" x2="1179.41" y2="63.9254" gradientUnits="userSpaceOnUse">
<stop stop-color="#BFEAFF"/>
<stop offset="1" stop-color="#84D7FF" stop-opacity="0"/>
</linearGradient>
<linearGradient id="paint10_linear_170_13208" x1="1313.34" y1="99.0753" x2="1406.45" y2="99.0753" gradientUnits="userSpaceOnUse">
<stop stop-color="#8900FF"/>
<stop offset="1" stop-color="#250045"/>
</linearGradient>
<linearGradient id="paint11_linear_170_13208" x1="1433.4" y1="139.26" x2="1433.4" y2="266.803" gradientUnits="userSpaceOnUse">
<stop stop-color="white"/>
<stop offset="1" stop-color="#EEABFF"/>
</linearGradient>
<linearGradient id="paint12_linear_170_13208" x1="1437.91" y1="114.564" x2="1437.91" y2="271.968" gradientUnits="userSpaceOnUse">
<stop stop-color="#7E00FF"/>
<stop offset="1" stop-color="#C286FF"/>
</linearGradient>
<clipPath id="clip0_170_13208">
<rect width="1920" height="321" fill="white"/>
</clipPath>
<clipPath id="clip1_170_13208">
<rect width="448" height="262" fill="white" transform="translate(1171 40)"/>
</clipPath>
</defs>
</svg>
