<svg width="19" height="19" viewBox="0 0 19 19" fill="none" xmlns="http://www.w3.org/2000/svg">
<path d="M5.93727 6.03488H4.94564L7.64904 13.7394L9.16252 9.37902L7.9891 6.03488H6.94283V5.30074H11.576V6.03488H10.491L13.1944 13.7394L14.1661 10.9395C15.4409 7.35256 13.1213 6.23523 13.1213 5.43467C13.1213 4.63414 13.765 3.98522 14.559 3.98522C14.602 3.98522 14.6437 3.98757 14.6846 3.9914C13.3392 2.71099 11.5252 1.92578 9.529 1.92578C6.92069 1.92578 4.62319 3.26617 3.27637 5.30074H5.93718L5.93727 6.03488Z" fill="white"/>
<path d="M2.0166 9.50194C2.0166 12.4016 3.63312 14.9201 6.00688 16.1929L2.61678 6.53125C2.23054 7.44341 2.0166 8.44746 2.0166 9.50194Z" fill="white"/>
<path d="M16.0664 5.76953C16.1739 6.40738 16.1414 7.12436 15.9765 7.8441H16.0064L15.8928 8.17126C15.8255 8.40755 15.7407 8.64927 15.6445 8.88677L13.0596 16.1876C15.4284 14.9134 17.0408 12.3975 17.0408 9.5016C17.0408 8.14453 16.6864 6.87108 16.0664 5.76953Z" fill="white"/>
<path d="M7.21191 16.7064C7.94172 16.9448 8.72026 17.0741 9.52882 17.0741C10.3001 17.0741 11.0441 16.9567 11.7445 16.7391L9.54703 10.4766L7.21191 16.7064Z" fill="white"/>
<path d="M15.8776 3.10039C14.1818 1.39076 11.9272 0.449219 9.52904 0.449219C7.13082 0.449219 4.87617 1.39076 3.18047 3.10039C1.48469 4.81003 0.550781 7.0831 0.550781 9.50094C0.550781 11.9188 1.48469 14.1918 3.18047 15.9015C4.87617 17.6111 7.13082 18.5527 9.52904 18.5527C11.9273 18.5527 14.1818 17.6111 15.8776 15.9015C17.5734 14.1918 18.5073 11.9187 18.5073 9.50094C18.5073 7.0831 17.5734 4.81003 15.8776 3.10039ZM9.52904 17.9141C4.92764 17.9141 1.18413 14.14 1.18413 9.50094C1.18413 4.86192 4.92764 1.08775 9.52904 1.08775C14.1304 1.08775 17.8739 4.86192 17.8739 9.50094C17.8739 14.14 14.1304 17.9141 9.52904 17.9141Z" fill="white"/>
</svg>
