<svg width="15" height="15" viewBox="0 0 15 15" fill="none" xmlns="http://www.w3.org/2000/svg">
<g clip-path="url(#clip0_581_2850)">
<path d="M7.50002 0.375C3.36452 0.375 2.01566e-05 3.403 2.01566e-05 7.125C2.01566e-05 8.426 0.41152 9.68625 1.19202 10.776C1.04427 12.4102 0.64827 13.6235 0.0732702 14.1982C-0.00272984 14.2743 -0.0217298 14.3905 0.0262702 14.4865C0.0687702 14.5722 0.15627 14.625 0.25002 14.625C0.26152 14.625 0.27302 14.6243 0.28477 14.6225C0.38602 14.6083 2.73802 14.2698 4.43927 13.2878C5.40527 13.6775 6.43427 13.875 7.50002 13.875C11.6355 13.875 15 10.847 15 7.125C15 3.403 11.6355 0.375 7.50002 0.375ZM4.00002 8.125C3.44852 8.125 3.00002 7.6765 3.00002 7.125C3.00002 6.5735 3.44852 6.125 4.00002 6.125C4.55152 6.125 5.00002 6.5735 5.00002 7.125C5.00002 7.6765 4.55152 8.125 4.00002 8.125ZM7.50002 8.125C6.94852 8.125 6.50002 7.6765 6.50002 7.125C6.50002 6.5735 6.94852 6.125 7.50002 6.125C8.05152 6.125 8.50002 6.5735 8.50002 7.125C8.50002 7.6765 8.05152 8.125 7.50002 8.125ZM11 8.125C10.4485 8.125 10 7.6765 10 7.125C10 6.5735 10.4485 6.125 11 6.125C11.5515 6.125 12 6.5735 12 7.125C12 7.6765 11.5515 8.125 11 8.125Z" fill="#0061FE"/>
</g>
<defs>
<clipPath id="clip0_581_2850">
<rect width="15" height="15" fill="white"/>
</clipPath>
</defs>
</svg>
