<svg width="62" height="48" viewBox="0 0 62 48" fill="none" xmlns="http://www.w3.org/2000/svg">
<path d="M10.2551 31.6918C17.7971 27.1774 23.069 19.8238 30.4707 15.0631C32.6407 13.7181 34.9978 12.7015 37.2833 12.7044C34.4908 15.0565 32.1431 17.8077 31.0958 21.1234C29.9308 24.6145 31.9299 28.6957 34.9981 30.6452C37.8907 32.4774 41.4679 30.5481 43.5568 28.488C48.5911 23.7712 48.556 14.5473 42.4655 11.4922C45.9377 9.18775 49.6906 7.37592 53.1274 5.20022C53.8196 4.69727 53.2115 3.62993 52.3905 4.09769C48.6376 5.90952 44.0991 8.06023 39.97 10.7389C39.6301 10.7149 39.2434 10.6089 38.9037 10.5851C26.7393 9.46777 18.3635 24.3536 9.14411 29.9324C8.12355 30.6226 9.15254 32.4287 10.2551 31.6918ZM43.6444 15.2794C46.4653 18.131 45.1467 22.6885 43.2326 25.628C41.3184 28.5673 37.4595 30.7658 34.545 27.7499C31.1389 24.2529 33.2661 19.7785 36.0242 16.7932C37.3035 15.4119 38.5942 14.2415 40.0606 13.1886C41.4314 13.4951 42.5674 14.1529 43.6444 15.2794Z" fill="black"/>
<path d="M4.62559 34.792C6.19588 34.8762 7.6842 35.007 9.17245 35.1377C10.4498 35.28 11.7739 35.5044 12.9816 35.1426C13.9429 34.9212 14.0623 33.2219 12.996 33.0683C11.7187 32.926 10.406 32.9126 9.17533 32.8525C8.28455 32.816 7.34715 32.6978 6.53868 32.6146C7.0084 31.912 7.5249 31.2915 7.99462 30.5888C8.34691 30.0619 8.7813 29.4881 9.13359 28.9612C9.25102 28.7855 9.32168 28.5278 9.31036 28.3167C9.36957 27.848 9.2987 28.1057 9.26359 28.2346C9.45154 27.8013 8.98378 26.9802 8.45583 27.3898C8.24485 27.4012 8.08078 27.4947 7.83447 27.635C7.3533 28.1267 6.83667 28.7472 6.40241 29.3209C5.45146 30.5154 4.50071 31.7096 3.72526 33.0212C3.34915 33.8878 3.86377 34.7911 4.62559 34.792Z" fill="black"/>
</svg>
