<svg width="15" height="15" viewBox="0 0 15 15" fill="none" xmlns="http://www.w3.org/2000/svg">
<path d="M13.3617 0.941406H11.9601V2.34185C11.9601 2.62194 11.7265 2.80866 11.4929 2.80866C11.2593 2.80866 11.0257 2.62194 11.0257 2.34185V0.941406H3.55065V2.34185C3.55065 2.62194 3.31705 2.80866 3.08346 2.80866C2.84986 2.80866 2.61627 2.62194 2.61627 2.34185V0.941406H1.2147C0.51391 0.941406 0 1.54826 0 2.34185V4.02238H14.9501V2.34185C14.9501 1.54826 14.1092 0.941406 13.3617 0.941406ZM0 5.00269V13.5454C0 14.3857 0.51391 14.9458 1.26142 14.9458H13.4084C14.1559 14.9458 14.9968 14.339 14.9968 13.5454V5.00269H0ZM4.158 12.8452H3.03674C2.84986 12.8452 2.66299 12.7051 2.66299 12.4717V11.3047C2.66299 11.118 2.80314 10.9312 3.03674 10.9312H4.20472C4.39159 10.9312 4.57847 11.0713 4.57847 11.3047V12.4717C4.53175 12.7051 4.39159 12.8452 4.158 12.8452ZM4.158 8.64384H3.03674C2.84986 8.64384 2.66299 8.5038 2.66299 8.27039V7.10336C2.66299 6.91663 2.80314 6.72991 3.03674 6.72991H4.20472C4.39159 6.72991 4.57847 6.86995 4.57847 7.10336V8.27039C4.53175 8.5038 4.39159 8.64384 4.158 8.64384ZM7.89552 12.8452H6.72755C6.54067 12.8452 6.3538 12.7051 6.3538 12.4717V11.3047C6.3538 11.118 6.49395 10.9312 6.72755 10.9312H7.89552C8.0824 10.9312 8.26928 11.0713 8.26928 11.3047V12.4717C8.26928 12.7051 8.12912 12.8452 7.89552 12.8452ZM7.89552 8.64384H6.72755C6.54067 8.64384 6.3538 8.5038 6.3538 8.27039V7.10336C6.3538 6.91663 6.49395 6.72991 6.72755 6.72991H7.89552C8.0824 6.72991 8.26928 6.86995 8.26928 7.10336V8.27039C8.26928 8.5038 8.12912 8.64384 7.89552 8.64384ZM11.6331 12.8452H10.4651C10.2782 12.8452 10.0913 12.7051 10.0913 12.4717V11.3047C10.0913 11.118 10.2315 10.9312 10.4651 10.9312H11.6331C11.8199 10.9312 12.0068 11.0713 12.0068 11.3047V12.4717C12.0068 12.7051 11.8666 12.8452 11.6331 12.8452ZM11.6331 8.64384H10.4651C10.2782 8.64384 10.0913 8.5038 10.0913 8.27039V7.10336C10.0913 6.91663 10.2315 6.72991 10.4651 6.72991H11.6331C11.8199 6.72991 12.0068 6.86995 12.0068 7.10336V8.27039C12.0068 8.5038 11.8666 8.64384 11.6331 8.64384Z" fill="#0061FE"/>
</svg>
