<svg width="18" height="18" viewBox="0 0 18 18" fill="none" xmlns="http://www.w3.org/2000/svg">
<g clip-path="url(#clip0_283_28333)">
<path d="M1.01071 10.0312C0.732963 10.0312 0.507812 9.80607 0.507812 9.52835L0.507813 2.14204C0.507813 1.8643 0.732996 1.63914 1.01071 1.63914H4.0406V10.0312H1.01071Z" fill="#D60004"/>
<path d="M17.4954 7.25393C17.4954 7.89232 17.1524 8.45213 16.641 8.75873C16.8369 9.04165 16.9518 9.38487 16.9518 9.75432C16.9518 10.721 16.1654 11.5074 15.1987 11.5074H11.498C11.6114 12.0214 11.7665 12.7927 11.8745 13.6001C12.1556 15.7012 11.9635 16.8665 11.27 17.2672C10.8376 17.517 10.3714 17.5677 9.95733 17.41C9.63741 17.2882 9.20537 16.9886 8.95917 16.2533L7.98652 13.7066C7.49342 12.4888 5.98337 11.2103 5.04688 10.5034L5.04688 1.41637C6.78254 0.808224 8.5937 0.499966 10.4415 0.499966H14.4739C15.4405 0.499966 16.2269 1.28642 16.2269 2.25306C16.2269 2.59157 16.1305 2.90799 15.9636 3.17624C16.5481 3.46086 16.9517 4.06097 16.9517 4.75349C16.9517 5.12298 16.8368 5.46613 16.6409 5.74909C17.1524 6.05569 17.4954 6.61553 17.4954 7.25393Z" fill="#D60004"/>
</g>
<defs>
<clipPath id="clip0_283_28333">
<rect width="17" height="17" fill="white" transform="matrix(1 0 0 -1 0.5 17.5)"/>
</clipPath>
</defs>
</svg>
