<svg width="26" height="26" viewBox="0 0 26 26" fill="none" xmlns="http://www.w3.org/2000/svg">
<rect x="0.3" y="0.3" width="25.4" height="25.4" rx="12.7" fill="url(#paint0_radial_170_12758)"/>
<rect x="0.3" y="0.3" width="25.4" height="25.4" rx="12.7" stroke="#E0F5FF" stroke-width="0.6"/>
<g clip-path="url(#clip0_170_12758)">
<path d="M11.25 10.0833C11.25 9.76116 11.5112 9.5 11.8333 9.5H14.1667C14.4888 9.5 14.75 9.76116 14.75 10.0833C14.75 10.4055 14.4888 10.6667 14.1667 10.6667H11.8333C11.5112 10.6667 11.25 10.4055 11.25 10.0833Z" fill="#0061FE"/>
<path d="M9.5 12.9993C9.5 12.6772 9.76116 12.416 10.0833 12.416H15.9167C16.2388 12.416 16.5 12.6772 16.5 12.9993C16.5 13.3215 16.2388 13.5827 15.9167 13.5827H10.0833C9.76116 13.5827 9.5 13.3215 9.5 12.9993Z" fill="#0061FE"/>
<path d="M11.8333 15.334C11.5112 15.334 11.25 15.5951 11.25 15.9173C11.25 16.2395 11.5112 16.5007 11.8333 16.5007H14.1667C14.4888 16.5007 14.75 16.2395 14.75 15.9173C14.75 15.5951 14.4888 15.334 14.1667 15.334H11.8333Z" fill="#0061FE"/>
<path fill-rule="evenodd" clip-rule="evenodd" d="M6 13C6 18.7645 7.23551 20 13 20C18.7645 20 20 18.7645 20 13C20 7.23551 18.7645 6 13 6C7.23551 6 6 7.23551 6 13ZM13 18.8333C11.5855 18.8333 10.5285 18.756 9.72747 18.578C8.93971 18.403 8.4729 18.1463 8.16329 17.8368C7.85368 17.5271 7.59707 17.0603 7.42202 16.2726C7.244 15.4716 7.1667 14.4145 7.1667 13C7.1667 11.5855 7.244 10.5285 7.42202 9.72747C7.59707 8.93971 7.85368 8.4729 8.16329 8.16329C8.4729 7.85368 8.93971 7.59707 9.72747 7.42202C10.5285 7.244 11.5855 7.1667 13 7.1667C14.4145 7.1667 15.4715 7.244 16.2726 7.42202C17.0603 7.5971 17.5271 7.85368 17.8367 8.16329C18.1463 8.4729 18.403 8.93971 18.578 9.72747C18.7561 10.5285 18.8333 11.5855 18.8333 13C18.8333 14.4145 18.756 15.4716 18.578 16.2726C18.403 17.0603 18.1463 17.5271 17.8367 17.8368C17.5271 18.1463 17.0603 18.403 16.2726 18.578C15.4715 18.756 14.4145 18.8333 13 18.8333Z" fill="#0061FE"/>
</g>
<defs>
<radialGradient id="paint0_radial_170_12758" cx="0" cy="0" r="1" gradientUnits="userSpaceOnUse" gradientTransform="translate(26 28.6) rotate(-135.725) scale(36.3128)">
<stop stop-color="#E0F5FF"/>
<stop offset="1" stop-color="white"/>
</radialGradient>
<clipPath id="clip0_170_12758">
<rect width="14" height="14" fill="white" transform="translate(6 6)"/>
</clipPath>
</defs>
</svg>
