<svg width="18" height="12" viewBox="0 0 18 12" fill="none" xmlns="http://www.w3.org/2000/svg">
<path d="M9.87609 10.8822C9.64485 11.1474 9.35578 11.28 9.00891 11.28C8.66203 11.28 8.37297 11.1474 8.14172 10.8822L0.510469 2.92599C0.256094 2.6849 0.128906 2.38353 0.128906 2.02188C0.128906 1.66024 0.250313 1.35284 0.493125 1.09969C0.735938 0.846542 1.03078 0.719967 1.37766 0.719967C1.72453 0.719967 2.01359 0.85257 2.24484 1.11777L9.00891 8.13367L15.773 1.11777C16.0042 0.85257 16.2933 0.719967 16.6402 0.719967C16.987 0.719967 17.2819 0.846542 17.5247 1.09969C17.7675 1.35284 17.8889 1.66024 17.8889 2.02188C17.8889 2.38353 17.7617 2.6849 17.5073 2.92599L9.87609 10.8822Z" fill="#000D23"/>
</svg>
