<svg width="32" height="34" viewBox="0 0 32 34" fill="none" xmlns="http://www.w3.org/2000/svg">
<path d="M22.5612 3.3266C23.5943 3.52225 24.5078 3.86093 25.324 4.4369C26.6754 5.38497 27.4776 6.67506 27.7398 8.28493C27.814 8.73014 27.8291 9.19302 27.8351 9.64681C27.8418 9.9972 27.5532 10.2063 27.2302 10.1323C26.9981 10.0812 26.8671 9.90077 26.8508 9.6356C26.8176 9.16364 26.8119 8.68753 26.7148 8.22859C26.3399 6.44715 25.2456 5.25845 23.5411 4.61341C23.0911 4.44417 22.6086 4.36914 22.1401 4.25363C22.0946 4.24424 22.0352 4.27079 21.9849 4.27948C22.0028 4.32906 22.0115 4.38742 22.0385 4.42802C22.3637 4.86595 22.6978 5.30409 23.0228 5.74647C23.1446 5.90905 23.1526 6.0797 23.0465 6.25429C22.9544 6.40626 22.8033 6.49502 22.626 6.45351C22.5077 6.42574 22.3714 6.35738 22.2991 6.26711C21.73 5.52654 21.1748 4.78154 20.6196 4.03218C20.4299 3.77479 20.4865 3.51021 20.7701 3.3459C21.5525 2.88853 22.3396 2.43118 23.1266 1.97386C23.3736 1.83178 23.6329 1.89642 23.7636 2.11743C23.8942 2.34292 23.8241 2.58951 23.577 2.73605C23.2612 2.92258 22.9318 3.10901 22.5612 3.3266Z" fill="white"/>
<path d="M9.41781 27.1315C8.3835 26.9429 7.46753 26.6106 6.64719 26.04C5.28925 25.1012 4.4782 23.8165 4.20476 22.2085C4.12741 21.7637 4.10903 21.301 4.09994 20.8474C4.09085 20.4969 4.37793 20.2859 4.70146 20.3578C4.93391 20.4072 5.06599 20.5869 5.08417 20.8518C5.12072 21.3235 5.12981 21.7997 5.23008 22.2579C5.61733 24.0367 6.7202 25.218 8.42894 25.8513C8.8801 26.0175 9.36318 26.0894 9.83252 26.2017C9.87806 26.2107 9.93734 26.1838 9.98752 26.1747C9.96924 26.1253 9.96016 26.0669 9.93279 26.0266C9.60462 25.5908 9.26745 25.1551 8.93938 24.7149C8.81639 24.5532 8.8071 24.3826 8.91191 24.2073C9.00309 24.0547 9.15355 23.9648 9.33117 24.0052C9.44982 24.0321 9.58644 24.0995 9.65935 24.1893C10.2335 24.9261 10.7941 25.6672 11.3546 26.4128C11.5458 26.6689 11.4912 26.934 11.2086 27.1001C10.4295 27.5629 9.64561 28.0254 8.86193 28.4881C8.61585 28.6319 8.35603 28.5689 8.22395 28.3488C8.09177 28.1242 8.16003 27.8771 8.40622 27.729C8.72066 27.5402 9.04874 27.3517 9.41781 27.1315Z" fill="white"/>
<path d="M18.6901 3.34865V12.1347H16.2158C14.6482 12.1347 13.3814 13.3881 13.3814 14.9288V18.5403H3.27869C1.71122 18.5403 0.444458 17.2871 0.444458 15.7464V3.34865C0.444458 1.80343 1.71122 0.554688 3.27869 0.554688H15.8557C17.4187 0.554688 18.6901 1.80343 18.6901 3.34865Z" fill="white"/>
<g filter="url(#filter0_d_154_36748)">
<path d="M7.12811 8.27137C7.98935 8.81503 8.83685 9.3495 9.69809 9.89306C9.44302 10.0547 9.20592 10.203 8.96903 10.3557C8.38124 10.7241 7.79335 11.0924 7.20546 11.4653C7.15538 11.4966 7.11428 11.5102 7.05511 11.4742C6.23941 10.9531 5.41927 10.4365 4.60358 9.91558C4.58985 9.90649 4.57621 9.89296 4.54895 9.87509C5.40564 9.33607 6.25304 8.8016 7.12337 8.25794C6.26213 7.72336 5.41473 7.19334 4.56713 6.66775C4.56258 6.62746 4.59439 6.62302 4.61267 6.60939C5.42836 6.09743 6.23941 5.58528 7.05511 5.07312C7.10065 5.04626 7.13266 5.03273 7.18274 5.06868C8.00298 5.58528 8.82322 6.10187 9.64336 6.61837C9.65719 6.62736 9.67083 6.64089 9.69355 6.65886C8.83685 7.19334 7.98935 7.72791 7.12811 8.27137Z" fill="#0061FE"/>
<path d="M12.2455 12.029C11.9539 12.2132 11.676 12.3883 11.3934 12.5679C10.8466 12.9138 10.2997 13.2553 9.75747 13.6012C9.70284 13.6371 9.66629 13.6371 9.61166 13.6012C8.80051 13.089 7.98492 12.5771 7.17377 12.0649C7.15559 12.0515 7.14186 12.0381 7.11914 12.02C7.82537 11.5753 8.53171 11.1306 9.2334 10.6903C9.36114 10.6095 9.49321 10.5287 9.6162 10.4479C9.66174 10.4164 9.6983 10.4119 9.74838 10.4432C10.5732 10.9644 11.398 11.4854 12.2228 12.0066C12.2228 12.0066 12.2274 12.011 12.2455 12.029Z" fill="#0061FE"/>
<path d="M9.70129 9.87518C10.1115 9.61921 10.5034 9.36777 10.8997 9.12058C11.328 8.85107 11.7518 8.58157 12.1802 8.3166C12.2213 8.28954 12.2485 8.26268 12.3079 8.29853C13.1326 8.81957 13.9574 9.33627 14.7868 9.85731C14.8004 9.8663 14.8095 9.87518 14.8322 9.89326C14.7138 9.9696 14.6044 10.0414 14.4905 10.1089C13.7797 10.558 13.0643 11.0028 12.3534 11.4519C12.2895 11.4924 12.244 11.5013 12.1756 11.4564C11.3555 10.9308 10.5353 10.4098 9.70129 9.87518Z" fill="#0061FE"/>
<path d="M9.70129 6.64983C10.0567 6.42526 10.3984 6.20523 10.7402 5.98954C11.2187 5.68409 11.7018 5.38307 12.1802 5.08206C12.2258 5.0552 12.2577 5.02814 12.317 5.06419C13.1371 5.58523 13.9619 6.10183 14.7868 6.61833C14.8004 6.62731 14.8095 6.6364 14.8277 6.64983C14.7093 6.72617 14.5953 6.80261 14.4814 6.8744C13.7706 7.319 13.0598 7.76381 12.3488 8.21295C12.3125 8.23547 12.285 8.26688 12.2304 8.23547C11.3965 7.70544 10.5534 7.1844 9.70129 6.64983Z" fill="#0061FE"/>
</g>
<path d="M31.4509 14.5791V26.9767C31.4509 28.5221 30.1796 29.7752 28.6166 29.7752H16.0396C14.4721 29.7752 13.2052 28.5221 13.2052 26.9767V18.1906H15.6795C17.2426 18.1906 18.514 16.9373 18.514 15.3966V11.7852H28.6166C30.1796 11.7852 31.4509 13.0384 31.4509 14.5791Z" fill="white"/>
<g filter="url(#filter1_d_154_36748)">
<path d="M22.4575 16.2779C19.933 16.3183 17.7638 18.407 17.7638 21.0079C17.7685 23.721 20.0971 25.7782 22.5896 25.7424C25.146 25.702 27.3242 23.6177 27.3197 21.017C27.3242 18.3756 25.1141 16.2374 22.4575 16.2779ZM22.626 25.4908C20.1016 25.5358 18.0464 23.5189 18.0145 21.0033C17.9873 18.6451 20.0378 16.5924 22.4073 16.525C24.8863 16.4531 27.0781 18.5014 27.0736 21.0214C27.0736 23.2852 25.1778 25.4504 22.626 25.4908Z" fill="#0061FE"/>
<path d="M25.2824 17.9666C25.1093 18.0609 24.9497 18.1238 24.8222 18.2271C24.5625 18.4382 24.5123 18.7437 24.6628 19.0942C24.731 19.2603 24.8131 19.422 24.9133 19.5703C25.3098 20.1496 25.3826 20.774 25.1914 21.4389C25.0045 22.0857 24.8039 22.7325 24.608 23.3793C24.6035 23.4018 24.5898 23.4197 24.5579 23.4782C24.0567 22.0003 23.5644 20.5584 23.0678 19.0942C23.2046 19.085 23.3139 19.0805 23.4278 19.0671C23.4871 19.0581 23.5599 19.0537 23.5919 19.0177C23.6329 18.9728 23.6465 18.9009 23.6511 18.8381C23.6511 18.8245 23.5783 18.7886 23.5372 18.7886C22.8537 18.7886 22.1655 18.7932 21.4821 18.7932C21.4592 18.7932 21.4319 18.7932 21.4091 18.7976C21.3407 18.8155 21.2177 18.7842 21.2314 18.8965C21.2359 18.9548 21.3362 18.9998 21.3909 19.0492C21.3954 19.0537 21.4091 19.0537 21.4182 19.0537C21.7144 19.0266 21.8283 19.2065 21.9104 19.4489C22.0653 19.8847 22.2385 20.3159 22.398 20.7472C22.4162 20.7965 22.4208 20.8639 22.4071 20.9133C22.1246 21.7489 21.8374 22.5798 21.5549 23.4153C21.5503 23.4332 21.5367 23.4468 21.5048 23.5051C21.0036 22.0273 20.5115 20.5854 20.0101 19.121C20.1605 19.0986 20.2789 19.085 20.3928 19.0627C20.4931 19.0402 20.6299 19.0312 20.6209 18.9054C20.6118 18.7707 20.4749 18.7842 20.3747 18.7842C20.0375 18.7886 19.7049 18.7976 19.3676 18.8066C19.2902 18.8066 19.2126 18.8066 19.1262 18.7842C19.7002 17.9352 20.4659 17.3512 21.4728 17.0952C22.8947 16.7269 24.1523 17.0682 25.2824 17.9666Z" fill="#0061FE"/>
<path d="M22.6451 21.3789C23.0643 22.5244 23.4836 23.6698 23.9165 24.8513C23.6748 24.9051 23.4516 24.9636 23.2283 25.0085C22.677 25.1163 22.1302 25.0848 21.588 24.9636C21.3646 24.9141 21.3599 24.9007 21.433 24.6941C21.8021 23.6339 22.1711 22.5739 22.5448 21.5138C22.5585 21.4688 22.5813 21.4284 22.6042 21.3834C22.6133 21.3834 22.6269 21.3789 22.6451 21.3789Z" fill="#0061FE"/>
<path d="M18.83 19.3789C19.4771 21.1263 20.1243 22.8782 20.7713 24.6254C20.7576 24.6344 20.7394 24.6434 20.7258 24.6524C19.8462 24.2167 19.1946 23.5519 18.7982 22.6626C18.3106 21.5755 18.3607 20.4749 18.7753 19.3834C18.7892 19.3834 18.8073 19.3789 18.83 19.3789Z" fill="#0061FE"/>
<path d="M26.186 19.1133C26.6644 20.0881 26.7738 21.1033 26.473 22.1499C26.1769 23.1785 25.5435 23.9647 24.5909 24.4992C24.6048 24.4543 24.6139 24.4093 24.6275 24.3688C25.0468 23.165 25.466 21.9612 25.8806 20.7574C26.0401 20.2947 26.154 19.8232 26.1267 19.329C26.1222 19.2571 26.1358 19.1853 26.1403 19.1133C26.154 19.1178 26.1723 19.1133 26.186 19.1133Z" fill="#0061FE"/>
</g>
<defs>
<filter id="filter0_d_154_36748" x="0.54895" y="5.04681" width="18.2833" height="16.5813" filterUnits="userSpaceOnUse" color-interpolation-filters="sRGB">
<feFlood flood-opacity="0" result="BackgroundImageFix"/>
<feColorMatrix in="SourceAlpha" type="matrix" values="0 0 0 0 0 0 0 0 0 0 0 0 0 0 0 0 0 0 127 0" result="hardAlpha"/>
<feOffset dy="4"/>
<feGaussianBlur stdDeviation="2"/>
<feComposite in2="hardAlpha" operator="out"/>
<feColorMatrix type="matrix" values="0 0 0 0 0 0 0 0 0 0 0 0 0 0 0 0 0 0 0.07 0"/>
<feBlend mode="normal" in2="BackgroundImageFix" result="effect1_dropShadow_154_36748"/>
<feBlend mode="normal" in="SourceGraphic" in2="effect1_dropShadow_154_36748" result="shape"/>
</filter>
<filter id="filter1_d_154_36748" x="13.7638" y="16.2773" width="17.5559" height="17.4655" filterUnits="userSpaceOnUse" color-interpolation-filters="sRGB">
<feFlood flood-opacity="0" result="BackgroundImageFix"/>
<feColorMatrix in="SourceAlpha" type="matrix" values="0 0 0 0 0 0 0 0 0 0 0 0 0 0 0 0 0 0 127 0" result="hardAlpha"/>
<feOffset dy="4"/>
<feGaussianBlur stdDeviation="2"/>
<feComposite in2="hardAlpha" operator="out"/>
<feColorMatrix type="matrix" values="0 0 0 0 0 0 0 0 0 0 0 0 0 0 0 0 0 0 0.07 0"/>
<feBlend mode="normal" in2="BackgroundImageFix" result="effect1_dropShadow_154_36748"/>
<feBlend mode="normal" in="SourceGraphic" in2="effect1_dropShadow_154_36748" result="shape"/>
</filter>
</defs>
</svg>
