<svg width="23" height="23" viewBox="0 0 23 23" fill="none" xmlns="http://www.w3.org/2000/svg">
<g clip-path="url(#clip0_581_2947)">
<path d="M22.5 9.21666V18.9644C22.5 19.5046 22.3077 19.967 21.923 20.3517C21.5383 20.7364 21.0759 20.9287 20.5357 20.9287H2.46429C1.92411 20.9287 1.46168 20.7364 1.07701 20.3517C0.692336 19.967 0.5 19.5046 0.5 18.9644V9.21666C0.860119 9.6177 1.27344 9.97373 1.73996 10.2847C4.70275 12.2981 6.73661 13.71 7.84152 14.5202C8.30804 14.864 8.68657 15.132 8.97712 15.3244C9.26767 15.5167 9.65439 15.7131 10.1373 15.9136C10.6202 16.1142 11.0703 16.2144 11.4877 16.2144H11.5H11.5123C11.9297 16.2144 12.3798 16.1142 12.8627 15.9136C13.3456 15.7131 13.7323 15.5167 14.0229 15.3244C14.3134 15.132 14.692 14.864 15.1585 14.5202C16.5499 13.5135 18.5878 12.1017 21.2723 10.2847C21.7388 9.96554 22.1481 9.60952 22.5 9.21666ZM22.5 5.60728C22.5 6.25386 22.2995 6.87179 21.8984 7.46108C21.4974 8.05036 20.9981 8.55371 20.4007 8.97112C17.3233 11.1073 15.4081 12.4373 14.6551 12.9611C14.5733 13.0184 14.3994 13.1432 14.1334 13.3355C13.8674 13.5279 13.6464 13.6834 13.4704 13.802C13.2945 13.9207 13.0817 14.0537 12.832 14.201C12.5824 14.3484 12.3471 14.4588 12.1261 14.5325C11.9051 14.6062 11.7005 14.643 11.5123 14.643H11.5H11.4877C11.2995 14.643 11.0949 14.6062 10.8739 14.5325C10.6529 14.4588 10.4176 14.3484 10.168 14.201C9.91834 14.0537 9.70554 13.9207 9.52958 13.802C9.35361 13.6834 9.13263 13.5279 8.86663 13.3355C8.60063 13.1432 8.42671 13.0184 8.34487 12.9611C7.60007 12.4373 6.5279 11.6904 5.12835 10.7206C3.72879 9.7507 2.88988 9.16755 2.61161 8.97112C2.10417 8.62737 1.62537 8.15472 1.17522 7.55315C0.725074 6.95159 0.5 6.393 0.5 5.87737C0.5 5.23898 0.669829 4.70699 1.00949 4.28139C1.34914 3.8558 1.83408 3.643 2.46429 3.643H20.5357C21.0677 3.643 21.5281 3.83533 21.9169 4.22001C22.3056 4.60468 22.5 5.06711 22.5 5.60728Z" fill="#3C4770"/>
</g>
<defs>
<clipPath id="clip0_581_2947">
<rect width="22.02" height="22" fill="white" transform="matrix(1 0 0 -1 0.490234 22.5)"/>
</clipPath>
</defs>
</svg>
