<svg width="45" height="45" viewBox="0 0 45 45" fill="none" xmlns="http://www.w3.org/2000/svg">
<path d="M0 22.5C0 14.2544 1.54797 8.64948 5.09873 5.09873C8.64948 1.54797 14.2544 0 22.5 0C30.7456 0 36.3505 1.54797 39.9012 5.09873C43.452 8.64948 45 14.2544 45 22.5C45 30.7456 43.452 36.3505 39.9012 39.9012C36.3505 43.452 30.7456 45 22.5 45C14.2544 45 8.64948 43.452 5.09873 39.9012C1.54797 36.3505 0 30.7456 0 22.5Z" fill="url(#paint0_radial_885_351)"/>
<path fill-rule="evenodd" clip-rule="evenodd" d="M34.3554 12.6001C34.2458 12.6001 34.152 12.679 34.1326 12.7875L32.5067 21.8975L31.6278 27.5324L28.0802 12.8236L28.0795 12.8206C28.0757 12.7019 27.979 12.6001 27.853 12.6001L23.7165 12.6001C23.6106 12.6001 23.5189 12.674 23.4957 12.778L21.6465 21.05L20.2058 27.8923L17.5561 12.7889C17.5369 12.68 17.4423 12.6004 17.3317 12.6004L12.5083 12.6003L12.5042 12.6004H11.244C11.1436 12.6004 11.0553 12.6663 11.0268 12.7626L5.4095 31.7214C5.36629 31.8673 5.47578 32.014 5.62785 32.014H9.83691C9.84375 32.014 9.85053 32.0137 9.85723 32.0131C9.8636 32.0136 9.87005 32.0139 9.87656 32.0139H14.176C14.2729 32.0139 14.3592 31.9524 14.3908 31.8609L14.9791 30.1569C15.0301 30.0094 14.9205 29.8556 14.7643 29.8556H10.4859L11.3198 25.9939H14.2219C14.3199 25.9939 14.4069 25.931 14.4377 25.838L14.9843 24.1861C15.033 24.039 14.9236 23.8874 14.7686 23.8874H11.7746L13.35 16.5916L14.996 22.3425L17.6251 31.8469C17.6523 31.9455 17.7422 32.014 17.8445 32.014H20.659L20.6644 32.0139H22.4252C22.5262 32.0139 22.6148 31.9466 22.6428 31.8491L25.9411 20.3292L26.7379 23.0927L28.8414 31.8392C28.866 31.9418 28.9576 32.014 29.0628 32.014H32.421C32.4237 32.014 32.4265 32.014 32.4292 32.0139H33.7098C33.8122 32.0139 33.9017 31.9447 33.9282 31.8451L38.9698 12.8873C39.0082 12.7424 38.8996 12.6 38.7507 12.6L34.3554 12.6001Z" fill="white"/>
<defs>
<radialGradient id="paint0_radial_885_351" cx="0" cy="0" r="1" gradientUnits="userSpaceOnUse" gradientTransform="translate(4.5 7.2) rotate(64.5367) scale(41.8669)">
<stop stop-color="#67ABFF"/>
<stop offset="1" stop-color="#1A7EFB"/>
</radialGradient>
</defs>
</svg>
