<svg width="23" height="23" viewBox="0 0 23 23" fill="none" xmlns="http://www.w3.org/2000/svg">
<g clip-path="url(#clip0_581_2944)">
<path d="M20.1604 2.07157C20.6924 2.07157 21.1426 2.25776 21.5109 2.63016C21.8792 3.00256 22.0633 3.45475 22.0633 3.98675V10.3584C22.0633 11.7989 21.7851 13.1739 21.2285 14.4834C20.672 15.7929 19.9251 16.9183 18.988 17.8595C18.0509 18.8007 16.9296 19.5476 15.6242 20.1C14.3187 20.6525 12.9499 20.9287 11.5176 20.9287C10.0771 20.9287 8.70415 20.6525 7.39872 20.1C6.09328 19.5476 4.96996 18.8007 4.02874 17.8595C3.08752 16.9183 2.33863 15.7929 1.78209 14.4834C1.22554 13.1739 0.947266 11.7989 0.947266 10.3584V3.98675C0.947266 3.46294 1.13551 3.01279 1.512 2.6363C1.88849 2.25981 2.33863 2.07157 2.86244 2.07157H20.1604ZM11.5176 15.1341C11.9023 15.1341 12.2378 14.999 12.5243 14.7289L17.4841 9.96554C17.7869 9.67908 17.9383 9.33124 17.9383 8.92201C17.9383 8.52097 17.7972 8.17927 17.5148 7.8969C17.2324 7.61454 16.8907 7.47335 16.4897 7.47335C16.105 7.47335 15.7694 7.6084 15.483 7.87849L11.5176 11.6843L7.55218 7.87849C7.26572 7.6084 6.93424 7.47335 6.55776 7.47335C6.15671 7.47335 5.81501 7.61454 5.53265 7.8969C5.25028 8.17927 5.1091 8.52097 5.1091 8.92201C5.1091 9.33942 5.25642 9.68727 5.55106 9.96554L10.5232 14.7289C10.7932 14.999 11.1247 15.1341 11.5176 15.1341Z" fill="#3C4770"/>
</g>
<defs>
<clipPath id="clip0_581_2944">
<rect width="21.13" height="22" fill="white" transform="matrix(1 0 0 -1 0.939453 22.5)"/>
</clipPath>
</defs>
</svg>
