<svg width="20" height="19" viewBox="0 0 20 19" fill="none" xmlns="http://www.w3.org/2000/svg">
<path d="M13.9674 2.452C14.5872 2.5685 15.1352 2.77018 15.6248 3.11316C16.4354 3.67771 16.9166 4.44592 17.0739 5.40457C17.1185 5.66968 17.1275 5.94531 17.1311 6.21553C17.1351 6.42418 16.962 6.54871 16.7682 6.50464C16.629 6.47421 16.5505 6.36676 16.5406 6.20886C16.5207 5.92781 16.5173 5.6443 16.4591 5.37102C16.2342 4.31021 15.5777 3.60237 14.5552 3.21826C14.2853 3.11749 13.9959 3.07281 13.7148 3.00402C13.6875 2.99843 13.6519 3.01424 13.6217 3.01941C13.6325 3.04894 13.6377 3.08369 13.6539 3.10787C13.8489 3.36865 14.0494 3.62955 14.2444 3.89297C14.3174 3.98978 14.3222 4.0914 14.2585 4.19537C14.2033 4.28586 14.1127 4.33871 14.0063 4.314C13.9353 4.29747 13.8536 4.25676 13.8102 4.203C13.4688 3.76201 13.1358 3.31838 12.8027 2.87216C12.689 2.71889 12.7229 2.56134 12.893 2.46349C13.3624 2.19114 13.8345 1.9188 14.3066 1.64647C14.4548 1.56187 14.6104 1.60036 14.6887 1.73197C14.7671 1.86624 14.725 2.01308 14.5768 2.10034C14.3874 2.21141 14.1897 2.32243 13.9674 2.452Z" fill="white"/>
<path d="M6.08275 16.6279C5.4623 16.5156 4.91283 16.3177 4.42073 15.9779C3.60614 15.4189 3.11961 14.6539 2.95558 13.6963C2.90918 13.4315 2.89816 13.1559 2.8927 12.8858C2.88725 12.6771 3.05946 12.5515 3.25354 12.5943C3.39298 12.6237 3.47221 12.7307 3.48311 12.8885C3.50504 13.1694 3.51049 13.4529 3.57064 13.7258C3.80294 14.785 4.46453 15.4884 5.48955 15.8656C5.7602 15.9645 6.04998 16.0073 6.33153 16.0742C6.35884 16.0796 6.3944 16.0636 6.42451 16.0582C6.41354 16.0287 6.40809 15.9939 6.39168 15.9699C6.19481 15.7104 5.99256 15.451 5.79575 15.1889C5.72197 15.0926 5.7164 14.991 5.77928 14.8866C5.83397 14.7957 5.92423 14.7422 6.03078 14.7663C6.10195 14.7823 6.18391 14.8224 6.22764 14.8759C6.57206 15.3146 6.90837 15.7559 7.24455 16.1999C7.35928 16.3524 7.32651 16.5103 7.15702 16.6092C6.68964 16.8847 6.2194 17.1602 5.74929 17.4357C5.60168 17.5213 5.44582 17.4838 5.36659 17.3527C5.2873 17.219 5.32825 17.0719 5.47592 16.9837C5.66455 16.8713 5.86135 16.759 6.08275 16.6279Z" fill="white"/>
<path d="M11.6453 2.46452V7.69642H10.161C9.22065 7.69642 8.46069 8.44274 8.46069 9.3602V11.5108H2.40037C1.46009 11.5108 0.700195 10.7645 0.700195 9.84706V2.46452C0.700195 1.54438 1.46009 0.800781 2.40037 0.800781H9.94499C10.8826 0.800781 11.6453 1.54438 11.6453 2.46452Z" fill="white"/>
<path d="M19.3006 9.152V16.5345C19.3006 17.4547 18.5379 18.2009 17.6004 18.2009H10.0558C9.11542 18.2009 8.35547 17.4547 8.35547 16.5345V11.3026H9.83976C10.7774 11.3026 11.5401 10.5563 11.5401 9.63881V7.48828H17.6004C18.5379 7.48828 19.3006 8.23455 19.3006 9.152Z" fill="white"/>
<path d="M13.9055 10.1644C12.3911 10.1885 11.0898 11.4322 11.0898 12.981C11.0927 14.5966 12.4895 15.8216 13.9847 15.8003C15.5183 15.7762 16.8249 14.5351 16.8222 12.9864C16.8249 11.4135 15.4991 10.1403 13.9055 10.1644ZM14.0066 15.6505C12.4922 15.6772 11.2594 14.4762 11.2402 12.9783C11.2239 11.574 12.454 10.3516 13.8754 10.3115C15.3625 10.2687 16.6773 11.4884 16.6745 12.989C16.6745 14.3371 15.5373 15.6264 14.0066 15.6505Z" fill="#207196"/>
<path d="M15.6001 11.1684C15.4963 11.2246 15.4006 11.262 15.3241 11.3235C15.1683 11.4493 15.1382 11.6312 15.2285 11.8399C15.2694 11.9388 15.3187 12.0351 15.3788 12.1234C15.6166 12.4683 15.6603 12.8402 15.5456 13.2361C15.4334 13.6213 15.3131 14.0064 15.1956 14.3916C15.1929 14.405 15.1847 14.4156 15.1656 14.4505C14.8649 13.5704 14.5696 12.7118 14.2717 11.8399C14.3537 11.8344 14.4193 11.8318 14.4877 11.8238C14.5232 11.8184 14.5669 11.8158 14.5861 11.7944C14.6107 11.7676 14.6189 11.7248 14.6216 11.6874C14.6216 11.6793 14.5779 11.6579 14.5533 11.6579C14.1432 11.6579 13.7304 11.6606 13.3205 11.6606C13.3067 11.6606 13.2904 11.6606 13.2767 11.6633C13.2357 11.6739 13.1619 11.6553 13.1701 11.7221C13.1728 11.7569 13.2329 11.7837 13.2658 11.8131C13.2685 11.8158 13.2767 11.8158 13.2821 11.8158C13.4598 11.7996 13.5282 11.9067 13.5774 12.0511C13.6703 12.3106 13.7742 12.5674 13.8699 12.8242C13.8808 12.8536 13.8836 12.8937 13.8754 12.9231C13.7059 13.4207 13.5336 13.9155 13.3641 14.413C13.3614 14.4237 13.3532 14.4318 13.3341 14.4665C13.0334 13.5865 12.7382 12.7279 12.4375 11.8559C12.5277 11.8425 12.5987 11.8344 12.6671 11.8211C12.7272 11.8078 12.8093 11.8024 12.8038 11.7275C12.7984 11.6473 12.7163 11.6553 12.6562 11.6553C12.4539 11.6579 12.2544 11.6633 12.0521 11.6686C12.0056 11.6686 11.9591 11.6686 11.9072 11.6553C12.2516 11.1497 12.7109 10.802 13.3149 10.6496C14.1678 10.4302 14.9223 10.6334 15.6001 11.1684Z" fill="#207196"/>
<path d="M14.0179 13.2031C14.2694 13.8852 14.5209 14.5673 14.7806 15.2709C14.6356 15.3029 14.5017 15.3377 14.3677 15.3645C14.037 15.4286 13.709 15.4099 13.3837 15.3377C13.2497 15.3083 13.247 15.3003 13.2907 15.1772C13.5122 14.5459 13.7335 13.9147 13.9577 13.2835C13.966 13.2566 13.9796 13.2326 13.9933 13.2058C13.9988 13.2058 14.007 13.2031 14.0179 13.2031Z" fill="#207196"/>
<path d="M11.729 12.0117C12.1171 13.0523 12.5053 14.0954 12.8935 15.1359C12.8852 15.1413 12.8743 15.1466 12.8662 15.152C12.3385 14.8925 11.9476 14.4966 11.7099 13.9671C11.4174 13.3197 11.4474 12.6644 11.6961 12.0144C11.7044 12.0144 11.7153 12.0117 11.729 12.0117Z" fill="#207196"/>
<path d="M16.1422 11.8516C16.4292 12.4321 16.4948 13.0366 16.3144 13.6598C16.1368 14.2723 15.7568 14.7405 15.1854 15.0587C15.1937 15.032 15.1992 15.0052 15.2074 14.9811C15.4589 14.2643 15.7104 13.5475 15.9591 12.8306C16.0547 12.5551 16.123 12.2743 16.1067 11.98C16.104 11.9372 16.1121 11.8944 16.1149 11.8516C16.123 11.8543 16.1341 11.8516 16.1422 11.8516Z" fill="#207196"/>
<mask id="mask0_157_81756" style="mask-type:luminance" maskUnits="userSpaceOnUse" x="3" y="3" width="6" height="6">
<path d="M8.84435 3.49219H3.41602V8.20621H8.84435V3.49219Z" fill="white"/>
</mask>
<g mask="url(#mask0_157_81756)">
<path d="M3.82641 7.53235L4.0658 7.93426C4.11554 8.01886 4.18705 8.08535 4.27099 8.13369L5.12597 6.69531H3.41602C3.41602 6.78899 3.44089 6.88267 3.49063 6.96727L3.82641 7.53235Z" fill="#0066DA"/>
<path d="M6.13018 5.00088L5.2752 3.5625C5.19126 3.61085 5.11975 3.67733 5.07001 3.76194L3.49063 6.42113C3.4418 6.50392 3.41608 6.59767 3.41602 6.69309H5.12597L6.13018 5.00088Z" fill="#00AC47"/>
<path d="M7.98889 8.13369C8.07283 8.08535 8.14434 8.01886 8.19408 7.93426L8.29358 7.76805L8.76927 6.96727C8.81899 6.88267 8.84387 6.78899 8.84387 6.69531H7.13379L7.49767 7.39033L7.98889 8.13369Z" fill="#EA4335"/>
<path d="M6.13012 5.00309L6.98511 3.56471C6.90116 3.51636 6.80478 3.49219 6.70529 3.49219H5.55496C5.45547 3.49219 5.35909 3.51938 5.27515 3.56471L6.13012 5.00309Z" fill="#00832D"/>
<path d="M7.13391 6.69531H5.12549L4.27051 8.13369C4.35445 8.18204 4.45083 8.20622 4.55032 8.20622H7.70907C7.80856 8.20622 7.90494 8.17902 7.98889 8.13369L7.13391 6.69531Z" fill="#2684FC"/>
<path d="M7.98072 5.09154L7.19103 3.76194C7.14129 3.67733 7.06978 3.61085 6.98584 3.5625L6.13086 5.00088L7.13507 6.69309H8.84192C8.84192 6.59942 8.81704 6.50574 8.76733 6.42113L7.98072 5.09154Z" fill="#FFBA00"/>
</g>
</svg>
