<svg width="23" height="23" viewBox="0 0 23 23" fill="none" xmlns="http://www.w3.org/2000/svg">
<path d="M20.983 0.626534C21.3482 0.626534 21.6573 0.75297 21.9102 1.00584C22.163 1.25872 22.2895 1.56779 22.2895 1.93305V20.8986C22.2895 21.2638 22.163 21.5729 21.9102 21.8258C21.6573 22.0786 21.3482 22.2051 20.983 22.2051H2.01745C1.65219 22.2051 1.34312 22.0786 1.09025 21.8258C0.837374 21.5729 0.710938 21.2638 0.710938 20.8986V1.93305C0.710938 1.56779 0.837374 1.25872 1.09025 1.00584C1.34312 0.75297 1.65219 0.626534 2.01745 0.626534H20.983ZM14.9561 2.69167V2.43879H8.04427V2.69167C8.85909 2.63547 9.38591 2.79703 9.62473 3.17634C9.86356 3.55565 9.98297 4.36344 9.98297 5.59971V17.3583C9.98297 17.9484 9.95487 18.433 9.89868 18.8124C9.84248 19.1917 9.75819 19.4656 9.6458 19.6342C9.44912 19.9714 8.91528 20.1399 8.04427 20.1399V20.3928H14.9561V20.1399C14.3099 20.1399 13.8604 20.0627 13.6075 19.9081C13.3546 19.7536 13.186 19.5569 13.1017 19.3181C13.0175 19.0793 12.9753 18.412 12.9753 17.3162V5.38899C12.9753 4.37749 13.0104 3.73828 13.0807 3.47136C13.1509 3.20444 13.3968 3.00074 13.8182 2.86025C14.2397 2.71976 14.619 2.66357 14.9561 2.69167Z" fill="#3C4770"/>
</svg>
