<svg width="18" height="18" viewBox="0 0 18 18" fill="none" xmlns="http://www.w3.org/2000/svg">
<g clip-path="url(#clip0_283_28324)">
<path d="M1.01071 7.96875C0.732963 7.96875 0.507812 8.19393 0.507812 8.47165V15.858C0.507812 16.1357 0.732996 16.3609 1.01071 16.3609H4.0406V7.96875H1.01071Z" fill="#00B121"/>
<path d="M17.4954 10.7461C17.4954 10.1077 17.1524 9.54787 16.641 9.24127C16.8369 8.95835 16.9518 8.61513 16.9518 8.24568C16.9518 7.27903 16.1654 6.49258 15.1987 6.49258H11.498C11.6114 5.97859 11.7665 5.20732 11.8745 4.39992C12.1556 2.29879 11.9635 1.13352 11.27 0.73279C10.8376 0.483002 10.3714 0.432334 9.95733 0.589983C9.63741 0.711839 9.20537 1.01143 8.95917 1.74672L7.98652 4.29343C7.49342 5.51123 5.98337 6.78972 5.04688 7.49664V16.5836C6.78254 17.1918 8.5937 17.5 10.4415 17.5H14.4739C15.4405 17.5 16.2269 16.7136 16.2269 15.7469C16.2269 15.4084 16.1305 15.092 15.9636 14.8238C16.5481 14.5391 16.9517 13.939 16.9517 13.2465C16.9517 12.877 16.8368 12.5339 16.6409 12.2509C17.1524 11.9443 17.4954 11.3845 17.4954 10.7461Z" fill="#00B121"/>
</g>
<defs>
<clipPath id="clip0_283_28324">
<rect width="17" height="17" fill="white" transform="translate(0.5 0.5)"/>
</clipPath>
</defs>
</svg>
