<svg width="19" height="25" viewBox="0 0 19 25" fill="none" xmlns="http://www.w3.org/2000/svg">
<path d="M9.49936 0C4.50693 0 0.445312 4.06162 0.445312 9.054C0.445312 15.2497 8.5478 24.3454 8.89277 24.7295C9.2168 25.0904 9.78252 25.0898 10.106 24.7295C10.4509 24.3454 18.5534 15.2497 18.5534 9.054C18.5533 4.06162 14.4917 0 9.49936 0ZM9.49936 13.6093C6.98755 13.6093 4.94409 11.5658 4.94409 9.054C4.94409 6.54219 6.9876 4.49873 9.49936 4.49873C12.0111 4.49873 14.0546 6.54224 14.0546 9.05405C14.0546 11.5659 12.0111 13.6093 9.49936 13.6093Z" fill="#0061FE"/>
</svg>
