<svg width="1294" height="1012" viewBox="0 0 1294 1012" fill="none" xmlns="http://www.w3.org/2000/svg">
<g filter="url(#filter0_f_688_23016)">
<ellipse cx="647" cy="506" rx="247" ry="106" fill="#9448FF"/>
</g>
<mask id="path-2-outside-1_688_23016" maskUnits="userSpaceOnUse" x="39" y="450" width="1204" height="290" fill="black">
<rect fill="white" x="39" y="450" width="1204" height="290"/>
<path d="M184.6 738.8C158.2 738.8 133.933 732.667 111.8 720.4C89.9333 708.133 72.4667 691.067 59.4 669.2C46.6 647.067 40.2 622.267 40.2 594.8C40.2 567.333 46.6 542.667 59.4 520.8C72.4667 498.933 89.9333 481.867 111.8 469.6C133.933 457.333 158.2 451.2 184.6 451.2C211 451.2 235.133 457.333 257 469.6C279.133 481.867 296.467 498.933 309 520.8C321.8 542.667 328.2 567.333 328.2 594.8C328.2 622.267 321.8 647.067 309 669.2C296.2 691.067 278.867 708.133 257 720.4C235.133 732.667 211 738.8 184.6 738.8ZM184.6 676.4C207 676.4 224.867 668.933 238.2 654C251.8 639.067 258.6 619.333 258.6 594.8C258.6 570 251.8 550.267 238.2 535.6C224.867 520.667 207 513.2 184.6 513.2C161.933 513.2 143.8 520.533 130.2 535.2C116.867 549.867 110.2 569.733 110.2 594.8C110.2 619.6 116.867 639.467 130.2 654.4C143.8 669.067 161.933 676.4 184.6 676.4ZM549.053 455.2V510H434.653V569.2H520.253V622.4H434.653V736H366.253V455.2H549.053ZM767.803 455.2V510H653.403V569.2H739.003V622.4H653.403V736H585.003V455.2H767.803ZM872.153 510V566.8H963.753V619.6H872.153V681.2H975.753V736H803.753V455.2H975.753V510H872.153ZM1163.36 736L1104.96 630H1088.56V736H1020.16V455.2H1134.96C1157.09 455.2 1175.89 459.067 1191.36 466.8C1207.09 474.533 1218.83 485.2 1226.56 498.8C1234.29 512.133 1238.16 527.067 1238.16 543.6C1238.16 562.267 1232.83 578.933 1222.16 593.6C1211.76 608.267 1196.29 618.667 1175.76 624.8L1240.56 736H1163.36ZM1088.56 581.6H1130.96C1143.49 581.6 1152.83 578.533 1158.96 572.4C1165.36 566.267 1168.56 557.6 1168.56 546.4C1168.56 535.733 1165.36 527.333 1158.96 521.2C1152.83 515.067 1143.49 512 1130.96 512H1088.56V581.6Z"/>
</mask>
<path d="M111.8 720.4L111.311 721.272L111.315 721.275L111.8 720.4ZM59.4 669.2L58.5343 669.701L58.5379 669.707L58.5416 669.713L59.4 669.2ZM59.4 520.8L58.5415 520.287L58.537 520.295L59.4 520.8ZM111.8 469.6L111.315 468.725L111.311 468.728L111.8 469.6ZM257 469.6L256.511 470.472L256.515 470.475L257 469.6ZM309 520.8L308.132 521.297L308.137 521.305L309 520.8ZM309 669.2L309.863 669.705L309.866 669.701L309 669.2ZM257 720.4L257.489 721.272L257 720.4ZM238.2 654L237.461 653.327L237.454 653.334L238.2 654ZM238.2 535.6L237.454 536.266L237.46 536.273L237.467 536.28L238.2 535.6ZM130.2 535.2L129.467 534.52L129.46 534.527L130.2 535.2ZM130.2 654.4L129.454 655.066L129.46 655.073L129.467 655.08L130.2 654.4ZM184.6 737.8C158.362 737.8 134.263 731.706 112.285 719.525L111.315 721.275C133.603 733.627 158.038 739.8 184.6 739.8V737.8ZM112.289 719.528C90.5774 707.348 73.237 690.406 60.2584 668.687L58.5416 669.713C71.6963 691.727 89.2892 708.919 111.311 721.272L112.289 719.528ZM60.2657 668.699C47.5602 646.729 41.2 622.104 41.2 594.8H39.2C39.2 622.429 45.6398 647.404 58.5343 669.701L60.2657 668.699ZM41.2 594.8C41.2 567.495 47.5602 543.006 60.263 521.305L58.537 520.295C45.6398 542.327 39.2 567.171 39.2 594.8H41.2ZM60.2584 521.313C73.237 499.594 90.5774 482.652 112.289 470.472L111.311 468.728C89.2892 481.081 71.6963 498.273 58.5416 520.287L60.2584 521.313ZM112.285 470.475C134.263 458.294 158.362 452.2 184.6 452.2V450.2C158.038 450.2 133.603 456.373 111.315 468.725L112.285 470.475ZM184.6 452.2C210.838 452.2 234.802 458.294 256.511 470.472L257.489 468.728C235.465 456.373 211.162 450.2 184.6 450.2V452.2ZM256.515 470.475C278.49 482.653 295.69 499.59 308.132 521.297L309.868 520.303C297.243 498.277 279.777 481.08 257.485 468.725L256.515 470.475ZM308.137 521.305C320.84 543.006 327.2 567.495 327.2 594.8H329.2C329.2 567.171 322.76 542.327 309.863 520.295L308.137 521.305ZM327.2 594.8C327.2 622.104 320.84 646.729 308.134 668.699L309.866 669.701C322.76 647.404 329.2 622.429 329.2 594.8H327.2ZM308.137 668.695C295.426 690.41 278.221 707.349 256.511 719.528L257.489 721.272C279.513 708.918 296.974 691.723 309.863 669.705L308.137 668.695ZM256.511 719.528C234.802 731.706 210.838 737.8 184.6 737.8V739.8C211.162 739.8 235.465 733.627 257.489 721.272L256.511 719.528ZM184.6 677.4C207.247 677.4 225.399 669.838 238.946 654.666L237.454 653.334C224.334 668.028 206.753 675.4 184.6 675.4V677.4ZM238.939 654.673C252.741 639.518 259.6 619.526 259.6 594.8H257.6C257.6 619.14 250.859 638.615 237.461 653.327L238.939 654.673ZM259.6 594.8C259.6 569.811 252.743 549.813 238.933 534.92L237.467 536.28C250.857 550.72 257.6 570.189 257.6 594.8H259.6ZM238.946 534.934C225.399 519.762 207.247 512.2 184.6 512.2V514.2C206.753 514.2 224.334 521.572 237.454 536.266L238.946 534.934ZM184.6 512.2C161.696 512.2 143.282 519.621 129.467 534.52L130.933 535.88C144.318 521.445 162.171 514.2 184.6 514.2V512.2ZM129.46 534.527C115.919 549.423 109.2 569.553 109.2 594.8H111.2C111.2 569.914 117.815 550.31 130.94 535.873L129.46 534.527ZM109.2 594.8C109.2 619.785 115.921 639.908 129.454 655.066L130.946 653.734C117.813 639.025 111.2 619.415 111.2 594.8H109.2ZM129.467 655.08C143.282 669.979 161.696 677.4 184.6 677.4V675.4C162.171 675.4 144.318 668.154 130.933 653.72L129.467 655.08ZM549.053 455.2H550.053V454.2H549.053V455.2ZM549.053 510V511H550.053V510H549.053ZM434.653 510V509H433.653V510H434.653ZM434.653 569.2H433.653V570.2H434.653V569.2ZM520.253 569.2H521.253V568.2H520.253V569.2ZM520.253 622.4V623.4H521.253V622.4H520.253ZM434.653 622.4V621.4H433.653V622.4H434.653ZM434.653 736V737H435.653V736H434.653ZM366.253 736H365.253V737H366.253V736ZM366.253 455.2V454.2H365.253V455.2H366.253ZM548.053 455.2V510H550.053V455.2H548.053ZM549.053 509H434.653V511H549.053V509ZM433.653 510V569.2H435.653V510H433.653ZM434.653 570.2H520.253V568.2H434.653V570.2ZM519.253 569.2V622.4H521.253V569.2H519.253ZM520.253 621.4H434.653V623.4H520.253V621.4ZM433.653 622.4V736H435.653V622.4H433.653ZM434.653 735H366.253V737H434.653V735ZM367.253 736V455.2H365.253V736H367.253ZM366.253 456.2H549.053V454.2H366.253V456.2ZM767.803 455.2H768.803V454.2H767.803V455.2ZM767.803 510V511H768.803V510H767.803ZM653.403 510V509H652.403V510H653.403ZM653.403 569.2H652.403V570.2H653.403V569.2ZM739.003 569.2H740.003V568.2H739.003V569.2ZM739.003 622.4V623.4H740.003V622.4H739.003ZM653.403 622.4V621.4H652.403V622.4H653.403ZM653.403 736V737H654.403V736H653.403ZM585.003 736H584.003V737H585.003V736ZM585.003 455.2V454.2H584.003V455.2H585.003ZM766.803 455.2V510H768.803V455.2H766.803ZM767.803 509H653.403V511H767.803V509ZM652.403 510V569.2H654.403V510H652.403ZM653.403 570.2H739.003V568.2H653.403V570.2ZM738.003 569.2V622.4H740.003V569.2H738.003ZM739.003 621.4H653.403V623.4H739.003V621.4ZM652.403 622.4V736H654.403V622.4H652.403ZM653.403 735H585.003V737H653.403V735ZM586.003 736V455.2H584.003V736H586.003ZM585.003 456.2H767.803V454.2H585.003V456.2ZM872.153 510V509H871.153V510H872.153ZM872.153 566.8H871.153V567.8H872.153V566.8ZM963.753 566.8H964.753V565.8H963.753V566.8ZM963.753 619.6V620.6H964.753V619.6H963.753ZM872.153 619.6V618.6H871.153V619.6H872.153ZM872.153 681.2H871.153V682.2H872.153V681.2ZM975.753 681.2H976.753V680.2H975.753V681.2ZM975.753 736V737H976.753V736H975.753ZM803.753 736H802.753V737H803.753V736ZM803.753 455.2V454.2H802.753V455.2H803.753ZM975.753 455.2H976.753V454.2H975.753V455.2ZM975.753 510V511H976.753V510H975.753ZM871.153 510V566.8H873.153V510H871.153ZM872.153 567.8H963.753V565.8H872.153V567.8ZM962.753 566.8V619.6H964.753V566.8H962.753ZM963.753 618.6H872.153V620.6H963.753V618.6ZM871.153 619.6V681.2H873.153V619.6H871.153ZM872.153 682.2H975.753V680.2H872.153V682.2ZM974.753 681.2V736H976.753V681.2H974.753ZM975.753 735H803.753V737H975.753V735ZM804.753 736V455.2H802.753V736H804.753ZM803.753 456.2H975.753V454.2H803.753V456.2ZM974.753 455.2V510H976.753V455.2H974.753ZM975.753 509H872.153V511H975.753V509ZM1163.36 736L1162.48 736.483L1162.77 737H1163.36V736ZM1104.96 630L1105.84 629.517L1105.55 629H1104.96V630ZM1088.56 630V629H1087.56V630H1088.56ZM1088.56 736V737H1089.56V736H1088.56ZM1020.16 736H1019.16V737H1020.16V736ZM1020.16 455.2V454.2H1019.16V455.2H1020.16ZM1191.36 466.8L1190.91 467.694L1190.92 467.697L1191.36 466.8ZM1226.56 498.8L1225.69 499.294L1225.69 499.302L1226.56 498.8ZM1222.16 593.6L1221.35 593.012L1221.34 593.022L1222.16 593.6ZM1175.76 624.8L1175.47 623.842L1174.26 624.206L1174.9 625.303L1175.76 624.8ZM1240.56 736V737H1242.3L1241.42 735.497L1240.56 736ZM1088.56 581.6H1087.56V582.6H1088.56V581.6ZM1158.96 572.4L1158.27 571.678L1158.26 571.685L1158.25 571.693L1158.96 572.4ZM1158.96 521.2L1158.25 521.907L1158.26 521.915L1158.27 521.922L1158.96 521.2ZM1088.56 512V511H1087.56V512H1088.56ZM1164.24 735.517L1105.84 629.517L1104.08 630.483L1162.48 736.483L1164.24 735.517ZM1104.96 629H1088.56V631H1104.96V629ZM1087.56 630V736H1089.56V630H1087.56ZM1088.56 735H1020.16V737H1088.56V735ZM1021.16 736V455.2H1019.16V736H1021.16ZM1020.16 456.2H1134.96V454.2H1020.16V456.2ZM1134.96 456.2C1156.98 456.2 1175.62 460.047 1190.91 467.694L1191.81 465.906C1176.17 458.086 1157.21 454.2 1134.96 454.2V456.2ZM1190.92 467.697C1206.49 475.353 1218.07 485.889 1225.69 499.294L1227.43 498.306C1219.58 484.511 1207.69 473.713 1191.8 465.903L1190.92 467.697ZM1225.69 499.302C1233.33 512.472 1237.16 527.23 1237.16 543.6H1239.16C1239.16 526.904 1235.25 511.795 1227.42 498.298L1225.69 499.302ZM1237.16 543.6C1237.16 562.062 1231.89 578.521 1221.35 593.012L1222.97 594.188C1233.76 579.345 1239.16 562.471 1239.16 543.6H1237.16ZM1221.34 593.022C1211.1 607.473 1195.84 617.76 1175.47 623.842L1176.05 625.758C1196.75 619.574 1212.42 609.06 1222.98 594.178L1221.34 593.022ZM1174.9 625.303L1239.7 736.503L1241.42 735.497L1176.62 624.297L1174.9 625.303ZM1240.56 735H1163.36V737H1240.56V735ZM1088.56 582.6H1130.96V580.6H1088.56V582.6ZM1130.96 582.6C1143.64 582.6 1153.28 579.498 1159.67 573.107L1158.25 571.693C1152.38 577.569 1143.35 580.6 1130.96 580.6V582.6ZM1159.65 573.122C1166.3 566.753 1169.56 557.796 1169.56 546.4H1167.56C1167.56 557.404 1164.42 565.78 1158.27 571.678L1159.65 573.122ZM1169.56 546.4C1169.56 535.52 1166.29 526.838 1159.65 520.478L1158.27 521.922C1164.43 527.829 1167.56 535.946 1167.56 546.4H1169.56ZM1159.67 520.493C1153.28 514.102 1143.64 511 1130.96 511V513C1143.35 513 1152.38 516.031 1158.25 521.907L1159.67 520.493ZM1130.96 511H1088.56V513H1130.96V511ZM1087.56 512V581.6H1089.56V512H1087.56Z" fill="url(#paint0_radial_688_23016)" mask="url(#path-2-outside-1_688_23016)"/>
<defs>
<filter id="filter0_f_688_23016" x="0" y="0" width="1294" height="1012" filterUnits="userSpaceOnUse" color-interpolation-filters="sRGB">
<feFlood flood-opacity="0" result="BackgroundImageFix"/>
<feBlend mode="normal" in="SourceGraphic" in2="BackgroundImageFix" result="shape"/>
<feGaussianBlur stdDeviation="200" result="effect1_foregroundBlur_688_23016"/>
</filter>
<radialGradient id="paint0_radial_688_23016" cx="0" cy="0" r="1" gradientUnits="userSpaceOnUse" gradientTransform="translate(622.5 616) rotate(178.988) scale(509.58 125.03)">
<stop stop-color="#6801FE"/>
<stop offset="1" stop-color="#6801FE" stop-opacity="0"/>
</radialGradient>
</defs>
</svg>
