<svg width="1700" height="637" viewBox="0 0 1700 637" fill="none" xmlns="http://www.w3.org/2000/svg">
<g filter="url(#filter0_f_688_23013)">
<ellipse cx="850" cy="-13" rx="350" ry="150" fill="#6A00FF"/>
<path d="M1199.5 -13C1199.5 7.5416 1189.79 27.1527 1172.14 45.0356C1154.49 62.9206 1128.92 79.05 1097.29 92.6064C1034.03 119.719 946.599 136.5 850 136.5C753.401 136.5 665.971 119.719 602.71 92.6064C571.078 79.05 545.512 62.9206 527.861 45.0356C510.212 27.1527 500.5 7.5416 500.5 -13C500.5 -33.5416 510.212 -53.1527 527.861 -71.0356C545.512 -88.9206 571.078 -105.05 602.71 -118.606C665.971 -145.719 753.401 -162.5 850 -162.5C946.599 -162.5 1034.03 -145.719 1097.29 -118.606C1128.92 -105.05 1154.49 -88.9206 1172.14 -71.0356C1189.79 -53.1527 1199.5 -33.5416 1199.5 -13Z" stroke="url(#paint0_radial_688_23013)"/>
</g>
<mask id="path-3-outside-1_688_23013" maskUnits="userSpaceOnUse" x="242" y="6" width="1204" height="290" fill="black">
<rect fill="white" x="242" y="6" width="1204" height="290"/>
<path d="M387.6 294.8C361.2 294.8 336.933 288.667 314.8 276.4C292.933 264.133 275.467 247.067 262.4 225.2C249.6 203.067 243.2 178.267 243.2 150.8C243.2 123.333 249.6 98.6667 262.4 76.8C275.467 54.9333 292.933 37.8667 314.8 25.6C336.933 13.3333 361.2 7.2 387.6 7.2C414 7.2 438.133 13.3333 460 25.6C482.133 37.8667 499.467 54.9333 512 76.8C524.8 98.6667 531.2 123.333 531.2 150.8C531.2 178.267 524.8 203.067 512 225.2C499.2 247.067 481.867 264.133 460 276.4C438.133 288.667 414 294.8 387.6 294.8ZM387.6 232.4C410 232.4 427.867 224.933 441.2 210C454.8 195.067 461.6 175.333 461.6 150.8C461.6 126 454.8 106.267 441.2 91.6C427.867 76.6666 410 69.2 387.6 69.2C364.933 69.2 346.8 76.5333 333.2 91.2C319.867 105.867 313.2 125.733 313.2 150.8C313.2 175.6 319.867 195.467 333.2 210.4C346.8 225.067 364.933 232.4 387.6 232.4ZM752.053 11.2V66H637.653V125.2H723.253V178.4H637.653V292H569.253V11.2H752.053ZM970.803 11.2V66H856.403V125.2H942.003V178.4H856.403V292H788.003V11.2H970.803ZM1075.15 66V122.8H1166.75V175.6H1075.15V237.2H1178.75V292H1006.75V11.2H1178.75V66H1075.15ZM1366.36 292L1307.96 186H1291.56V292H1223.16V11.2H1337.96C1360.09 11.2 1378.89 15.0667 1394.36 22.8C1410.09 30.5333 1421.83 41.2 1429.56 54.8C1437.29 68.1333 1441.16 83.0667 1441.16 99.6C1441.16 118.267 1435.83 134.933 1425.16 149.6C1414.76 164.267 1399.29 174.667 1378.76 180.8L1443.56 292H1366.36ZM1291.56 137.6H1333.96C1346.49 137.6 1355.83 134.533 1361.96 128.4C1368.36 122.267 1371.56 113.6 1371.56 102.4C1371.56 91.7333 1368.36 83.3333 1361.96 77.2C1355.83 71.0667 1346.49 68 1333.96 68H1291.56V137.6Z"/>
</mask>
<path d="M314.8 276.4L314.311 277.272L314.315 277.275L314.8 276.4ZM262.4 225.2L261.534 225.701L261.538 225.707L261.542 225.713L262.4 225.2ZM262.4 76.8L261.542 76.287L261.537 76.2948L262.4 76.8ZM314.8 25.6L314.315 24.7253L314.311 24.7279L314.8 25.6ZM460 25.6L459.511 26.4722L459.515 26.4747L460 25.6ZM512 76.8L511.132 77.2973L511.137 77.3052L512 76.8ZM512 225.2L512.863 225.705L512.866 225.701L512 225.2ZM460 276.4L460.489 277.272L460 276.4ZM441.2 210L440.461 209.327L440.454 209.334L441.2 210ZM441.2 91.6L440.454 92.266L440.46 92.273L440.467 92.2799L441.2 91.6ZM333.2 91.2L332.467 90.52L332.46 90.5273L333.2 91.2ZM333.2 210.4L332.454 211.066L332.46 211.073L332.467 211.08L333.2 210.4ZM387.6 293.8C361.362 293.8 337.263 287.706 315.285 275.525L314.315 277.275C336.603 289.627 361.038 295.8 387.6 295.8V293.8ZM315.289 275.528C293.577 263.348 276.237 246.406 263.258 224.687L261.542 225.713C274.696 247.727 292.289 264.919 314.311 277.272L315.289 275.528ZM263.266 224.699C250.56 202.729 244.2 178.104 244.2 150.8H242.2C242.2 178.429 248.64 203.404 261.534 225.701L263.266 224.699ZM244.2 150.8C244.2 123.495 250.56 99.0058 263.263 77.3052L261.537 76.2948C248.64 98.3275 242.2 123.171 242.2 150.8H244.2ZM263.258 77.3129C276.237 55.5937 293.577 38.6519 315.289 26.4721L314.311 24.7279C292.289 37.0814 274.696 54.273 261.542 76.287L263.258 77.3129ZM315.285 26.4747C337.263 14.2938 361.362 8.2 387.6 8.2V6.2C361.038 6.2 336.603 12.3728 314.315 24.7253L315.285 26.4747ZM387.6 8.2C413.838 8.2 437.802 14.2938 459.511 26.4721L460.489 24.7279C438.465 12.3729 414.162 6.2 387.6 6.2V8.2ZM459.515 26.4747C481.49 38.6532 498.69 55.5897 511.132 77.2973L512.868 76.3027C500.243 54.277 482.777 37.0801 460.485 24.7253L459.515 26.4747ZM511.137 77.3052C523.84 99.0058 530.2 123.495 530.2 150.8H532.2C532.2 123.171 525.76 98.3275 512.863 76.2948L511.137 77.3052ZM530.2 150.8C530.2 178.104 523.84 202.729 511.134 224.699L512.866 225.701C525.76 203.404 532.2 178.429 532.2 150.8H530.2ZM511.137 224.695C498.426 246.41 481.221 263.349 459.511 275.528L460.489 277.272C482.513 264.918 499.974 247.723 512.863 225.705L511.137 224.695ZM459.511 275.528C437.802 287.706 413.838 293.8 387.6 293.8V295.8C414.162 295.8 438.465 289.627 460.489 277.272L459.511 275.528ZM387.6 233.4C410.247 233.4 428.399 225.838 441.946 210.666L440.454 209.334C427.334 224.028 409.753 231.4 387.6 231.4V233.4ZM441.939 210.673C455.741 195.518 462.6 175.526 462.6 150.8H460.6C460.6 175.14 453.859 194.615 440.461 209.327L441.939 210.673ZM462.6 150.8C462.6 125.811 455.743 105.813 441.933 90.92L440.467 92.2799C453.857 106.72 460.6 126.189 460.6 150.8H462.6ZM441.946 90.934C428.399 75.7615 410.247 68.2 387.6 68.2V70.2C409.753 70.2 427.334 77.5718 440.454 92.266L441.946 90.934ZM387.6 68.2C364.696 68.2 346.282 75.6211 332.467 90.5201L333.933 91.8799C347.318 77.4455 365.171 70.2 387.6 70.2V68.2ZM332.46 90.5273C318.919 105.423 312.2 125.553 312.2 150.8H314.2C314.2 125.914 320.815 106.31 333.94 91.8727L332.46 90.5273ZM312.2 150.8C312.2 175.785 318.921 195.908 332.454 211.066L333.946 209.734C320.813 195.025 314.2 175.415 314.2 150.8H312.2ZM332.467 211.08C346.282 225.979 364.696 233.4 387.6 233.4V231.4C365.171 231.4 347.318 224.154 333.933 209.72L332.467 211.08ZM752.053 11.2H753.053V10.2H752.053V11.2ZM752.053 66V67H753.053V66H752.053ZM637.653 66V65H636.653V66H637.653ZM637.653 125.2H636.653V126.2H637.653V125.2ZM723.253 125.2H724.253V124.2H723.253V125.2ZM723.253 178.4V179.4H724.253V178.4H723.253ZM637.653 178.4V177.4H636.653V178.4H637.653ZM637.653 292V293H638.653V292H637.653ZM569.253 292H568.253V293H569.253V292ZM569.253 11.2V10.2H568.253V11.2H569.253ZM751.053 11.2V66H753.053V11.2H751.053ZM752.053 65H637.653V67H752.053V65ZM636.653 66V125.2H638.653V66H636.653ZM637.653 126.2H723.253V124.2H637.653V126.2ZM722.253 125.2V178.4H724.253V125.2H722.253ZM723.253 177.4H637.653V179.4H723.253V177.4ZM636.653 178.4V292H638.653V178.4H636.653ZM637.653 291H569.253V293H637.653V291ZM570.253 292V11.2H568.253V292H570.253ZM569.253 12.2H752.053V10.2H569.253V12.2ZM970.803 11.2H971.803V10.2H970.803V11.2ZM970.803 66V67H971.803V66H970.803ZM856.403 66V65H855.403V66H856.403ZM856.403 125.2H855.403V126.2H856.403V125.2ZM942.003 125.2H943.003V124.2H942.003V125.2ZM942.003 178.4V179.4H943.003V178.4H942.003ZM856.403 178.4V177.4H855.403V178.4H856.403ZM856.403 292V293H857.403V292H856.403ZM788.003 292H787.003V293H788.003V292ZM788.003 11.2V10.2H787.003V11.2H788.003ZM969.803 11.2V66H971.803V11.2H969.803ZM970.803 65H856.403V67H970.803V65ZM855.403 66V125.2H857.403V66H855.403ZM856.403 126.2H942.003V124.2H856.403V126.2ZM941.003 125.2V178.4H943.003V125.2H941.003ZM942.003 177.4H856.403V179.4H942.003V177.4ZM855.403 178.4V292H857.403V178.4H855.403ZM856.403 291H788.003V293H856.403V291ZM789.003 292V11.2H787.003V292H789.003ZM788.003 12.2H970.803V10.2H788.003V12.2ZM1075.15 66V65H1074.15V66H1075.15ZM1075.15 122.8H1074.15V123.8H1075.15V122.8ZM1166.75 122.8H1167.75V121.8H1166.75V122.8ZM1166.75 175.6V176.6H1167.75V175.6H1166.75ZM1075.15 175.6V174.6H1074.15V175.6H1075.15ZM1075.15 237.2H1074.15V238.2H1075.15V237.2ZM1178.75 237.2H1179.75V236.2H1178.75V237.2ZM1178.75 292V293H1179.75V292H1178.75ZM1006.75 292H1005.75V293H1006.75V292ZM1006.75 11.2V10.2H1005.75V11.2H1006.75ZM1178.75 11.2H1179.75V10.2H1178.75V11.2ZM1178.75 66V67H1179.75V66H1178.75ZM1074.15 66V122.8H1076.15V66H1074.15ZM1075.15 123.8H1166.75V121.8H1075.15V123.8ZM1165.75 122.8V175.6H1167.75V122.8H1165.75ZM1166.75 174.6H1075.15V176.6H1166.75V174.6ZM1074.15 175.6V237.2H1076.15V175.6H1074.15ZM1075.15 238.2H1178.75V236.2H1075.15V238.2ZM1177.75 237.2V292H1179.75V237.2H1177.75ZM1178.75 291H1006.75V293H1178.75V291ZM1007.75 292V11.2H1005.75V292H1007.75ZM1006.75 12.2H1178.75V10.2H1006.75V12.2ZM1177.75 11.2V66H1179.75V11.2H1177.75ZM1178.75 65H1075.15V67H1178.75V65ZM1366.36 292L1365.48 292.483L1365.77 293H1366.36V292ZM1307.96 186L1308.84 185.517L1308.55 185H1307.96V186ZM1291.56 186V185H1290.56V186H1291.56ZM1291.56 292V293H1292.56V292H1291.56ZM1223.16 292H1222.16V293H1223.16V292ZM1223.16 11.2V10.2H1222.16V11.2H1223.16ZM1394.36 22.8L1393.91 23.6944L1393.92 23.6974L1394.36 22.8ZM1429.56 54.8L1428.69 55.2943L1428.69 55.3017L1429.56 54.8ZM1425.16 149.6L1424.35 149.012L1424.34 149.022L1425.16 149.6ZM1378.76 180.8L1378.47 179.842L1377.26 180.206L1377.9 181.303L1378.76 180.8ZM1443.56 292V293H1445.3L1444.42 291.497L1443.56 292ZM1291.56 137.6H1290.56V138.6H1291.56V137.6ZM1361.96 128.4L1361.27 127.678L1361.26 127.685L1361.25 127.693L1361.96 128.4ZM1361.96 77.2L1361.25 77.9071L1361.26 77.9146L1361.27 77.922L1361.96 77.2ZM1291.56 68V67H1290.56V68H1291.56ZM1367.24 291.517L1308.84 185.517L1307.08 186.483L1365.48 292.483L1367.24 291.517ZM1307.96 185H1291.56V187H1307.96V185ZM1290.56 186V292H1292.56V186H1290.56ZM1291.56 291H1223.16V293H1291.56V291ZM1224.16 292V11.2H1222.16V292H1224.16ZM1223.16 12.2H1337.96V10.2H1223.16V12.2ZM1337.96 12.2C1359.98 12.2 1378.62 16.0472 1393.91 23.6944L1394.81 21.9056C1379.17 14.0861 1360.21 10.2 1337.96 10.2V12.2ZM1393.92 23.6974C1409.49 31.3534 1421.07 41.8891 1428.69 55.2943L1430.43 54.3057C1422.58 40.5108 1410.69 29.7132 1394.8 21.9025L1393.92 23.6974ZM1428.69 55.3017C1436.33 68.4715 1440.16 83.2296 1440.16 99.6H1442.16C1442.16 82.9037 1438.25 67.7951 1430.42 54.2983L1428.69 55.3017ZM1440.16 99.6C1440.16 118.062 1434.89 134.521 1424.35 149.012L1425.97 150.188C1436.76 135.345 1442.16 118.471 1442.16 99.6H1440.16ZM1424.34 149.022C1414.1 163.473 1398.84 173.76 1378.47 179.842L1379.05 181.758C1399.75 175.574 1415.42 165.06 1425.98 150.178L1424.34 149.022ZM1377.9 181.303L1442.7 292.503L1444.42 291.497L1379.62 180.297L1377.9 181.303ZM1443.56 291H1366.36V293H1443.56V291ZM1291.56 138.6H1333.96V136.6H1291.56V138.6ZM1333.96 138.6C1346.64 138.6 1356.28 135.498 1362.67 129.107L1361.25 127.693C1355.38 133.569 1346.35 136.6 1333.96 136.6V138.6ZM1362.65 129.122C1369.3 122.753 1372.56 113.796 1372.56 102.4H1370.56C1370.56 113.404 1367.42 121.78 1361.27 127.678L1362.65 129.122ZM1372.56 102.4C1372.56 91.5204 1369.29 82.8376 1362.65 76.478L1361.27 77.922C1367.43 83.8291 1370.56 91.9463 1370.56 102.4H1372.56ZM1362.67 76.4929C1356.28 70.1023 1346.64 67 1333.96 67V69C1346.35 69 1355.38 72.0311 1361.25 77.9071L1362.67 76.4929ZM1333.96 67H1291.56V69H1333.96V67ZM1290.56 68V137.6H1292.56V68H1290.56Z" fill="url(#paint1_radial_688_23013)" mask="url(#path-3-outside-1_688_23013)"/>
<defs>
<filter id="filter0_f_688_23013" x="0" y="-663" width="1700" height="1300" filterUnits="userSpaceOnUse" color-interpolation-filters="sRGB">
<feFlood flood-opacity="0" result="BackgroundImageFix"/>
<feBlend mode="normal" in="SourceGraphic" in2="BackgroundImageFix" result="shape"/>
<feGaussianBlur stdDeviation="250" result="effect1_foregroundBlur_688_23013"/>
</filter>
<radialGradient id="paint0_radial_688_23013" cx="0" cy="0" r="1" gradientUnits="userSpaceOnUse" gradientTransform="translate(836.441 6.73686) rotate(178.233) scale(287.99 123.345)">
<stop stop-color="#6801FE" stop-opacity="0.5"/>
<stop offset="1" stop-color="#6801FE" stop-opacity="0"/>
</radialGradient>
<radialGradient id="paint1_radial_688_23013" cx="0" cy="0" r="1" gradientUnits="userSpaceOnUse" gradientTransform="translate(825.5 172) rotate(178.988) scale(509.58 125.03)">
<stop stop-color="#6801FE" stop-opacity="0.5"/>
<stop offset="1" stop-color="#6801FE" stop-opacity="0"/>
</radialGradient>
</defs>
</svg>
