<svg width="25" height="25" viewBox="0 0 25 25" fill="none" xmlns="http://www.w3.org/2000/svg">
<path d="M12.5 0C5.59126 0 0 5.59063 0 12.5C0 19.4086 5.59063 25 12.5 25C19.4087 25 25 19.4094 25 12.5C25 5.59126 19.4094 0 12.5 0ZM12.1301 18.3505C11.4226 18.3505 10.8796 17.7582 10.8796 17.0835C10.8796 16.3925 11.4391 15.8166 12.1301 15.8166C12.8212 15.8166 13.397 16.3925 13.397 17.0836C13.397 17.7582 12.8376 18.3505 12.1301 18.3505ZM14.0058 11.95C13.1009 12.6575 13.0844 13.1511 13.0844 14.0067C13.0844 14.3194 12.9198 14.6813 12.1136 14.6813C11.439 14.6813 11.2087 14.4345 11.2087 13.579C11.2087 12.1639 11.8339 11.4893 12.3111 11.078C12.8541 10.6172 13.7755 10.1072 13.7755 9.21875C13.7755 8.46182 13.1173 8.09985 12.2946 8.09985C10.6164 8.09985 10.9784 9.36685 10.0898 9.36685C9.64556 9.36685 9.10259 9.07061 9.10259 8.42896C9.10259 7.54048 10.1227 6.22412 12.344 6.22412C14.45 6.22412 15.8486 7.39238 15.8486 8.93901C15.8486 10.4856 14.45 11.6045 14.0058 11.95Z" fill="#3C4770"/>
</svg>
