<svg width="19" height="23" viewBox="0 0 19 23" fill="none" xmlns="http://www.w3.org/2000/svg">
<g clip-path="url(#clip0_581_2950)">
<path d="M17.6629 6.76744C17.6629 6.76744 17.8737 7.12858 18.2952 7.85086C18.7167 8.57315 18.9275 9.78957 18.9275 11.5001C18.9275 13.2107 18.506 14.7883 17.6629 16.2328C16.8199 17.6774 15.6762 18.8212 14.2316 19.6642C12.787 20.5072 11.2094 20.9287 9.49888 20.9287C8.5904 20.9287 7.69829 20.7978 6.82255 20.5359C7.30543 19.7747 7.62463 19.1036 7.78013 18.5225C7.8538 18.2442 8.07478 17.3807 8.44308 15.9321C8.60677 16.2513 8.90551 16.5275 9.33929 16.7607C9.77307 16.994 10.2396 17.1106 10.7388 17.1106C11.7292 17.1106 12.6131 16.8303 13.3906 16.2697C14.1682 15.709 14.7697 14.9376 15.1953 13.9555C15.6209 12.9734 15.8337 11.8684 15.8337 10.6408C15.8337 9.70773 15.5902 8.83198 15.1032 8.01353C14.6163 7.19508 13.9103 6.52804 12.9855 6.01242C12.0606 5.49679 11.0171 5.23898 9.85491 5.23898C8.99554 5.23898 8.19345 5.35765 7.44866 5.59501C6.70387 5.83236 6.07161 6.14746 5.5519 6.54032C5.03218 6.93317 4.58612 7.38537 4.21373 7.8969C3.84133 8.40843 3.56715 8.93838 3.39118 9.48675C3.21522 10.0351 3.12723 10.5835 3.12723 11.1318C3.12723 11.983 3.29092 12.7319 3.6183 13.3785C3.94568 14.0251 4.42448 14.4793 5.05469 14.7412C5.30022 14.8394 5.45573 14.7576 5.52121 14.4957C5.53757 14.4384 5.57031 14.3115 5.61942 14.1151C5.66853 13.9187 5.70127 13.7959 5.71763 13.7468C5.76674 13.5585 5.72173 13.3826 5.58259 13.2189C5.16518 12.7196 4.95647 12.1017 4.95647 11.3651C4.95647 10.1292 5.38411 9.06729 6.2394 8.17927C7.09468 7.29125 8.21391 6.84724 9.5971 6.84724C10.833 6.84724 11.7967 7.1828 12.4883 7.85393C13.1799 8.52506 13.5257 9.39672 13.5257 10.4689C13.5257 11.8603 13.2454 13.0429 12.6847 14.0169C12.1241 14.9908 11.4059 15.4778 10.5301 15.4778C10.0309 15.4778 9.62984 15.2998 9.32701 14.9438C9.02418 14.5878 8.93006 14.1601 9.04464 13.6609C9.11012 13.3744 9.21856 12.9918 9.36998 12.513C9.52139 12.0342 9.64416 11.6127 9.73828 11.2485C9.8324 10.8843 9.87947 10.5753 9.87947 10.3216C9.87947 9.91234 9.76897 9.57268 9.54799 9.30259C9.32701 9.03251 9.01191 8.89746 8.60268 8.89746C8.09524 8.89746 7.66555 9.13072 7.31362 9.59724C6.96168 10.0638 6.78571 10.6449 6.78571 11.3405C6.78571 11.938 6.88802 12.4373 7.09263 12.8383L5.87723 17.97C5.7381 18.5429 5.6849 19.2673 5.71763 20.143C4.03162 19.3982 2.6689 18.2483 1.62946 16.6932C0.59003 15.1382 0.0703125 13.4071 0.0703125 11.5001C0.0703125 9.78957 0.491816 8.21201 1.33482 6.76744C2.17783 5.32287 3.32161 4.17908 4.76618 3.33608C6.21075 2.49307 7.78832 2.07157 9.49888 2.07157C11.2094 2.07157 12.787 2.49307 14.2316 3.33608C15.6762 4.17908 16.8199 5.32287 17.6629 6.76744Z" fill="#3C4770"/>
</g>
<defs>
<clipPath id="clip0_581_2950">
<rect width="18.86" height="22" fill="white" transform="matrix(1 0 0 -1 0.0703125 22.5)"/>
</clipPath>
</defs>
</svg>
