<svg width="34" height="34" viewBox="0 0 34 34" fill="none" xmlns="http://www.w3.org/2000/svg">
<path fill-rule="evenodd" clip-rule="evenodd" d="M15.7649 34C14.8168 33.9966 13.9021 33.6498 13.19 33.0239C12.4779 32.398 12.0166 31.5353 11.8916 30.5956H19.6415C19.5156 31.5356 19.0537 32.3983 18.341 33.0241C17.6284 33.65 16.7133 33.9966 15.7649 34ZM20.1295 29.6902H11.4037C10.8112 29.6897 10.2432 29.4542 9.82408 29.0354C9.40499 28.6166 9.16905 28.0488 9.16799 27.4563V25.9739H22.3613V27.456C22.3611 28.0481 22.1259 28.6159 21.7074 29.0347C21.2889 29.4535 20.7213 29.6892 20.1292 29.6899L20.1295 29.6902ZM16.2167 14.4527H19.7803C19.9003 14.4524 20.0152 14.4045 20.1 14.3196C20.1847 14.2348 20.2323 14.1197 20.2324 13.9998C20.2324 13.5678 20.404 13.1535 20.7094 12.8481C21.0149 12.5426 21.4292 12.371 21.8611 12.371C22.2931 12.371 22.7074 12.5426 23.0128 12.8481C23.3183 13.1535 23.4899 13.5678 23.4899 13.9998C23.49 14.0594 23.5019 14.1185 23.5249 14.1736C23.5479 14.2286 23.5815 14.2786 23.6238 14.3207C23.6662 14.3627 23.7164 14.3961 23.7716 14.4187C23.8268 14.4413 23.8859 14.4529 23.9456 14.4527H27.5233C27.5269 14.5317 27.5269 14.612 27.5269 14.6908C27.5279 16.4073 27.1526 18.1031 26.4275 19.6589C25.7023 21.2146 24.6449 22.5925 23.3297 23.6955C22.8997 24.0495 22.5921 24.5298 22.4503 25.0684H16.2167V22.2541C16.8011 22.1482 17.3297 21.8405 17.7103 21.3847C18.0909 20.9289 18.2995 20.3539 18.2995 19.7601C18.2995 19.1662 18.0909 18.5913 17.7103 18.1354C17.3297 17.6796 16.8011 17.372 16.2167 17.2661V14.4527ZM15.7646 18.1316C15.6446 18.1313 15.5297 18.0835 15.4449 17.9986C15.3601 17.9137 15.3125 17.7987 15.3125 17.6787V14.4527H12.1618C12.0557 15.0367 11.7479 15.5649 11.2922 15.9453C10.8364 16.3256 10.2617 16.534 9.66806 16.534C9.07446 16.534 8.49969 16.3256 8.04396 15.9453C7.58823 15.5649 7.28045 15.0367 7.17428 14.4527H4.00942C4.00583 14.5317 4.00583 14.611 4.00583 14.6908C4.00417 16.407 4.37881 18.1027 5.10338 19.6585C5.82794 21.2143 6.8848 22.5923 8.19952 23.6955C8.63086 24.0482 8.93882 24.529 9.07887 25.0684H15.3125V21.8418C15.3125 21.7219 15.3601 21.6068 15.4449 21.5219C15.5297 21.437 15.6446 21.3892 15.7646 21.389C15.9793 21.3904 16.1923 21.3492 16.3911 21.268C16.5899 21.1868 16.7707 21.067 16.923 20.9156C17.0753 20.7643 17.1963 20.5843 17.2788 20.386C17.3613 20.1877 17.4037 19.975 17.4037 19.7603C17.4037 19.5455 17.3613 19.3329 17.2788 19.1346C17.1963 18.9363 17.0753 18.7563 16.923 18.6049C16.7707 18.4535 16.5899 18.3338 16.3911 18.2525C16.1923 18.1713 15.9793 18.1302 15.7646 18.1316ZM15.3125 10.7324V13.5469H11.7489C11.6894 13.5469 11.6306 13.5587 11.5757 13.5814C11.5209 13.6042 11.471 13.6376 11.429 13.6796C11.387 13.7217 11.3538 13.7716 11.3311 13.8265C11.3084 13.8814 11.2967 13.9403 11.2968 13.9997C11.2981 14.2145 11.257 14.4274 11.1758 14.6262C11.0946 14.825 10.9748 15.0058 10.8234 15.1581C10.6721 15.3105 10.492 15.4314 10.2938 15.5139C10.0955 15.5964 9.88283 15.6388 9.66806 15.6388C9.4533 15.6388 9.24065 15.5964 9.04237 15.5139C8.84408 15.4314 8.66407 15.3105 8.51269 15.1581C8.36132 15.0058 8.24157 14.825 8.16033 14.6262C8.07909 14.4274 8.03798 14.2145 8.03935 13.9997C8.0394 13.9403 8.02775 13.8814 8.00506 13.8265C7.98236 13.7716 7.94908 13.7217 7.9071 13.6796C7.86511 13.6376 7.81526 13.6042 7.76038 13.5814C7.7055 13.5587 7.64668 13.5469 7.58726 13.5469H4.05922C4.62188 7.74483 9.42067 3.16339 15.3125 2.93954V5.7448C14.7282 5.85067 14.1997 6.15833 13.8191 6.6141C13.4385 7.06987 13.23 7.6448 13.23 8.23859C13.23 8.83238 13.4385 9.40732 13.8191 9.86308C14.1997 10.3189 14.7282 10.6265 15.3125 10.7324ZM16.6619 5.29982C16.6621 4.86815 16.8335 4.45419 17.1385 4.14873C17.4435 3.84327 17.8572 3.67125 18.2889 3.67041C18.4089 3.67027 18.5239 3.62249 18.6087 3.53758C18.6934 3.45267 18.741 3.33757 18.741 3.21758V0C24.6151 0.222859 29.4318 4.76618 29.9943 10.6075H26.8792C26.7731 10.0234 26.4653 9.49512 26.0096 9.11473C25.5538 8.73434 24.979 8.52598 24.3854 8.52598C23.7918 8.52598 23.217 8.73434 22.7612 9.11473C22.3055 9.49512 21.9977 10.0234 21.8916 10.6075H18.7409V7.38105C18.7409 7.26109 18.6932 7.14605 18.6085 7.06115C18.5237 6.97625 18.4088 6.92843 18.2888 6.92816C17.8573 6.9275 17.4437 6.75568 17.1387 6.45041C16.8337 6.14513 16.6622 5.73134 16.6619 5.29982Z" fill="url(#paint0_linear_154_36680)"/>
<defs>
<linearGradient id="paint0_linear_154_36680" x1="7.13727" y1="-9.86666" x2="54.7536" y2="40.8426" gradientUnits="userSpaceOnUse">
<stop stop-color="#8400FE"/>
<stop offset="1" stop-color="white" stop-opacity="0.4"/>
</linearGradient>
</defs>
</svg>
