<svg width="23" height="23" viewBox="0 0 23 23" fill="none" xmlns="http://www.w3.org/2000/svg">
<path d="M13.9431 14.827C14.074 14.958 14.074 15.0848 13.9431 15.2076C13.4356 15.715 12.6213 15.9688 11.5 15.9688C10.3787 15.9688 9.56436 15.715 9.05692 15.2076C8.92597 15.0848 8.92597 14.958 9.05692 14.827C9.10603 14.7779 9.16741 14.7533 9.24107 14.7533C9.31473 14.7533 9.37612 14.7779 9.42522 14.827C9.81808 15.2281 10.5097 15.4286 11.5 15.4286C12.4821 15.4286 13.1737 15.2281 13.5748 14.827C13.6239 14.7779 13.6853 14.7533 13.7589 14.7533C13.8326 14.7533 13.894 14.7779 13.9431 14.827ZM9.85491 11.8253C9.85491 11.8253 9.90811 11.8796 10.0145 11.988C10.1209 12.0964 10.1741 12.3021 10.1741 12.6049C10.1741 12.9077 10.0677 13.1656 9.85491 13.3783C9.64211 13.5911 9.3843 13.6975 9.08147 13.6975C8.77865 13.6975 8.51879 13.5911 8.3019 13.3783C8.08501 13.1656 7.97656 12.9077 7.97656 12.6049C7.97656 12.2939 8.08501 12.032 8.3019 11.8192C8.51879 11.6064 8.77865 11.5 9.08147 11.5C9.3843 11.5 9.64211 11.6084 9.85491 11.8253ZM15.0234 12.6049C15.0234 12.9077 14.915 13.1656 14.6981 13.3783C14.4812 13.5911 14.2214 13.6975 13.9185 13.6975C13.6157 13.6975 13.3579 13.5911 13.1451 13.3783C12.9323 13.1656 12.8259 12.9077 12.8259 12.6049C12.8259 12.3021 12.9323 12.0422 13.1451 11.8253C13.3579 11.6084 13.6157 11.5 13.9185 11.5C14.2214 11.5 14.4812 11.6064 14.6981 11.8192C14.915 12.032 15.0234 12.2939 15.0234 12.6049ZM18.1049 11.1317C18.1049 10.7307 17.9617 10.3869 17.6752 10.1004C17.3888 9.81399 17.0409 9.67076 16.6317 9.67076C16.2225 9.67076 15.8705 9.81808 15.5759 10.1127C14.5119 9.37612 13.2392 8.98326 11.7578 8.93415L12.5312 5.45982L14.9866 6.01228C14.9866 6.31511 15.093 6.57292 15.3058 6.78572C15.5186 6.99851 15.7764 7.10491 16.0792 7.10491C16.3821 7.10491 16.6419 6.99647 16.8588 6.77958C17.0757 6.56269 17.1842 6.30283 17.1842 6C17.1842 5.69717 17.0757 5.43731 16.8588 5.22042C16.6419 5.00353 16.3821 4.89509 16.0792 4.89509C15.6373 4.89509 15.3099 5.0997 15.0971 5.50893L12.3839 4.90737C12.2284 4.86644 12.1261 4.93192 12.077 5.10379L11.2299 8.93415C9.7567 8.99144 8.49219 9.38839 7.43638 10.125C7.14993 9.82217 6.7939 9.67076 6.3683 9.67076C5.95908 9.67076 5.61124 9.81399 5.32478 10.1004C5.03832 10.3869 4.89509 10.7307 4.89509 11.1317C4.89509 11.4182 4.9708 11.6801 5.12221 11.9174C5.27362 12.1548 5.47619 12.3348 5.72991 12.4576C5.6808 12.6786 5.65625 12.9077 5.65625 13.1451C5.65625 14.3073 6.22917 15.3017 7.375 16.1283C8.52083 16.955 9.89993 17.3683 11.5123 17.3683C13.1328 17.3683 14.516 16.955 15.6618 16.1283C16.8077 15.3017 17.3806 14.3073 17.3806 13.1451C17.3806 12.8832 17.3519 12.6499 17.2946 12.4453C17.5402 12.3225 17.7366 12.1445 17.8839 11.9113C18.0312 11.678 18.1049 11.4182 18.1049 11.1317ZM21.6283 7.22768C21.6283 7.22768 21.7736 7.56734 22.0642 8.24665C22.3547 8.92597 22.5 10.0104 22.5 11.5C22.5 12.9896 22.2094 14.4137 21.6283 15.7723C21.0472 17.131 20.2656 18.3013 19.2835 19.2835C18.3013 20.2656 17.131 21.0472 15.7723 21.6283C14.4137 22.2094 12.9896 22.5 11.5 22.5C10.0104 22.5 8.58631 22.2094 7.22768 21.6283C5.86905 21.0472 4.69866 20.2656 3.71652 19.2835C2.73438 18.3013 1.95275 17.131 1.37165 15.7723C0.790551 14.4137 0.5 12.9896 0.5 11.5C0.5 10.0104 0.790551 8.58631 1.37165 7.22768C1.95275 5.86905 2.73438 4.69866 3.71652 3.71652C4.69866 2.73438 5.86905 1.95275 7.22768 1.37165C8.58631 0.79055 10.0104 0.5 11.5 0.5C12.9896 0.5 14.4137 0.79055 15.7723 1.37165C17.131 1.95275 18.3013 2.73438 19.2835 3.71652C20.2656 4.69866 21.0472 5.86905 21.6283 7.22768Z" fill="#3C4770"/>
</svg>
