<svg width="12" height="11" viewBox="0 0 12 11" fill="none" xmlns="http://www.w3.org/2000/svg">
<path d="M0.535267 8.91134C0.210158 9.168 0.154673 9.63962 0.411338 9.96473C0.668003 10.2898 1.13962 10.3453 1.46473 10.0887L0.535267 8.91134ZM11.2449 2.08763C11.2933 1.67625 10.999 1.30353 10.5876 1.25514L3.88386 0.466459C3.47249 0.418061 3.09977 0.712314 3.05137 1.12369C3.00297 1.53507 3.29723 1.90779 3.7086 1.95618L9.66751 2.65723L8.96646 8.61614C8.91806 9.02751 9.21231 9.40023 9.62369 9.44863C10.0351 9.49703 10.4078 9.20277 10.4562 8.7914L11.2449 2.08763ZM1.46473 10.0887L6.21473 6.33866L5.28527 5.16134L0.535267 8.91134L1.46473 10.0887ZM6.21473 6.33866L10.9647 2.58866L10.0353 1.41134L5.28527 5.16134L6.21473 6.33866Z" fill="#000D23"/>
</svg>
