<svg width="20" height="20" viewBox="0 0 20 20" fill="none" xmlns="http://www.w3.org/2000/svg">
<path d="M14.9202 12.44C14.9202 12.0308 14.8404 11.6563 14.6808 11.3167C14.5212 10.977 14.3227 10.6967 14.0854 10.4757C13.848 10.2547 13.5493 10.0542 13.1892 9.87416C12.8291 9.6941 12.4914 9.55497 12.1763 9.45675C11.8612 9.35854 11.5032 9.26442 11.1021 9.17439L9.82534 8.87974C9.5798 8.82245 9.39974 8.77948 9.28516 8.75084C9.17057 8.72219 9.02734 8.67513 8.85547 8.60965C8.68359 8.54418 8.56083 8.4787 8.48717 8.41323C8.41351 8.34775 8.34598 8.26181 8.2846 8.15541C8.22321 8.04901 8.19252 7.92625 8.19252 7.78711C8.19252 7.1569 8.78181 6.8418 9.96038 6.8418C10.3123 6.8418 10.6274 6.8909 10.9057 6.98912C11.184 7.08733 11.4049 7.20396 11.5686 7.33901C11.7323 7.47405 11.8878 7.61114 12.0352 7.75028C12.1825 7.88942 12.3462 8.00809 12.5262 8.10631C12.7063 8.20452 12.9027 8.25363 13.1155 8.25363C13.5002 8.25363 13.8092 8.12267 14.0424 7.86077C14.2757 7.59886 14.3923 7.28376 14.3923 6.91546C14.3923 6.46531 14.1631 6.05813 13.7048 5.69392C13.2465 5.32971 12.6654 5.05348 11.9615 4.86523C11.2576 4.67699 10.5128 4.58287 9.72712 4.58287C9.17057 4.58287 8.63039 4.6463 8.10659 4.77316C7.58278 4.90002 7.09375 5.09235 6.63951 5.35017C6.18527 5.60798 5.82106 5.96401 5.54688 6.41825C5.27269 6.87249 5.1356 7.39834 5.1356 7.99581C5.1356 8.49507 5.21336 8.9309 5.36886 9.30329C5.52437 9.67569 5.75353 9.98465 6.05636 10.2302C6.35919 10.4757 6.68657 10.6742 7.0385 10.8256C7.39044 10.977 7.81194 11.11 8.30301 11.2246L10.0954 11.6666C10.832 11.8466 11.2904 11.994 11.4704 12.1085C11.7323 12.2722 11.8633 12.5178 11.8633 12.8451C11.8633 13.1643 11.6996 13.4283 11.3722 13.637C11.0448 13.8457 10.6151 13.9501 10.0831 13.9501C9.66574 13.9501 9.2913 13.8846 8.95982 13.7536C8.62835 13.6227 8.36235 13.4651 8.16183 13.281C7.96131 13.0968 7.77511 12.9127 7.60324 12.7285C7.43136 12.5444 7.24312 12.3868 7.0385 12.2559C6.83389 12.1249 6.61291 12.0594 6.37556 12.0594C5.96633 12.0594 5.65737 12.1822 5.44866 12.4277C5.23996 12.6733 5.1356 12.9802 5.1356 13.3485C5.1356 14.1015 5.63486 14.746 6.63337 15.2821C7.63188 15.8182 8.82273 16.0862 10.2059 16.0862C10.8034 16.0862 11.3763 16.0105 11.9247 15.8591C12.473 15.7077 12.9743 15.4887 13.4286 15.2023C13.8828 14.9158 14.245 14.5332 14.5151 14.0544C14.7852 13.5756 14.9202 13.0375 14.9202 12.44ZM19.3767 15.1041C19.3767 16.4054 18.9163 17.5165 17.9955 18.4372C17.0748 19.358 15.9637 19.8184 14.6624 19.8184C13.5984 19.8184 12.6408 19.491 11.7896 18.8362C11.1594 18.9672 10.5456 19.0326 9.9481 19.0326C8.77772 19.0326 7.65848 18.8055 6.5904 18.3513C5.52232 17.897 4.60156 17.2832 3.82813 16.5098C3.05469 15.7363 2.44085 14.8156 1.98661 13.7475C1.53237 12.6794 1.30525 11.5602 1.30525 10.3898C1.30525 9.79232 1.37072 9.17848 1.50167 8.54827C0.846912 7.69708 0.519531 6.73949 0.519531 5.6755C0.519531 4.37416 0.979911 3.26311 1.90067 2.34235C2.82143 1.42159 3.93248 0.961216 5.23382 0.961216C6.29781 0.961216 7.25539 1.2886 8.10659 1.94336C8.73679 1.81241 9.35063 1.74693 9.9481 1.74693C11.1185 1.74693 12.2377 1.97405 13.3058 2.42829C14.3739 2.88253 15.2946 3.49637 16.0681 4.26981C16.8415 5.04325 17.4554 5.96401 17.9096 7.03209C18.3638 8.10017 18.591 9.2194 18.591 10.3898C18.591 10.9873 18.5255 11.6011 18.3945 12.2313C19.0493 13.0825 19.3767 14.0401 19.3767 15.1041Z" fill="#3C4770"/>
</svg>
