<svg width="155" height="13" viewBox="0 0 155 13" fill="none" xmlns="http://www.w3.org/2000/svg">
<path d="M0 8.50157C0 10.7107 1.79086 12.5016 4 12.5016C6.20914 12.5016 8 10.7107 8 8.50157C8 6.29243 6.20914 4.50157 4 4.50157C1.79086 4.50157 0 6.29243 0 8.50157ZM33.2431 0.960781L33.1964 1.70933L33.2431 0.960781ZM56.6376 8.50157L56.6474 7.75164L56.6376 8.50157ZM81.0642 0.960781L80.9759 0.215998L81.0642 0.960781ZM121.317 8.50157L121.345 7.7521L121.317 8.50157ZM154.607 6.24861C154.85 5.91324 154.776 5.44429 154.44 5.20119L148.975 1.23958C148.64 0.996479 148.171 1.07128 147.928 1.40665C147.684 1.74202 147.759 2.21096 148.095 2.45407L152.953 5.9755L149.431 10.8334C149.188 11.1688 149.263 11.6377 149.598 11.8809C149.934 12.124 150.403 12.0492 150.646 11.7138L154.607 6.24861ZM6.03344 8.4202C6.41399 8.25664 6.5899 7.81555 6.42635 7.435C6.26279 7.05444 5.8217 6.87853 5.44115 7.04209L6.03344 8.4202ZM8.98667 5.59061C8.60081 5.74121 8.41009 6.1761 8.56069 6.56197C8.71129 6.94783 9.14619 7.13855 9.53205 6.98795L8.98667 5.59061ZM13.0726 5.6721C13.4632 5.53428 13.6682 5.1059 13.5304 4.71529C13.3925 4.32467 12.9642 4.11974 12.5735 4.25755L13.0726 5.6721ZM16.2135 3.0465C15.818 3.16981 15.5974 3.59034 15.7208 3.98577C15.8441 4.3812 16.2646 4.6018 16.66 4.47848L16.2135 3.0465ZM20.2848 3.43224C20.6853 3.32649 20.9242 2.9161 20.8185 2.51562C20.7127 2.11513 20.3023 1.8762 19.9018 1.98195L20.2848 3.43224ZM23.6461 1.09973C23.2404 1.1829 22.9788 1.57928 23.062 1.98505C23.1452 2.39083 23.5415 2.65235 23.9473 2.56918L23.6461 1.09973ZM27.6437 1.94816C28.0546 1.89593 28.3454 1.52048 28.2932 1.10958C28.241 0.698669 27.8655 0.407903 27.4546 0.460133L27.6437 1.94816ZM31.3327 0.169532C30.9186 0.17594 30.588 0.516881 30.5944 0.931045C30.6008 1.34521 30.9418 1.67576 31.3559 1.66935L31.3327 0.169532ZM35.1738 1.9365C35.5823 2.00521 35.9692 1.72977 36.0379 1.32129C36.1066 0.912816 35.8311 0.525985 35.4226 0.457281L35.1738 1.9365ZM39.542 1.57453C39.1535 1.43067 38.722 1.62894 38.5782 2.01737C38.4343 2.4058 38.6326 2.8373 39.021 2.98116L39.542 1.57453ZM42.7259 4.62225C43.0968 4.80665 43.547 4.65547 43.7314 4.28457C43.9158 3.91367 43.7646 3.4635 43.3937 3.2791L42.7259 4.62225ZM47.0792 5.13925C46.7068 4.95785 46.2579 5.11266 46.0765 5.48504C45.8951 5.85742 46.0499 6.30635 46.4223 6.48775L47.0792 5.13925ZM50.3141 8.13198C50.7061 8.26564 51.1323 8.05617 51.266 7.66411C51.3997 7.27206 51.1902 6.84588 50.7981 6.71222L50.3141 8.13198ZM54.6657 7.61717C54.2546 7.56634 53.8802 7.85837 53.8293 8.26945C53.7785 8.68053 54.0705 9.05499 54.4816 9.10583L54.6657 7.61717ZM58.8533 9.16685C59.2658 9.12963 59.57 8.76502 59.5328 8.35249C59.4956 7.93995 59.131 7.6357 58.7185 7.67292L58.8533 9.16685ZM62.7797 6.88008C62.3827 6.99844 62.1569 7.41617 62.2752 7.81312C62.3936 8.21006 62.8113 8.4359 63.2083 8.31754L62.7797 6.88008ZM67.3124 6.75739C67.6904 6.5882 67.8598 6.14455 67.6906 5.76647C67.5214 5.38838 67.0778 5.21904 66.6997 5.38822L67.3124 6.75739ZM70.5684 3.55989C70.1942 3.73758 70.035 4.18495 70.2126 4.55911C70.3903 4.93328 70.8377 5.09255 71.2119 4.91486L70.5684 3.55989ZM75.0932 3.22727C75.4807 3.08094 75.6763 2.64818 75.5299 2.26068C75.3836 1.87317 74.9508 1.67766 74.5633 1.82399L75.0932 3.22727ZM78.7892 0.574035C78.3838 0.658896 78.1239 1.05635 78.2088 1.46178C78.2936 1.86721 78.6911 2.12708 79.0965 2.04222L78.7892 0.574035ZM83.1714 1.52162C83.5848 1.49546 83.8987 1.13913 83.8725 0.72574C83.8463 0.312354 83.49 -0.00154847 83.0766 0.0246191L83.1714 1.52162ZM87.2856 -0.00135064C86.8719 -0.022639 86.5193 0.295446 86.498 0.709112C86.4767 1.12278 86.7948 1.47538 87.2085 1.49667L87.2856 -0.00135064ZM91.2256 1.93098C91.6344 1.99775 92.0199 1.72049 92.0867 1.31169C92.1535 0.902896 91.8762 0.51737 91.4674 0.450595L91.2256 1.93098ZM95.5673 1.32169C95.1662 1.21831 94.7573 1.45967 94.6539 1.86078C94.5505 2.26188 94.7919 2.67085 95.193 2.77422L95.5673 1.32169ZM99.1127 3.91836C99.5073 4.0445 99.9294 3.82692 100.056 3.43238C100.182 3.03784 99.9641 2.61575 99.5695 2.48961L99.1127 3.91836ZM103.497 3.79884C103.105 3.66561 102.679 3.87556 102.546 4.26776C102.412 4.65996 102.622 5.08591 103.015 5.21914L103.497 3.79884ZM106.946 6.52274C107.341 6.64784 107.762 6.42915 107.887 6.03428C108.012 5.63941 107.794 5.21789 107.399 5.09279L106.946 6.52274ZM111.322 6.23082C110.921 6.12715 110.512 6.36822 110.408 6.76925C110.304 7.17028 110.545 7.57942 110.946 7.68308L111.322 6.23082ZM115.033 8.57783C115.441 8.64998 115.83 8.37782 115.902 7.96994C115.974 7.56206 115.702 7.17292 115.294 7.10076L115.033 8.57783ZM119.316 7.62807C118.903 7.59313 118.54 7.89939 118.506 8.31213C118.471 8.72487 118.777 9.08778 119.19 9.12272L119.316 7.62807ZM123.358 9.29801C123.772 9.3017 124.111 8.96893 124.114 8.55473C124.118 8.14053 123.785 7.80176 123.371 7.79807L123.358 9.29801ZM127.446 7.74456C127.032 7.75796 126.707 8.10444 126.721 8.51844C126.734 8.93243 127.081 9.25718 127.495 9.24378L127.446 7.74456ZM131.617 9.04771C132.03 9.02236 132.345 8.66666 132.32 8.25322C132.294 7.83979 131.939 7.52517 131.525 7.55052L131.617 9.04771ZM135.603 7.2538C135.19 7.28821 134.884 7.65072 134.918 8.06351C134.953 8.47629 135.315 8.78302 135.728 8.74862L135.603 7.2538ZM139.828 8.36907C140.241 8.32734 140.541 7.95944 140.499 7.54734C140.457 7.13523 140.089 6.83497 139.677 6.87669L139.828 8.36907ZM143.747 6.43277C143.336 6.48074 143.041 6.85315 143.089 7.26458C143.137 7.676 143.51 7.97065 143.921 7.92268L143.747 6.43277ZM148.006 7.41756C148.416 7.36389 148.706 6.98743 148.652 6.57671C148.598 6.16599 148.222 5.87653 147.811 5.9302L148.006 7.41756ZM151.869 5.37096C151.459 5.43058 151.175 5.81121 151.234 6.22111C151.294 6.63101 151.675 6.91496 152.085 6.85533L151.869 5.37096ZM4 8.50157C4.31754 9.18103 4.31753 9.18104 4.31751 9.18104C4.31751 9.18105 4.3175 9.18105 4.3175 9.18105C4.3175 9.18105 4.3175 9.18105 4.31752 9.18104C4.31755 9.18103 4.31761 9.181 4.31772 9.18095C4.31793 9.18085 4.3183 9.18068 4.31882 9.18044C4.31986 9.17995 4.32151 9.17918 4.32377 9.17813C4.32828 9.17603 4.33523 9.1728 4.34456 9.16848C4.36323 9.15983 4.39146 9.1468 4.42893 9.1296C4.50388 9.09521 4.61579 9.04419 4.76215 8.97835C5.05488 8.84666 5.48535 8.65576 6.03344 8.4202L5.44115 7.04209C4.88475 7.28122 4.44657 7.47553 4.14678 7.61038C3.99688 7.67782 3.88156 7.73039 3.80333 7.76629C3.76422 7.78424 3.73438 7.79801 3.71413 7.80739C3.70401 7.81208 3.69628 7.81567 3.69099 7.81814C3.68834 7.81937 3.6863 7.82032 3.68488 7.82098C3.68417 7.82131 3.68361 7.82157 3.68321 7.82176C3.683 7.82186 3.68284 7.82193 3.68272 7.82199C3.68265 7.82202 3.6826 7.82204 3.68256 7.82206C3.68254 7.82207 3.68251 7.82209 3.6825 7.82209C3.68248 7.8221 3.68246 7.82211 4 8.50157ZM9.53205 6.98795C10.5987 6.57163 11.791 6.12426 13.0726 5.6721L12.5735 4.25755C11.2746 4.71583 10.0668 5.16903 8.98667 5.59061L9.53205 6.98795ZM16.66 4.47848C17.8364 4.11163 19.0516 3.75786 20.2848 3.43224L19.9018 1.98195C18.6448 2.31387 17.4082 2.67391 16.2135 3.0465L16.66 4.47848ZM23.9473 2.56918C25.191 2.31426 26.43 2.10244 27.6437 1.94816L27.4546 0.460133C26.1978 0.619886 24.9211 0.838406 23.6461 1.09973L23.9473 2.56918ZM31.3559 1.66935C31.9865 1.6596 32.601 1.6722 33.1964 1.70933L33.2898 0.212234C32.6517 0.172449 31.998 0.159239 31.3327 0.169532L31.3559 1.66935ZM33.1964 1.70933C33.88 1.75195 34.5377 1.82951 35.1738 1.9365L35.4226 0.457281C34.7364 0.341857 34.0268 0.258186 33.2898 0.212234L33.1964 1.70933ZM39.021 2.98116C40.299 3.45448 41.5159 4.02069 42.7259 4.62225L43.3937 3.2791C42.1633 2.66738 40.8922 2.0746 39.542 1.57453L39.021 2.98116ZM46.4223 6.48775C47.6655 7.09338 48.9492 7.66666 50.3141 8.13198L50.7981 6.71222C49.5157 6.275 48.2941 5.73108 47.0792 5.13925L46.4223 6.48775ZM54.4816 9.10583C55.1724 9.19126 55.8865 9.2418 56.6278 9.25151L56.6474 7.75164C55.9619 7.74266 55.3028 7.69596 54.6657 7.61717L54.4816 9.10583ZM56.6278 9.25151C57.3959 9.26156 58.1364 9.23154 58.8533 9.16685L58.7185 7.67292C58.0525 7.73301 57.3636 7.76101 56.6474 7.75164L56.6278 9.25151ZM63.2083 8.31754C64.6458 7.88891 65.9989 7.34513 67.3124 6.75739L66.6997 5.38822C65.4205 5.96061 64.1323 6.47675 62.7797 6.88008L63.2083 8.31754ZM71.2119 4.91486C72.4781 4.31355 73.7533 3.73328 75.0932 3.22727L74.5633 1.82399C73.1655 2.35184 71.8466 2.95286 70.5684 3.55989L71.2119 4.91486ZM79.0965 2.04222C79.7587 1.9036 80.4427 1.78973 81.1525 1.70556L80.9759 0.215998C80.2207 0.305551 79.4931 0.426698 78.7892 0.574035L79.0965 2.04222ZM81.1525 1.70556C81.8392 1.62414 82.5117 1.56338 83.1714 1.52162L83.0766 0.0246191C82.3895 0.0681125 81.6897 0.131359 80.9759 0.215998L81.1525 1.70556ZM87.2085 1.49667C88.5924 1.56789 89.9265 1.71877 91.2256 1.93098L91.4674 0.450595C90.1183 0.230222 88.7291 0.0729354 87.2856 -0.00135064L87.2085 1.49667ZM95.193 2.77422C96.5147 3.11487 97.8148 3.50341 99.1127 3.91836L99.5695 2.48961C98.2542 2.06908 96.9252 1.67165 95.5673 1.32169L95.193 2.77422ZM103.015 5.21914C104.305 5.65742 105.612 6.10003 106.946 6.52274L107.399 5.09279C106.081 4.67537 104.788 4.23747 103.497 3.79884L103.015 5.21914ZM110.946 7.68308C112.264 8.02374 113.622 8.32825 115.033 8.57783L115.294 7.10076C113.927 6.8589 112.608 6.56318 111.322 6.23082L110.946 7.68308ZM119.19 9.12272C119.876 9.1808 120.575 9.22413 121.288 9.25104L121.345 7.7521C120.655 7.7261 119.979 7.68421 119.316 7.62807L119.19 9.12272ZM121.288 9.25104C121.961 9.2764 122.652 9.29171 123.358 9.29801L123.371 7.79807C122.678 7.79189 122.001 7.77687 121.345 7.7521L121.288 9.25104ZM127.495 9.24378C128.85 9.1999 130.232 9.13261 131.617 9.04771L131.525 7.55052C130.152 7.63467 128.785 7.70122 127.446 7.74456L127.495 9.24378ZM135.728 8.74862C137.121 8.63246 138.496 8.50393 139.828 8.36907L139.677 6.87669C138.353 7.01077 136.987 7.13846 135.603 7.2538L135.728 8.74862ZM143.921 7.92268C145.397 7.75066 146.772 7.5787 148.006 7.41756L147.811 5.9302C146.584 6.09054 145.215 6.26164 143.747 6.43277L143.921 7.92268ZM152.085 6.85533C152.729 6.76162 153.236 6.68517 153.583 6.63209C153.757 6.60555 153.89 6.58486 153.98 6.57076C154.025 6.56372 154.06 6.55832 154.083 6.55468C154.094 6.55285 154.103 6.55147 154.109 6.55053C154.112 6.55006 154.114 6.5497 154.116 6.54946C154.116 6.54934 154.117 6.54924 154.117 6.54918C154.118 6.54915 154.118 6.54912 154.118 6.5491C154.118 6.54909 154.118 6.54909 154.118 6.54908C154.118 6.54908 154.118 6.54908 154.118 6.54907C154.118 6.54907 154.118 6.54907 154 5.80843C153.882 5.06779 153.882 5.06779 153.882 5.06779C153.882 5.06779 153.882 5.06779 153.882 5.06779C153.882 5.0678 153.882 5.0678 153.882 5.0678C153.882 5.06781 153.882 5.06783 153.881 5.06786C153.881 5.06791 153.881 5.06799 153.88 5.06809C153.879 5.06831 153.877 5.06863 153.874 5.06907C153.868 5.06995 153.86 5.07128 153.849 5.07305C153.826 5.07657 153.793 5.08185 153.749 5.08877C153.66 5.10261 153.528 5.12306 153.357 5.14934C153.013 5.20191 152.509 5.27781 151.869 5.37096L152.085 6.85533Z" fill="#E0F5FF"/>
</svg>
