<svg width="23" height="23" viewBox="0 0 23 23" fill="none" xmlns="http://www.w3.org/2000/svg">
<g clip-path="url(#clip0_581_2959)">
<path d="M15.1151 16.4354L16.9181 7.9276C16.9917 7.56748 16.9488 7.30966 16.7894 7.15416C16.6299 6.99865 16.4193 6.97001 16.1577 7.06822L5.56016 11.1564C5.32302 11.2464 5.16153 11.3487 5.07567 11.4633C4.98981 11.5779 4.97959 11.6863 5.045 11.7886C5.11042 11.891 5.24125 11.9707 5.4375 12.028L8.14821 12.8751L14.4405 8.90974C14.6122 8.79515 14.743 8.7706 14.833 8.83608C14.8902 8.877 14.8739 8.93838 14.7839 9.02023L9.69368 13.624L9.49743 16.4231C9.6855 16.4231 9.86949 16.3331 10.0494 16.153L11.3741 14.8763L14.1216 16.9019C14.6449 17.1966 14.9761 17.0411 15.1151 16.4354ZM21.6404 7.11733C21.6404 7.11733 21.7856 7.45699 22.0758 8.1363C22.3661 8.81562 22.5113 9.90007 22.5113 11.3896C22.5113 12.8792 22.221 14.3033 21.6404 15.662C21.0598 17.0206 20.2789 18.191 19.2977 19.1731C18.3164 20.1553 17.1471 20.9369 15.7897 21.518C14.4323 22.0991 13.0095 22.3896 11.5213 22.3896C10.033 22.3896 8.61022 22.0991 7.25282 21.518C5.89542 20.9369 4.7261 20.1553 3.74485 19.1731C2.7636 18.191 1.98268 17.0206 1.40211 15.662C0.821537 14.3033 0.53125 12.8792 0.53125 11.3896C0.53125 9.90007 0.821537 8.47596 1.40211 7.11733C1.98268 5.7587 2.7636 4.58831 3.74485 3.60617C4.7261 2.62402 5.89542 1.8424 7.25282 1.2613C8.61022 0.680199 10.033 0.389648 11.5213 0.389648C13.0095 0.389648 14.4323 0.680199 15.7897 1.2613C17.1471 1.8424 18.3164 2.62402 19.2977 3.60617C20.2789 4.58831 21.0598 5.7587 21.6404 7.11733Z" fill="#3C4770"/>
</g>
<defs>
<clipPath id="clip0_581_2959">
<rect width="22" height="22" fill="white" transform="matrix(1 0 0 -1 0.519531 22.3896)"/>
</clipPath>
</defs>
</svg>
