<svg width="23" height="16" viewBox="0 0 23 16" fill="none" xmlns="http://www.w3.org/2000/svg">
<path d="M17.7947 15.9423H14.2492H13.2945H13.0883V11.2274H14.6436C15.0381 11.2274 15.2712 10.7831 15.0381 10.4631L12.0125 6.31259C11.8198 6.04596 11.4208 6.04596 11.2281 6.31259L8.20254 10.4631C7.96945 10.7831 8.19805 11.2274 8.59698 11.2274H10.1523V15.9423H9.94616H8.99143H4.88113C2.52791 15.8135 0.654297 13.6315 0.654297 11.2674C0.654297 9.63656 1.54628 8.21454 2.86857 7.44576C2.74754 7.12136 2.68479 6.77475 2.68479 6.41035C2.68479 4.74393 4.04294 3.39745 5.72381 3.39745C6.08688 3.39745 6.4365 3.45966 6.76371 3.57965C7.73637 1.5355 9.8341 0.11792 12.2725 0.11792C15.428 0.122364 18.0278 2.51758 18.3236 5.57047C20.7486 5.98375 22.5908 8.2101 22.5908 10.7297C22.5908 13.4227 20.4751 15.7557 17.7947 15.9423Z" fill="url(#paint0_linear_281_21548)"/>
<defs>
<linearGradient id="paint0_linear_281_21548" x1="11.6226" y1="0.11792" x2="11.6226" y2="15.9423" gradientUnits="userSpaceOnUse">
<stop stop-color="white"/>
<stop offset="1" stop-color="white" stop-opacity="0.6"/>
</linearGradient>
</defs>
</svg>
