<svg width="19" height="23" viewBox="0 0 19 23" fill="none" xmlns="http://www.w3.org/2000/svg">
<g clip-path="url(#clip0_581_2962)">
<path d="M11.5246 13.0532C11.5246 13.0532 11.6044 12.954 11.764 12.7555C11.9235 12.557 12.0565 12.4578 12.1629 12.4578C12.2693 12.4578 12.6683 12.6379 13.3599 12.998C14.0515 13.3581 14.4178 13.575 14.4587 13.6486C14.4751 13.6896 14.4833 13.751 14.4833 13.8328C14.4833 14.1029 14.4137 14.4139 14.2746 14.7658C14.1436 15.085 13.8531 15.3531 13.4029 15.57C12.9528 15.7869 12.5353 15.8953 12.1507 15.8953C11.6842 15.8953 10.9066 15.6416 9.81808 15.1341C9.016 14.7658 8.32031 14.2829 7.73103 13.6855C7.14174 13.088 6.53609 12.3309 5.91406 11.4143C5.32478 10.5385 5.03423 9.74463 5.04241 9.03258V8.93436C5.06696 8.18957 5.36979 7.54299 5.95089 6.99463C6.14732 6.81457 6.36012 6.72454 6.58929 6.72454C6.63839 6.72454 6.71205 6.73068 6.81027 6.74296C6.90848 6.75523 6.98624 6.76137 7.04353 6.76137C7.19903 6.76137 7.30748 6.78797 7.36886 6.84117C7.43025 6.89437 7.49368 7.00691 7.55915 7.17878C7.62463 7.34247 7.75967 7.70259 7.96429 8.25914C8.1689 8.81569 8.27121 9.12261 8.27121 9.1799C8.27121 9.35177 8.13002 9.58708 7.84766 9.88581C7.56529 10.1845 7.42411 10.3748 7.42411 10.4567C7.42411 10.514 7.44457 10.5754 7.48549 10.6408C7.76377 11.2383 8.18118 11.7989 8.73772 12.3228C9.19606 12.7565 9.81399 13.1699 10.5915 13.5627C10.6897 13.62 10.7798 13.6486 10.8616 13.6486C10.9844 13.6486 11.2054 13.4502 11.5246 13.0532ZM9.67076 18.9645C10.7102 18.9645 11.7067 18.7599 12.6602 18.3507C13.6137 17.9414 14.4342 17.3931 15.1217 16.7056C15.8092 16.0181 16.3575 15.1976 16.7667 14.2441C17.176 13.2906 17.3806 12.2941 17.3806 11.2547C17.3806 10.2152 17.176 9.21877 16.7667 8.26528C16.3575 7.31178 15.8092 6.49128 15.1217 5.80378C14.4342 5.11628 13.6137 4.56792 12.6602 4.15869C11.7067 3.74947 10.7102 3.54485 9.67076 3.54485C8.63132 3.54485 7.63486 3.74947 6.68136 4.15869C5.72786 4.56792 4.90737 5.11628 4.21987 5.80378C3.53237 6.49128 2.984 7.31178 2.57478 8.26528C2.16555 9.21877 1.96094 10.2152 1.96094 11.2547C1.96094 12.9161 2.45201 14.4221 3.43415 15.7725L2.46429 18.633L5.43527 17.6877C6.72842 18.5389 8.14025 18.9645 9.67076 18.9645ZM6.0798 2.73458C6.0798 2.73458 6.36523 2.61182 6.93611 2.36628C7.50698 2.12074 8.41853 1.99798 9.67076 1.99798C10.923 1.99798 12.12 2.24351 13.2617 2.73458C14.4035 3.22566 15.3876 3.88451 16.2143 4.71115C17.0409 5.53778 17.6998 6.52197 18.1908 7.66371C18.6819 8.80546 18.9275 10.0024 18.9275 11.2547C18.9275 12.5069 18.6819 13.7039 18.1908 14.8456C17.6998 15.9874 17.0409 16.9716 16.2143 17.7982C15.3876 18.6248 14.4035 19.2837 13.2617 19.7748C12.12 20.2658 10.923 20.5114 9.67076 20.5114C8.07478 20.5114 6.5811 20.1267 5.18973 19.3574L0.0703125 21.0024L1.73996 16.0303C0.856027 14.5735 0.414063 12.9816 0.414063 11.2547C0.414063 10.0024 0.659598 8.80546 1.15067 7.66371C1.64174 6.52197 2.3006 5.53778 3.12723 4.71115C3.95387 3.88451 4.93806 3.22566 6.0798 2.73458Z" fill="#3C4770"/>
</g>
<defs>
<clipPath id="clip0_581_2962">
<rect width="18.86" height="22" fill="white" transform="matrix(1 0 0 -1 0.0703125 22.5)"/>
</clipPath>
</defs>
</svg>
