<svg width="50" height="50" viewBox="0 0 50 50" fill="none" xmlns="http://www.w3.org/2000/svg">
<path fill-rule="evenodd" clip-rule="evenodd" d="M12.587 35.807C10.8941 35.0634 9.32856 34.0525 7.94891 32.8121C6.08854 31.1278 4.60019 29.0653 3.58107 26.7592C2.56194 24.4532 2.03497 21.9555 2.03456 19.4293C2.03456 9.53725 9.9864 1.48981 19.7609 1.48981C29.5354 1.48981 37.4873 9.53725 37.4873 19.4293C37.4873 25.2079 34.6907 30.5328 30.2299 33.8611L27.254 30.8493C26.5001 30.0919 25.5158 29.6141 24.4603 29.4931C23.4048 29.372 22.3398 29.6149 21.4376 30.1824L12.587 35.807ZM15.9755 19.8382C16.7928 20.5948 17.8608 21.0137 18.9684 21.0122H20.5534C20.7247 21.013 20.8942 21.0481 21.0521 21.1155C21.2099 21.1829 21.3531 21.2812 21.4732 21.4047C21.5934 21.5283 21.6883 21.6747 21.7523 21.8356C21.8163 21.9964 21.8483 22.1684 21.8464 22.3418C21.8464 22.6889 21.7101 23.0217 21.4677 23.2671C21.2252 23.5125 20.8963 23.6503 20.5534 23.6503H16.1114C15.6966 23.6503 15.2987 23.8171 15.0054 24.114C14.7121 24.4108 14.5473 24.8134 14.5473 25.2332C14.5473 25.653 14.7121 26.0557 15.0054 26.3525C15.2987 26.6494 15.6966 26.8161 16.1114 26.8161H18.1968V28.3969C18.1968 28.8167 18.3616 29.2193 18.6549 29.5162C18.9483 29.813 19.3461 29.9798 19.7609 29.9798C20.1757 29.9798 20.5736 29.813 20.8669 29.5162C21.1602 29.2193 21.325 28.8167 21.325 28.3969V26.7359C22.416 26.542 23.3954 25.9411 24.0699 25.0518C24.7443 24.1626 25.0647 23.0497 24.9678 21.933C24.8708 20.8163 24.3636 19.777 23.5463 19.0204C22.729 18.2638 21.6611 17.8449 20.5534 17.8464H18.9684C18.2552 17.8464 17.6755 17.2597 17.6755 16.5168C17.6755 16.1697 17.8117 15.8369 18.0542 15.5915C18.2967 15.3461 18.6255 15.2082 18.9684 15.2082H23.4105C23.8253 15.2082 24.2231 15.0415 24.5164 14.7446C24.8098 14.4478 24.9746 14.0451 24.9746 13.6253C24.9746 13.2055 24.8098 12.8029 24.5164 12.5061C24.2231 12.2092 23.8253 12.0424 23.4105 12.0424H21.325V10.4595C21.325 10.0397 21.1602 9.63712 20.8669 9.34027C20.5736 9.04342 20.1757 8.87665 19.7609 8.87665C19.3461 8.87665 18.9483 9.04342 18.6549 9.34027C18.3616 9.63712 18.1968 10.0397 18.1968 10.4595V12.1226C17.1059 12.3166 16.1264 12.9175 15.452 13.8068C14.7775 14.696 14.4572 15.8089 14.5541 16.9256C14.651 18.0422 15.1582 19.0815 15.9755 19.8382ZM39.5727 24.7056H47.9145C48.4676 24.7056 48.9981 24.928 49.3892 25.3238C49.7803 25.7196 50 26.2564 50 26.8161V35.2582C49.9999 35.6756 49.8776 36.0836 49.6484 36.4306C49.4192 36.7775 49.0936 37.048 48.7126 37.2077C48.3315 37.3674 47.9123 37.4092 47.5078 37.3278C47.1033 37.2464 46.7318 37.0455 46.4401 36.7504L43.7436 34.0215L33.746 44.1372C33.5525 44.3334 33.3226 44.489 33.0696 44.5952C32.8166 44.7014 32.5454 44.756 32.2716 44.756C31.9977 44.756 31.7265 44.7014 31.4735 44.5952C31.2205 44.489 30.9906 44.3334 30.7971 44.1372L23.6232 36.877L3.1315 49.7154C2.66199 49.9909 2.10484 50.0703 1.57839 49.9367C1.05195 49.8032 0.597688 49.4672 0.312094 49.0001C0.0265 48.5331 -0.0679268 47.9717 0.0488695 47.4353C0.165666 46.8989 0.484484 46.4298 0.937607 46.1275L22.8349 32.409C23.2344 32.1588 23.7057 32.0525 24.1724 32.1073C24.6391 32.1621 25.0739 32.3748 25.4062 32.7108L32.2736 39.6608L40.7948 31.0372L38.0983 28.3083C37.8067 28.0131 37.6082 27.6371 37.5278 27.2278C37.4473 26.8184 37.4886 26.3941 37.6464 26.0085C37.8042 25.6229 38.0715 25.2934 38.4143 25.0614C38.7572 24.8295 39.1603 24.7057 39.5727 24.7056Z" fill="#8000FF"/>
<mask id="path-2-inside-1_106_449" fill="white">
<path fill-rule="evenodd" clip-rule="evenodd" d="M12.587 34.3172C10.8941 33.5736 9.32856 32.5627 7.94891 31.3223C6.08854 29.638 4.60019 27.5755 3.58107 25.2694C2.56194 22.9634 2.03497 20.4657 2.03456 17.9395C2.03456 8.04744 9.9864 0 19.7609 0C29.5354 0 37.4873 8.04744 37.4873 17.9395C37.4873 23.7181 34.6907 29.043 30.2299 32.3713L27.254 29.3595C26.5001 28.6021 25.5158 28.1243 24.4603 28.0032C23.4048 27.8822 22.3398 28.1251 21.4376 28.6926L12.587 34.3172ZM15.9755 18.3484C16.7928 19.105 17.8608 19.5239 18.9684 19.5224H20.5534C20.7247 19.5232 20.8942 19.5583 21.0521 19.6257C21.2099 19.6931 21.3531 19.7914 21.4732 19.9149C21.5934 20.0385 21.6883 20.1849 21.7523 20.3458C21.8163 20.5066 21.8483 20.6786 21.8464 20.852C21.8464 21.199 21.7101 21.5319 21.4677 21.7773C21.2252 22.0227 20.8963 22.1605 20.5534 22.1605H16.1114C15.6966 22.1605 15.2987 22.3273 15.0054 22.6242C14.7121 22.921 14.5473 23.3236 14.5473 23.7434C14.5473 24.1632 14.7121 24.5659 15.0054 24.8627C15.2987 25.1596 15.6966 25.3263 16.1114 25.3263H18.1968V26.9071C18.1968 27.3269 18.3616 27.7295 18.6549 28.0264C18.9483 28.3232 19.3461 28.49 19.7609 28.49C20.1757 28.49 20.5736 28.3232 20.8669 28.0264C21.1602 27.7295 21.325 27.3269 21.325 26.9071V25.2461C22.416 25.0522 23.3954 24.4512 24.0699 23.562C24.7443 22.6728 25.0647 21.5599 24.9678 20.4432C24.8708 19.3265 24.3636 18.2872 23.5463 17.5306C22.729 16.774 21.6611 16.3551 20.5534 16.3566H18.9684C18.2552 16.3566 17.6755 15.7699 17.6755 15.027C17.6755 14.6799 17.8117 14.3471 18.0542 14.1017C18.2967 13.8563 18.6255 13.7184 18.9684 13.7184H23.4105C23.8253 13.7184 24.2231 13.5517 24.5164 13.2548C24.8098 12.958 24.9746 12.5553 24.9746 12.1355C24.9746 11.7157 24.8098 11.3131 24.5164 11.0163C24.2231 10.7194 23.8253 10.5526 23.4105 10.5526H21.325V8.96974C21.325 8.54993 21.1602 8.14731 20.8669 7.85046C20.5736 7.55361 20.1757 7.38684 19.7609 7.38684C19.3461 7.38684 18.9483 7.55361 18.6549 7.85046C18.3616 8.14731 18.1968 8.54993 18.1968 8.96974V10.6328C17.1059 10.8268 16.1264 11.4277 15.452 12.3169C14.7775 13.2062 14.4572 14.3191 14.5541 15.4357C14.651 16.5524 15.1582 17.5917 15.9755 18.3484ZM39.5727 23.2158H47.9145C48.4676 23.2158 48.9981 23.4381 49.3892 23.8339C49.7803 24.2297 50 24.7665 50 25.3263V33.7684C49.9999 34.1858 49.8776 34.5937 49.6484 34.9407C49.4192 35.2877 49.0936 35.5581 48.7126 35.7178C48.3315 35.8775 47.9123 35.9193 47.5078 35.8379C47.1033 35.7565 46.7318 35.5556 46.4401 35.2605L43.7436 32.5316L33.746 42.6474C33.5525 42.8436 33.3226 42.9992 33.0696 43.1054C32.8166 43.2115 32.5454 43.2662 32.2716 43.2662C31.9977 43.2662 31.7265 43.2115 31.4735 43.1054C31.2205 42.9992 30.9906 42.8436 30.7971 42.6474L23.6232 35.3872L3.1315 48.2255C2.66199 48.501 2.10484 48.5804 1.57839 48.4469C1.05195 48.3133 0.597688 47.9773 0.312094 47.5103C0.0265 47.0432 -0.0679268 46.4819 0.0488695 45.9455C0.165666 45.4091 0.484484 44.9399 0.937607 44.6376L22.8349 30.9192C23.2344 30.669 23.7057 30.5627 24.1724 30.6175C24.6391 30.6722 25.0739 30.8849 25.4062 31.221L32.2736 38.171L40.7948 29.5473L38.0983 26.8184C37.8067 26.5233 37.6082 26.1473 37.5278 25.7379C37.4473 25.3286 37.4886 24.9043 37.6464 24.5187C37.8042 24.1331 38.0715 23.8035 38.4143 23.5716C38.7572 23.3397 39.1603 23.2159 39.5727 23.2158Z"/>
</mask>
<path fill-rule="evenodd" clip-rule="evenodd" d="M12.587 34.3172C10.8941 33.5736 9.32856 32.5627 7.94891 31.3223C6.08854 29.638 4.60019 27.5755 3.58107 25.2694C2.56194 22.9634 2.03497 20.4657 2.03456 17.9395C2.03456 8.04744 9.9864 0 19.7609 0C29.5354 0 37.4873 8.04744 37.4873 17.9395C37.4873 23.7181 34.6907 29.043 30.2299 32.3713L27.254 29.3595C26.5001 28.6021 25.5158 28.1243 24.4603 28.0032C23.4048 27.8822 22.3398 28.1251 21.4376 28.6926L12.587 34.3172ZM15.9755 18.3484C16.7928 19.105 17.8608 19.5239 18.9684 19.5224H20.5534C20.7247 19.5232 20.8942 19.5583 21.0521 19.6257C21.2099 19.6931 21.3531 19.7914 21.4732 19.9149C21.5934 20.0385 21.6883 20.1849 21.7523 20.3458C21.8163 20.5066 21.8483 20.6786 21.8464 20.852C21.8464 21.199 21.7101 21.5319 21.4677 21.7773C21.2252 22.0227 20.8963 22.1605 20.5534 22.1605H16.1114C15.6966 22.1605 15.2987 22.3273 15.0054 22.6242C14.7121 22.921 14.5473 23.3236 14.5473 23.7434C14.5473 24.1632 14.7121 24.5659 15.0054 24.8627C15.2987 25.1596 15.6966 25.3263 16.1114 25.3263H18.1968V26.9071C18.1968 27.3269 18.3616 27.7295 18.6549 28.0264C18.9483 28.3232 19.3461 28.49 19.7609 28.49C20.1757 28.49 20.5736 28.3232 20.8669 28.0264C21.1602 27.7295 21.325 27.3269 21.325 26.9071V25.2461C22.416 25.0522 23.3954 24.4512 24.0699 23.562C24.7443 22.6728 25.0647 21.5599 24.9678 20.4432C24.8708 19.3265 24.3636 18.2872 23.5463 17.5306C22.729 16.774 21.6611 16.3551 20.5534 16.3566H18.9684C18.2552 16.3566 17.6755 15.7699 17.6755 15.027C17.6755 14.6799 17.8117 14.3471 18.0542 14.1017C18.2967 13.8563 18.6255 13.7184 18.9684 13.7184H23.4105C23.8253 13.7184 24.2231 13.5517 24.5164 13.2548C24.8098 12.958 24.9746 12.5553 24.9746 12.1355C24.9746 11.7157 24.8098 11.3131 24.5164 11.0163C24.2231 10.7194 23.8253 10.5526 23.4105 10.5526H21.325V8.96974C21.325 8.54993 21.1602 8.14731 20.8669 7.85046C20.5736 7.55361 20.1757 7.38684 19.7609 7.38684C19.3461 7.38684 18.9483 7.55361 18.6549 7.85046C18.3616 8.14731 18.1968 8.54993 18.1968 8.96974V10.6328C17.1059 10.8268 16.1264 11.4277 15.452 12.3169C14.7775 13.2062 14.4572 14.3191 14.5541 15.4357C14.651 16.5524 15.1582 17.5917 15.9755 18.3484ZM39.5727 23.2158H47.9145C48.4676 23.2158 48.9981 23.4381 49.3892 23.8339C49.7803 24.2297 50 24.7665 50 25.3263V33.7684C49.9999 34.1858 49.8776 34.5937 49.6484 34.9407C49.4192 35.2877 49.0936 35.5581 48.7126 35.7178C48.3315 35.8775 47.9123 35.9193 47.5078 35.8379C47.1033 35.7565 46.7318 35.5556 46.4401 35.2605L43.7436 32.5316L33.746 42.6474C33.5525 42.8436 33.3226 42.9992 33.0696 43.1054C32.8166 43.2115 32.5454 43.2662 32.2716 43.2662C31.9977 43.2662 31.7265 43.2115 31.4735 43.1054C31.2205 42.9992 30.9906 42.8436 30.7971 42.6474L23.6232 35.3872L3.1315 48.2255C2.66199 48.501 2.10484 48.5804 1.57839 48.4469C1.05195 48.3133 0.597688 47.9773 0.312094 47.5103C0.0265 47.0432 -0.0679268 46.4819 0.0488695 45.9455C0.165666 45.4091 0.484484 44.9399 0.937607 44.6376L22.8349 30.9192C23.2344 30.669 23.7057 30.5627 24.1724 30.6175C24.6391 30.6722 25.0739 30.8849 25.4062 31.221L32.2736 38.171L40.7948 29.5473L38.0983 26.8184C37.8067 26.5233 37.6082 26.1473 37.5278 25.7379C37.4473 25.3286 37.4886 24.9043 37.6464 24.5187C37.8042 24.1331 38.0715 23.8035 38.4143 23.5716C38.7572 23.3397 39.1603 23.2159 39.5727 23.2158Z" fill="url(#paint0_radial_106_449)"/>
<path d="M7.94891 31.3223L7.27774 32.0636L7.28032 32.066L7.94891 31.3223ZM12.587 34.3172L12.1848 35.2327L12.6732 35.4472L13.1233 35.1612L12.587 34.3172ZM3.58107 25.2694L2.66641 25.6736L3.58107 25.2694ZM2.03456 17.9395H1.03456V17.9396L2.03456 17.9395ZM30.2299 32.3713L29.5186 33.0741L30.1303 33.6932L30.8279 33.1727L30.2299 32.3713ZM27.254 29.3595L27.9653 28.6567L27.9627 28.6541L27.254 29.3595ZM24.4603 28.0032L24.5742 27.0098L24.4603 28.0032ZM21.4376 28.6926L20.9052 27.8461L20.9013 27.8486L21.4376 28.6926ZM18.9684 19.5224V18.5224H18.9671L18.9684 19.5224ZM15.9755 18.3484L16.6549 17.6145V17.6145L15.9755 18.3484ZM20.5534 19.5224L20.5582 18.5224H20.5534V19.5224ZM21.0521 19.6257L21.4446 18.7059L21.4446 18.7059L21.0521 19.6257ZM21.7523 20.3458L20.8232 20.7157L20.8232 20.7157L21.7523 20.3458ZM21.8464 20.852L20.8464 20.8409V20.852H21.8464ZM21.4677 21.7773L22.179 22.4801L22.179 22.4801L21.4677 21.7773ZM14.5473 23.7434H13.5473V23.7434L14.5473 23.7434ZM18.1968 25.3263H19.1968V24.3263H18.1968V25.3263ZM18.6549 28.0264L19.3663 27.3235L19.3663 27.3235L18.6549 28.0264ZM21.325 25.2461L21.15 24.2616L20.325 24.4082V25.2461H21.325ZM24.0699 23.562L23.2731 22.9577L24.0699 23.562ZM24.9678 20.4432L23.9715 20.5297V20.5297L24.9678 20.4432ZM23.5463 17.5306L22.867 18.2644L22.867 18.2644L23.5463 17.5306ZM20.5534 16.3566V17.3566H20.5548L20.5534 16.3566ZM18.0542 14.1017L17.3429 13.3988V13.3988L18.0542 14.1017ZM24.5164 13.2548L25.2278 13.9577L25.2278 13.9577L24.5164 13.2548ZM24.5164 11.0163L25.2278 10.3134V10.3134L24.5164 11.0163ZM21.325 10.5526H20.325V11.5526H21.325V10.5526ZM20.8669 7.85046L20.1556 8.55333H20.1556L20.8669 7.85046ZM18.6549 7.85046L19.3663 8.55333L19.3663 8.55333L18.6549 7.85046ZM18.1968 10.6328L18.3719 11.6174L19.1968 11.4707V10.6328H18.1968ZM15.452 12.3169L16.2487 12.9212L16.2487 12.9212L15.452 12.3169ZM14.5541 15.4357L13.5578 15.5222L14.5541 15.4357ZM39.5727 23.2158V22.2158H39.5725L39.5727 23.2158ZM49.3892 23.8339L48.6779 24.5368V24.5368L49.3892 23.8339ZM50 33.7684L51 33.7686V33.7684H50ZM49.6484 34.9407L48.8139 34.3896L48.8139 34.3896L49.6484 34.9407ZM48.7126 35.7178L49.0991 36.6401L49.0991 36.6401L48.7126 35.7178ZM46.4401 35.2605L45.7288 35.9634L45.7289 35.9635L46.4401 35.2605ZM43.7436 32.5316L44.455 31.8288L43.7437 31.109L43.0324 31.8287L43.7436 32.5316ZM33.746 42.6474L33.0347 41.9444L33.0341 41.9451L33.746 42.6474ZM30.7971 42.6474L31.5091 41.9451L31.5085 41.9445L30.7971 42.6474ZM23.6232 35.3872L24.3345 34.6843L23.7713 34.1143L23.0923 34.5398L23.6232 35.3872ZM3.1315 48.2255L3.63759 49.088L3.65012 49.0806L3.66243 49.0729L3.1315 48.2255ZM1.57839 48.4469L1.82428 47.4776H1.82428L1.57839 48.4469ZM0.312094 47.5103L-0.541051 48.032H-0.541051L0.312094 47.5103ZM0.0488695 45.9455L1.02597 46.1583H1.02597L0.0488695 45.9455ZM0.937607 44.6376L0.4067 43.7902L0.394544 43.7978L0.382611 43.8058L0.937607 44.6376ZM22.8349 30.9192L22.3042 30.0716L22.304 30.0718L22.8349 30.9192ZM24.1724 30.6175L24.289 29.6243L24.289 29.6243L24.1724 30.6175ZM25.4062 31.221L26.1176 30.5181L26.1173 30.5178L25.4062 31.221ZM32.2736 38.171L31.5623 38.8738L32.2736 39.5937L32.985 38.8738L32.2736 38.171ZM40.7948 29.5473L41.5061 30.2502L42.2006 29.5473L41.5061 28.8445L40.7948 29.5473ZM38.0983 26.8184L37.3869 27.5212L37.387 27.5213L38.0983 26.8184ZM37.5278 25.7379L38.509 25.5451L38.509 25.5451L37.5278 25.7379ZM38.4143 23.5716L38.9746 24.3999V24.3999L38.4143 23.5716ZM7.28032 32.066C8.7388 33.3773 10.3942 34.4463 12.1848 35.2327L12.9891 33.4016C11.3939 32.701 9.91832 31.7482 8.61749 30.5787L7.28032 32.066ZM2.66641 25.6736C3.74191 28.1073 5.31299 30.2848 7.27775 32.0636L8.62007 30.581C6.86409 28.9912 5.45848 27.0437 4.49573 24.8652L2.66641 25.6736ZM1.03456 17.9396C1.03499 20.6047 1.59091 23.24 2.66641 25.6736L4.49573 24.8652C3.53297 22.6867 3.03494 20.3266 3.03456 17.9393L1.03456 17.9396ZM19.7609 -1C9.42288 -1 1.03456 7.50646 1.03456 17.9395H3.03456C3.03456 8.58842 10.5499 1 19.7609 1V-1ZM38.4873 17.9395C38.4873 7.50646 30.099 -1 19.7609 -1V1C28.9719 1 36.4873 8.58842 36.4873 17.9395H38.4873ZM30.8279 33.1727C35.5346 29.6609 38.4873 24.0424 38.4873 17.9395H36.4873C36.4873 23.3938 33.8467 28.425 29.6319 31.5698L30.8279 33.1727ZM26.5426 30.0624L29.5186 33.0741L30.9412 31.6684L27.9653 28.6567L26.5426 30.0624ZM24.3464 28.9967C25.1753 29.0918 25.9502 29.4672 26.5452 30.065L27.9627 28.6541C27.05 27.7371 25.8564 27.1568 24.5742 27.0098L24.3464 28.9967ZM21.9701 29.5391C22.6805 29.0922 23.5176 28.9017 24.3464 28.9967L24.5742 27.0098C23.292 26.8627 21.9992 27.158 20.9052 27.8462L21.9701 29.5391ZM13.1233 35.1612L21.974 29.5366L20.9013 27.8486L12.0506 33.4732L13.1233 35.1612ZM18.9671 18.5224C18.1133 18.5235 17.2881 18.2008 16.6549 17.6145L15.2962 19.0822C16.2975 20.0092 17.6083 20.5242 18.9698 20.5224L18.9671 18.5224ZM20.5534 18.5224H18.9684V20.5224H20.5534V18.5224ZM21.4446 18.7059C21.1644 18.5863 20.8631 18.5239 20.5582 18.5224L20.5486 20.5224C20.5864 20.5225 20.624 20.5303 20.6595 20.5454L21.4446 18.7059ZM22.1902 19.2178C21.9781 18.9997 21.7248 18.8255 21.4446 18.7059L20.6595 20.5454C20.6951 20.5606 20.7281 20.583 20.7563 20.6121L22.1902 19.2178ZM22.6813 19.9758C22.569 19.6936 22.4022 19.4359 22.1902 19.2178L20.7563 20.6121C20.7846 20.6412 20.8075 20.6763 20.8232 20.7157L22.6813 19.9758ZM22.8463 20.8631C22.8497 20.5595 22.7937 20.258 22.6813 19.9758L20.8232 20.7157C20.8389 20.7551 20.8469 20.7977 20.8464 20.8409L22.8463 20.8631ZM22.179 22.4801C22.6077 22.0463 22.8464 21.4604 22.8464 20.852H20.8464C20.8464 20.9377 20.8126 21.0174 20.7563 21.0744L22.179 22.4801ZM20.5534 23.1605C21.1654 23.1605 21.7499 22.9144 22.179 22.4801L20.7564 21.0744C20.7005 21.131 20.6272 21.1605 20.5534 21.1605V23.1605ZM16.1114 23.1605H20.5534V21.1605H16.1114V23.1605ZM15.7167 23.327C15.8234 23.219 15.9657 23.1605 16.1114 23.1605V21.1605C15.4275 21.1605 14.774 21.4356 14.2941 21.9213L15.7167 23.327ZM15.5473 23.7434C15.5473 23.585 15.6096 23.4354 15.7167 23.327L14.2941 21.9213C13.8146 22.4066 13.5473 23.0622 13.5473 23.7434H15.5473ZM15.7167 24.1598C15.6096 24.0514 15.5473 23.9018 15.5473 23.7434L13.5473 23.7434C13.5473 24.4246 13.8146 25.0803 14.2941 25.5656L15.7167 24.1598ZM16.1114 24.3263C15.9657 24.3263 15.8234 24.2678 15.7167 24.1598L14.2941 25.5656C14.774 26.0513 15.4275 26.3263 16.1114 26.3263V24.3263ZM18.1968 24.3263H16.1114V26.3263H18.1968V24.3263ZM19.1968 26.9071V25.3263H17.1968V26.9071H19.1968ZM19.3663 27.3235C19.2591 27.2151 19.1968 27.0655 19.1968 26.9071H17.1968C17.1968 27.5883 17.4641 28.244 17.9436 28.7293L19.3663 27.3235ZM19.7609 27.49C19.6152 27.49 19.473 27.4315 19.3663 27.3235L17.9436 28.7293C18.4235 29.2149 19.077 29.49 19.7609 29.49V27.49ZM20.1556 27.3235C20.0488 27.4315 19.9066 27.49 19.7609 27.49V29.49C20.4448 29.49 21.0983 29.2149 21.5782 28.7293L20.1556 27.3235ZM20.325 26.9071C20.325 27.0655 20.2627 27.2151 20.1556 27.3235L21.5782 28.7293C22.0577 28.244 22.325 27.5883 22.325 26.9071H20.325ZM20.325 25.2461V26.9071H22.325V25.2461H20.325ZM23.2731 22.9577C22.7495 23.6481 21.9913 24.112 21.15 24.2616L21.5 26.2307C22.8407 25.9924 24.0414 25.2544 24.8666 24.1663L23.2731 22.9577ZM23.9715 20.5297C24.0471 21.4005 23.797 22.267 23.2731 22.9577L24.8666 24.1663C25.6916 23.0786 26.0823 21.7193 25.964 20.3567L23.9715 20.5297ZM22.867 18.2644C23.5006 18.851 23.8959 19.6589 23.9715 20.5297L25.964 20.3567C25.8457 18.9941 25.2267 17.7235 24.2257 16.7968L22.867 18.2644ZM20.5548 17.3566C21.4085 17.3554 22.2337 17.6782 22.867 18.2644L24.2257 16.7968C23.2243 15.8698 21.9136 15.3547 20.552 15.3566L20.5548 17.3566ZM18.9684 17.3566H20.5534V15.3566H18.9684V17.3566ZM16.6755 15.027C16.6755 16.3003 17.6814 17.3566 18.9684 17.3566V15.3566C18.8291 15.3566 18.6755 15.2394 18.6755 15.027H16.6755ZM17.3429 13.3988C16.9142 13.8326 16.6755 14.4185 16.6755 15.027H18.6755C18.6755 14.9413 18.7092 14.8615 18.7655 14.8046L17.3429 13.3988ZM18.9684 12.7184C18.3564 12.7184 17.7719 12.9646 17.3429 13.3988L18.7655 14.8046C18.8214 14.748 18.8946 14.7184 18.9684 14.7184V12.7184ZM23.4105 12.7184H18.9684V14.7184H23.4105V12.7184ZM23.8051 12.5519C23.6984 12.66 23.5562 12.7184 23.4105 12.7184V14.7184C24.0944 14.7184 24.7478 14.4434 25.2278 13.9577L23.8051 12.5519ZM23.9746 12.1355C23.9746 12.294 23.9123 12.4435 23.8051 12.5519L25.2278 13.9577C25.7073 13.4724 25.9746 12.8167 25.9746 12.1355H23.9746ZM23.8051 11.7191C23.9123 11.8275 23.9746 11.9771 23.9746 12.1355H25.9746C25.9746 11.4543 25.7073 10.7987 25.2278 10.3134L23.8051 11.7191ZM23.4105 11.5526C23.5562 11.5526 23.6984 11.6111 23.8051 11.7191L25.2278 10.3134C24.7478 9.8277 24.0944 9.55263 23.4105 9.55263V11.5526ZM21.325 11.5526H23.4105V9.55263H21.325V11.5526ZM20.325 8.96974V10.5526H22.325V8.96974H20.325ZM20.1556 8.55333C20.2627 8.66175 20.325 8.81132 20.325 8.96974H22.325C22.325 8.28854 22.0577 7.63287 21.5782 7.14759L20.1556 8.55333ZM19.7609 8.38684C19.9066 8.38684 20.0488 8.44532 20.1556 8.55333L21.5782 7.14759C21.0983 6.66191 20.4448 6.38684 19.7609 6.38684V8.38684ZM19.3663 8.55333C19.473 8.44532 19.6152 8.38684 19.7609 8.38684V6.38684C19.077 6.38684 18.4235 6.66191 17.9436 7.14759L19.3663 8.55333ZM19.1968 8.96974C19.1968 8.81131 19.2591 8.66175 19.3663 8.55333L17.9436 7.14759C17.4641 7.63287 17.1968 8.28854 17.1968 8.96974H19.1968ZM19.1968 10.6328V8.96974H17.1968V10.6328H19.1968ZM16.2487 12.9212C16.7724 12.2309 17.5306 11.767 18.3719 11.6174L18.0218 9.64827C16.6812 9.88659 15.4805 10.6246 14.6552 11.7126L16.2487 12.9212ZM15.5503 15.3493C15.4747 14.4784 15.7249 13.612 16.2487 12.9212L14.6552 11.7126C13.8302 12.8004 13.4396 14.1597 13.5578 15.5222L15.5503 15.3493ZM16.6549 17.6145C16.0213 17.028 15.6259 16.22 15.5503 15.3493L13.5578 15.5222C13.6761 16.8848 14.2952 18.1555 15.2962 19.0822L16.6549 17.6145ZM47.9145 22.2158H39.5727V24.2158H47.9145V22.2158ZM50.1005 23.1311C49.5228 22.5464 48.7367 22.2158 47.9145 22.2158V24.2158C48.1985 24.2158 48.4734 24.3298 48.6779 24.5368L50.1005 23.1311ZM51 25.3263C51 24.5052 50.6778 23.7153 50.1005 23.1311L48.6779 24.5368C48.8828 24.7442 49 25.0279 49 25.3263H51ZM51 33.7684V25.3263H49V33.7684H51ZM50.4828 35.4918C50.8204 34.9807 50.9999 34.3811 51 33.7686L49 33.7682C49 33.9904 48.9347 34.2067 48.8139 34.3896L50.4828 35.4918ZM49.0991 36.6401C49.6642 36.4033 50.1452 36.003 50.4828 35.4918L48.8139 34.3896C48.6932 34.5724 48.5229 34.713 48.326 34.7956L49.0991 36.6401ZM47.3105 36.8183C47.9113 36.9392 48.5339 36.877 49.0991 36.6401L48.326 34.7956C48.1291 34.8781 47.9132 34.8995 47.7051 34.8576L47.3105 36.8183ZM45.7289 35.9635C46.1596 36.3993 46.7098 36.6974 47.3105 36.8183L47.7051 34.8576C47.4969 34.8157 47.3039 34.7119 47.1513 34.5576L45.7289 35.9635ZM43.0323 33.2345L45.7288 35.9634L47.1514 34.5577L44.455 31.8288L43.0323 33.2345ZM34.4572 43.3503L44.4549 33.2346L43.0324 31.8287L33.0347 41.9444L34.4572 43.3503ZM33.4566 44.0274C33.8319 43.8699 34.1721 43.6394 34.4579 43.3497L33.0341 41.9451C32.9329 42.0477 32.8134 42.1284 32.6826 42.1833L33.4566 44.0274ZM32.2716 44.2662C32.6786 44.2662 33.0813 44.185 33.4566 44.0274L32.6826 42.1833C32.552 42.2381 32.4123 42.2662 32.2716 42.2662V44.2662ZM31.0865 44.0274C31.4618 44.185 31.8645 44.2662 32.2716 44.2662V42.2662C32.1308 42.2662 31.9911 42.2381 31.8605 42.1833L31.0865 44.0274ZM30.0852 43.3497C30.3711 43.6394 30.7112 43.8699 31.0865 44.0274L31.8605 42.1833C31.7297 42.1284 31.6102 42.0477 31.5091 41.9451L30.0852 43.3497ZM22.9119 36.09L30.0858 43.3503L31.5085 41.9445L24.3345 34.6843L22.9119 36.09ZM3.66243 49.0729L24.1541 36.2346L23.0923 34.5398L2.60058 47.3781L3.66243 49.0729ZM1.3325 49.4162C2.11456 49.6146 2.9418 49.4963 3.63759 49.088L2.62542 47.363C2.38217 47.5058 2.09511 47.5463 1.82428 47.4776L1.3325 49.4162ZM-0.541051 48.032C-0.120462 48.7198 0.550704 49.2178 1.3325 49.4162L1.82428 47.4776C1.55319 47.4088 1.31584 47.2349 1.16524 46.9886L-0.541051 48.032ZM-0.928235 45.7327C-1.09966 46.52 -0.961406 47.3445 -0.541051 48.032L1.16524 46.9886C1.01441 46.7419 0.963804 46.4438 1.02597 46.1583L-0.928235 45.7327ZM0.382611 43.8058C-0.288005 44.2532 -0.75677 44.9453 -0.928235 45.7327L1.02597 46.1583C1.0881 45.8729 1.25697 45.6267 1.4926 45.4695L0.382611 43.8058ZM22.304 30.0718L0.4067 43.7902L1.46851 45.485L23.3658 31.7666L22.304 30.0718ZM24.289 29.6243C23.5955 29.5429 22.8959 29.7011 22.3042 30.0716L23.3656 31.7667C23.5729 31.6369 23.816 31.5825 24.0559 31.6106L24.289 29.6243ZM26.1173 30.5178C25.6264 30.0215 24.9825 29.7057 24.289 29.6243L24.0559 31.6106C24.2958 31.6388 24.5213 31.7483 24.6952 31.9241L26.1173 30.5178ZM32.985 37.4681L26.1176 30.5181L24.6949 31.9239L31.5623 38.8738L32.985 37.4681ZM40.0835 28.8445L31.5623 37.4681L32.985 38.8738L41.5061 30.2502L40.0835 28.8445ZM37.387 27.5213L40.0835 30.2502L41.5061 28.8445L38.8096 26.1156L37.387 27.5213ZM36.5465 25.9307C36.6646 26.5317 36.9564 27.0854 37.3869 27.5212L38.8097 26.1157C38.6571 25.9611 38.5518 25.7628 38.509 25.5451L36.5465 25.9307ZM36.7209 24.1399C36.489 24.7067 36.4284 25.3298 36.5465 25.9307L38.509 25.5451C38.4662 25.3274 38.4883 25.1018 38.5719 24.8975L36.7209 24.1399ZM37.8541 22.7433C37.3467 23.0865 36.953 23.573 36.7209 24.1399L38.5719 24.8975C38.6555 24.6932 38.7963 24.5205 38.9746 24.3999L37.8541 22.7433ZM39.5725 22.2158C38.9597 22.2159 38.3617 22.4 37.8541 22.7433L38.9746 24.3999C39.1528 24.2794 39.361 24.2158 39.5729 24.2158L39.5725 22.2158Z" fill="url(#paint1_linear_106_449)" mask="url(#path-2-inside-1_106_449)"/>
<defs>
<radialGradient id="paint0_radial_106_449" cx="0" cy="0" r="1" gradientUnits="userSpaceOnUse" gradientTransform="translate(-3 51.5) rotate(8.68636) scale(36.4177 38.2156)">
<stop stop-color="#C285FF"/>
<stop offset="1" stop-color="#F4E9FF"/>
</radialGradient>
<linearGradient id="paint1_linear_106_449" x1="25" y1="0" x2="25" y2="48.5102" gradientUnits="userSpaceOnUse">
<stop stop-color="white" stop-opacity="0"/>
<stop offset="1" stop-color="#BC78FF"/>
</linearGradient>
</defs>
</svg>
