<svg width="18" height="18" viewBox="0 0 18 18" fill="none" xmlns="http://www.w3.org/2000/svg">
<path d="M7.40842 13.5915C8.28684 14.4705 9.71144 14.4709 10.5904 13.5925C10.5908 13.5922 10.5911 13.5919 10.5914 13.5915L12.9997 11.1833C13.2775 10.876 13.2536 10.4018 12.9464 10.1239C12.6603 9.8653 12.2247 9.86576 11.9392 10.125L9.7447 12.3203L9.74994 0.750023C9.7499 0.335777 9.41412 0 8.99991 0C8.5857 0 8.24992 0.335777 8.24992 0.749988L8.24317 12.306L6.06067 10.125C5.76761 9.83215 5.29265 9.83232 4.9998 10.1254C4.70695 10.4184 4.70712 10.8934 5.00018 11.1863L7.40842 13.5915Z" fill="#1A7EFB"/>
<path d="M17.25 12C16.8358 12 16.5 12.3358 16.5 12.75V15.75C16.5 16.1642 16.1642 16.5 15.75 16.5H2.25C1.83579 16.5 1.50001 16.1642 1.50001 15.75V12.75C1.50001 12.3358 1.16423 12 0.750023 12C0.335777 12 0 12.3358 0 12.75V15.75C0 16.9926 1.00737 18 2.25 18H15.75C16.9926 18 18 16.9926 18 15.75V12.75C18 12.3358 17.6642 12 17.25 12Z" fill="#1A7EFB"/>
</svg>
