<svg width="30" height="30" viewBox="0 0 30 30" fill="none" xmlns="http://www.w3.org/2000/svg">
<g clip-path="url(#clip0_210_12256)">
<path d="M15 0C12.0333 0 9.13319 0.879735 6.66645 2.52796C4.19972 4.17618 2.27713 6.51886 1.14181 9.25975C0.00649929 12.0006 -0.290551 15.0166 0.288228 17.9264C0.867006 20.8361 2.29562 23.5088 4.3934 25.6066C6.49119 27.7044 9.16394 29.133 12.0737 29.7118C14.9834 30.2906 17.9994 29.9935 20.7403 28.8582C23.4811 27.7229 25.8238 25.8003 27.472 23.3336C29.1203 20.8668 30 17.9667 30 15C30 11.0218 28.4197 7.20644 25.6066 4.3934C22.7936 1.58035 18.9783 0 15 0ZM21.625 19.1625C21.8012 19.3208 21.9433 19.5133 22.0427 19.7283C22.142 19.9433 22.1965 20.1763 22.2029 20.4131C22.2092 20.6498 22.1673 20.8854 22.0796 21.1054C21.9919 21.3254 21.8602 21.5253 21.6928 21.6928C21.5253 21.8602 21.3254 21.9918 21.1054 22.0795C20.8854 22.1673 20.6498 22.2092 20.4131 22.2029C20.1763 22.1965 19.9433 22.142 19.7283 22.0427C19.5133 21.9433 19.3208 21.8012 19.1625 21.625L15 17.4625L10.8375 21.625C10.6792 21.8012 10.4867 21.9433 10.2717 22.0427C10.0567 22.142 9.82371 22.1965 9.58694 22.2029C9.35018 22.2092 9.1146 22.1673 8.89458 22.0795C8.67457 21.9918 8.47472 21.8602 8.30724 21.6928C8.13976 21.5253 8.00816 21.3254 7.92046 21.1054C7.83275 20.8854 7.79079 20.6498 7.79714 20.4131C7.80348 20.1763 7.85799 19.9433 7.95734 19.7283C8.05669 19.5133 8.1988 19.3208 8.37501 19.1625L12.5375 15L8.37501 10.8375C8.07676 10.5055 7.91718 10.0717 7.92913 9.62556C7.94108 9.17941 8.12364 8.75482 8.43923 8.43923C8.75483 8.12364 9.17942 7.94107 9.62557 7.92912C10.0717 7.91717 10.5055 8.07675 10.8375 8.375L15 12.5375L19.1625 8.375C19.3208 8.1988 19.5133 8.05668 19.7283 7.95733C19.9433 7.85798 20.1763 7.80347 20.4131 7.79713C20.6498 7.79079 20.8854 7.83275 21.1054 7.92045C21.3254 8.00815 21.5253 8.13976 21.6928 8.30724C21.8602 8.47472 21.9919 8.67456 22.0796 8.89458C22.1673 9.11459 22.2092 9.35017 22.2029 9.58694C22.1965 9.8237 22.142 10.0567 22.0427 10.2717C21.9433 10.4867 21.8012 10.6792 21.625 10.8375L17.4625 15L21.625 19.1625Z" fill="#93A4B9"/>
</g>
<defs>
<clipPath id="clip0_210_12256">
<rect width="30" height="30" fill="white"/>
</clipPath>
</defs>
</svg>
