<svg width="54" height="100" viewBox="0 0 54 100" fill="none" xmlns="http://www.w3.org/2000/svg">
<path d="M25.8395 60.7476C18.4332 64.1899 10.769 67.7557 11.2114 75.1664C12.1011 90.1191 33.1372 98.869 34.033 99.2361L34.9656 96.971C34.7578 96.8854 14.4528 88.4335 13.6551 75.0148C13.2994 69.2471 19.8914 66.1844 26.8673 62.9601C35.3085 59.0313 44.8773 54.5836 40.4927 44.1733C39.6094 42.0678 38.2255 40.2094 36.4602 38.7583C39.9878 32.9822 43.1172 25.1233 45.0597 14.4729L53.2298 18.521C49.8667 13.627 47.0442 6.02828 45.572 0.000457644C42.7424 5.5375 38.2221 12.2973 33.81 16.3043L42.6242 14.2205C40.7405 24.3999 37.7759 31.8654 34.4484 37.3478C31.7434 35.8387 28.7329 34.9514 25.6362 34.7506C16.1648 33.9678 4.76797 38.0623 1.27728 43.5193C0.615004 44.4305 0.230904 45.5126 0.171385 46.6348C0.111867 47.757 0.379485 48.8713 0.941896 49.8432C3.2831 53.9456 9.23033 55.9474 15.7058 54.7338C19.1701 54.0841 27.7822 51.4851 35.1046 40.7753C36.4628 41.9562 37.5291 43.4339 38.221 45.0938C41.4733 52.7952 35.7044 56.1416 25.8395 60.7476ZM15.2814 52.351C9.89838 53.3283 4.87832 51.8043 3.07655 48.6544C2.73995 48.0653 2.5864 47.3893 2.63532 46.7119C2.68424 46.0345 2.93343 45.3861 3.35138 44.8488C6.07611 40.604 16.0993 36.4348 25.4324 37.2079C28.133 37.3822 30.7624 38.1347 33.1416 39.4143C26.3309 49.3451 18.469 51.762 15.2748 52.3361L15.2814 52.351Z" fill="#1A7EFB"/>
</svg>
