<svg width="75" height="73" viewBox="0 0 75 73" fill="none" xmlns="http://www.w3.org/2000/svg">
<path d="M45.2552 24.3792L60.0283 21.8256L50.4561 33.3641L50.1108 33.7803L50.5527 34.092L62.8045 42.7325L47.877 44.1229L47.3386 44.173L47.4307 44.7059L49.9842 59.4789L38.4457 49.9067L38.0295 49.5615L37.7179 50.0034L29.0774 62.2552L27.687 47.3276L27.6369 46.7892L27.104 46.8813L12.3309 49.4349L21.9031 37.8964L22.2484 37.4802L21.8065 37.1685L9.55469 28.528L24.4822 27.1377L25.0206 27.0875L24.9285 26.5546L22.375 11.7816L33.9135 21.3538L34.3297 21.699L34.6413 21.2571L43.2818 9.00535L44.6722 23.9329L44.7224 24.4713L45.2552 24.3792Z" stroke="#5A718B"/>
<path d="M47.8961 26.1186L62.6692 23.565L53.097 35.1035L52.7517 35.5197L53.1936 35.8314L65.4454 44.4719L50.5179 45.8622L49.9794 45.9124L50.0715 46.4453L52.6251 61.2183L41.0866 51.6461L40.6704 51.3009L40.3588 51.7428L31.7183 63.9946L30.3279 49.067L30.2777 48.5286L29.7449 48.6207L14.9718 51.1743L24.544 39.6358L24.8893 39.2196L24.4473 38.9079L12.1956 30.2674L27.1231 28.877L27.6615 28.8269L27.5694 28.294L25.0158 13.521L36.5544 23.0932L36.9705 23.4384L37.2822 22.9965L45.9227 10.7447L47.3131 25.6723L47.3632 26.2107L47.8961 26.1186Z" stroke="#5A718B"/>
</svg>
