<svg width="180" height="100" viewBox="0 0 180 100" fill="none" xmlns="http://www.w3.org/2000/svg">
<path fill-rule="evenodd" clip-rule="evenodd" d="M97.0063 0.91648C97.1306 0.380703 97.622 8.33729e-05 98.1898 8.33729e-05L120.364 6.09381e-09C121.04 -6.52809e-05 121.558 0.524475 121.578 1.13574L121.582 1.14935L140.6 76.9155L145.312 47.8911L154.028 0.965567C154.132 0.406689 154.634 0.000309632 155.222 0.000309632L178.784 6.09381e-09C179.582 6.09381e-09 180.164 0.733621 179.958 1.47996L152.932 99.1306C152.79 99.6433 152.31 100 151.761 100H138.275C138.254 100 138.233 99.9995 138.212 99.9985H126.849C126.286 99.9985 125.794 99.6262 125.663 99.0979L114.386 54.045L110.115 39.812L92.4343 99.1504C92.2841 99.653 91.8089 99.9995 91.268 99.9995H76.2174C76.2019 99.9995 76.1865 99.9993 76.1712 99.9987H66.7131C66.1648 99.9987 65.6832 99.646 65.537 99.1379L51.4432 50.1812L42.6184 20.5551L34.1722 58.1396H50.2236C51.0545 58.1396 51.641 58.9209 51.3802 59.6787L48.4497 68.1871C48.2847 68.6663 47.8184 68.9902 47.2931 68.9902H31.7338L27.2637 88.8818H50.2002C51.0376 88.8818 51.6248 89.674 51.3519 90.4341L48.198 99.2111C48.0284 99.6824 47.566 99.9993 47.0464 99.9993H23.9984C23.9609 99.9993 23.9239 99.9977 23.8872 99.9945C23.8535 99.9972 23.8194 99.9986 23.785 99.9986H1.22148C0.40625 99.9986 -0.180666 99.2431 0.0509807 98.4915L30.1634 0.835781C30.3163 0.339807 30.7899 6.09381e-09 31.3281 6.09381e-09H38.1075H45.725L45.7384 6.85381e-05L63.9645 0.000232225C64.5574 0.000232225 65.0643 0.4102 65.1674 0.971498L79.371 78.7656L87.0931 43.5248L97.0063 0.91648Z" fill="url(#paint0_linear_106_857)"/>
<defs>
<linearGradient id="paint0_linear_106_857" x1="-81" y1="50" x2="213" y2="132.5" gradientUnits="userSpaceOnUse">
<stop stop-color="#F6EDFF"/>
<stop offset="1" stop-color="#F9F3FF"/>
</linearGradient>
</defs>
</svg>
