<svg width="42" height="52" viewBox="0 0 42 52" fill="none" xmlns="http://www.w3.org/2000/svg">
<path fill-rule="evenodd" clip-rule="evenodd" d="M39.602 31.0615C39.1241 30.2183 38.069 30.1827 37.2952 29.204C36.0361 27.7054 36.6663 25.9594 37.6068 24.5139C37.9991 23.5335 37.3514 22.4734 36.3742 22.1816C33.4214 22.2443 31.7353 21.146 32.0559 17.8208C31.9439 16.9741 31.3221 16.6561 31.1878 16.4657C30.2975 15.7179 29.2526 16.3538 28.3735 16.7783L29.1681 18.1453C32.3755 21.9543 27.6469 26.0674 24.65 22.5182C21.022 22.9148 17.0355 23.5741 13.4403 24.3855C14.6131 25.6886 15.5379 26.8882 16.3775 28.4138C16.7721 29.4032 19.7972 32.6113 18.3802 34.1444C17.4993 35.0577 16.0449 36.1627 14.6935 35.5762C11.9287 33.6095 9.56947 30.7183 7.26019 28.2437C7.01743 29.2268 6.04795 29.8378 5.21167 30.2764C3.72823 31.387 4.36315 33.2335 6.07063 33.8527C7.05043 34.289 7.70431 35.3674 7.78939 36.4179C8.11771 38.2977 5.40295 39.8773 7.66915 41.2821C8.53111 41.7164 9.60607 41.0887 10.9544 41.8739C12.4549 42.6704 12.7258 44.3749 12.6482 45.914C12.7545 46.8994 13.9219 47.6697 15.0153 47.0625C15.6555 46.7069 16.0783 46.3748 16.8159 46.2188C18.5954 45.7988 20.1335 47.0509 20.8336 48.5971C21.4445 49.6363 22.9237 49.6787 23.5651 48.5714C24.8353 45.803 27.2708 45.5396 29.6235 47.1542C30.5853 47.498 31.6111 46.8263 31.6929 45.8139C31.7217 45.4579 31.6659 44.719 31.7198 44.3541C31.9689 42.1743 34.0489 41.1597 36.0777 41.4215C37.1744 41.3899 37.8547 40.3037 37.5231 39.3344C33.9062 33.319 41.0497 34.3617 39.602 31.0615ZM13.1446 25.1182C14.1185 27.0572 15.2281 29.2258 16.3043 31.0779C17.1991 32.963 17.9613 32.8546 15.7909 33.9706C15.5921 34.0895 15.6437 34.112 15.3899 34.0413C13.4037 32.4038 11.4183 29.9737 9.46951 28.291C8.77999 27.6865 8.17939 27.2336 7.47475 26.5976C7.17259 26.3753 7.24951 26.4169 7.14703 26.1739C9.03703 25.5814 10.9371 25.0189 12.8575 24.5329C12.908 24.6331 13.1765 25.0204 13.1446 25.1182ZM6.96715 24.589C2.72167 25.682 0.763506 20.5862 4.41595 18.1672C8.43007 14.4215 12.5272 9.78631 14.6908 4.78063C17.3417 10.445 21.0785 16.4845 24.3027 21.9618C18.5641 21.619 12.4864 22.9534 6.96715 24.589ZM28.5028 16.5017C28.4335 16.5476 28.3622 16.5927 28.2903 16.6358L28.2065 16.4906C28.304 16.4455 28.4067 16.3879 28.4786 16.3793C28.4551 16.4134 28.4321 16.4474 28.4092 16.48C28.3642 16.5306 28.2075 16.6286 28.5028 16.5017ZM26.8154 12.4042C28.405 10.1429 25.9239 7.44547 23.536 8.59051C24.3215 9.87895 25.4791 11.8652 26.2685 13.1668C26.398 12.9969 26.63 12.8494 26.6983 12.6344C26.7721 12.5884 26.7333 12.4552 26.8154 12.4042ZM40.464 33.9706C38.4913 35.6135 37.016 35.5833 38.8348 38.477C39.8067 40.3803 38.5313 42.9679 35.991 43.0141C35.1682 43.0291 34.5662 42.88 33.9045 43.4889C33.0622 44.264 33.4889 45.1315 33.3616 46.058C33.0641 48.2245 30.9771 49.4431 29.0331 48.7213C28.1285 48.3854 27.6745 47.7268 26.689 47.8377C25.2479 48.0273 25.2561 49.7671 24.148 50.4701C21.941 52.097 19.6636 50.587 18.6425 48.4131C16.9861 46.8988 16.2406 49.2139 13.9987 49.0418C12.2637 48.929 10.9198 47.5436 10.8664 45.7964C10.9858 44.7178 10.7679 43.2899 9.45943 43.1894C6.69715 43.6545 4.04491 41.1286 5.47387 38.3217C8.02039 34.9305 3.63331 35.3763 3.21595 32.5617C2.88967 28.7747 6.04339 29.8616 6.77863 27.5314C6.53395 27.2199 6.25807 26.7375 6.06055 26.3744C0.586866 26.6335 -1.06133 19.6073 3.38143 16.7261C7.32991 13.1603 11.051 8.18695 14.4435 4.16959C14.1272 2.84419 14.6915 1.58227 16.0623 1.35391C15.3716 1.91167 15.0027 3.31387 15.6445 4.17679C19.25 9.64963 22.6646 15.7565 25.979 21.4239C26.8741 23.0722 29.3278 21.6844 28.3891 20.0477C25.6154 14.9428 21.4035 7.80811 18.7223 2.57971C17.9713 1.30255 17.2755 1.35739 16.1036 1.52011L16.1068 1.51747L16.0945 1.52863L16.2311 1.38535L16.1677 1.45531L16.2239 1.39783L16.2043 1.42663L16.5064 1.26643C16.3526 1.26643 16.4109 1.28095 16.4933 1.14739C16.4301 1.11967 16.1229 1.22611 16.3121 1.10815C17.4094 0.463268 18.9517 1.14679 19.5293 2.23375C20.7757 3.92803 22.0493 6.06535 23.1299 7.90231C24.2235 6.29659 26.9554 6.86779 28.2367 8.50207C29.6699 10.1965 29.2913 13.5793 26.8135 14.0929L28.1771 16.4402C29.7813 14.795 32.7495 15.5638 32.9072 17.9624C32.8235 19.3659 33.3691 20.9342 34.9081 20.9439C37.459 20.4549 39.8632 22.5201 38.7785 25.1535C36.3626 28.8511 39.6763 28.2015 40.9659 30.6158C41.4616 31.7192 41.2847 33.0581 40.464 33.9706ZM27.5002 33.6835C26.1694 35.0471 23.5037 39.2839 21.4863 38.9276C21.4915 38.8831 21.5066 38.8491 21.4804 38.7935C21.4647 38.7613 21.5329 38.7519 21.506 38.6686C21.4706 38.5591 21.6035 38.5425 21.5943 38.3147C23.9943 34.5897 27.3724 31.3891 30.5435 28.3158C30.836 28.2472 30.8654 27.9178 31.1983 27.9685C31.2124 28.0131 31.1794 28.0743 31.159 28.1267C31.2093 28.1267 31.1907 28.1096 31.214 28.1628C31.2596 28.2668 31.2896 28.1854 31.3239 28.2001C30.8121 30.376 28.7384 31.9421 27.5002 33.6835ZM32.3793 36.8962C32.7826 40.7015 27.025 40.5089 27.2491 36.7562C27.3659 35.2108 29.0843 33.8544 30.65 34.6351C31.0917 34.9545 31.4806 35.3387 31.2177 35.8779C31.0718 35.8779 31.1116 35.9233 31.0725 35.8955C31.0215 35.8594 30.9955 35.9355 30.9247 35.9066C30.7916 35.8523 30.7292 35.9458 30.6951 35.9263C30.4747 35.7999 30.4931 35.8951 30.3112 35.8569C30.0866 35.8097 30.0902 35.9 30.0379 35.8975C29.9618 35.8939 29.9825 35.9301 29.9685 35.9263C29.8972 35.9078 29.8609 36.0334 29.7808 36.0224C27.5354 37.2214 30.686 39.3629 31.2046 37.1421C31.2681 37.1153 31.2387 36.7257 31.2577 36.6425C31.2789 36.5488 31.1041 36.5002 31.1714 36.4359C31.2566 36.3544 31.0449 36.2807 31.0779 36.1207C31.1078 35.9755 31.0731 35.9566 31.2277 36.0101L31.2722 35.9624C31.3691 35.9229 31.3088 35.8942 31.3271 35.8643C31.3935 35.7555 32.1547 36.2135 32.3793 36.8962ZM16.2244 1.39603C16.2244 1.39603 16.2238 1.39735 16.2238 1.39795L16.2244 1.39735V1.39603ZM16.0943 1.52875C16.0923 1.53067 16.0923 1.53139 16.0943 1.52875V1.52875ZM33.5887 10.8705C33.3531 10.9737 33.1669 10.9425 32.8509 11.068C32.8457 11.0853 32.8474 11.0326 32.8255 11.066C32.785 11.1272 32.6784 10.9598 32.4769 11.4879C32.3949 11.5827 32.3083 12.1667 32.4357 12.1688L32.4789 12.2552C32.5767 12.1753 32.4862 12.2499 32.6209 12.316C32.6211 12.3161 32.6701 12.3259 32.6732 12.3579C32.681 12.4384 32.6969 12.3914 32.7085 12.3958C32.9011 12.4544 33.004 12.4403 33.2533 12.5391C33.3749 12.5873 33.3901 12.6215 33.5194 12.5719C33.5312 12.5673 33.5437 12.5607 33.5574 12.5666C33.5776 12.5777 33.5979 12.5313 33.6201 12.5613L34.1133 12.5266C34.2032 12.581 34.2892 12.4756 34.3474 12.4599C34.4062 12.3292 34.4173 12.3874 34.4278 12.3304C35.0323 11.8839 34.5416 10.3418 33.5887 10.8705ZM30.9718 7.40143C31.0358 7.45819 31.1541 7.86415 31.2569 7.76119C31.2607 7.72747 31.3479 7.80763 31.3479 7.80763C31.3983 7.68847 31.3683 7.78867 31.5401 7.76779C31.5407 7.76767 31.5977 7.74403 31.6205 7.76971C31.6763 7.83235 31.6598 7.78471 31.6787 7.78015C31.9801 7.63879 32.5667 7.54495 32.7945 7.32691C33.0171 7.16251 33.6097 6.88423 33.5918 6.63883C33.6051 6.63043 33.5758 6.55339 33.6428 6.51979C33.6962 6.49303 33.6213 6.44551 33.7245 6.37783C33.5123 5.25391 32.5292 5.09779 31.8939 5.91355C31.4414 6.40651 30.8185 6.42043 30.9718 7.40143ZM21.7079 32.4232C18.8889 31.0786 20.7766 26.3276 23.6893 27.6735C24.1299 27.9903 24.5195 28.385 24.2561 28.9162C24.1111 28.9162 24.1495 28.9625 24.1115 28.9339C24.0623 28.8965 24.0314 28.9739 23.9631 28.9449C23.8329 28.8896 23.7673 28.9828 23.7328 28.9646C23.4669 28.8231 23.5279 28.9383 23.3495 28.8952C23.1406 28.8448 23.122 28.9372 23.0762 28.9358C22.9975 28.9334 23.0221 28.9697 23.0062 28.9646C22.936 28.9462 22.8986 29.0727 22.8191 29.0601C20.581 30.2463 23.7049 32.411 24.2429 30.1804C24.2944 30.1593 24.286 29.8929 24.2882 29.8483C24.2997 29.6079 24.3134 29.6534 24.1979 29.52C24.3037 29.2896 24.0242 29.3988 24.1443 29.0281L24.2666 29.0491C24.2738 28.9972 24.284 29.0115 24.3104 29.0006C24.4047 28.9621 24.3473 28.9323 24.3653 28.9031C26.9842 29.9069 24.5603 33.8704 21.7079 32.4232ZM26.9822 3.36667C26.8927 3.61987 27.3381 3.99451 27.4591 4.09075C27.5571 4.09615 27.8187 4.23667 27.9051 4.18231C27.9296 4.15891 27.9025 4.10179 27.9758 4.11559C28.0691 4.13311 27.9509 4.05475 28.0046 4.03843C28.0808 4.01527 28.1141 3.94471 28.1583 3.89587C28.1685 3.88459 28.2452 3.90763 28.2269 3.87427C28.5428 3.22075 28.8806 2.52463 28.8437 1.80223C28.7299 1.68583 28.8001 1.69963 28.7463 1.66819C28.7277 1.04875 27.3613 1.00327 27.2321 1.51123C26.9774 1.81003 27.103 2.26375 27.0346 2.57203C27.0793 2.77687 26.9507 3.08587 26.9921 3.33331C27.0052 3.34627 26.9553 3.32935 26.9822 3.36667Z" fill="#5A718B"/>
</svg>
