<svg width="15" height="18" viewBox="0 0 15 18" fill="none" xmlns="http://www.w3.org/2000/svg">
<path d="M6.61854 17.744H6.61849H0.69394H0.69389C0.607566 17.744 0.524696 17.7234 0.454616 17.6865C0.384627 17.6497 0.332497 17.5995 0.299796 17.5451C0.267404 17.4913 0.254239 17.4341 0.258192 17.3788C0.262155 17.3234 0.283615 17.2664 0.32511 17.2144L6.75111 9.15965L6.8785 8.99998L6.75109 8.84033L0.325078 0.787477L0.32508 0.787476L0.324476 0.786725C0.282584 0.734632 0.260858 0.67748 0.256735 0.621911C0.252624 0.566492 0.265721 0.50908 0.298142 0.455108C0.330873 0.400621 0.383142 0.35027 0.453368 0.313369C0.523686 0.276421 0.606839 0.25582 0.693404 0.256001V0.256002H0.69394H6.61849L6.61854 0.256002C6.6948 0.255986 6.76869 0.272106 6.83355 0.301617C6.89837 0.331113 6.95035 0.372187 6.98732 0.418532L6.98733 0.418545L13.6868 8.81645C13.6868 8.81645 13.6868 8.81646 13.6868 8.81646C13.733 8.87439 13.7544 8.93846 13.7544 9C13.7544 9.06155 13.733 9.12561 13.6868 9.18354C13.6868 9.18355 13.6868 9.18355 13.6868 9.18355L6.98733 17.5815L6.98732 17.5815C6.95035 17.6278 6.89837 17.6689 6.83355 17.6984C6.76869 17.7279 6.6948 17.744 6.61854 17.744ZM1.81693 16.6362L1.48532 17.0518H2.01705H6.25721H6.38048L6.45734 16.9555L12.6757 9.15964L12.803 8.99999L12.6757 8.84035L6.45647 1.04452L6.3796 0.948166H6.25635H2.01618H1.4844L1.81607 1.36383L7.76267 8.81645C7.80888 8.87438 7.83027 8.93845 7.83027 9C7.83027 9.06155 7.80888 9.12562 7.76267 9.18355L1.81693 16.6362Z" fill="#1A7EFB" stroke="#1A7EFB" stroke-width="0.512"/>
</svg>
