<svg width="60" height="60" viewBox="0 0 60 60" fill="none" xmlns="http://www.w3.org/2000/svg">
<path d="M41.8135 8.18385C41.0626 9.92794 40.4919 11.7442 40.1104 13.6044C40.0915 13.6847 40.0889 13.768 40.1027 13.8493C40.1166 13.9307 40.1466 14.0084 40.1911 14.0779C40.2355 14.1475 40.2935 14.2073 40.3615 14.254C40.4295 14.3008 40.5062 14.3333 40.5871 14.3498C40.6679 14.3663 40.7513 14.3665 40.8322 14.3502C40.913 14.3339 40.9898 14.3015 41.058 14.255C41.1261 14.2085 41.1843 14.1487 41.2289 14.0793C41.2735 14.0099 41.3038 13.9323 41.3178 13.851C41.6831 12.0739 42.2284 10.3386 42.9452 8.67206C42.9794 8.59743 42.9982 8.51673 43.0007 8.4347C43.0033 8.35268 42.9894 8.27097 42.9599 8.19439C42.9304 8.1178 42.8859 8.04787 42.8291 7.9887C42.7722 7.92952 42.7041 7.8823 42.6288 7.8498C42.5534 7.81729 42.4723 7.80016 42.3903 7.7994C42.3082 7.79865 42.2268 7.81429 42.1509 7.8454C42.0749 7.87651 42.006 7.92248 41.948 7.9806C41.8901 8.03871 41.8443 8.10781 41.8135 8.18385ZM44.9639 16.4721C45.1447 16.4721 45.3239 16.3923 45.4455 16.2403L49.6825 10.9389C49.7342 10.8758 49.7728 10.803 49.7961 10.7249C49.8195 10.6467 49.827 10.5647 49.8185 10.4836C49.8099 10.4025 49.7853 10.3239 49.7461 10.2523C49.7069 10.1808 49.6539 10.1177 49.5901 10.0668C49.5264 10.0159 49.4532 9.97818 49.3748 9.95578C49.2963 9.93338 49.2142 9.92676 49.1332 9.93632C49.0522 9.94588 48.9739 9.97142 48.9028 10.0115C48.8318 10.0515 48.7694 10.1053 48.7192 10.1696L44.4822 15.471C44.1567 15.8778 44.4551 16.4721 44.9639 16.4721ZM56.5611 16.7869C56.4977 16.6363 56.377 16.517 56.2256 16.4554C56.0743 16.3937 55.9046 16.3947 55.754 16.4581C53.3876 17.4536 50.9028 18.1398 48.3609 18.4997C48.2782 18.5081 48.1981 18.533 48.1254 18.573C48.0526 18.6131 47.9887 18.6674 47.9375 18.7327C47.8863 18.7981 47.8487 18.8731 47.8272 18.9533C47.8057 19.0335 47.8006 19.1172 47.8122 19.1994C47.8239 19.2817 47.852 19.3607 47.8949 19.4318C47.9379 19.5029 47.9947 19.5645 48.0621 19.6131C48.1294 19.6617 48.2059 19.6961 48.2869 19.7144C48.3679 19.7327 48.4518 19.7344 48.5335 19.7195C51.1805 19.3449 53.7681 18.6305 56.2324 17.594C56.383 17.5305 56.5022 17.4098 56.5638 17.2585C56.6255 17.1071 56.6245 16.9375 56.5611 16.7869Z" fill="#5A718B"/>
<path d="M15.564 36.503C14.7844 42.0323 13.4906 47.4767 11.6993 52.7655C11.6718 52.8453 11.6611 52.9299 11.6678 53.014C11.6746 53.0981 11.6987 53.1799 11.7386 53.2542C11.7785 53.3286 11.8334 53.3938 11.8997 53.4459C11.9661 53.4981 12.0425 53.5359 12.1242 53.557L12.0749 53.5759C12.742 54.111 13.4922 54.5333 14.2957 54.826C19.7409 52.8033 25.0653 50.2973 30.1357 47.4493C34.0785 50.1921 38.5908 52.6249 43.856 54.8482C43.9502 54.888 44.0528 54.9038 44.1546 54.8941C44.2564 54.8844 44.3542 54.8495 44.4391 54.7926C44.5241 54.7357 44.5935 54.6585 44.6412 54.5681C44.689 54.4777 44.7134 54.3768 44.7124 54.2745C44.6566 48.9962 43.727 43.3767 41.7922 36.6197C46.4105 32.8225 50.5267 29.4025 55.3045 25.477C55.395 25.4022 55.4623 25.3031 55.4984 25.1914C55.5345 25.0796 55.538 24.9599 55.5084 24.8463C55.4788 24.7327 55.4173 24.6299 55.3313 24.55C55.2452 24.4701 55.1381 24.4164 55.0226 24.3954C49.0859 23.3104 43.4779 22.3685 37.7089 21.3156C30.7489 8.14933 32.0401 5.29645 30.8015 5.1296C30.6866 5.11293 30.5693 5.13066 30.4645 5.18056L30.4957 5.10165C29.1149 5.73289 27.85 6.5959 26.7034 7.5896C25.7418 8.4222 22.75 15.5984 20.4996 20.3811C15.3363 21.466 9.94532 21.831 4.44423 21.448C4.29323 21.4376 4.14373 21.4835 4.02458 21.5768C3.90543 21.6702 3.82508 21.8043 3.79902 21.9534C3.77437 21.9649 3.74724 21.9797 3.72669 21.9888C3.48587 22.8999 3.37328 23.8402 3.39217 24.7825C6.71765 29.3704 10.8453 33.3682 15.564 36.503ZM20.1355 21.7184C20.4396 21.7184 20.7305 21.6551 21.0067 21.5359C22.4237 21.2318 22.6801 21.2318 22.8618 20.9129L30.5146 7.357C31.7911 11.8611 33.7514 16.4967 36.7604 22.1573C37.0177 22.6438 36.573 22.311 53.493 25.3693C49.3349 28.7918 44.959 32.4214 40.6957 35.9244C40.6027 36.0009 40.5341 36.1031 40.4984 36.2182C40.4628 36.3333 40.4617 36.4563 40.4952 36.5721C42.356 42.9855 43.3061 48.3452 43.4598 53.3384C37.7393 50.8562 32.9434 48.1134 28.8215 44.9688C28.724 44.8947 28.6068 44.8513 28.4846 44.844C28.3624 44.8367 28.2408 44.8658 28.1352 44.9277C23.5472 47.6318 18.3133 50.1033 13.2667 51.9567C15.0802 46.3512 16.3451 40.5827 17.0434 34.7326C17.1092 34.186 17.239 34.7334 5.92697 22.7671C10.7812 22.9849 15.5434 22.6291 20.1355 21.7184Z" fill="#5A718B"/>
</svg>
