<svg width="20" height="20" viewBox="0 0 20 20" fill="none" xmlns="http://www.w3.org/2000/svg">
<path d="M8.00016 14.0001C7.86881 14.0002 7.73873 13.9744 7.61739 13.9241C7.49605 13.8738 7.38585 13.8 7.29312 13.707L4.29312 10.707C3.9024 10.3163 3.9024 9.68365 4.29312 9.29293C4.68384 8.90221 5.31648 8.90221 5.7072 9.29293L8.00016 11.5859L15.293 4.29301C15.6838 3.90229 16.3164 3.90229 16.7071 4.29301C17.0978 4.68373 17.0978 5.31637 16.7071 5.70709L8.7072 13.707C8.61447 13.8 8.50427 13.8738 8.38293 13.9241C8.26159 13.9744 8.13151 14.0002 8.00016 14.0001ZM20.0002 9.99997C20.0002 9.25189 19.9171 8.50429 19.7532 7.77925C19.7242 7.65115 19.6703 7.53001 19.5944 7.42277C19.5186 7.31552 19.4224 7.22427 19.3113 7.15422C19.2002 7.08417 19.0764 7.03669 18.9469 7.01451C18.8174 6.99233 18.6849 6.99587 18.5568 7.02493C18.4287 7.05382 18.3075 7.10768 18.2002 7.18343C18.0929 7.25919 18.0016 7.35535 17.9315 7.46642C17.8614 7.5775 17.8139 7.7013 17.7917 7.83075C17.7694 7.9602 17.773 8.09276 17.802 8.22085C17.9338 8.80141 18.0002 9.39997 18.0002 10.0002C18.0002 14.4114 14.4113 18.0001 10.0003 18.0001C5.58936 18.0001 2.00016 14.4112 2.00016 9.99997C2.00016 5.58877 5.58888 2.00005 10.0001 2.00005C10.9152 2.00005 11.8126 2.15341 12.667 2.45509C12.7908 2.49903 12.9221 2.51811 13.0533 2.51123C13.1845 2.50435 13.3131 2.47165 13.4317 2.415C13.5502 2.35835 13.6564 2.27887 13.7442 2.1811C13.832 2.08333 13.8997 1.9692 13.9433 1.84525C14.0313 1.59512 14.0165 1.32027 13.9021 1.08105C13.7877 0.841842 13.583 0.657822 13.333 0.569405C12.2625 0.191211 11.1354 -0.00139741 10.0001 -0.000115716C4.48584 -0.000115716 0 4.48573 0 9.99997C0 15.5137 4.48584 20.0001 10.0001 20.0001C15.5138 20.0001 20.0002 15.5137 20.0002 9.99997Z" fill="#1A7EFB"/>
</svg>
