<svg width="30" height="30" viewBox="0 0 30 30" fill="none" xmlns="http://www.w3.org/2000/svg">
<g clip-path="url(#clip0_210_12241)">
<path d="M30 15C30 16.28 28.4275 17.335 28.1125 18.515C27.7875 19.735 28.61 21.435 27.9925 22.5025C27.365 23.5875 25.4775 23.7175 24.5975 24.5975C23.7175 25.4775 23.5875 27.365 22.5025 27.9925C21.435 28.61 19.735 27.7875 18.515 28.1125C17.335 28.4275 16.28 30 15 30C13.72 30 12.665 28.4275 11.485 28.1125C10.265 27.7875 8.565 28.61 7.4975 27.9925C6.4125 27.365 6.2825 25.4775 5.4025 24.5975C4.5225 23.7175 2.635 23.5875 2.0075 22.5025C1.39 21.435 2.2125 19.735 1.8875 18.515C1.5725 17.335 0 16.28 0 15C0 13.72 1.5725 12.665 1.8875 11.485C2.2125 10.265 1.39 8.565 2.0075 7.4975C2.635 6.4125 4.5225 6.2825 5.4025 5.4025C6.2825 4.5225 6.4125 2.635 7.4975 2.0075C8.565 1.39 10.265 2.2125 11.485 1.8875C12.665 1.5725 13.72 0 15 0C16.28 0 17.335 1.5725 18.515 1.8875C19.735 2.2125 21.435 1.39 22.5025 2.0075C23.5875 2.635 23.7175 4.5225 24.5975 5.4025C25.4775 6.2825 27.365 6.4125 27.9925 7.4975C28.61 8.565 27.7875 10.265 28.1125 11.485C28.4275 12.665 30 13.72 30 15Z" fill="#1A7EFB"/>
<path d="M19.3351 10.5302L13.6251 16.2402L10.6651 13.2827C10.3564 12.9742 9.93777 12.8008 9.50131 12.8008C9.06486 12.8008 8.64627 12.9742 8.33756 13.2827C8.02903 13.5914 7.85571 14.01 7.85571 14.4464C7.85571 14.8829 8.02903 15.3015 8.33756 15.6102L12.4901 19.7627C12.7905 20.0628 13.1979 20.2314 13.6226 20.2314C14.0473 20.2314 14.4546 20.0628 14.7551 19.7627L21.6601 12.8577C21.9686 12.549 22.1419 12.1304 22.1419 11.6939C22.1419 11.2575 21.9686 10.8389 21.6601 10.5302C21.5075 10.3774 21.3262 10.2563 21.1268 10.1736C20.9273 10.0909 20.7135 10.0483 20.4976 10.0483C20.2816 10.0483 20.0678 10.0909 19.8684 10.1736C19.6689 10.2563 19.4877 10.3774 19.3351 10.5302Z" fill="white"/>
</g>
<defs>
<clipPath id="clip0_210_12241">
<rect width="30" height="30" fill="white"/>
</clipPath>
</defs>
</svg>
