<svg width="60" height="60" viewBox="0 0 60 60" fill="none" xmlns="http://www.w3.org/2000/svg">
<path d="M16.2343 13.2329C14.5635 15.5053 11.6229 17.0424 8.88272 17.9112C8.01389 18.0449 7.21189 18.3122 6.54356 18.6464C5.47424 19.1142 6.0089 20.8519 7.14506 20.8519C10.4867 20.7851 14.0957 20.1836 16.0338 23.5252C16.9027 25.0624 16.9695 26.9337 17.2368 28.6045C17.571 31.3447 18.373 37.9611 18.4398 38.028C18.7072 40.1666 22.2493 40.0998 22.1825 37.1591C22.0488 33.0823 22.6503 28.6045 24.5216 24.9955C25.3236 23.3916 26.5935 21.9881 28.1306 21.0524C28.799 20.6514 29.5341 20.3841 30.2693 20.1836C31.2049 20.3172 32.1406 20.2504 33.0094 20.0499C34.6803 19.6489 34.4129 17.5102 33.0094 16.9756C31.0713 16.3073 29.0663 16.3073 27.1281 15.3048C25.4573 14.4359 24.1206 13.1661 23.0513 11.5621C21.9152 9.82445 21.581 8.08679 21.3805 6.2823C21.3805 4.67831 21.3137 3.07432 21.2468 1.60399C21.18 -0.534664 17.8383 -0.534664 17.9052 1.60399C17.972 2.87382 18.0388 4.34415 18.1057 5.8813V6.6833C17.9052 9.15612 17.5042 11.4953 16.2343 13.2329ZM18.6403 15.4384C19.175 14.8369 19.576 14.1686 19.9102 13.4334C20.0438 13.6339 20.1107 13.7676 20.2443 13.9681C21.4473 15.8394 23.4523 17.6439 25.7246 18.9137C24.2543 19.8494 22.9845 21.0524 22.2493 22.0549C21.3805 23.1911 20.7122 24.5277 20.1775 25.9312C19.7097 23.3916 18.774 21.1861 16.7022 19.5152C16.2343 19.1142 15.6329 18.8469 15.0982 18.5796C16.368 17.5771 17.6378 16.5746 18.6403 15.4384ZM38.4229 29.4065C37.8882 29.4734 37.4204 29.6739 36.8857 29.8744C36.2174 30.2085 36.5516 31.211 37.2867 31.211C39.7596 31.211 42.4329 30.8769 43.2349 33.8843C43.4354 34.6863 43.5022 35.622 43.569 36.424L44.1705 41.236V41.4365C44.1705 41.5701 44.1705 41.7038 44.2374 41.8375V41.9711C44.4379 43.3746 46.1087 43.3078 46.376 42.1716C46.5097 41.9711 46.5765 41.7706 46.5765 41.4365C46.5097 38.8968 46.8439 35.8893 48.1137 33.617C49.1162 31.8793 50.4528 31.4115 51.99 30.81H53.0593C54.1287 30.6763 54.4628 29.1392 53.3267 28.8719C50.9207 28.2035 48.7152 27.8694 47.178 25.597C46.5097 24.5945 46.1755 23.5252 46.0419 22.3891C46.0419 21.3197 45.975 20.2504 45.975 19.2479C45.9082 17.9112 43.8364 17.9112 43.9032 19.2479C43.9032 19.9162 44.1037 24.4609 43.1012 26.2654C42.1656 27.8694 40.1606 28.805 38.4229 29.4065ZM44.5047 27.7357C44.772 27.4015 45.0394 27.0005 45.2399 26.5995C46.1755 28.003 47.5122 29.1392 48.9157 29.9412C48.1137 30.409 47.3785 31.0773 46.9107 31.612C46.2424 32.414 45.7077 33.3497 45.3067 34.3522C44.9057 32.2135 43.6359 30.5427 41.9651 29.8075C43.0344 29.2729 43.8364 28.6045 44.5047 27.7357ZM31.6728 42.6395C30.4698 40.9686 30.4698 37.2928 30.4698 36.2903C30.4029 34.9537 28.3311 34.9537 28.398 36.2903C28.398 36.9587 28.4648 41.3696 27.596 43.3078C26.8608 44.9786 24.6553 45.8474 22.9176 46.3821C22.383 46.4489 21.9152 46.6494 21.3805 46.8499C20.7122 47.1841 21.0463 48.1866 21.7815 48.1866C24.2543 48.1866 26.9276 47.8524 27.7296 50.8599C27.9301 51.6619 27.997 52.5976 28.0638 53.3996L28.6653 58.2115V58.412C28.6653 58.5457 28.6653 58.6794 28.7321 58.813V58.9467C28.9326 60.3502 30.6034 60.2834 30.8708 59.1472C31.0044 58.9467 31.0713 58.7462 31.0713 58.412C31.0044 55.8724 31.3386 52.8649 32.6084 50.5926C33.6109 48.8549 34.9476 48.3871 36.4847 47.7856H37.5541C38.6234 47.6519 38.9576 46.1148 37.8214 45.8474C35.4154 45.2459 33.2768 44.8449 31.6728 42.6395ZM31.4723 48.6544C30.8039 49.4564 30.2693 50.3921 29.8683 51.3946C29.4673 49.2559 28.1975 47.5851 26.5266 46.8499C27.4623 46.3153 28.3311 45.6469 28.9995 44.7781C29.2668 44.444 29.5341 44.043 29.7346 43.642C30.6703 45.0454 32.0069 46.1816 33.4104 46.9836C32.6084 47.4514 31.9401 48.0529 31.4723 48.6544Z" fill="#5A718B"/>
</svg>
