<svg width="60" height="60" viewBox="0 0 60 60" fill="none" xmlns="http://www.w3.org/2000/svg">
<path d="M57.1752 44.0475H54.3637V14.0475C54.4077 11.2172 51.2484 11.055 49.1512 11.235C48.9862 9.29813 48.5887 6.47063 46.0406 6.54751H13.9368C11.4102 6.46876 10.9677 9.30001 10.8271 11.235C8.72711 11.0625 5.57149 11.2106 5.61461 14.0475V44.0475C-2.26601 42.5147 4.40711 52.6069 8.07836 53.355C8.89961 53.4675 51.089 53.505 51.899 53.355C54.7715 52.5919 60.2052 46.3097 57.1752 44.0475ZM47.8631 15.2756C47.9271 16.5261 48.0945 17.7691 48.3637 18.9919C48.4647 19.7238 48.3549 20.4693 48.0474 21.1411C47.7398 21.8129 47.2471 22.3831 46.6271 22.785C46.0071 23.1868 45.2853 23.4035 44.5465 23.4099C43.8077 23.4162 43.0824 23.2118 42.4556 22.8206C44.114 21.4809 46.1652 20.6494 47.6615 19.1363C47.7491 19.0442 47.8045 18.9262 47.8193 18.8C47.8341 18.6737 47.8075 18.5461 47.7436 18.4363C47.6796 18.3265 47.5818 18.2404 47.4647 18.1909C47.3476 18.1415 47.2176 18.1314 47.0943 18.1622C44.8959 18.7856 43.2215 20.5941 41.6043 22.1259C41.0648 21.4846 40.7344 20.6936 40.6574 19.8591C42.9037 18.6534 45.209 16.6688 47.8631 15.2756ZM47.6662 13.5141C44.946 14.6445 42.5166 16.3755 40.5599 18.5775L40.4099 16.4794C40.4976 16.5136 40.5931 16.5229 40.6858 16.5062C40.7785 16.4894 40.8647 16.4474 40.9349 16.3847C42.9742 14.7123 45.1542 13.2193 47.4506 11.9222C47.5293 12.435 47.6006 12.9731 47.6662 13.5141ZM46.5224 8.64563C46.8887 9.26684 47.1283 9.95445 47.2274 10.6688C44.5771 11.6344 42.4162 13.6697 40.3424 15.5297L40.198 13.5075C40.2425 13.5363 40.295 13.55 40.3479 13.5467C40.4007 13.5433 40.4511 13.523 40.4915 13.4888C41.4993 12.7181 42.523 11.97 43.529 11.1975C44.5237 10.3444 45.7977 9.76219 46.5224 8.64563ZM45.1499 8.42251C43.3478 9.76642 41.6764 11.2772 40.1577 12.9347L40.0209 11.0166C41.0765 10.0397 42.0365 9.35438 43.0677 8.42251H45.1499ZM41.0034 8.42251C40.5949 8.72892 40.2278 9.08689 39.9112 9.48751L39.8362 8.42251H41.0034ZM30.9262 8.42251H37.9556C37.528 11.9559 41.4787 23.6025 34.8084 23.4225C28.5224 23.6663 31.6237 11.82 30.9262 8.42251ZM22.0218 8.42251H24.6749C23.7515 9.09469 22.8243 9.76594 21.9309 10.4784C22.0171 9.79675 22.0475 9.10915 22.0218 8.42251ZM21.7462 12.2072C23.482 11.062 25.136 9.79736 26.6962 8.42251H29.0512V8.66626C28.5544 8.67039 28.0742 8.8459 27.6918 9.16313C25.5559 10.4501 23.5213 11.8981 21.6055 13.4944C21.6524 13.0538 21.6993 12.6225 21.7462 12.2072ZM21.4621 14.9663C24.0234 13.3688 26.534 11.6681 29.0512 10.0013V11.6859C26.1674 12.9928 23.759 15.2091 21.313 17.1919C21.3421 16.4663 21.3946 15.7181 21.4621 14.9663ZM21.6824 18.1613C24.0487 16.3913 26.6005 14.9194 29.0512 13.275V15.3375C28.99 15.2738 28.9117 15.2291 28.8258 15.2086C28.7398 15.1882 28.6498 15.1929 28.5665 15.2222C25.8918 16.5778 23.7309 18.7772 21.5362 20.7872C21.3553 19.9402 21.2735 19.075 21.2924 18.2091C21.3559 18.2359 21.4254 18.2457 21.4938 18.2373C21.5623 18.2289 21.6273 18.2027 21.6824 18.1613ZM23.7234 23.1769C22.8838 22.8685 22.1876 22.2609 21.7687 21.4706C24.3065 19.8816 26.9812 18.3413 29.0512 16.1588V19.0706C27.2032 20.3432 25.4247 21.714 23.7234 23.1769ZM28.8177 20.895C28.5224 21.6262 28.0184 22.2542 27.3686 22.7008C26.7187 23.1475 25.9518 23.3929 25.1634 23.4066C26.4299 22.6418 27.6501 21.8037 28.8177 20.895ZM11.6146 18.9919C12.0552 18.2841 12.3318 8.01938 13.9368 8.42251H20.143C19.9246 11.4253 19.544 16.8384 19.3293 19.8178C18.7518 25.0931 11.0493 24.2709 11.6137 18.9919H11.6146ZM7.48961 14.0484C7.44743 12.6384 9.75743 13.2263 10.559 13.1109L9.75743 18.7266C8.90899 24.8175 16.9855 27.7791 20.2865 22.6547C20.8159 23.4561 21.5353 24.1141 22.3806 24.5702C23.2258 25.0263 24.1708 25.2663 25.1313 25.2688C26.0917 25.2713 27.0379 25.0363 27.8856 24.5846C28.7332 24.1329 29.456 23.4786 29.9896 22.68C30.5233 23.4782 31.246 24.1322 32.0935 24.5836C32.9409 25.035 33.8868 25.2699 34.847 25.2674C35.8072 25.2649 36.7519 25.025 37.597 24.5692C38.4421 24.1134 39.1614 23.4557 39.6909 22.6547C42.9965 27.7809 51.0674 24.8147 50.2199 18.7266L49.4184 13.1109C50.2265 13.2394 52.5262 12.6291 52.4887 14.0484V44.0484H35.6156C34.3284 44.0006 35.0277 45.9703 33.7406 45.9234H26.2387C24.9524 45.9703 25.6499 44.0006 24.3637 44.0484H7.48868L7.48961 14.0484ZM54.5643 49.095C55.348 53.6363 10.5084 50.8341 8.61461 51.5484C6.74899 50.9869 4.15868 48.0525 3.90368 45.9234H23.5856C23.7802 46.4716 24.1397 46.946 24.6147 47.2817C25.0898 47.6174 25.657 47.7979 26.2387 47.7984C28.3856 47.3859 35.6521 49.1081 36.3918 45.9234H56.0737C55.8102 47.0789 55.2948 48.1619 54.5643 49.095Z" fill="#5A718B"/>
<path d="M22.5842 29.9091C19.5139 29.8584 16.5261 28.9284 13.4502 28.9341C13.3032 28.931 13.158 28.9664 13.029 29.0367C12.8999 29.1071 12.7915 29.2099 12.7144 29.335C12.6373 29.4601 12.5942 29.6032 12.5894 29.7501C12.5846 29.897 12.6183 30.0426 12.687 30.1725C12.2805 32.9409 12.1636 35.7442 12.3383 38.5369C12.3606 38.9339 12.539 39.3059 12.8346 39.5718C13.1302 39.8377 13.519 39.9759 13.9161 39.9562C16.6461 40.1569 19.3908 39.9381 22.0545 39.3075C22.8195 38.7525 22.5167 37.5769 22.7023 36.75C22.9594 34.6512 23.0921 32.5391 23.0998 30.4247C23.0979 30.2885 23.043 30.1585 22.9467 30.0622C22.8504 29.9659 22.7204 29.911 22.5842 29.9091ZM21.1883 36.3778C21.1358 36.8231 21.0645 37.5516 21.0036 37.9903C18.6347 38.3973 16.2301 38.5594 13.828 38.4741C13.6873 35.8931 13.7961 33.2709 13.5055 30.6937C16.3311 30.8569 19.1558 30.4528 21.9739 30.8344C21.627 32.6681 21.4208 34.5272 21.1883 36.3778ZM32.0923 31.0931C36.1189 32.0025 40.3705 31.7775 44.4767 31.8019C44.6793 31.7949 44.8712 31.7095 45.012 31.5637C45.1528 31.4179 45.2315 31.2231 45.2315 31.0205C45.2315 30.8178 45.1528 30.623 45.012 30.4773C44.8712 30.3315 44.6793 30.2461 44.4767 30.2391C42.4349 30.2328 40.392 30.2059 38.3483 30.1584C36.3133 29.9892 34.2689 29.9626 32.2302 30.0787C32.1078 30.0831 31.9908 30.1305 31.9 30.2127C31.8092 30.2949 31.7504 30.4065 31.7339 30.5279C31.7174 30.6492 31.7444 30.7725 31.8099 30.8759C31.8755 30.9794 31.9755 31.0563 32.0923 31.0931ZM32.4561 33.9356C31.9461 33.9553 31.7867 34.7503 32.3305 34.8637C36.5234 35.6518 40.7974 35.921 45.0561 35.6653C45.1922 35.6237 45.3114 35.5395 45.396 35.425C45.4807 35.3106 45.5264 35.172 45.5264 35.0297C45.5264 34.8873 45.4807 34.7488 45.396 34.6343C45.3114 34.5199 45.1922 34.4357 45.0561 34.3941C40.8675 34.0129 36.6613 33.8595 32.4561 33.9347V33.9356ZM32.8555 37.9031C32.3586 37.9622 32.1205 38.7806 32.7242 38.8744C37.1389 39.6516 41.6174 39.4303 46.0592 39.8091C47.1458 39.9356 47.2002 38.0869 46.0592 38.0737C41.6624 37.8881 37.2655 37.3003 32.8555 37.9031ZM14.0961 20.6437C14.296 20.6375 14.4865 20.5576 14.6311 20.4194C14.7756 20.2811 14.864 20.0944 14.8793 19.895C14.8945 19.6956 14.8355 19.4975 14.7136 19.339C14.5917 19.1804 14.4155 19.0725 14.2189 19.0359C14.1369 18.9871 14.0675 18.9197 14.0163 18.839C13.9652 18.7584 13.9338 18.6669 13.9245 18.5719C13.9033 17.7027 14.1268 16.8451 14.5695 16.0969C14.5904 16.009 14.5854 15.9169 14.5552 15.8318C14.525 15.7467 14.4708 15.6721 14.3992 15.617C14.3276 15.562 14.2416 15.5288 14.1516 15.5214C14.0615 15.5141 13.9713 15.5329 13.8917 15.5756C13.1705 16.2077 12.6977 17.0757 12.5577 18.0244C12.312 19.0725 12.8548 20.6325 14.0961 20.6428V20.6437ZM16.0405 21.4847C16.1977 21.476 16.3456 21.4074 16.4539 21.293C16.5621 21.1787 16.6224 21.0272 16.6224 20.8697C16.6224 20.7122 16.5621 20.5607 16.4539 20.4463C16.3456 20.332 16.1977 20.2634 16.0405 20.2547C15.8832 20.2634 15.7353 20.332 15.6271 20.4463C15.5188 20.5607 15.4585 20.7122 15.4585 20.8697C15.4585 21.0272 15.5188 21.1787 15.6271 21.293C15.7353 21.4074 15.8832 21.476 16.0405 21.4847ZM32.7683 20.7891C33.4292 21.3862 34.8552 20.9428 34.362 19.9294C34.171 19.64 33.9612 19.3635 33.7339 19.1016C33.3817 18.2929 33.2591 17.4028 33.3795 16.5291C33.4035 16.2142 33.512 15.9117 33.6936 15.6534C33.7984 15.5428 33.8602 15.3983 33.8679 15.2461C33.8756 15.0939 33.8287 14.944 33.7356 14.8233C33.6426 14.7026 33.5094 14.6192 33.3603 14.588C33.2111 14.5568 33.0557 14.5799 32.922 14.6531C31.2289 15.8906 31.1136 19.4981 32.7683 20.7891ZM36.9589 20.2256C36.7672 20.0339 36.5072 19.9262 36.2361 19.9262C35.965 19.9262 35.705 20.0339 35.5133 20.2256C35.3216 20.4173 35.2139 20.6773 35.2139 20.9484C35.2139 21.2195 35.3216 21.4795 35.5133 21.6712C35.705 21.8629 35.965 21.9706 36.2361 21.9706C36.5072 21.9706 36.7672 21.8629 36.9589 21.6712C37.1506 21.4795 37.2583 21.2195 37.2583 20.9484C37.2583 20.6773 37.1506 20.4173 36.9589 20.2256ZM45.3664 50.4356C46.2617 51.0075 53.3099 48.0891 50.7636 47.1394C49.3377 47.3925 48.0955 48.315 46.6677 48.6206C46.0161 48.8428 44.8433 48.9731 44.878 49.8694C44.8943 50.0015 44.9494 50.1258 45.0363 50.2266C45.1233 50.3274 45.2381 50.4001 45.3664 50.4356ZM42.7658 50.7694C43.6161 51.2691 44.4692 49.9819 43.5917 49.4522C43.5053 49.3917 43.4074 49.3494 43.3041 49.3279C43.2008 49.3064 43.0942 49.3061 42.9907 49.3271C42.8873 49.3481 42.7893 49.3899 42.7025 49.45C42.6158 49.5101 42.5421 49.5872 42.4861 49.6767C42.4301 49.7661 42.3929 49.866 42.3767 49.9703C42.3605 50.0745 42.3657 50.181 42.3919 50.2832C42.4182 50.3855 42.4649 50.4813 42.5294 50.5648C42.5938 50.6484 42.6736 50.718 42.7658 50.7694Z" fill="#5A718B"/>
</svg>
