<svg width="69" height="67" viewBox="0 0 69 67" fill="none" xmlns="http://www.w3.org/2000/svg">
<path d="M6.83148 30.9472C7.30128 32.0802 13.1955 38.9861 17.441 43.3778C23.7439 49.8772 33.8413 57.8007 35.8357 57.877C37.1681 57.888 36.2385 56.6903 31.9867 52.9101C29.7883 50.9495 25.4977 46.867 22.5148 43.8498C11.1347 32.415 8.86894 30.2223 8.00053 29.8682C6.81949 29.3867 6.36168 29.8141 6.83148 30.9472Z" fill="#1E262E"/>
<path d="M40.2699 10.5985C39.6129 13.0233 45.8142 43.474 48.0352 48.7078C48.8402 50.6438 49.8748 50.6013 49.8671 48.6851C49.861 45.2895 44.0758 17.2976 42.253 11.9778C41.4386 9.605 40.7006 9.05611 40.2699 10.5985Z" fill="#1E262E"/>
<path d="M16.8749 12.9429C17.0654 15.8193 35.1123 46.5306 39.4654 51.3769C41.0576 53.1757 42.1624 52.7423 41.4411 50.6665C40.1712 46.9853 23.4899 18.7854 19.5362 13.6969C17.7712 11.4277 16.7676 11.1085 16.8749 12.9429Z" fill="#1E262E"/>
</svg>
