<svg width="1359" height="242" viewBox="0 0 1359 242" fill="none" xmlns="http://www.w3.org/2000/svg">
<path d="M1353.83 0.530273C1295.25 59.1052 1092.41 262.49 958.444 397.538C903.666 452.317 859.192 497.332 825.566 530.959C758.313 598.754 731.738 625.33 714.924 642.143C691.061 666.007 687.264 670.345 681.298 675.769C679.671 677.396 678.044 679.023 676.417 680.65C673.163 683.904 669.366 687.701 660.688 696.379C639.536 717.531 623.808 732.717 397.644 957.796C289.714 1065.18 134.056 1220.3 49.4482 1304.36C29.3808 1324.43 13.11 1340.7 0.635742 1353.18V1356.43H3.8899C16.3642 1343.96 32.635 1327.69 52.7023 1307.62C187.75 1172.57 445.371 913.323 532.149 826.003C599.402 758.208 625.977 731.632 642.791 714.819C650.926 706.684 656.35 701.26 660.688 696.921C673.163 684.447 675.875 681.735 681.298 676.311C684.552 673.057 688.349 669.261 697.027 660.583C701.365 656.244 706.789 650.82 714.924 642.685C739.331 618.821 790.313 567.839 960.071 399.165C1068 291.778 1223.66 136.663 1307.72 52.5969C1327.79 32.5295 1344.06 16.2587 1356.54 3.78444V0.530273H1353.28L1353.83 0.530273Z" fill="white" fill-opacity="0.03"/>
<path d="M1014.31 365.016C953.563 423.049 901.496 472.404 861.362 510.369C759.94 605.824 730.653 632.4 711.67 650.298C694.315 666.569 688.891 671.45 684.01 675.789C682.383 677.416 680.756 679.043 679.129 680.67C674.79 685.009 670.993 688.805 659.604 701.822C640.079 722.432 618.927 746.838 445.914 929.613C328.221 1053.81 119.955 1271.84 38.0586 1354.28C37.5162 1354.82 36.4315 1355.91 35.8892 1356.45H42.3975C172.564 1224.12 488.218 889.479 561.436 809.209C603.198 763.651 624.893 740.33 639.536 724.601C678.044 682.297 674.247 686.094 684.552 675.789C687.264 673.077 690.518 669.823 696.484 664.942C700.281 661.145 705.162 656.806 712.755 650.298C736.619 628.603 793.024 577.622 1017.56 366.643C1108.68 280.95 1219.32 175.732 1295.79 101.429C1320.2 78.1076 1340.81 57.4979 1357.62 41.2271V34.7188C1293.08 98.7173 1137.42 248.409 1014.85 365.016H1014.31Z" fill="white" fill-opacity="0.03"/>
<path d="M1080.48 328.119C1014.31 388.321 953.563 442.557 905.835 484.861C760.483 613.943 730.111 638.349 709.501 656.247C691.061 671.975 686.722 675.229 681.841 680.111C676.959 685.534 673.705 689.331 657.977 707.771C640.079 728.923 615.673 758.753 486.591 904.648C385.169 1019.09 178.53 1246.88 73.8545 1355.89H80.3628C246.867 1181.25 528.895 861.259 584.758 795.091C608.08 767.973 623.266 750.075 634.655 737.059C646.045 724.042 653.095 715.364 658.519 708.856C679.129 684.45 679.129 683.907 687.807 675.772C689.976 674.145 692.688 671.975 695.942 668.721C699.738 666.009 704.077 662.213 710.586 656.789C732.822 637.264 796.279 587.909 1085.36 329.203C1152.07 269.544 1223.66 204.461 1282.78 149.14C1310.98 123.107 1336.47 99.2427 1357.62 79.1753V72.667C1293.62 133.954 1181.9 237.002 1081.02 328.119H1080.48Z" fill="white" fill-opacity="0.03"/>
<path d="M1158.58 286.355C1087.53 348.184 1018.1 407.301 961.698 454.487C758.855 624.246 730.653 643.228 707.331 661.668C698.654 668.177 693.772 671.973 689.976 675.227C687.264 677.397 685.637 679.024 684.01 680.651C677.501 687.159 675.874 689.871 654.722 716.989C637.909 738.141 612.418 771.768 519.132 884.578C432.897 989.254 237.105 1218.67 110.735 1356.43H117.243C244.698 1216.5 434.524 991.966 519.675 887.29C557.098 841.732 583.673 808.648 602.656 784.242C612.418 772.31 620.011 762.005 627.062 753.87C640.079 737.057 648.756 726.209 655.265 717.532C681.298 683.363 678.586 686.075 690.518 675.77C691.603 674.685 693.23 673.6 694.857 672.516C698.111 669.804 702.45 667.092 707.874 662.211C726.314 646.482 800.617 597.128 1164 286.897C1199.79 255.983 1235.59 225.068 1269.22 195.238C1301.22 167.036 1331.05 140.46 1357.08 116.596V110.088C1303.39 158.9 1230.71 223.441 1158.58 286.355Z" fill="white" fill-opacity="0.03"/>
<path d="M1248.61 240.279C1174.85 302.108 1096.75 365.564 1030.58 418.716C755.059 637.287 730.652 647.592 705.704 667.117C700.28 670.913 696.484 673.625 693.772 675.794C690.518 677.964 688.348 679.591 686.721 681.218C678.044 689.353 679.128 689.896 651.468 728.404C636.282 749.556 611.876 783.724 547.335 867.79C474.116 963.788 293.51 1189.95 148.7 1357H155.208C300.561 1188.33 475.743 966.5 547.877 870.502C580.419 827.655 602.113 797.826 618.384 776.131C634.112 754.437 644.417 739.793 652.01 729.488C685.637 682.303 678.586 689.353 694.857 676.337C698.111 674.167 701.907 671.456 707.331 667.659C719.263 656.812 810.922 606.372 1257.28 240.279C1293.08 210.449 1327.25 181.704 1358.16 155.128V148.62C1325.62 177.365 1288.2 208.822 1249.69 240.821L1248.61 240.279Z" fill="white" fill-opacity="0.03"/>
<path d="M1352.2 189.293C1278.44 250.038 1193.29 316.748 1117.36 374.78C751.263 650.842 731.737 649.757 705.162 670.367C702.45 671.994 700.823 673.079 698.654 674.706C694.857 676.875 692.145 679.045 689.976 680.672C678.044 691.519 682.925 686.638 646.587 741.958C633.028 762.568 612.418 793.483 570.656 852.6C508.827 941.005 346.119 1161.2 185.581 1356.45H192.089C390.05 1112.39 560.352 872.667 605.368 804.872C701.908 660.604 667.739 703.993 693.23 679.045C694.857 677.96 696.484 676.875 698.111 675.79C699.738 674.706 701.908 673.079 704.619 671.452C724.144 654.638 775.669 641.079 1243.18 282.579C1281.69 252.207 1320.2 221.835 1356.54 192.547V186.039C1356.54 186.039 1353.28 188.751 1351.66 189.836L1352.2 189.293Z" fill="white" fill-opacity="0.03"/>
<path d="M704.619 674.69C700.28 677.401 696.484 679.571 694.314 681.198C678.044 695.842 689.433 682.283 641.706 760.925C630.858 778.823 615.672 803.771 591.808 840.109C539.199 922.548 396.016 1132.98 224.63 1355.89H231.139C482.794 1022.88 616.757 804.856 641.706 762.552C697.026 670.351 675.332 697.469 705.162 674.69C718.178 660.046 782.719 653.537 1357.08 229.412V222.903C1313.69 256.53 1267.59 291.241 1223.12 324.325C746.923 667.639 731.737 652.995 704.619 674.69Z" fill="white" fill-opacity="0.03"/>
<path d="M42.3972 0.530273H35.8889C27.7535 15.7164 16.9063 27.1059 1.72021 34.699V41.2073C19.0757 33.0719 32.0924 20.5976 41.3125 2.69972C41.3125 2.15735 41.8549 1.07263 42.3972 0.530273Z" fill="white" fill-opacity="0.03"/>
<path d="M79.82 0.530273H73.3117C68.9728 21.14 60.8374 36.3261 48.9055 48.258C36.9735 60.1899 21.2451 67.783 1.17773 72.6642V79.1725C24.4992 74.8337 41.8548 66.6982 54.3291 53.6816C67.3457 40.6649 75.4811 23.3094 79.82 0.530273Z" fill="white" fill-opacity="0.03"/>
<path d="M117.243 0.530273H110.735C108.565 51.5121 93.9214 81.8843 61.9221 97.6128C46.1937 105.206 26.6687 109.545 1.17773 110.629V117.138C29.3805 117.138 51.6173 112.257 68.4304 104.121C101.514 87.8503 116.158 55.851 117.243 0.530273Z" fill="white" fill-opacity="0.03"/>
<path d="M155.208 0.530273H148.7C154.666 92.7315 135.141 132.324 74.9388 145.341C55.4138 149.137 31.0076 150.222 1.17773 148.052V154.561C34.8041 157.272 61.3797 156.73 82.5318 152.391C143.819 139.375 162.801 98.1551 155.208 0.530273Z" fill="white" fill-opacity="0.03"/>
<path d="M192.631 0.530273H186.123C204.021 142.629 183.411 186.018 87.9554 191.441C64.6339 191.984 35.8888 190.356 1.17773 185.475V191.984C40.2277 197.407 71.6846 200.119 96.6332 199.034C193.173 193.068 212.698 149.137 192.631 0.530273Z" fill="white" fill-opacity="0.03"/>
<path d="M346.661 369.878C397.643 334.624 390.05 278.761 343.407 0.530273H336.899C394.931 364.996 401.982 369.878 232.223 370.962C206.19 368.793 174.733 364.454 135.683 358.488C98.8026 352.522 54.8714 345.471 1.17773 336.251V342.76C60.8374 352.522 108.565 360.658 148.157 366.624C261.511 383.979 314.12 386.149 346.661 369.335V369.878Z" fill="white" fill-opacity="0.03"/>
<path d="M402.524 401.877C437.236 357.946 425.304 298.829 380.83 0.530273H374.322C431.812 392.657 442.659 396.453 320.086 414.894C282.12 414.894 229.511 407.843 145.988 395.369C105.853 389.403 58.6679 382.352 1.17773 373.674V380.183C65.1763 389.403 116.158 396.996 159.005 403.504C319.001 426.826 371.61 429.537 402.524 401.877Z" fill="white" fill-opacity="0.03"/>
<path d="M398.728 458.282C424.761 455.028 440.49 446.351 449.71 430.08C472.489 380.183 457.845 318.896 419.88 9.20804C419.88 6.49624 419.338 3.24208 418.795 0.530273H412.287C464.896 418.148 478.997 420.317 391.135 451.774C349.373 456.655 287.544 449.062 155.75 431.164C113.446 425.741 63.0068 418.69 1.17773 411.097V417.605C68.9728 425.741 123.209 432.792 168.767 438.215C297.849 455.028 358.051 462.079 398.728 457.198V458.282Z" fill="white" fill-opacity="0.03"/>
<path d="M454.591 488.655C473.031 482.689 483.336 472.384 489.302 453.944C500.692 414.351 493.099 356.319 473.574 177.34C468.693 129.612 462.727 72.6642 456.761 0.530273H450.252C493.641 440.927 510.997 440.927 448.625 482.689C407.948 494.078 348.289 485.943 164.428 465.333C119.412 460.452 66.8035 455.028 1.72021 449.062V455.571C73.3118 461.537 130.26 467.503 177.987 472.384C356.966 491.909 414.999 499.502 454.591 488.112V488.655Z" fill="white" fill-opacity="0.03"/>
<path d="M521.844 474.011C526.725 443.639 523.471 398.623 515.336 303.167C509.912 238.084 501.777 150.764 494.726 10.2928C494.726 7.0386 494.726 3.78444 494.726 0.530273H488.218C518.59 460.994 538.657 458.825 494.184 508.18C455.134 527.162 408.491 518.485 172.022 498.417C125.379 494.621 70.0577 490.824 2.2627 487.028V493.536C77.1084 497.332 136.768 501.129 186.123 504.926C495.811 529.332 495.811 539.637 522.929 474.011H521.844Z" fill="white" fill-opacity="0.03"/>
<path d="M549.504 491.366C551.674 470.214 550.589 442.012 547.877 396.996C545.166 351.437 540.827 290.151 536.488 191.441C534.318 139.917 532.149 78.0878 531.607 0.530273H525.098C526.183 71.0371 528.352 128.527 530.522 176.797C545.708 465.876 556.555 490.824 529.437 528.789C491.472 555.907 466.523 545.06 176.903 529.874C128.633 527.705 71.1426 525.535 0.635742 524.45V530.959C77.6509 532.043 140.022 533.671 191.547 535.84C550.047 552.653 519.675 568.924 549.504 490.824V491.366Z" fill="white" fill-opacity="0.03"/>
<path d="M562.521 550.484C568.487 540.721 571.741 527.162 572.826 505.468C573.368 494.621 573.368 481.604 572.826 465.876C572.826 433.876 570.114 391.03 568.487 322.692C566.86 252.186 564.691 155.645 569.029 0.530273H562.521C559.267 148.595 561.436 242.965 563.606 312.388C569.572 483.231 573.911 516.857 558.725 546.687C519.675 581.398 523.471 567.297 182.326 560.789C132.429 560.789 73.312 560.789 0.635742 562.416V568.924C79.8204 566.755 143.819 566.212 196.428 566.212C527.268 570.551 524.014 584.652 561.979 550.484H562.521Z" fill="white" fill-opacity="0.03"/>
<path d="M585.3 564.043C589.639 553.738 591.808 539.637 592.351 517.4C593.435 495.163 592.351 465.333 592.351 417.605C592.351 343.302 590.181 234.288 606.994 0.530273H600.486C586.385 227.237 588.554 335.709 589.096 409.47C590.724 506.01 591.266 537.467 582.588 560.246C540.826 603.093 577.707 583.025 187.207 590.618C136.226 592.245 75.4812 594.957 1.72021 599.839V606.347C82.5319 600.381 147.615 597.127 201.851 594.957C580.961 585.737 545.165 605.262 585.842 563.5L585.3 564.043Z" fill="white" fill-opacity="0.03"/>
<path d="M603.74 574.89C606.994 564.043 608.621 549.941 609.706 527.162C609.706 515.773 610.791 502.214 610.791 485.943C614.045 414.894 609.706 312.93 644.96 0.530273H638.451C606.452 305.879 610.791 408.928 608.079 479.977C607.537 530.416 606.452 554.823 601.571 571.636C554.385 622.618 628.146 593.873 189.919 619.906C137.853 623.702 76.0235 629.126 1.17773 637.804V644.312C82.5318 634.55 149.242 628.584 204.563 623.702C629.773 596.042 558.182 624.245 604.283 574.89H603.74Z" fill="white" fill-opacity="0.03"/>
<path d="M230.596 0.530273H224.088C255.545 201.204 237.647 239.711 100.972 235.915C73.854 234.288 41.3124 229.949 1.17773 223.44V229.949C45.6513 237.542 81.4471 242.423 110.735 244.05C247.409 247.304 264.223 208.797 230.596 0.530273Z" fill="white" fill-opacity="0.03"/>
<path d="M201.851 290.693C303.273 278.761 309.239 232.661 268.562 0.530273H262.053C305.984 265.745 295.68 291.778 113.446 278.761C82.5319 274.965 46.1938 269.541 1.72021 260.863V267.372C51.6174 276.592 91.2097 283.1 124.294 286.897C155.751 290.693 181.242 291.778 202.394 290.693H201.851Z" fill="white" fill-opacity="0.03"/>
<path d="M279.951 332.455C352.627 307.506 351.543 255.982 305.984 0.530273H299.476C353.17 335.709 355.882 339.506 125.378 319.438C91.2097 314.557 51.075 307.506 1.72021 298.828V305.337C56.4986 315.099 100.43 322.692 136.768 328.116C206.732 338.421 250.121 340.048 280.493 332.997L279.951 332.455Z" fill="white" fill-opacity="0.03"/>
<path d="M1.17773 0.530273V3.78444C1.17773 3.78444 3.34718 1.61499 4.4319 0.530273H1.17773Z" fill="white" fill-opacity="0.03"/>
<path d="M505.031 666.549C621.638 646.482 622.723 649.736 640.078 633.465C643.333 629.126 646.044 623.702 648.214 615.025C651.468 602.55 654.18 585.195 660.146 548.857C673.705 483.231 680.755 381.267 796.278 0.530273H789.77C679.671 375.844 672.078 478.892 659.061 545.06C655.265 570.009 652.553 586.28 650.383 598.211C647.129 616.109 643.875 625.329 638.994 631.838C599.944 658.413 654.18 631.295 333.102 699.091C293.51 708.311 246.325 719.7 190.462 734.344C136.768 748.445 74.3965 765.801 1.72021 788.038V794.546C80.9048 770.14 147.615 751.157 204.563 735.429C367.814 691.497 450.795 676.311 505.031 666.007V666.549Z" fill="white" fill-opacity="0.03"/>
<path d="M551.132 669.273C622.181 654.629 630.859 654.087 643.333 643.24C646.587 639.986 649.299 635.647 651.468 629.681C656.349 616.664 659.061 599.851 669.366 551.038C685.095 485.413 701.365 374.229 832.617 1.08496H826.108C699.738 369.348 684.01 481.616 668.281 547.784C663.4 573.275 660.146 589.546 657.434 602.02C654.722 614.495 652.553 622.088 650.384 628.596C618.384 663.307 672.078 638.901 430.728 694.764C375.407 708.865 298.934 728.933 186.665 764.186C132.972 780.999 71.685 801.609 0.635742 826.015V832.523C77.6509 804.863 143.819 782.626 200.767 764.186C417.711 695.306 499.607 680.663 551.132 668.731V669.273Z" fill="white" fill-opacity="0.03"/>
<path d="M504.488 691.51C542.453 681.205 566.317 675.239 583.673 670.9C626.519 660.595 636.824 657.883 646.587 650.833C649.841 648.121 652.553 644.867 655.264 639.985C661.773 626.969 663.942 613.41 679.671 551.038C698.111 485.955 724.144 365.551 866.785 9.76249C867.87 6.50833 869.497 3.25416 870.582 0H864.073C722.517 358.5 697.026 481.074 678.586 547.242C672.078 573.817 668.281 590.63 665.027 603.105C660.688 621.545 657.976 631.308 654.18 638.358C632.485 661.68 655.807 649.748 499.607 689.882C441.032 706.153 349.373 732.187 182.868 792.931C129.717 812.456 69.5151 835.235 1.17773 862.895V869.404C75.4811 839.032 140.564 813.541 196.97 792.931C359.136 732.729 448.083 707.238 505.031 690.967L504.488 691.51Z" fill="white" fill-opacity="0.03"/>
<path d="M607.537 671.985C632.486 664.934 641.706 661.68 649.299 656.799C653.095 654.629 655.265 651.917 657.976 648.121C666.112 634.562 666.654 626.426 689.433 549.953C706.789 496.26 734.449 404.059 823.939 190.368C847.26 134.505 875.463 71.0492 908.005 0H901.496C746.924 346.026 710.043 479.989 688.349 546.699C680.213 574.36 675.332 591.715 671.535 604.732C664.485 630.223 661.231 639.985 656.349 647.578C641.163 663.849 647.129 658.968 546.793 688.255C491.472 705.611 396.559 733.271 176.903 824.388C124.836 846.082 65.7189 871.573 0.0932617 901.403V907.911C71.1425 875.37 134.599 847.167 189.919 823.846C508.285 691.51 563.063 687.713 605.91 672.527L607.537 671.985Z" fill="white" fill-opacity="0.03"/>
<path d="M624.35 673.069C637.909 668.188 645.502 665.476 650.926 662.222C654.722 660.053 657.434 657.883 659.604 655.171C669.366 640.528 667.739 639.443 699.196 548.326C714.382 506.565 738.246 441.481 791.397 321.62C826.651 242.435 876.006 137.217 941.089 8.67777C942.716 5.96597 943.801 2.7118 945.428 0H938.919C774.042 330.84 723.602 476.735 698.654 544.53C688.349 573.275 682.925 591.173 678.586 604.732C668.281 637.274 665.027 645.951 659.061 654.087C647.672 664.934 644.96 664.934 581.504 685.544C532.149 703.442 442.117 729.475 171.479 855.302C120.497 879.166 63.0072 906.827 0.635742 938.284V944.792C67.8884 910.081 129.718 880.251 183.954 854.218C550.047 684.459 583.131 690.425 623.808 672.527L624.35 673.069Z" fill="white" fill-opacity="0.03"/>
<path d="M636.824 674.142C643.875 671.43 648.214 669.261 652.01 667.091C655.807 664.922 658.519 663.295 661.23 660.583C673.705 644.854 667.196 651.363 710.043 545.06C721.975 515.773 739.33 476.18 766.991 417.063C794.651 357.946 833.159 278.761 887.395 176.255C915.597 123.104 947.597 63.9864 983.393 0.530273H976.884C944.343 59.1052 915.055 114.426 889.022 164.323C778.923 375.844 734.449 483.773 710.043 542.348C698.111 572.178 691.06 591.161 685.637 605.262C670.451 645.397 668.823 651.905 661.23 660.583C652.553 668.176 646.044 670.345 605.91 685.532C562.521 703.972 483.879 725.124 164.971 888.917C115.074 914.95 60.2951 944.237 1.72021 976.779V983.287C65.1764 947.492 124.294 915.492 177.445 887.29C589.096 675.769 598.859 694.752 637.367 674.142H636.824Z" fill="white" fill-opacity="0.03"/>
<path d="M624.35 684.447C634.655 680.108 641.163 677.396 646.587 674.684C649.298 673.6 651.468 672.515 653.637 671.43C657.434 669.261 660.688 667.634 662.857 665.464C678.044 647.566 665.569 664.379 722.517 540.721C729.568 525.535 738.246 507.095 749.093 485.4C770.787 441.469 801.159 382.352 845.633 302.083C890.649 220.729 950.308 116.053 1021.9 0.530273H1015.39C947.597 112.799 890.106 213.678 846.718 293.405C779.465 416.521 744.212 490.824 722.517 537.467C707.873 568.924 699.196 588.991 692.687 603.635C672.078 651.905 671.535 655.159 662.315 664.379C655.807 669.803 648.214 673.057 623.265 683.362C584.758 702.345 521.301 716.446 156.293 922.001C108.023 949.661 55.9561 980.576 1.17773 1013.66V1020.17C59.7527 983.83 116.158 950.203 167.682 920.373C524.556 716.446 586.385 702.887 624.35 683.362V684.447Z" fill="white" fill-opacity="0.03"/>
<path d="M636.825 683.362C644.418 679.566 649.841 677.396 653.638 675.227C685.095 647.024 650.926 696.921 734.992 534.755C752.347 502.214 776.211 458.282 812.007 395.911C865.701 303.167 952.478 160.527 1058.78 0.530273H1052.27C948.682 157.815 865.158 297.744 812.549 389.403C776.211 452.859 752.347 497.875 734.992 530.959C717.636 564.043 707.331 585.195 699.738 601.466C672.078 659.498 674.247 657.871 662.858 668.718C657.434 672.515 650.926 675.769 635.74 682.82C601.571 702.887 554.386 707.226 146.531 957.796C100.43 987.084 51.0753 1018.54 0.635742 1051.62V1058.13C54.8718 1022.34 108.023 987.626 157.378 956.169C556.555 707.768 602.656 703.429 636.282 683.362H636.825Z" fill="white" fill-opacity="0.03"/>
<path d="M646.587 682.832C649.298 681.205 652.01 680.12 654.18 678.493C656.349 677.408 657.976 676.324 659.603 675.239C661.23 674.154 662.857 673.07 663.942 672.527C680.755 655.714 666.112 674.697 724.686 570.021C731.195 558.089 739.873 543.988 749.635 526.632C759.94 509.277 771.872 489.209 786.516 465.345C842.379 373.687 955.732 196.335 1096.2 1.08496H1089.69C951.935 195.25 841.294 369.89 786.516 461.549C771.872 485.955 759.94 506.565 749.635 523.92C729.568 559.174 716.551 581.953 707.331 599.308C670.451 667.646 676.959 660.595 663.4 673.069C659.603 675.781 654.18 678.493 645.502 683.374C615.13 704.526 583.673 699.103 136.768 996.316C92.8366 1026.15 46.736 1058.15 1.17773 1090.69V1097.2C49.9902 1061.94 99.8873 1027.23 147.073 994.689C586.385 699.645 616.214 705.069 646.587 683.917V682.832Z" fill="white" fill-opacity="0.03"/>
<path d="M624.35 534.755C631.401 469.13 621.638 388.318 682.382 0.530273H675.874C619.469 381.81 628.146 464.248 622.18 530.416C621.096 554.28 619.469 568.924 616.757 580.314C562.521 639.431 674.789 599.296 191.546 648.109C138.395 654.617 76.0235 662.752 1.17773 674.684V681.193C83.0742 667.634 149.784 658.413 206.19 651.363C737.703 591.161 559.267 660.583 624.35 534.755Z" fill="white" fill-opacity="0.03"/>
<path d="M342.865 658.426C642.248 621.545 592.351 642.697 627.604 604.732C630.316 596.596 632.485 586.292 634.112 570.021C635.197 561.885 635.739 552.665 636.824 540.733C645.502 475.108 640.621 388.33 719.805 0H713.297C615.13 521.208 644.96 526.09 629.231 587.376C634.112 615.037 604.825 629.68 567.944 631.308C514.251 636.731 452.422 629.68 1.17773 712.119V718.628C82.5318 701.272 150.327 688.798 206.732 679.035C260.968 669.815 305.442 662.764 342.865 657.883V658.426Z" fill="white" fill-opacity="0.03"/>
<path d="M438.32 663.295C626.519 636.177 610.249 645.939 634.655 620.991C637.909 615.025 640.078 607.432 642.248 596.042C644.417 584.652 646.044 569.466 649.298 545.603C660.146 479.977 660.688 386.149 758.313 0.530273H751.805C659.061 380.183 658.519 475.096 647.671 541.806C644.96 566.212 642.79 581.941 640.621 593.873C638.451 605.805 636.282 613.398 633.028 619.364C574.453 659.498 689.975 610.143 191.546 706.141C137.853 717.531 74.9388 732.174 1.17773 750.615V757.123C81.9894 735.971 149.242 720.243 206.19 707.768C315.204 683.904 386.254 671.43 438.32 663.295Z" fill="white" fill-opacity="0.03"/>
<path d="M396.559 901.945C599.402 732.187 628.147 713.204 650.926 694.764C656.892 690.425 660.688 687.171 663.943 684.459C668.824 680.662 671.536 678.493 674.247 675.781C680.756 669.273 682.383 666.561 703.535 639.443C710.043 631.308 718.179 620.46 731.738 603.647C751.805 578.699 782.719 539.649 839.125 471.854C925.36 367.178 1121.15 137.76 1247.52 0H1241.01C1113.56 139.929 923.733 364.466 838.583 469.142C801.16 514.7 774.584 547.784 755.601 572.19C745.839 584.122 738.246 594.427 731.195 603.105C718.179 619.918 709.501 630.765 702.992 639.443C676.959 673.612 679.671 670.9 667.739 681.205C666.654 682.289 665.027 683.374 663.4 684.459C640.079 706.153 644.418 687.171 193.716 1070.08C157.92 1100.99 122.124 1131.91 88.4981 1161.74C56.4989 1189.94 26.669 1216.51 0.635742 1240.38V1246.89C27.7538 1221.94 60.2954 1192.65 95.0065 1161.74C195.885 1072.25 311.951 972.452 396.017 901.945H396.559Z" fill="white" fill-opacity="0.03"/>
<path d="M452.422 871.561C597.774 742.479 628.146 718.073 649.298 700.175C655.807 694.752 660.146 690.955 663.4 688.243C670.451 682.277 673.705 679.566 676.959 676.311C681.84 670.888 685.094 667.091 700.823 648.651C706.246 642.143 713.297 633.465 724.687 620.448C746.923 594.415 785.973 548.857 872.209 451.774C973.63 337.336 1180.27 109.545 1284.94 0.530273H1278.44C1171.59 112.257 971.461 335.167 871.666 449.062C828.82 497.875 797.363 534.213 774.041 561.331C750.72 588.449 735.534 606.347 724.144 619.364C674.789 677.396 684.552 668.176 670.993 680.65C668.823 682.277 666.112 684.447 662.857 687.701C639.536 709.395 637.909 702.887 273.443 1027.76C206.732 1087.42 135.141 1152.5 76.0235 1207.82C47.8207 1233.86 22.3298 1257.72 1.17773 1277.79V1284.3C23.4145 1263.15 50.5325 1237.11 81.4471 1208.37C201.851 1096.1 359.678 953.458 452.422 871.561Z" fill="white" fill-opacity="0.03"/>
<path d="M496.895 846.613C598.317 751.157 627.604 724.039 646.587 706.684C653.637 700.175 658.519 695.294 662.315 692.04C671.535 683.362 674.789 680.108 679.128 676.311C683.467 671.972 687.264 668.176 698.653 655.159C703.534 649.736 709.5 643.227 719.263 632.922C743.127 607.432 788.685 558.077 912.343 427.91C1030.04 303.167 1238.3 85.6809 1320.74 2.69972C1321.28 2.15735 1322.37 1.07263 1322.91 0.530273H1316.4C1233.42 84.5961 1027.87 300.998 911.801 425.198C862.988 477.265 825.566 517.4 797.363 547.772C755.059 593.33 733.907 616.652 719.263 632.38C687.806 666.549 686.179 669.261 679.128 676.311C677.501 677.938 675.874 679.566 674.247 681.193C671.535 683.904 668.281 687.159 662.315 692.04C639.536 713.192 630.858 718.615 341.238 990.88C250.121 1076.57 139.48 1181.79 63.0068 1255.55C38.6006 1278.87 17.9909 1299.48 1.17773 1315.75V1322.26C18.5333 1305.45 40.77 1283.21 67.3457 1257.72C199.139 1129.18 403.609 935.017 496.895 847.155V846.613Z" fill="white" fill-opacity="0.03"/>
<path d="M664.485 675.781C692.145 646.494 648.756 703.442 767.533 516.87C820.142 434.973 963.325 223.995 1134.71 1.08496H1128.2C958.444 223.995 820.142 431.177 767.533 514.158C743.669 551.581 728.483 576.529 717.094 594.97C661.773 687.171 683.467 660.053 653.637 682.832C626.519 704.526 610.249 689.34 126.463 1034.82C84.7014 1065.2 42.3972 1096.65 1.72021 1128.11V1134.62C45.109 1100.99 91.2097 1066.82 135.683 1033.74C703.535 627.511 623.808 711.577 665.027 676.866L664.485 675.781Z" fill="white" fill-opacity="0.03"/>
<path d="M240.901 981.66C606.995 705.599 626.52 706.684 653.095 686.074C657.976 682.82 661.773 680.65 664.485 678.481C666.112 677.396 667.197 676.311 668.281 675.769C680.213 664.922 675.332 669.803 711.67 614.482C720.89 600.923 732.822 582.483 752.347 554.28C762.11 540.179 773.499 523.908 787.601 504.383C849.43 415.978 1012.14 195.78 1172.68 0.530273H1166.17C926.445 297.201 757.228 543.975 728.483 588.449C662.315 688.786 686.721 658.956 660.146 681.193C655.265 691.497 592.351 700.175 2.2627 1164.44V1170.94C40.2279 1139.49 81.9897 1106.4 123.751 1073.32C163.886 1041.86 204.021 1010.41 241.986 981.118L240.901 981.66Z" fill="white" fill-opacity="0.03"/>
<path d="M327.137 938.284C602.656 719.712 627.604 709.407 652.553 689.883C657.977 686.086 661.773 683.374 664.485 681.205C667.739 679.035 669.909 677.408 671.536 675.781C680.213 667.646 679.129 667.103 706.789 628.596C714.382 618.291 724.145 604.19 740.415 582.495C756.144 560.801 778.381 531.513 810.38 489.209C883.599 393.211 1064.2 167.047 1209.56 0H1203.05C1057.7 168.674 882.514 390.5 810.38 486.497C777.838 529.344 756.144 559.174 739.873 580.868C723.602 602.562 713.84 617.206 706.247 627.511C678.586 666.561 679.671 666.561 670.993 675.239C670.993 675.239 666.654 678.493 663.943 680.662C643.875 701.272 648.214 671.985 101.515 1116.72C66.2614 1146.01 31.5503 1175.3 0.635742 1201.87V1208.38C33.1774 1179.63 70.6002 1148.18 108.565 1116.18C182.326 1054.35 259.884 990.893 326.052 937.741L327.137 938.284Z" fill="white" fill-opacity="0.03"/>
</svg>
