<svg width="60" height="60" viewBox="0 0 60 60" fill="none" xmlns="http://www.w3.org/2000/svg">
<path d="M52.1869 34.0969C50.3956 34.0594 48.6025 34.015 46.8075 33.9637C46.9416 32.265 47.1094 30.569 47.2556 28.8637L51.7594 28.8375C52.0106 28.8297 52.249 28.7243 52.424 28.5438C52.5989 28.3633 52.6968 28.1218 52.6968 27.8705C52.6968 27.6191 52.5989 27.3776 52.424 27.1971C52.249 27.0166 52.0106 26.9112 51.7594 26.9034L47.3831 26.9184C47.43 25.9434 47.4469 24.9684 47.4019 23.9934C47.3965 23.8211 47.3301 23.6563 47.2147 23.5283C47.0992 23.4003 46.9421 23.3174 46.7712 23.2944C46.6004 23.2713 46.4269 23.3096 46.2816 23.4024C46.1364 23.4952 46.0287 23.6365 45.9778 23.8012C45.705 24.8301 45.489 25.8733 45.3309 26.9259C43.0372 26.9359 40.7431 26.9525 38.4488 26.9756C38.4534 26.16 38.4431 25.3444 38.3944 24.5344C38.3837 24.2969 38.2818 24.0727 38.11 23.9084C37.9381 23.7442 37.7096 23.6525 37.4719 23.6525C37.2342 23.6525 37.0056 23.7442 36.8338 23.9084C36.662 24.0727 36.5601 24.2969 36.5494 24.5344C36.4529 25.355 36.3832 26.1786 36.3403 27.0037C34.1191 27.0325 31.8984 27.0731 29.6784 27.1256C29.6953 26.3212 29.7066 25.5178 29.6972 24.7134C29.6916 24.134 28.7925 23.9765 28.6613 24.5728C28.4728 25.4325 28.3256 26.2987 28.1953 27.1678C26.7872 27.2053 25.3791 27.2372 23.9719 27.2887C23.787 27.2954 23.612 27.3736 23.4835 27.5067C23.3551 27.6399 23.2834 27.8177 23.2834 28.0026C23.2834 28.1876 23.3551 28.3654 23.4835 28.4985C23.612 28.6317 23.787 28.7098 23.9719 28.7165C25.3059 28.7522 26.64 28.769 27.9741 28.7925C27.7884 30.4056 27.6625 32.0253 27.5963 33.6515C26.1872 33.6665 24.7781 33.6909 23.3709 33.7359C23.1917 33.7425 23.0221 33.8183 22.8976 33.9475C22.7732 34.0766 22.7036 34.2489 22.7036 34.4283C22.7036 34.6076 22.7732 34.7799 22.8976 34.9091C23.0221 35.0382 23.1917 35.114 23.3709 35.1206C24.7547 35.2256 26.1413 35.3109 27.5288 35.3869C27.4938 36.4081 27.4697 37.4297 27.4566 38.4515C27.3383 39.0882 27.4319 39.7461 27.7228 40.3247C27.7909 40.4346 27.886 40.5252 27.9989 40.5881C28.1119 40.651 28.239 40.684 28.3683 40.684C28.4976 40.684 28.6247 40.651 28.7377 40.5881C28.8506 40.5252 28.9457 40.4346 29.0138 40.3247C29.3046 39.7462 29.4044 39.0904 29.2988 38.4515C29.3081 37.4597 29.3269 36.4687 29.3691 35.4787C31.5984 35.5837 33.83 35.6637 36.0638 35.7187L35.9456 39.2175C35.8161 39.9079 35.9012 40.6215 36.1894 41.2622C36.2701 41.3934 36.3831 41.5018 36.5176 41.577C36.6521 41.6522 36.8036 41.6917 36.9577 41.6917C37.1117 41.6917 37.2633 41.6522 37.3978 41.577C37.5323 41.5018 37.6452 41.3934 37.7259 41.2622C38.041 40.6298 38.1611 39.9182 38.0709 39.2175L38.1713 35.7722C40.2275 35.8172 42.2841 35.8547 44.3409 35.8847C44.2519 38.0212 43.6575 40.2816 43.9481 42.4059C44.1394 43.5215 45.6975 43.3116 46.0031 42.4059C46.4503 40.3003 46.3688 38.0709 46.6406 35.924C48.4906 35.9553 50.3394 35.9909 52.1869 36.0309C52.4381 36.0231 52.6765 35.9178 52.8515 35.7373C53.0264 35.5568 53.1243 35.3153 53.1243 35.0639C53.1243 34.8125 53.0264 34.571 52.8515 34.3905C52.6765 34.21 52.4381 34.1047 52.1869 34.0969ZM36.1566 32.9925L36.1331 33.6984C33.8994 33.6572 31.6663 33.6384 29.4338 33.6422C29.4863 32.0353 29.5781 30.4303 29.6325 28.8244C31.8406 28.8562 34.0491 28.8756 36.2578 28.8825C36.2175 30.2559 36.2034 31.6303 36.1566 32.9925ZM44.6203 33.0515C44.5884 33.3347 44.5641 33.6178 44.5341 33.9009C42.4341 33.8428 40.3328 33.7884 38.2303 33.7378C38.2697 32.129 38.3541 30.509 38.4113 28.8919C40.6294 28.8937 42.8472 28.889 45.0647 28.8778C44.9006 30.27 44.7741 31.6687 44.6203 33.0515ZM32.9541 14.999C32.3231 14.6953 31.3444 9.77436 29.8416 11.4553C28.8506 13.3087 30.3216 15.4219 31.6219 16.7184C32.8688 17.7356 34.1241 16.0359 32.9541 14.999ZM38.6859 15.4003C40.0003 15.3422 39.7059 13.4053 39.9619 12.4669C40.2293 11.3149 40.381 10.139 40.4147 8.95686C40.4097 8.7688 40.3443 8.58735 40.228 8.43945C40.1117 8.29154 39.9509 8.18506 39.7693 8.1358C39.5878 8.08654 39.3952 8.09714 39.2201 8.166C39.045 8.23487 38.8968 8.35835 38.7975 8.51811C38.0903 9.8911 37.7128 11.41 37.695 12.9544C37.7006 13.8244 37.4222 15.3619 38.6859 15.4003ZM44.8088 16.2084C46.2881 15.1209 47.8969 14.0165 48.4772 12.1809C48.5111 12.0425 48.5041 11.8973 48.4568 11.7628C48.4096 11.6284 48.3243 11.5106 48.2113 11.4239C48.0983 11.3371 47.9625 11.2851 47.8204 11.2742C47.6783 11.2633 47.5362 11.294 47.4113 11.3625C46.2797 11.9484 45.2868 12.77 44.4994 13.7719C43.9697 14.3756 42.8775 15.0703 43.5469 15.9562C43.6897 16.1457 43.8972 16.276 44.1298 16.3225C44.3625 16.369 44.6041 16.3284 44.8088 16.2084Z" fill="#5A718B"/>
<path d="M54.0882 20.7965C42.9423 20.5884 31.7101 21.2119 20.552 21.5765C21.6601 16.6425 21.1614 10.1503 15.9779 7.75779C14.3907 5.20029 10.9314 5.86873 8.37668 5.84904C7.32199 5.9203 4.16355 5.43092 4.18605 6.97873C2.31668 6.87279 0.784802 9.08998 2.27824 10.5469C3.21386 11.2265 4.48699 11.0662 5.58199 11.2734C8.06168 11.5022 15.2232 12.3356 16.2086 9.46029C25.3661 16.7175 8.96918 38.1075 22.6117 44.5219C21.9132 45.0198 21.3425 45.676 20.9461 46.4367C20.5497 47.1974 20.3389 48.0411 20.331 48.8989C20.323 49.7567 20.5181 50.6041 20.9003 51.3721C21.2825 52.14 21.841 52.8067 22.5301 53.3175C26.7986 56.4506 33.8486 50.4609 30.557 45.9112C36.2607 46.1119 41.9767 46.9631 47.6757 46.5731C45.5776 48.9544 45.4548 52.9837 49.0876 53.8462C51.0667 54.4434 53.2454 54.4556 54.8139 52.9359C55.4352 52.3394 55.8837 51.5859 56.1117 50.7553C56.3398 49.9247 56.339 49.0479 56.1093 48.2177C55.8797 47.3875 55.4298 46.6349 54.8073 46.0395C54.1848 45.4442 53.4128 45.0283 52.5732 44.8359C53.5831 44.02 54.388 42.9792 54.9235 41.7965C56.7342 37.8324 57.8429 33.584 58.2001 29.2406C58.5132 25.8403 58.4148 21.2737 54.0882 20.7965ZM14.6232 9.17623C14.3114 9.4615 13.9179 9.64183 13.4982 9.69186C10.6149 10.2789 7.65028 10.3503 4.74199 9.90279C4.30511 9.8578 3.2448 9.92905 2.98418 9.48842C2.47136 8.58748 4.16543 7.90217 4.64168 7.5028C5.47793 7.98373 6.87105 7.65655 7.74668 7.60873C8.98324 7.59936 15.2251 7.11373 14.6232 9.17623ZM27.9076 51.584C23.0186 55.409 19.0914 47.9615 24.1754 45.0797C25.0037 45.3103 25.8474 45.4814 26.7001 45.5915C27.1848 46.0153 27.8673 46.1203 28.3642 46.5009C30.2167 47.8678 29.4995 50.2997 27.9076 51.584ZM52.5845 47.3156C52.957 47.4474 53.2926 47.6661 53.5636 47.9536C53.8346 48.2412 54.0331 48.5892 54.1425 48.9688C54.252 49.3485 54.2693 49.7488 54.193 50.1364C54.1167 50.5241 53.949 50.888 53.7039 51.1978C52.5357 52.8328 49.8948 52.3837 48.3273 51.4528C46.9773 50.1262 48.0423 47.6222 49.0351 46.3406C49.5451 46.2291 50.0471 46.0841 50.5379 45.9065C50.5717 46.9406 51.8692 46.9612 52.5845 47.3156ZM55.6576 33.7762C54.1595 40.245 53.7592 46.0762 45.3864 45.2137C40.9726 45.0515 36.5598 44.4609 32.1517 44.1581C28.5385 43.9097 23.8989 44.1262 21.1407 41.3437C16.637 36.3497 19.7495 29.2087 20.282 23.3644C29.5117 23.0137 38.7836 22.574 48.0386 22.6012C50.2248 22.7259 52.5423 22.2853 54.6714 22.845C57.8776 24.2887 56.192 31.0425 55.6576 33.7762Z" fill="#5A718B"/>
</svg>
