<svg width="14" height="12" viewBox="0 0 14 12" fill="none" xmlns="http://www.w3.org/2000/svg">
<path fill-rule="evenodd" clip-rule="evenodd" d="M0.154399 10.2721L5.75295 0.575808C5.85403 0.400739 5.99941 0.255362 6.17448 0.154287C6.34956 0.0532116 6.54815 0 6.7503 0C6.95245 0 7.15105 0.0532116 7.32612 0.154287C7.50119 0.255362 7.64657 0.400739 7.74765 0.575808L13.3456 10.2721C13.4467 10.4472 13.5 10.6459 13.5 10.8481C13.5 11.0503 13.4468 11.2489 13.3457 11.4241C13.2446 11.5992 13.0992 11.7446 12.9241 11.8457C12.749 11.9468 12.5503 12 12.3481 12H1.1519C0.949692 12 0.751044 11.9468 0.575926 11.8457C0.400807 11.7446 0.25539 11.5992 0.154293 11.4241C0.0531956 11.2489 -1.86968e-05 11.0503 4.92773e-09 10.8481C1.87272e-05 10.6459 0.0532698 10.4472 0.154399 10.2721ZM6.82332 3.56637H6.67728C6.31773 3.56637 6.02625 3.85785 6.02625 4.2174V7.32921C6.02625 7.68876 6.31773 7.98024 6.67728 7.98024H6.82332C7.18287 7.98024 7.47435 7.68876 7.47435 7.32921V4.2174C7.47435 3.85785 7.18287 3.56637 6.82332 3.56637ZM6.7503 10.4482C7.15018 10.4482 7.47435 10.124 7.47435 9.72412C7.47435 9.32424 7.15018 9.00007 6.7503 9.00007C6.35042 9.00007 6.02626 9.32424 6.02626 9.72412C6.02626 10.124 6.35042 10.4482 6.7503 10.4482Z" fill="white"/>
</svg>
