<svg width="12" height="16" viewBox="0 0 12 16" fill="none" xmlns="http://www.w3.org/2000/svg">
<path d="M10.5778 6.07269C10.5329 6.01863 10.4784 6.02926 10.4498 6.04029C10.4259 6.0496 10.3711 6.07935 10.3787 6.15391C10.3878 6.24344 10.3929 6.33472 10.3939 6.42526C10.3979 6.80082 10.241 7.16875 9.9633 7.43472C9.68737 7.69897 9.32445 7.84134 8.93802 7.83722C8.41018 7.83075 7.97238 7.56647 7.67193 7.07294C7.42351 6.66485 7.5327 6.13851 7.6483 5.58123C7.71595 5.25504 7.78591 4.91773 7.78591 4.5967C7.78591 2.09705 6.0353 0.654935 4.99179 0.0177812C4.97021 0.00462498 4.94967 0 4.93147 0C4.90188 0 4.87844 0.01225 4.86688 0.0197499C4.84448 0.0343124 4.80864 0.0674997 4.82016 0.12625C5.21903 2.15943 4.02934 3.38227 2.7698 4.67689C1.47151 6.01135 0 7.52388 0 10.2517C0 13.4214 2.68633 16 5.9883 16C8.70701 16 11.1041 14.1805 11.8174 11.5753C12.3038 9.79899 11.7941 7.53625 10.5778 6.07269ZM6.13769 14.773C5.31086 14.8092 4.52453 14.5246 3.92393 13.9733C3.32977 13.4279 2.98899 12.6669 2.98899 11.8852C2.98899 10.4183 3.57328 9.3414 5.14483 7.91178C5.17055 7.88837 5.19689 7.88097 5.21984 7.88097C5.24064 7.88097 5.25868 7.88706 5.27108 7.89278C5.29722 7.90487 5.34019 7.93481 5.3344 7.99956C5.27821 8.62722 5.27919 9.14818 5.33726 9.54806C5.48571 10.5695 6.26465 11.2557 7.27564 11.2557C7.77132 11.2557 8.24347 11.0767 8.60512 10.7515C8.61908 10.7386 8.63611 10.7292 8.65473 10.7241C8.67335 10.719 8.69299 10.7184 8.71193 10.7222C8.73573 10.7272 8.7676 10.7412 8.7843 10.7798C8.93425 11.1274 9.01088 11.4963 9.01205 11.8762C9.01684 13.4051 7.72741 14.7047 6.13769 14.773Z" fill="#FF7100"/>
</svg>
