<svg width="22" height="16" viewBox="0 0 22 16" fill="none" xmlns="http://www.w3.org/2000/svg">
<path d="M21.1344 5.25226C21.1382 5.31384 21.1327 5.37564 21.1181 5.43558L19.7611 10.8636C19.7278 10.9965 19.6513 11.1146 19.5435 11.1992C19.4357 11.2838 19.3028 11.3301 19.1658 11.3308L11.0238 11.372H2.8785C2.74085 11.3719 2.60716 11.3259 2.49871 11.2411C2.39026 11.1563 2.31328 11.0377 2.28002 10.9042L0.923013 5.45556C0.907961 5.39402 0.902496 5.33052 0.906811 5.26731C0.381854 5.10192 0 4.61068 0 4.03177C0 3.31749 0.581047 2.73645 1.29533 2.73645C2.00961 2.73645 2.59065 3.31749 2.59065 4.03177C2.59065 4.43402 2.40635 4.79392 2.11776 5.03168L3.81673 6.74349C4.24612 7.17617 4.84197 7.42422 5.45156 7.42422C6.17234 7.42422 6.85956 7.08192 7.29232 6.50844L10.0845 2.80882C9.96398 2.68879 9.8684 2.54613 9.80322 2.38904C9.73804 2.23195 9.70455 2.06353 9.70467 1.89346C9.70467 1.17918 10.2857 0.598129 11 0.598129C11.7143 0.598129 12.2953 1.17918 12.2953 1.89346C12.2953 2.23986 12.1578 2.55428 11.9355 2.78694C11.9363 2.78793 11.9372 2.78875 11.9379 2.78982L14.7098 6.49964C15.1424 7.07863 15.8321 7.4243 16.5549 7.4243C17.1701 7.4243 17.7486 7.18472 18.1836 6.74966L19.8933 5.03999C19.5986 4.80231 19.4093 4.43896 19.4093 4.03177C19.4093 3.31749 19.9904 2.73645 20.7047 2.73645C21.419 2.73645 22 3.31749 22 4.03177C22 4.59522 21.6377 5.07445 21.1344 5.25226ZM19.6287 13.3047C19.6287 13.1411 19.5637 12.9842 19.448 12.8685C19.3323 12.7528 19.1755 12.6878 19.0119 12.6878H3.05673C2.89313 12.6878 2.73624 12.7528 2.62057 12.8685C2.50489 12.9842 2.4399 13.1411 2.4399 13.3047V14.785C2.4399 14.9486 2.50489 15.1055 2.62057 15.2212C2.73624 15.3369 2.89313 15.4019 3.05673 15.4019H19.0119C19.1755 15.4019 19.3323 15.3369 19.448 15.2212C19.5637 15.1055 19.6287 14.9486 19.6287 14.785V13.3047Z" fill="white"/>
</svg>
