<svg width="25" height="64" viewBox="0 0 25 64" fill="none" xmlns="http://www.w3.org/2000/svg">
<path d="M7.1455 63.2199C7.33934 63.4166 7.65591 63.4189 7.85259 63.225L11.0576 60.0663C11.2543 59.8724 11.2566 59.5559 11.0627 59.3592C10.8689 59.1625 10.5523 59.1602 10.3556 59.354L7.50675 62.1618L4.69894 59.313C4.5051 59.1163 4.18853 59.114 3.99185 59.3078C3.79518 59.5017 3.79288 59.8182 3.98672 60.0149L7.1455 63.2199ZM13.6373 35.4917L13.4647 35.0224L13.6373 35.4917ZM18.6704 39.9299L19.1307 40.1251L18.6704 39.9299ZM4.61854 41.1579L4.88319 40.7337L4.61854 41.1579ZM14.8981 17.7158L14.9676 18.2109L14.8981 17.7158ZM18.6982 23.5521L18.2295 23.3781L18.6982 23.5521ZM18.7058 3.04602C18.7058 4.51878 19.8997 5.71269 21.3724 5.71269C22.8452 5.71269 24.0391 4.51878 24.0391 3.04602C24.0391 1.57326 22.8452 0.379354 21.3724 0.379354C19.8997 0.379354 18.7058 1.57326 18.7058 3.04602ZM7.50161 62.8689C8.0016 62.8726 8.0016 62.8725 8.0016 62.8724C8.0016 62.8722 8.0016 62.872 8.00161 62.8716C8.00161 62.871 8.00162 62.8699 8.00163 62.8684C8.00166 62.8655 8.00169 62.8611 8.00175 62.8552C8.00185 62.8434 8.00203 62.8257 8.00229 62.8021C8.00281 62.7551 8.00368 62.6849 8.00506 62.5931C8.00784 62.4094 8.01268 62.1393 8.02096 61.7944C8.03751 61.1045 8.06779 60.1157 8.12268 58.9221C8.23251 56.5338 8.44065 53.33 8.83361 50.061C9.22715 46.787 9.80356 43.4698 10.6435 40.8454C11.0636 39.5326 11.5433 38.4139 12.0857 37.5661C12.6314 36.7132 13.2102 36.1815 13.8099 35.9609L13.4647 35.0224C12.5762 35.3492 11.8471 36.0835 11.2434 37.0271C10.6365 37.9758 10.1252 39.1841 9.69108 40.5406C8.8225 43.2546 8.23704 46.6449 7.84076 49.9416C7.44389 53.2432 7.23424 56.4732 7.12374 58.8761C7.06847 60.0781 7.03795 61.0742 7.02124 61.7704C7.01289 62.1185 7.00799 62.3916 7.00518 62.578C7.00377 62.6712 7.00288 62.7427 7.00235 62.7911C7.00208 62.8153 7.0019 62.8337 7.00179 62.8461C7.00173 62.8523 7.00169 62.857 7.00167 62.8602C7.00165 62.8619 7.00164 62.8631 7.00164 62.8639C7.00163 62.8643 7.00163 62.8647 7.00163 62.8649C7.00163 62.8652 7.00163 62.8653 7.50161 62.8689ZM13.8099 35.9609C15.064 35.4997 15.9927 35.4262 16.6623 35.5589C17.318 35.6888 17.7565 36.0217 18.0442 36.4529C18.6452 37.3539 18.6243 38.7574 18.21 39.7348L19.1307 40.1251C19.6366 38.9316 19.7142 37.1543 18.8761 35.898C18.4442 35.2506 17.7788 34.7607 16.8567 34.578C15.9485 34.398 14.8255 34.5219 13.4647 35.0224L13.8099 35.9609ZM18.21 39.7348C17.4335 41.5667 16.0077 42.9641 13.879 43.3589C11.7275 43.7579 8.75872 43.1514 4.88319 40.7337L4.35389 41.5821C8.33928 44.0684 11.567 44.8047 14.0614 44.3421C16.5787 43.8753 18.2483 42.2067 19.1307 40.1251L18.21 39.7348ZM4.88319 40.7337C1.98211 38.9238 1.00046 36.7045 1.11837 34.3892C1.239 32.0205 2.51538 29.4695 4.32359 27.0741C6.12398 24.6892 8.40911 22.5146 10.4557 20.9073C11.4784 20.1041 12.4346 19.4481 13.2332 18.9808C14.0524 18.5015 14.648 18.2558 14.9676 18.2109L14.8286 17.2206C14.2972 17.2952 13.5536 17.6348 12.7282 18.1177C11.8821 18.6128 10.8882 19.2962 9.83811 20.1208C7.73932 21.7691 5.38862 24.0035 3.52546 26.4717C1.67013 28.9294 0.25527 31.6755 0.119663 34.3383C-0.0186622 37.0545 1.17846 39.6011 4.35389 41.5821L4.88319 40.7337ZM14.9676 18.2109C16.0091 18.0647 16.746 18.203 17.2625 18.4759C17.7746 18.7464 18.1194 19.1752 18.3336 19.7067C18.7734 20.7986 18.6376 22.2789 18.2295 23.3781L19.167 23.7261C19.6293 22.4809 19.8238 20.7298 19.2611 19.3331C18.974 18.6203 18.4843 17.9904 17.7297 17.5917C16.9795 17.1953 16.0174 17.0537 14.8286 17.2206L14.9676 18.2109ZM18.2295 23.3781C17.4622 25.4448 14.8492 26.2697 12.201 25.2018C9.61422 24.1586 7.11311 21.2922 6.98239 16.1674L5.98271 16.1929C6.12229 21.6651 8.82537 24.9187 11.827 26.1292C14.7673 27.3149 18.127 26.5273 19.167 23.7261L18.2295 23.3781ZM6.98239 16.1674C6.91662 13.5889 7.42095 11.8556 8.2558 10.6139C9.09207 9.37003 10.2991 8.5605 11.7544 7.90179C13.2342 7.232 14.8691 6.757 16.6187 6.11001C18.3383 5.47412 20.1031 4.69129 21.6832 3.43772L21.0617 2.65432C19.6046 3.8103 17.9558 4.54936 16.2718 5.17209C14.6179 5.78372 12.8592 6.30407 11.3421 6.99077C9.80045 7.68854 8.40705 8.59663 7.42592 10.0559C6.44337 11.5173 5.91333 13.4727 5.98271 16.1929L6.98239 16.1674Z" fill="url(#paint0_linear_106_466)"/>
<defs>
<linearGradient id="paint0_linear_106_466" x1="10.9907" y1="3.04602" x2="10.9907" y2="62.8689" gradientUnits="userSpaceOnUse">
<stop stop-color="#A5CCFD"/>
<stop offset="1" stop-color="#1A7EFB"/>
</linearGradient>
</defs>
</svg>

