<svg width="58" height="58" viewBox="0 0 58 58" fill="none" xmlns="http://www.w3.org/2000/svg">
<path d="M11.2311 28.9025C11.1876 28.8462 11.1717 28.8258 11.1819 28.8397C11.1552 28.8046 11.1286 28.7695 11.1022 28.7343C10.7157 28.2162 10.3526 27.6807 10.0141 27.1295C9.30645 25.9817 8.69155 24.776 8.1385 23.5454C8.04715 23.3419 7.95789 23.1375 7.87071 22.9322C7.86488 22.9175 7.81162 22.7906 7.81017 22.787C7.68779 22.4891 7.57002 22.1894 7.45689 21.8878C7.22891 21.2805 7.02092 20.6657 6.83326 20.0445C6.45878 18.8026 6.174 17.5363 5.98895 16.2516L5.98166 16.2019L5.97567 16.15C5.96628 16.0704 5.95624 15.9908 5.94717 15.9112C5.893 15.4362 5.85542 14.9594 5.83449 14.4818C5.8068 13.8534 5.81248 13.2239 5.85149 12.5961C5.86954 12.3116 5.89513 12.0277 5.92823 11.7447C5.92953 11.7339 5.94394 11.6227 5.94701 11.5964C5.98027 11.3614 6.01918 11.1272 6.06374 10.8941C6.17865 10.2917 6.33477 9.69806 6.53099 9.11738C6.59639 8.92421 6.66662 8.73274 6.74162 8.54314C6.74437 8.53629 6.77821 8.45342 6.79245 8.41786C6.90753 8.14746 7.03288 7.88163 7.16823 7.62094C7.4443 7.09056 7.75977 6.58198 8.11194 6.09954C8.36321 5.75418 8.18076 5.17472 7.8215 4.98352C7.39991 4.75905 6.9822 4.90751 6.71394 5.27619C5.11193 7.47803 4.34468 10.1626 4.21726 12.869C4.08823 15.6099 4.59255 18.3822 5.42909 20.9826C6.29364 23.6699 7.50385 26.3179 9.07202 28.6638C10.3128 30.52 11.8507 32.2203 13.7192 33.4314C13.4038 34.9015 13.325 36.423 13.5097 37.9144C13.8267 40.4753 14.7834 42.9313 16.291 45.0209C17.7868 47.0941 19.7534 48.8404 22.0613 49.9408C24.3554 51.0346 26.9052 51.4898 29.4326 51.2225C30.0845 51.1535 30.7315 51.0435 31.3698 50.8933C32.1059 53.4505 33.7233 55.7269 36.1433 56.8988C38.7385 58.1558 41.682 58.1622 44.4787 57.7742C47.5132 57.3533 50.5124 56.5006 53.3607 55.3747C54.8068 54.8044 56.2217 54.1569 57.5995 53.4351C57.9757 53.2378 58.1188 52.6769 57.8899 52.3191C57.6429 51.933 57.1847 51.8154 56.7823 52.0265C54.1664 53.3996 51.4974 54.4515 48.6216 55.2367C47.2359 55.615 45.8283 55.9316 44.4084 56.1486C44.3285 56.1608 44.2485 56.1721 44.1685 56.1841L44.1136 56.1925L44.0626 56.1988C43.9284 56.216 43.794 56.2326 43.6595 56.2478C43.3091 56.2873 42.9578 56.3187 42.6058 56.3406C41.9594 56.3809 41.3105 56.3895 40.6635 56.3553C40.3705 56.3398 40.0778 56.3155 39.7863 56.2812C39.7786 56.2802 39.6516 56.2631 39.6312 56.2608C39.5712 56.2518 39.511 56.243 39.451 56.2331C39.2693 56.2034 39.0882 56.1693 38.908 56.1308C38.627 56.0706 38.3482 55.9993 38.0731 55.9158C37.8493 55.8478 37.628 55.7715 37.4098 55.6871C37.3907 55.6796 37.2353 55.614 37.2094 55.6044C36.6597 55.3569 36.1384 55.0566 35.6535 54.6965C35.6386 54.6854 35.6295 54.6789 35.6247 54.6756L35.6007 54.6561C35.4272 54.5162 35.2599 54.3687 35.0992 54.2141C34.8871 54.0098 34.6866 53.7937 34.4985 53.5668C34.4639 53.525 34.4302 53.4826 34.3965 53.4402C34.3871 53.4272 34.3165 53.3353 34.3099 53.3263C34.2235 53.2076 34.1401 53.0867 34.0598 52.9637C33.8989 52.7169 33.7502 52.4622 33.6142 52.2007C33.5459 52.0694 33.4805 51.9366 33.4183 51.8022C33.3871 51.7348 33.3574 51.6668 33.3268 51.5991L33.3087 51.5594L33.2933 51.5194C33.1832 51.2411 33.0832 50.9588 32.9935 50.6731C32.9695 50.5956 32.9485 50.5171 32.9263 50.4392C34.1896 49.9977 35.395 49.3905 36.4943 48.6166C37.5218 47.8931 38.4672 47.0489 39.2637 46.0717C40.1968 44.9271 41.1152 43.588 41.2324 42.0693C41.4236 39.59 38.8972 38.0046 36.6848 38.0619C33.9568 38.1325 32.1649 40.5173 31.4143 42.9431C30.7923 44.9537 30.6723 47.1998 31.0162 49.3101C30.8685 49.3456 30.7203 49.3787 30.5716 49.4094C30.3122 49.4628 30.0514 49.5057 29.7901 49.5476L29.7508 49.554L29.7195 49.5577C29.648 49.5664 29.5764 49.5754 29.5047 49.5834C28.7884 49.6631 28.0669 49.6859 27.347 49.6514C27.0595 49.6374 26.7723 49.6139 26.4862 49.5809C26.4715 49.5793 26.3808 49.5677 26.351 49.5643C26.3013 49.5571 26.2515 49.5501 26.2019 49.5424C25.2138 49.3888 24.2474 49.117 23.3232 48.7328C23.2888 48.7181 23.2179 48.6881 23.2082 48.6837C23.0093 48.5953 22.8125 48.5022 22.6181 48.4044C22.0997 48.1429 21.5982 47.8487 21.1166 47.5236C20.8769 47.3615 20.642 47.1924 20.4122 47.0164L20.4005 47.0073C20.3437 46.9618 20.2867 46.9166 20.2304 46.8704C19.4394 46.2235 18.7166 45.4964 18.0732 44.7005C18.0272 44.6438 17.9822 44.586 17.9364 44.5289L17.9079 44.4937L17.8844 44.4622C17.2669 43.6443 16.7336 42.7651 16.2928 41.8383C16.23 41.706 16.1693 41.5729 16.1103 41.4388L16.0574 41.316C15.8037 40.7006 15.5931 40.0681 15.4273 39.4231C15.3243 39.0212 15.2392 38.6149 15.1723 38.2053C15.1604 38.133 15.1502 38.0604 15.1388 37.988L15.1308 37.9314L15.1242 37.8779C15.0196 37.0166 15.0022 36.1469 15.0722 35.2821C15.084 35.1354 15.0981 34.9891 15.1148 34.8429L15.1263 34.7455C15.1316 34.7109 15.1512 34.568 15.1541 34.5493C15.1694 34.4497 15.1873 34.3507 15.205 34.2515C15.2895 34.2905 15.373 34.3313 15.4587 34.3683C18.1111 35.5127 21.176 35.7517 23.8102 34.4142C25.0257 33.797 26.1312 32.8019 26.7347 31.5585C27.3323 30.3278 27.4832 28.8333 26.9933 27.5365C26.488 26.1993 25.4311 25.2058 24.0515 24.8337C22.7622 24.4861 21.3345 24.6562 20.1046 25.1474C17.7203 26.0995 15.8451 28.0858 14.7474 30.3948C14.5323 30.8482 14.3421 31.3132 14.1779 31.7877L14.1712 31.7833C14.1045 31.7365 14.0383 31.6888 13.9726 31.6405C13.9548 31.6275 13.8091 31.5171 13.793 31.5058C13.2724 31.098 12.7841 30.6461 12.3262 30.1682C12.114 29.9467 11.9081 29.7191 11.7087 29.4859C11.5998 29.3584 11.4928 29.2296 11.3875 29.0991C11.3351 29.0341 11.2834 28.9681 11.2311 28.9025ZM32.5502 45.4043C32.5557 45.3536 32.562 45.3028 32.568 45.2523C32.57 45.2404 32.5857 45.1183 32.5879 45.1036C32.6064 44.9798 32.6266 44.8562 32.6486 44.733C32.7059 44.4109 32.7767 44.0914 32.8607 43.7754C32.9317 43.5085 33.0134 43.2447 33.1057 42.9845C33.151 42.8571 33.1996 42.7308 33.2511 42.6057C33.2666 42.571 33.2991 42.4962 33.303 42.4876C33.3438 42.3979 33.3863 42.3088 33.4303 42.2205C33.55 41.9801 33.6832 41.7466 33.8292 41.5214C33.9003 41.4124 33.9749 41.3058 34.0528 41.2016C34.0759 41.1729 34.1237 41.1124 34.1303 41.1042C34.3496 40.8392 34.5941 40.5964 34.8604 40.3794C34.889 40.3582 34.9535 40.3088 34.962 40.3026C35.0213 40.2606 35.0814 40.2199 35.1424 40.1805C35.2736 40.0949 35.4096 40.0169 35.5497 39.9471C35.5871 39.9287 35.7714 39.8552 35.5714 39.9329C35.6082 39.9187 35.6444 39.9039 35.6814 39.8903C35.7923 39.8495 35.9051 39.8146 36.0194 39.7851C36.1345 39.7554 36.2504 39.7342 36.3672 39.7127L36.3685 39.7125L36.3877 39.7115C36.4671 39.7066 36.5459 39.6983 36.6254 39.695C36.8449 39.6862 37.0625 39.699 37.2809 39.7197H37.2817L37.3021 39.7239C37.3606 39.7358 37.4194 39.7451 37.4778 39.7574C37.6037 39.7841 37.7283 39.8163 37.8513 39.8541C37.9549 39.8859 38.0558 39.9241 38.1576 39.9606L38.1696 39.9649L38.1798 39.9699C38.2321 39.9957 38.285 40.0195 38.3369 40.0461C38.4395 40.0986 38.5398 40.1558 38.6373 40.2174C38.6791 40.2438 38.8475 40.3739 38.8517 40.3708C38.98 40.4849 39.1024 40.6057 39.2182 40.7328C39.2092 40.7298 39.3392 40.8933 39.3662 40.9381C39.4145 41.0205 39.4589 41.105 39.4995 41.1915C39.4341 41.0613 39.5488 41.3378 39.5654 41.3995C39.5847 41.4721 39.601 41.5455 39.6139 41.6196C39.6282 41.7101 39.6264 41.6944 39.6086 41.5731C39.6594 41.6308 39.6223 41.914 39.6191 41.982C39.6168 42.0307 39.6128 42.0796 39.6078 42.1282C39.6053 42.1422 39.6018 42.1628 39.5963 42.1971C39.5854 42.2542 39.5731 42.3108 39.5595 42.3672C39.4083 42.9941 39.1054 43.5096 38.7206 44.093C38.6009 44.2744 38.4764 44.4524 38.347 44.627C38.3411 44.6351 38.2935 44.6971 38.2711 44.7266C38.1024 44.9423 37.9267 45.1525 37.7445 45.3567C37.3597 45.7861 36.9469 46.1891 36.5088 46.5631C36.3992 46.6567 36.2872 46.7469 36.176 46.8383C36.162 46.8497 36.1517 46.8582 36.1431 46.8655L36.113 46.8883L35.9982 46.9753C35.7481 47.1624 35.4918 47.3409 35.2297 47.5104C34.5826 47.9287 33.9026 48.2929 33.1965 48.5992L33.1627 48.6142L33.124 48.6295C32.9441 48.701 32.7637 48.77 32.5824 48.8368C32.578 48.8057 32.5733 48.7726 32.5711 48.7584C32.5641 48.7024 32.5572 48.6466 32.5508 48.5907C32.5003 48.1353 32.4717 47.6777 32.4652 47.2195C32.4559 46.6133 32.4843 46.007 32.5502 45.4043ZM20.4206 47.0228C20.4931 47.0782 20.4518 47.0469 20.4206 47.0228V47.0228ZM15.9487 31.6562L15.9627 31.621L15.9802 31.5826C16.02 31.4942 16.0585 31.4053 16.0995 31.3174C16.3425 30.7922 16.6251 30.2866 16.9448 29.8049C17.0243 29.6854 17.1062 29.5675 17.1904 29.4513C17.2206 29.4093 17.2517 29.3681 17.2826 29.3266C17.2977 29.3079 17.3597 29.2276 17.3675 29.2178C17.546 28.9949 17.734 28.7798 17.9309 28.5731C18.1112 28.3839 18.2992 28.2023 18.4943 28.0287C18.601 27.9339 18.7111 27.8437 18.8204 27.752L18.8526 27.7248L18.8813 27.7036C18.9577 27.6467 19.0341 27.5897 19.1118 27.5344C19.3266 27.382 19.5481 27.2393 19.7756 27.1068C19.9009 27.0339 20.028 26.9636 20.1572 26.8977C20.2665 26.8419 20.3773 26.7891 20.4894 26.7393C20.4091 26.7723 20.413 26.7708 20.5007 26.7346C20.7546 26.6329 21.0138 26.5454 21.2772 26.4726C21.4212 26.4336 21.5664 26.3993 21.7127 26.3703C21.7858 26.3558 21.8591 26.3443 21.9321 26.3306L21.9807 26.3233C22.015 26.3192 22.0493 26.3151 22.0836 26.3117C22.3503 26.2846 22.6185 26.2773 22.8862 26.29C22.9582 26.2936 23.0301 26.2987 23.1018 26.3054C23.1184 26.307 23.2108 26.3209 23.2378 26.3243C23.3784 26.3483 23.5177 26.379 23.6554 26.4163C23.7687 26.4479 23.878 26.4881 23.9894 26.5258C24.0009 26.5297 24.0125 26.5335 24.0242 26.5372L24.0543 26.5528C24.117 26.5846 24.1804 26.6142 24.2421 26.6478C24.3668 26.7155 24.4832 26.7936 24.6009 26.8723C24.6115 26.8794 24.6223 26.8864 24.6331 26.8933C24.6427 26.9026 24.6524 26.9118 24.6622 26.9209C24.7336 26.9866 24.8067 27.0493 24.8748 27.1186C24.9457 27.1907 25.013 27.2663 25.0765 27.345C25.0884 27.3641 25.1491 27.4489 25.1559 27.4594C25.2349 27.5798 25.3064 27.7051 25.3701 27.8344C25.3761 27.8467 25.4162 27.939 25.4272 27.9612C25.4719 28.0773 25.5109 28.1955 25.5443 28.3154C25.5831 28.4565 25.6106 28.5989 25.6377 28.7426L25.6442 28.776C25.6446 28.7894 25.6453 28.8028 25.6461 28.8162C25.6503 28.8896 25.6581 28.9625 25.6612 29.0359C25.6676 29.1831 25.6667 29.3305 25.6584 29.4775C25.6542 29.5513 25.6469 29.6245 25.6406 29.6979C25.6393 29.7126 25.6387 29.7231 25.638 29.7319C25.6356 29.7421 25.6327 29.7549 25.6288 29.7731C25.5711 30.0448 25.5065 30.3082 25.4104 30.5681C25.3976 30.5963 25.3584 30.6906 25.3534 30.701C25.2548 30.9072 25.1422 31.1063 25.0162 31.2967C24.9742 31.3601 24.93 31.4216 24.8863 31.4836L24.8601 31.5215C24.8517 31.5308 24.8415 31.5422 24.8272 31.5587C24.7275 31.6737 24.6295 31.7893 24.5235 31.8988C24.4261 31.9991 24.3252 32.0959 24.2209 32.1888C24.1735 32.2313 24.1254 32.273 24.0766 32.3138C24.0464 32.3393 24.0156 32.3641 23.9848 32.3889L23.9398 32.4228C23.6887 32.6011 23.4337 32.7693 23.163 32.9163C23.0505 32.9773 22.9364 33.0352 22.8208 33.09C22.7648 33.1166 22.7081 33.142 22.6513 33.167C22.6341 33.1724 22.4699 33.2383 22.4502 33.2456C22.1489 33.3574 21.841 33.4501 21.5283 33.5231C21.3129 33.5736 21.0955 33.6149 20.8767 33.647C20.8237 33.6533 20.7708 33.6592 20.7177 33.6646C20.0764 33.7293 19.4382 33.7103 18.798 33.645C18.7747 33.6425 18.7584 33.6411 18.7449 33.6399L18.6936 33.6315C18.6138 33.6187 18.5341 33.6063 18.4545 33.5925C18.3217 33.5691 18.1893 33.543 18.0575 33.5143C17.7133 33.4392 17.373 33.3469 17.0379 33.2376C16.46 33.0497 16.0899 32.8973 15.5966 32.642C15.6639 32.4246 15.737 32.2091 15.8158 31.9957C15.8587 31.8822 15.9037 31.7691 15.9487 31.6562Z" fill="#323F4D"/>
<path d="M0.110278 6.14042C0.356367 6.52493 0.816646 6.6463 1.21784 6.43309L8.41594 2.60559L9.2337 2.17084C9.19693 4.87409 9.32974 7.57698 9.63133 10.2633C9.73676 11.1967 9.86069 12.1278 10.003 13.0561C10.0678 13.4791 10.6162 13.7505 10.9989 13.6257C11.4558 13.4768 11.6337 13.0756 11.5643 12.6223C11.5058 12.2402 11.4514 11.8577 11.3985 11.4748L11.3969 11.4637L11.3956 11.4538L11.38 11.3348C11.3424 11.044 11.3068 10.753 11.273 10.4617C11.003 8.13104 10.8604 5.78715 10.8461 3.44069C10.8408 2.56095 10.8534 1.68119 10.8838 0.801966C10.9058 0.15758 10.187 -0.179456 9.66565 0.0977116L2.46755 3.9252L0.400723 5.02425C0.0256004 5.22376 -0.119621 5.78119 0.110278 6.14042Z" fill="#323F4D"/>
</svg>
