<svg width="64" height="56" viewBox="0 0 64 56" fill="none" xmlns="http://www.w3.org/2000/svg">
<path d="M16.7611 14.9581C16.8551 15.9518 17.1496 17.0026 16.4781 17.5748C15.8067 18.1471 14.8696 18.2438 14.107 17.8194C13.3454 17.3941 13.6331 16.2264 13.5459 15.2317C12.907 15.5893 11.1958 16.1568 10.5224 15.8648C11.0548 16.0959 10.7431 26.0804 6.46883 30.4942C8.27309 31.7556 10.6817 32.0698 12.5905 31.1689C13.2264 30.8692 13.8451 30.4458 14.5329 30.4246C15.8489 30.3849 16.9693 31.8107 18.2872 31.8649C20.1769 31.9412 19.9169 30.3511 23.2271 31.3516C23.9724 31.5768 25.1264 30.4545 25.4784 29.6512C21.9744 25.4463 20.3217 20.8412 20.1308 14.9678C19.2416 15.1969 17.6609 15.1775 16.7611 14.9581ZM44.9819 14.5975C44.9819 14.4053 44.9061 14.2209 44.7712 14.0849C44.6363 13.9489 44.4533 13.8726 44.2625 13.8726H30.8394C30.6486 13.8726 30.4656 13.9489 30.3307 14.0849C30.1958 14.2209 30.12 14.4053 30.12 14.5975C30.12 14.7898 30.1958 14.9742 30.3307 15.1102C30.4656 15.2462 30.6486 15.3225 30.8394 15.3225H44.2625C44.4533 15.3225 44.6363 15.2462 44.7712 15.1102C44.9061 14.9742 44.9819 14.7898 44.9819 14.5975ZM31.3219 21.0239H40.3518C40.5426 21.0239 40.7256 20.9475 40.8605 20.8115C40.9955 20.6756 41.0713 20.4912 41.0713 20.2989C41.0713 20.1066 40.9955 19.9222 40.8605 19.7862C40.7256 19.6503 40.5426 19.5739 40.3518 19.5739H31.3219C31.1311 19.5739 30.9481 19.6503 30.8132 19.7862C30.6783 19.9222 30.6025 20.1066 30.6025 20.2989C30.6025 20.4912 30.6783 20.6756 30.8132 20.8115C30.9481 20.9475 31.1311 21.0239 31.3219 21.0239ZM39.2075 25.3061C39.2075 25.1139 39.1317 24.9295 38.9968 24.7935C38.8619 24.6575 38.6789 24.5811 38.4881 24.5811H31.1406C30.9498 24.5811 30.7668 24.6575 30.6319 24.7935C30.497 24.9295 30.4212 25.1139 30.4212 25.3061C30.4212 25.4984 30.497 25.6828 30.6319 25.8188C30.7668 25.9547 30.9498 26.0311 31.1406 26.0311H38.4881C38.6789 26.0311 38.8619 25.9547 38.9968 25.8188C39.1317 25.6828 39.2075 25.4984 39.2075 25.3061ZM41.1211 34.0563L38.5063 33.3932C38.4147 33.3699 38.3194 33.3651 38.2259 33.379C38.1324 33.3929 38.0426 33.4252 37.9615 33.474C37.8804 33.5229 37.8096 33.5874 37.7533 33.6638C37.6969 33.7403 37.656 33.8272 37.633 33.9195C37.6099 34.0119 37.6051 34.1079 37.6189 34.2021C37.6327 34.2963 37.6647 34.3869 37.7132 34.4686C37.7617 34.5503 37.8257 34.6216 37.9016 34.6784C37.9774 34.7352 38.0636 34.7764 38.1553 34.7996L40.7691 35.4628C40.9509 35.5006 41.1401 35.4662 41.2974 35.3668C41.4546 35.2674 41.5677 35.1107 41.6131 34.9293C41.6585 34.748 41.6327 34.5559 41.541 34.3933C41.4494 34.2306 41.299 34.1099 41.1211 34.0563ZM41.0454 29.3825C40.9853 29.3075 40.9109 29.2453 40.8267 29.1996C40.7424 29.1539 40.65 29.1256 40.5548 29.1164C40.4596 29.1071 40.3635 29.1171 40.2721 29.1457C40.1808 29.1743 40.096 29.221 40.0228 29.283C39.9495 29.3451 39.8893 29.4212 39.8456 29.507C39.8019 29.5927 39.7757 29.6864 39.7684 29.7826C39.761 29.8787 39.7728 29.9753 39.803 30.0668C39.8332 30.1583 39.8812 30.2428 39.9442 30.3153L41.6851 32.4052C41.7453 32.4802 41.8196 32.5424 41.9038 32.5881C41.9881 32.6338 42.0805 32.6621 42.1757 32.6714C42.2709 32.6806 42.367 32.6707 42.4584 32.6421C42.5497 32.6134 42.6345 32.5668 42.7077 32.5047C42.781 32.4427 42.8412 32.3666 42.8849 32.2808C42.9286 32.195 42.9548 32.1013 42.9621 32.0052C42.9695 31.9091 42.9577 31.8124 42.9275 31.721C42.8973 31.6295 42.8493 31.545 42.7863 31.4724L41.0454 29.3825ZM46.1138 28.4739C46.1578 28.2867 46.1262 28.0896 46.0261 27.9259C45.9259 27.7622 45.7652 27.6453 45.5795 27.601C45.3938 27.5566 45.1982 27.5884 45.0358 27.6894C44.8734 27.7904 44.7574 27.9522 44.7134 28.1394C44.463 29.2082 44.4975 30.3247 44.8131 31.3758C44.8722 31.5551 44.9985 31.7041 45.165 31.791C45.3315 31.878 45.5251 31.8959 45.7046 31.8411C45.884 31.7863 46.0352 31.663 46.1258 31.4975C46.2164 31.3321 46.2393 31.1375 46.1896 30.9553C45.947 30.1491 45.9205 29.2927 46.1128 28.4729L46.1138 28.4739Z" fill="#FF4C00"/>
<path d="M63.6395 43.0481C61.6674 41.8978 59.7452 40.9108 58.0723 40.0766C58.0752 39.9703 58.9116 1.23938 57.6742 0.516323C57.5543 0.445758 30.3224 -0.154534 4.6205 0.0378299C2.24646 -0.043369 2.37787 1.05668 2.36924 2.07747L0 5.17366C0.00959207 19.1805 0.537156 33.3129 0.546748 47.3294C9.38584 47.4908 31.4764 47.4937 46.1004 47.5218L47.8155 55.0897C47.847 55.2282 47.9182 55.3543 48.0203 55.4524C48.1223 55.5505 48.2507 55.6161 48.3895 55.6413C48.5283 55.6664 48.6713 55.6499 48.8009 55.5937C48.9304 55.5376 49.0407 55.4444 49.1181 55.3256L52.9357 49.4909C54.8187 52.0322 55.7395 53.1999 58.0675 55.7644C58.1319 55.8353 58.2097 55.8926 58.2962 55.9329C58.3828 55.9733 58.4764 55.9959 58.5717 55.9995C58.667 56.0031 58.7621 55.9876 58.8514 55.9539C58.9407 55.9202 59.0224 55.8689 59.0919 55.8031C59.9198 55.0149 60.7502 54.2293 61.583 53.4464C61.6523 53.3812 61.7082 53.3029 61.7474 53.2159C61.7865 53.1289 61.8083 53.035 61.8113 52.9395C61.8143 52.844 61.7986 52.7488 61.765 52.6595C61.7314 52.5701 61.6807 52.4884 61.6156 52.4188C59.632 50.299 58.5404 49.081 56.7083 46.6702C61.0785 45.2327 60.0233 45.5778 63.4918 44.442C64.0904 44.2468 64.1863 43.369 63.6395 43.0481ZM56.8436 1.86481C57.0603 3.01802 56.6392 39.2704 56.6373 39.369C52.4782 37.3487 48.322 35.4831 44.0506 33.0036C43.9291 32.9333 43.7899 32.9003 43.6501 32.9086C43.5103 32.9169 43.3759 32.9662 43.2635 33.0503C43.151 33.1345 43.0654 33.2499 43.0171 33.3824C42.9688 33.5149 42.96 33.6588 42.9916 33.7963C43.7657 37.1564 44.4151 40.0447 45.1633 43.3661H4.18118C4.73273 32.1723 4.59364 21.0055 3.97975 9.831H53.0959C53.2867 9.831 53.4697 9.75461 53.6046 9.61865C53.7395 9.48269 53.8153 9.29829 53.8153 9.10601C53.8153 8.91373 53.7395 8.72932 53.6046 8.59336C53.4697 8.4574 53.2867 8.38102 53.0959 8.38102H3.89918C3.7457 5.59995 3.8397 2.35103 3.79174 1.54098C5.60656 1.09052 24.3552 1.53421 56.8436 1.86481ZM55.2983 45.6059C55.1887 45.6416 55.0893 45.7034 55.0083 45.7859C54.9273 45.8685 54.8672 45.9694 54.833 46.0802C54.7988 46.1911 54.7915 46.3085 54.8117 46.4228C54.8319 46.5371 54.879 46.6448 54.9491 46.7369C55.3328 47.2241 56.8474 49.4135 60.0732 52.8828C59.5946 53.3333 59.1188 53.7847 58.6373 54.242C56.4886 51.8485 55.61 50.6856 53.4777 47.7963C53.4087 47.7028 53.3183 47.6275 53.2143 47.5767C53.1102 47.5258 52.9956 47.501 52.88 47.5044C52.7644 47.5077 52.6514 47.539 52.5504 47.5957C52.4494 47.6524 52.3634 47.7329 52.2998 47.8301L48.8428 53.1119C48.8207 53.0143 45.1902 36.9447 44.7614 35.0703C50.5118 38.2564 56.0445 40.4681 61.583 43.543C61.4775 43.5778 62.0127 43.4019 55.2983 45.6059Z" fill="#FF4C00"/>
<path d="M8.75468 6.76678C9.72635 6.76678 10.488 5.89389 10.4717 4.98621C10.4525 3.99925 9.57672 3.2704 8.67794 3.60389C7.89619 2.8934 6.60701 4.36368 7.11443 5.659C7.37342 6.32309 8.05637 6.76678 8.75468 6.76678ZM14.6845 6.76678C15.6562 6.76678 16.4168 5.89389 16.4015 4.98621C16.3823 4.00215 15.5094 3.2704 14.6078 3.60389C13.827 2.8963 12.5378 4.36271 13.0443 5.659C13.3032 6.32309 13.9862 6.76678 14.6845 6.76678ZM20.6143 6.76678C21.586 6.76678 22.3476 5.89389 22.3313 4.98621C22.3121 4.00119 21.4392 3.26943 20.5376 3.60389C19.7606 2.89823 18.4657 4.35981 18.9741 5.659C19.2331 6.32309 19.916 6.76678 20.6143 6.76678Z" fill="#FF4C00"/>
</svg>
