<svg width="78" height="58" viewBox="0 0 78 58" fill="none" xmlns="http://www.w3.org/2000/svg">
<path d="M29.25 0H7.3125C3.28087 0 0 3.25283 0 7.25V29C0 32.9972 3.28087 36.25 7.3125 36.25H17.1527L13.4526 55.1242C13.3843 55.4738 13.3949 55.8341 13.4834 56.1792C13.572 56.5243 13.7364 56.8458 13.9649 57.1205C14.1933 57.3953 14.4802 57.6167 14.8051 57.7687C15.1299 57.9207 15.4846 57.9997 15.8438 58H23.7412C25.8619 58 27.7436 56.6249 28.3871 54.6336L35.4802 37.9465C35.5217 37.8498 35.5558 37.7532 35.5851 37.6565C36.2334 35.3389 36.5625 32.944 36.5625 30.5394V7.25C36.5625 3.25283 33.2816 0 29.25 0ZM70.6875 0H48.75C44.7184 0 41.4375 3.25283 41.4375 7.25V29C41.4375 32.9972 44.7184 36.25 48.75 36.25H58.5902L54.8901 55.1242C54.8204 55.4739 54.83 55.8347 54.918 56.1804C55.0061 56.5261 55.1704 56.8481 55.3991 57.1232C55.6279 57.3983 55.9153 57.6197 56.2408 57.7713C56.5663 57.9229 56.9216 58.001 57.2812 58H65.1787C67.2994 58 69.1836 56.6249 69.8222 54.6336L76.9202 37.9465C76.9592 37.8498 76.9933 37.7532 77.0226 37.6541C77.6709 35.3365 78 32.9416 78 30.5394V7.25C78 3.25283 74.7191 0 70.6875 0Z" fill="url(#paint0_linear_106_764)"/>
<defs>
<linearGradient id="paint0_linear_106_764" x1="39" y1="0" x2="39" y2="58" gradientUnits="userSpaceOnUse">
<stop stop-color="#E1EEFE"/>
<stop offset="1" stop-color="#FAFDFF"/>
</linearGradient>
</defs>
</svg>
