<svg width="50" height="52" viewBox="0 0 50 52" fill="none" xmlns="http://www.w3.org/2000/svg">
<path fill-rule="evenodd" clip-rule="evenodd" d="M45.18 20.8307L48.8231 21.5597C49.1549 21.6261 49.4536 21.8055 49.6681 22.0674C49.8827 22.3293 49.9999 22.6574 49.9999 22.9961V30.8086C49.9999 31.1473 49.8827 31.4755 49.6681 31.7374C49.4535 31.9992 49.1549 32.1786 48.823 32.245L45.1799 32.9741C44.7798 34.3016 44.2484 35.5858 43.5935 36.8077L45.654 39.9005C45.8418 40.1822 45.9261 40.5204 45.8928 40.8574C45.8594 41.1944 45.7104 41.5094 45.4711 41.7488L39.9505 47.273C39.6677 47.5561 39.2927 47.7021 38.9149 47.7021C38.626 47.7022 38.3436 47.6166 38.1034 47.4561L35.0759 45.4365V36.2407C37.3686 33.7988 38.7767 30.5181 38.7767 26.9023C38.7767 19.3516 32.6596 13.2305 25.1137 13.2305C17.5678 13.2305 11.4506 19.3516 11.4506 26.9023C11.4506 30.5181 12.8588 33.7988 15.1515 36.2407V45.4365L12.1239 47.4561C11.8423 47.6439 11.5044 47.7283 11.1676 47.6949C10.8309 47.6615 10.5161 47.5124 10.2768 47.2729L4.75613 41.7487C4.51682 41.5093 4.36782 41.1943 4.33447 40.8573C4.30113 40.5203 4.3855 40.1821 4.57324 39.9004L6.63373 36.8076C5.97885 35.5857 5.44743 34.3015 5.04735 32.974L1.40429 32.2449C0.71997 32.1081 0.227417 31.5068 0.227417 30.8086V22.9961C0.227409 22.6575 0.344654 22.3293 0.559202 22.0674C0.773751 21.8055 1.07235 21.6261 1.4042 21.5597L5.04725 20.8307C5.44735 19.5032 5.97878 18.2189 6.63363 16.997L4.57314 13.9043C4.38539 13.6225 4.301 13.2844 4.33435 12.9474C4.36769 12.6104 4.51671 12.2954 4.75603 12.056L10.2767 6.53164C10.516 6.29221 10.8308 6.14313 11.1676 6.10974C11.5043 6.07636 11.8422 6.16074 12.1238 6.34853L15.2147 8.41035C16.4359 7.75516 17.7193 7.22342 19.0459 6.82305L19.7745 3.17754C19.8408 2.84548 20.0201 2.54669 20.2818 2.332C20.5436 2.11731 20.8715 1.99999 21.21 2H29.0174C29.3558 2 29.6838 2.11732 29.9455 2.33201C30.2072 2.5467 30.3865 2.84549 30.4528 3.17754L31.1813 6.82305C32.508 7.22338 33.7914 7.75511 35.0126 8.41035L38.1034 6.34853C38.385 6.16074 38.7229 6.07636 39.0597 6.10974C39.3965 6.14313 39.7113 6.29221 39.9506 6.53164L45.4712 12.056C45.7106 12.2954 45.8596 12.6104 45.8929 12.9474C45.9263 13.2844 45.8419 13.6226 45.6541 13.9043L43.5936 16.997C44.2485 18.2189 44.7799 19.5032 45.18 20.8307ZM27.958 19.7453C28.0797 18.9022 29.0144 18.4491 29.7512 18.8761C32.6095 20.5328 34.385 23.6084 34.385 26.9024C34.385 30.4719 32.3872 33.6651 29.1714 35.2357L29.0173 35.311V50.5352C29.0173 51.3442 28.3619 52 27.5534 52H22.6738C21.8653 52 21.2099 51.3442 21.2099 50.5352V35.311L21.0558 35.2357C17.84 33.6651 15.8423 30.4719 15.8423 26.9024C15.8423 23.6084 17.6178 20.5328 20.4762 18.8761C21.2129 18.4491 22.1476 18.9022 22.2694 19.7453L23.1618 25.9258H27.0655L27.958 19.7453Z" fill="#FF4C00"/>
<mask id="path-2-inside-1_657_3988" fill="white">
<path fill-rule="evenodd" clip-rule="evenodd" d="M44.9526 18.8307L48.5956 19.5597C48.9275 19.6261 49.2261 19.8055 49.4407 20.0674C49.6553 20.3293 49.7725 20.6574 49.7725 20.9961V28.8086C49.7725 29.1473 49.6553 29.4755 49.4407 29.7374C49.2261 29.9992 48.9274 30.1786 48.5956 30.245L44.9525 30.9741C44.5524 32.3016 44.021 33.5858 43.3661 34.8077L45.4266 37.9005C45.6143 38.1822 45.6987 38.5204 45.6654 38.8574C45.632 39.1944 45.483 39.5094 45.2437 39.7488L39.7231 45.273C39.4402 45.5561 39.0653 45.7021 38.6875 45.7021C38.3986 45.7022 38.1162 45.6166 37.876 45.4561L34.8485 43.4365V34.2407C37.1411 31.7988 38.5493 28.5181 38.5493 24.9023C38.5493 17.3516 32.4322 11.2305 24.8863 11.2305C17.3404 11.2305 11.2232 17.3516 11.2232 24.9023C11.2232 28.5181 12.6314 31.7988 14.924 34.2407V43.4365L11.8965 45.4561C11.6149 45.6439 11.277 45.7283 10.9402 45.6949C10.6035 45.6615 10.2887 45.5124 10.0494 45.2729L4.52871 39.7487C4.28941 39.5093 4.1404 39.1943 4.10706 38.8573C4.07371 38.5203 4.15809 38.1821 4.34582 37.9004L6.40631 34.8076C5.75143 33.5857 5.22001 32.3015 4.81993 30.974L1.17688 30.2449C0.492553 30.1081 3.79546e-10 29.5068 3.79546e-10 28.8086V20.9961C-7.70265e-06 20.6575 0.117237 20.3293 0.331785 20.0674C0.546334 19.8055 0.844933 19.6261 1.17678 19.5597L4.81983 18.8307C5.21994 17.5032 5.75136 16.2189 6.40621 14.997L4.34573 11.9043C4.15797 11.6225 4.07359 11.2844 4.10693 10.9474C4.14028 10.6104 4.28929 10.2954 4.52862 10.056L10.0493 4.53164C10.2886 4.29221 10.6034 4.14313 10.9401 4.10974C11.2769 4.07636 11.6148 4.16074 11.8964 4.34853L14.9873 6.41035C16.2085 5.75516 17.4919 5.22342 18.8185 4.82305L19.547 1.17754C19.6134 0.845479 19.7927 0.546687 20.0544 0.332C20.3161 0.117312 20.6441 -7.70762e-06 20.9825 3.79791e-10H28.79C29.1284 -3.63986e-06 29.4564 0.11732 29.7181 0.332008C29.9798 0.546697 30.159 0.845487 30.2254 1.17754L30.9539 4.82305C32.2806 5.22338 33.564 5.75511 34.7851 6.41035L37.876 4.34853C38.1576 4.16074 38.4955 4.07636 38.8323 4.10974C39.169 4.14313 39.4839 4.29221 39.7232 4.53164L45.2438 10.056C45.4832 10.2954 45.6322 10.6104 45.6655 10.9474C45.6989 11.2844 45.6145 11.6226 45.4267 11.9043L43.3662 14.997C44.0211 16.2189 44.5525 17.5032 44.9526 18.8307ZM27.7306 17.7453C27.8523 16.9022 28.7871 16.4491 29.5238 16.8761C32.3821 18.5328 34.1576 21.6084 34.1576 24.9024C34.1576 28.4719 32.1599 31.6651 28.9441 33.2357L28.79 33.311V48.5352C28.79 49.3442 28.1346 50 27.3261 50H22.4464C21.638 50 20.9825 49.3442 20.9825 48.5352V33.311L20.8284 33.2357C17.6126 31.6651 15.6149 28.4719 15.6149 24.9024C15.6149 21.6084 17.3904 18.5328 20.2488 16.8761C20.9856 16.4491 21.9202 16.9022 22.042 17.7453L22.9344 23.9258H26.8381L27.7306 17.7453Z"/>
</mask>
<path fill-rule="evenodd" clip-rule="evenodd" d="M44.9526 18.8307L48.5956 19.5597C48.9275 19.6261 49.2261 19.8055 49.4407 20.0674C49.6553 20.3293 49.7725 20.6574 49.7725 20.9961V28.8086C49.7725 29.1473 49.6553 29.4755 49.4407 29.7374C49.2261 29.9992 48.9274 30.1786 48.5956 30.245L44.9525 30.9741C44.5524 32.3016 44.021 33.5858 43.3661 34.8077L45.4266 37.9005C45.6143 38.1822 45.6987 38.5204 45.6654 38.8574C45.632 39.1944 45.483 39.5094 45.2437 39.7488L39.7231 45.273C39.4402 45.5561 39.0653 45.7021 38.6875 45.7021C38.3986 45.7022 38.1162 45.6166 37.876 45.4561L34.8485 43.4365V34.2407C37.1411 31.7988 38.5493 28.5181 38.5493 24.9023C38.5493 17.3516 32.4322 11.2305 24.8863 11.2305C17.3404 11.2305 11.2232 17.3516 11.2232 24.9023C11.2232 28.5181 12.6314 31.7988 14.924 34.2407V43.4365L11.8965 45.4561C11.6149 45.6439 11.277 45.7283 10.9402 45.6949C10.6035 45.6615 10.2887 45.5124 10.0494 45.2729L4.52871 39.7487C4.28941 39.5093 4.1404 39.1943 4.10706 38.8573C4.07371 38.5203 4.15809 38.1821 4.34582 37.9004L6.40631 34.8076C5.75143 33.5857 5.22001 32.3015 4.81993 30.974L1.17688 30.2449C0.492553 30.1081 3.79546e-10 29.5068 3.79546e-10 28.8086V20.9961C-7.70265e-06 20.6575 0.117237 20.3293 0.331785 20.0674C0.546334 19.8055 0.844933 19.6261 1.17678 19.5597L4.81983 18.8307C5.21994 17.5032 5.75136 16.2189 6.40621 14.997L4.34573 11.9043C4.15797 11.6225 4.07359 11.2844 4.10693 10.9474C4.14028 10.6104 4.28929 10.2954 4.52862 10.056L10.0493 4.53164C10.2886 4.29221 10.6034 4.14313 10.9401 4.10974C11.2769 4.07636 11.6148 4.16074 11.8964 4.34853L14.9873 6.41035C16.2085 5.75516 17.4919 5.22342 18.8185 4.82305L19.547 1.17754C19.6134 0.845479 19.7927 0.546687 20.0544 0.332C20.3161 0.117312 20.6441 -7.70762e-06 20.9825 3.79791e-10H28.79C29.1284 -3.63986e-06 29.4564 0.11732 29.7181 0.332008C29.9798 0.546697 30.159 0.845487 30.2254 1.17754L30.9539 4.82305C32.2806 5.22338 33.564 5.75511 34.7851 6.41035L37.876 4.34853C38.1576 4.16074 38.4955 4.07636 38.8323 4.10974C39.169 4.14313 39.4839 4.29221 39.7232 4.53164L45.2438 10.056C45.4832 10.2954 45.6322 10.6104 45.6655 10.9474C45.6989 11.2844 45.6145 11.6226 45.4267 11.9043L43.3662 14.997C44.0211 16.2189 44.5525 17.5032 44.9526 18.8307ZM27.7306 17.7453C27.8523 16.9022 28.7871 16.4491 29.5238 16.8761C32.3821 18.5328 34.1576 21.6084 34.1576 24.9024C34.1576 28.4719 32.1599 31.6651 28.9441 33.2357L28.79 33.311V48.5352C28.79 49.3442 28.1346 50 27.3261 50H22.4464C21.638 50 20.9825 49.3442 20.9825 48.5352V33.311L20.8284 33.2357C17.6126 31.6651 15.6149 28.4719 15.6149 24.9024C15.6149 21.6084 17.3904 18.5328 20.2488 16.8761C20.9856 16.4491 21.9202 16.9022 22.042 17.7453L22.9344 23.9258H26.8381L27.7306 17.7453Z" fill="url(#paint0_radial_657_3988)"/>
<path d="M48.5956 19.5597L48.3994 20.5402L48.3995 20.5402L48.5956 19.5597ZM44.9526 18.8307L43.9951 19.1192L44.1682 19.6935L44.7564 19.8112L44.9526 18.8307ZM49.4407 20.0674L48.6672 20.7011V20.7011L49.4407 20.0674ZM49.7725 20.9961L48.7725 20.9961V20.9961H49.7725ZM49.4407 29.7374L50.2142 30.3711V30.3711L49.4407 29.7374ZM48.5956 30.245L48.3994 29.2644L48.3993 29.2645L48.5956 30.245ZM44.9525 30.9741L44.7563 29.9936L44.1681 30.1113L43.995 30.6855L44.9525 30.9741ZM43.3661 34.8077L42.4847 34.3354L42.2017 34.8635L42.5339 35.3622L43.3661 34.8077ZM45.4266 37.9005L44.5944 38.4549L44.5944 38.455L45.4266 37.9005ZM45.6654 38.8574L46.6605 38.9558L45.6654 38.8574ZM45.2437 39.7488L44.5364 39.0419L44.5364 39.0419L45.2437 39.7488ZM39.7231 45.273L39.0157 44.5662L39.0156 44.5663L39.7231 45.273ZM38.6875 45.7021V44.7021H38.6872L38.6875 45.7021ZM37.876 45.4561L38.4317 44.6246L38.4309 44.6241L37.876 45.4561ZM34.8485 43.4365H33.8485V43.9715L34.2936 44.2684L34.8485 43.4365ZM34.8485 34.2407L34.1194 33.5562L33.8485 33.8448V34.2407H34.8485ZM14.924 34.2407H15.924V33.8448L15.6531 33.5562L14.924 34.2407ZM14.924 43.4365L15.479 44.2684L15.924 43.9715V43.4365H14.924ZM11.8965 45.4561L12.4514 46.288L12.4514 46.288L11.8965 45.4561ZM10.9402 45.6949L10.8416 46.69L10.8416 46.69L10.9402 45.6949ZM10.0494 45.2729L10.7567 44.5661L10.7567 44.5661L10.0494 45.2729ZM4.52871 39.7487L5.23605 39.0419L5.23602 39.0418L4.52871 39.7487ZM4.10706 38.8573L3.11192 38.9557V38.9557L4.10706 38.8573ZM4.34582 37.9004L5.17801 38.4549L5.17804 38.4548L4.34582 37.9004ZM6.40631 34.8076L7.23853 35.3621L7.57076 34.8634L7.2877 34.3352L6.40631 34.8076ZM4.81993 30.974L5.77739 30.6855L5.60431 30.1112L5.01618 29.9935L4.81993 30.974ZM1.17688 30.2449L1.37312 29.2644L1.37293 29.2643L1.17688 30.2449ZM3.79546e-10 20.9961H1V20.9961L3.79546e-10 20.9961ZM0.331785 20.0674L1.10534 20.7011L1.10534 20.7011L0.331785 20.0674ZM1.17678 19.5597L0.980561 18.5791L0.980519 18.5791L1.17678 19.5597ZM4.81983 18.8307L5.01605 19.8112L5.6042 19.6935L5.77729 19.1192L4.81983 18.8307ZM6.40621 14.997L7.28762 15.4693L7.57066 14.9412L7.23842 14.4425L6.40621 14.997ZM4.34573 11.9043L5.17794 11.3498L5.17788 11.3498L4.34573 11.9043ZM4.10693 10.9474L3.11179 10.8489V10.8489L4.10693 10.9474ZM4.52862 10.056L5.23588 10.7629L5.23596 10.7628L4.52862 10.056ZM10.0493 4.53164L9.34198 3.82472L9.34193 3.82477L10.0493 4.53164ZM10.9401 4.10974L11.0388 5.10487L10.9401 4.10974ZM11.8964 4.34853L12.4513 3.51664L12.4512 3.51656L11.8964 4.34853ZM14.9873 6.41035L14.4324 7.24225L14.9314 7.57516L15.4601 7.29153L14.9873 6.41035ZM18.8185 4.82305L19.1074 5.7804L19.6816 5.60712L19.7991 5.01902L18.8185 4.82305ZM19.547 1.17754L18.5664 0.981526L18.5664 0.98157L19.547 1.17754ZM20.0544 0.332L20.6886 1.10515L20.6887 1.10515L20.0544 0.332ZM20.9825 3.79791e-10L20.9825 1H20.9825V3.79791e-10ZM28.79 3.79791e-10V1H28.79L28.79 3.79791e-10ZM29.7181 0.332008L29.0838 1.10514L29.7181 0.332008ZM30.2254 1.17754L29.2448 1.3735L29.2448 1.37351L30.2254 1.17754ZM30.9539 4.82305L29.9733 5.01902L30.0908 5.60714L30.665 5.78041L30.9539 4.82305ZM34.7851 6.41035L34.3123 7.29152L34.841 7.57517L35.3401 7.24225L34.7851 6.41035ZM37.876 4.34853L37.3212 3.51656L37.3211 3.51664L37.876 4.34853ZM39.7232 4.53164L40.4305 3.82477L40.4305 3.82471L39.7232 4.53164ZM45.2438 10.056L44.5365 10.7628L44.5366 10.7629L45.2438 10.056ZM45.6655 10.9474L46.6607 10.8489V10.8489L45.6655 10.9474ZM45.4267 11.9043L44.5946 11.3497L44.5945 11.3498L45.4267 11.9043ZM43.3662 14.997L42.534 14.4425L42.2018 14.9412L42.4848 15.4694L43.3662 14.997ZM29.5238 16.8761L29.0223 17.7413L29.0223 17.7413L29.5238 16.8761ZM27.7306 17.7453L28.7204 17.8883L28.7204 17.8882L27.7306 17.7453ZM28.9441 33.2357L28.5052 32.3371L28.5051 32.3372L28.9441 33.2357ZM28.79 33.311L28.351 32.4125L27.79 32.6866V33.311H28.79ZM20.9825 33.311H21.9825V32.6866L21.4215 32.4125L20.9825 33.311ZM20.8284 33.2357L21.2674 32.3372L21.2673 32.3371L20.8284 33.2357ZM20.2488 16.8761L20.7503 17.7413L20.7503 17.7413L20.2488 16.8761ZM22.042 17.7453L23.0317 17.6024L23.0317 17.6024L22.042 17.7453ZM22.9344 23.9258L21.9447 24.0687L22.0684 24.9258H22.9344V23.9258ZM26.8381 23.9258V24.9258H27.7041L27.8279 24.0687L26.8381 23.9258ZM48.7919 18.5791L45.1488 17.8501L44.7564 19.8112L48.3994 20.5402L48.7919 18.5791ZM50.2142 19.4336C49.8532 18.9929 49.3506 18.6909 48.7918 18.5791L48.3995 20.5402C48.5045 20.5612 48.5991 20.618 48.6672 20.7011L50.2142 19.4336ZM50.7725 20.9961C50.7725 20.4264 50.5753 19.8743 50.2142 19.4336L48.6672 20.7011C48.7353 20.7842 48.7725 20.8884 48.7725 20.9961L50.7725 20.9961ZM50.7725 28.8086V20.9961H48.7725V28.8086H50.7725ZM50.2142 30.3711C50.5753 29.9305 50.7725 29.3783 50.7725 28.8086H48.7725C48.7725 28.9162 48.7352 29.0205 48.6672 29.1036L50.2142 30.3711ZM48.7917 31.2256C49.3504 31.1138 49.8531 30.8118 50.2142 30.3711L48.6672 29.1036C48.5991 29.1866 48.5045 29.2434 48.3994 29.2644L48.7917 31.2256ZM45.1487 31.9547L48.7918 31.2256L48.3993 29.2645L44.7563 29.9936L45.1487 31.9547ZM44.2475 35.2801C44.9338 33.9996 45.4907 32.6538 45.9099 31.2627L43.995 30.6855C43.6141 31.9494 43.1081 33.172 42.4847 34.3354L44.2475 35.2801ZM46.2588 37.346L44.1983 34.2533L42.5339 35.3622L44.5944 38.4549L46.2588 37.346ZM46.6605 38.9558C46.7166 38.389 46.5747 37.8201 46.2588 37.346L44.5944 38.455C44.654 38.5444 44.6808 38.6518 44.6702 38.7589L46.6605 38.9558ZM45.951 40.4557C46.3538 40.0528 46.6044 39.5227 46.6605 38.9558L44.6702 38.7589C44.6596 38.866 44.6123 38.966 44.5364 39.0419L45.951 40.4557ZM40.4304 45.9799L45.951 40.4557L44.5364 39.0419L39.0157 44.5662L40.4304 45.9799ZM38.6875 46.7021C39.3222 46.7021 39.9543 46.4565 40.4305 45.9798L39.0156 44.5663C38.9262 44.6558 38.8083 44.7021 38.6875 44.7021V46.7021ZM37.3204 46.2875C37.7251 46.558 38.201 46.7023 38.6878 46.7021L38.6872 44.7021C38.5963 44.7022 38.5074 44.6752 38.4317 44.6246L37.3204 46.2875ZM34.2936 44.2684L37.3211 46.288L38.4309 44.6241L35.4034 42.6046L34.2936 44.2684ZM33.8485 34.2407V43.4365H35.8485V34.2407H33.8485ZM37.5493 24.9023C37.5493 28.2528 36.2457 31.2916 34.1194 33.5562L35.5775 34.9252C38.0366 32.3061 39.5493 28.7834 39.5493 24.9023H37.5493ZM24.8863 12.2305C31.8793 12.2305 37.5493 17.9032 37.5493 24.9023H39.5493C39.5493 16.7999 32.9851 10.2305 24.8863 10.2305V12.2305ZM12.2232 24.9023C12.2232 17.9032 17.8933 12.2305 24.8863 12.2305V10.2305C16.7875 10.2305 10.2232 16.7999 10.2232 24.9023H12.2232ZM15.6531 33.5562C13.5268 31.2916 12.2232 28.2528 12.2232 24.9023H10.2232C10.2232 28.7834 11.736 32.3061 14.195 34.9252L15.6531 33.5562ZM15.924 43.4365V34.2407H13.924V43.4365H15.924ZM12.4514 46.288L15.479 44.2684L14.3691 42.6046L11.3416 44.6241L12.4514 46.288ZM10.8416 46.69C11.4086 46.7462 11.9775 46.6041 12.4514 46.288L11.3416 44.6241C11.2524 44.6836 11.1454 44.7103 11.0389 44.6998L10.8416 46.69ZM9.342 45.9798C9.7447 46.3828 10.2746 46.6338 10.8416 46.69L11.0389 44.6998C10.9323 44.6892 10.8326 44.642 10.7567 44.5661L9.342 45.9798ZM3.82138 40.4556L9.34203 45.9798L10.7567 44.5661L5.23605 39.0419L3.82138 40.4556ZM3.11192 38.9557C3.16801 39.5226 3.41867 40.0527 3.82141 40.4556L5.23602 39.0418C5.16014 38.9659 5.11279 38.8659 5.1022 38.7588L3.11192 38.9557ZM3.51364 37.3459C3.19775 37.82 3.05582 38.3889 3.11192 38.9557L5.1022 38.7588C5.0916 38.6517 5.11843 38.5443 5.17801 38.4549L3.51364 37.3459ZM5.57409 34.2532L3.51361 37.3459L5.17804 38.4548L7.23853 35.3621L5.57409 34.2532ZM3.86247 31.2626C4.28173 32.6537 4.83863 33.9995 5.52492 35.28L7.2877 34.3352C6.66423 33.1719 6.15829 31.9493 5.77739 30.6855L3.86247 31.2626ZM0.980633 31.2255L4.62369 31.9546L5.01618 29.9935L1.37312 29.2644L0.980633 31.2255ZM-1 28.8086C-1 29.983 -0.171508 30.9951 0.980827 31.2255L1.37293 29.2643C1.15661 29.2211 1 29.0307 1 28.8086H-1ZM-1 20.9961V28.8086H1V20.9961H-1ZM-0.44177 19.4337C-0.802795 19.8743 -1.00001 20.4265 -1 20.9961L1 20.9961C0.999998 20.8884 1.03727 20.7842 1.10534 20.7011L-0.44177 19.4337ZM0.980519 18.5791C0.421843 18.6909 -0.0807336 18.993 -0.44177 19.4337L1.10534 20.7011C1.1734 20.618 1.26802 20.5612 1.37304 20.5402L0.980519 18.5791ZM4.62362 17.8501L0.980561 18.5791L1.373 20.5402L5.01605 19.8112L4.62362 17.8501ZM5.5248 14.5246C4.83855 15.8051 4.28166 17.151 3.86238 18.5421L5.77729 19.1192C6.15822 17.8554 6.66416 16.6327 7.28762 15.4693L5.5248 14.5246ZM3.51352 12.4588L5.574 15.5514L7.23842 14.4425L5.17794 11.3498L3.51352 12.4588ZM3.11179 10.8489C3.0557 11.4159 3.19764 11.9848 3.51357 12.4588L5.17788 11.3498C5.1183 11.2603 5.09148 11.153 5.10207 11.0459L3.11179 10.8489ZM3.82135 9.34901C3.41858 9.75197 3.16789 10.282 3.11179 10.8489L5.10207 11.0459C5.11267 10.9388 5.16001 10.8388 5.23588 10.7629L3.82135 9.34901ZM9.34193 3.82477L3.82128 9.34908L5.23596 10.7628L10.7566 5.23851L9.34193 3.82477ZM10.8415 3.11462C10.2746 3.17082 9.74469 3.4218 9.34198 3.82472L10.7566 5.23856C10.8325 5.16262 10.9322 5.11543 11.0388 5.10487L10.8415 3.11462ZM12.4512 3.51656C11.9773 3.20049 11.4084 3.05842 10.8415 3.11462L11.0388 5.10487C11.1454 5.0943 11.2524 5.121 11.3416 5.18051L12.4512 3.51656ZM15.5422 5.57845L12.4513 3.51664L11.3415 5.18043L14.4324 7.24225L15.5422 5.57845ZM18.5296 3.8657C17.1393 4.28529 15.7943 4.84254 14.5145 5.52917L15.4601 7.29153C16.6227 6.66777 17.8445 6.16156 19.1074 5.7804L18.5296 3.8657ZM18.5664 0.98157L17.8379 4.62708L19.7991 5.01902L20.5276 1.37351L18.5664 0.98157ZM19.4202 -0.441155C18.9797 -0.0798342 18.6781 0.422931 18.5664 0.981526L20.5276 1.37355C20.5487 1.26803 20.6057 1.17321 20.6886 1.10515L19.4202 -0.441155ZM20.9826 -1C20.4128 -1.00001 19.8607 -0.802486 19.4202 -0.441153L20.6887 1.10515C20.7716 1.03711 20.8754 0.999998 20.9825 1L20.9826 -1ZM28.79 -1H20.9825V1H28.79V-1ZM30.3523 -0.441124C29.9118 -0.802468 29.3597 -1.00001 28.79 -1L28.79 1C28.8971 0.999999 29.0009 1.03711 29.0838 1.10514L30.3523 -0.441124ZM31.206 0.981581C31.0944 0.422983 30.7928 -0.0797918 30.3523 -0.441124L29.0838 1.10514C29.1668 1.17319 29.2237 1.26799 29.2448 1.3735L31.206 0.981581ZM31.9345 4.62708L31.206 0.98157L29.2448 1.37351L29.9733 5.01902L31.9345 4.62708ZM35.2579 5.52918C33.9782 4.8425 32.6331 4.28524 31.2428 3.86569L30.665 5.78041C31.928 6.16152 33.1498 6.66773 34.3123 7.29152L35.2579 5.52918ZM37.3211 3.51664L34.2302 5.57845L35.3401 7.24225L38.4309 5.18043L37.3211 3.51664ZM38.9309 3.11462C38.364 3.05842 37.7952 3.20049 37.3212 3.51656L38.4308 5.18051C38.5201 5.121 38.6271 5.0943 38.7336 5.10487L38.9309 3.11462ZM40.4305 3.82471C40.0277 3.4218 39.4979 3.17082 38.9309 3.11462L38.7336 5.10487C38.8402 5.11543 38.94 5.16263 39.0159 5.23857L40.4305 3.82471ZM45.9512 9.34908L40.4305 3.82477L39.0158 5.23851L44.5365 10.7628L45.9512 9.34908ZM46.6607 10.8489C46.6046 10.282 46.3539 9.75192 45.951 9.34897L44.5366 10.7629C44.6125 10.8388 44.6598 10.9388 44.6704 11.0459L46.6607 10.8489ZM46.2588 12.4589C46.5748 11.9848 46.7168 11.4159 46.6607 10.8489L44.6704 11.0459C44.681 11.1529 44.6542 11.2603 44.5946 11.3497L46.2588 12.4589ZM44.1984 15.5514L46.2589 12.4588L44.5945 11.3498L42.534 14.4425L44.1984 15.5514ZM45.9101 18.5421C45.4908 17.151 44.9339 15.8051 44.2476 14.5246L42.4848 15.4694C43.1083 16.6327 43.6142 17.8553 43.9951 19.1192L45.9101 18.5421ZM30.0253 16.011C28.6753 15.2284 26.9636 16.0592 26.7409 17.6025L28.7204 17.8882C28.741 17.7451 28.8988 17.6697 29.0223 17.7413L30.0253 16.011ZM35.1576 24.9024C35.1576 21.2505 33.191 17.8459 30.0253 16.0109L29.0223 17.7413C31.5732 19.2198 33.1576 21.9664 33.1576 24.9024H35.1576ZM29.383 34.1342C32.941 32.3965 35.1576 28.8553 35.1576 24.9024H33.1576C33.1576 28.0885 31.3788 30.9337 28.5052 32.3371L29.383 34.1342ZM29.229 34.2095L29.3831 34.1342L28.5051 32.3372L28.351 32.4125L29.229 34.2095ZM29.79 48.5352V33.311H27.79V48.5352H29.79ZM27.3261 51C28.6875 51 29.79 49.8958 29.79 48.5352H27.79C27.79 48.7925 27.5817 49 27.3261 49V51ZM22.4464 51H27.3261V49H22.4464V51ZM19.9825 48.5352C19.9825 49.8958 21.0851 51 22.4464 51V49C22.1909 49 21.9825 48.7925 21.9825 48.5352H19.9825ZM19.9825 33.311V48.5352H21.9825V33.311H19.9825ZM20.3895 34.1342L20.5435 34.2095L21.4215 32.4125L21.2674 32.3372L20.3895 34.1342ZM14.6149 24.9024C14.6149 28.8553 16.8316 32.3965 20.3896 34.1342L21.2673 32.3371C18.3937 30.9337 16.6149 28.0885 16.6149 24.9024H14.6149ZM19.7474 16.0109C16.5815 17.8459 14.6149 21.2505 14.6149 24.9024H16.6149C16.6149 21.9664 18.1994 19.2198 20.7503 17.7413L19.7474 16.0109ZM23.0317 17.6024C22.8088 16.0593 21.0974 15.2284 19.7473 16.011L20.7503 17.7413C20.8737 17.6698 21.0316 17.745 21.0523 17.8883L23.0317 17.6024ZM23.9241 23.7829L23.0317 17.6024L21.0523 17.8883L21.9447 24.0687L23.9241 23.7829ZM26.8381 22.9258H22.9344V24.9258H26.8381V22.9258ZM26.7409 17.6024L25.8484 23.7829L27.8279 24.0687L28.7204 17.8883L26.7409 17.6024Z" fill="url(#paint1_linear_657_3988)" mask="url(#path-2-inside-1_657_3988)"/>
<defs>
<radialGradient id="paint0_radial_657_3988" cx="0" cy="0" r="1" gradientUnits="userSpaceOnUse" gradientTransform="translate(4.97725 54) rotate(39.1188) scale(40.4165 40.4545)">
<stop stop-color="#FF4C00"/>
<stop offset="1" stop-color="#FFE0D3"/>
</radialGradient>
<linearGradient id="paint1_linear_657_3988" x1="33.8453" y1="2" x2="4.78185" y2="50.8838" gradientUnits="userSpaceOnUse">
<stop stop-color="#FFBA9C" stop-opacity="0"/>
<stop offset="1" stop-color="#FF793F"/>
</linearGradient>
</defs>
</svg>
