<svg width="12" height="12" viewBox="0 0 12 12" fill="none" xmlns="http://www.w3.org/2000/svg">
<g clip-path="url(#clip0_106_380)">
<path d="M9.29577 4.55454C9.2634 4.51399 9.22416 4.52196 9.20361 4.53023C9.18638 4.53722 9.14691 4.55953 9.15238 4.61545C9.15894 4.6826 9.16262 4.75106 9.16332 4.81896C9.16625 5.10063 9.05326 5.37659 8.85334 5.57606C8.65468 5.77425 8.3934 5.88103 8.11519 5.87794C7.73518 5.87309 7.41999 5.67487 7.20369 5.30473C7.02484 4.99866 7.10345 4.6039 7.18667 4.18594C7.23537 3.9413 7.28574 3.68831 7.28574 3.44754C7.28574 1.5728 6.02541 0.491203 5.27415 0.0133359C5.25861 0.00346875 5.24382 0 5.23072 0C5.20941 0 5.19254 0.0091875 5.18422 0.0148125C5.16809 0.0257344 5.14229 0.050625 5.15059 0.0946875C5.43774 1.61958 4.58124 2.53671 3.67445 3.50768C2.73976 4.50853 1.68036 5.64293 1.68036 7.68884C1.68036 10.0661 3.61435 12 5.99157 12C7.94888 12 9.67461 10.6354 10.1882 8.68153C10.5384 7.34927 10.1714 5.65221 9.29577 4.55454ZM6.09912 11.0798C5.50386 11.107 4.93775 10.8935 4.50535 10.48C4.07759 10.071 3.83225 9.50018 3.83225 8.91391C3.83225 7.81374 4.25291 7.00608 5.38433 5.93386C5.40284 5.9163 5.4218 5.91075 5.43833 5.91075C5.4533 5.91075 5.46629 5.91532 5.47522 5.91961C5.49404 5.92868 5.52498 5.95113 5.5208 5.9997C5.48035 6.47044 5.48105 6.86116 5.52287 7.16107C5.62974 7.92712 6.19053 8.44184 6.91838 8.44184C7.27524 8.44184 7.61516 8.30754 7.87552 8.06367C7.88557 8.05401 7.89784 8.04696 7.91124 8.04313C7.92465 8.0393 7.93879 8.03882 7.95242 8.04171C7.96955 8.04541 7.9925 8.05591 8.00452 8.08491C8.11248 8.34556 8.16765 8.62223 8.16849 8.90721C8.17194 10.0539 7.24362 11.0285 6.09912 11.0798Z" fill="white"/>
</g>
<defs>
<clipPath id="clip0_106_380">
<rect width="12" height="12" fill="white"/>
</clipPath>
</defs>
</svg>
