<svg width="70" height="58" viewBox="0 0 70 58" fill="none" xmlns="http://www.w3.org/2000/svg">
<path d="M69.9669 32.2805C70.0786 34.891 69.1275 37.4383 67.3223 39.3635C65.5171 41.2887 63.0052 42.4345 60.3377 42.5497C60.1817 42.5568 60.026 42.5604 59.8705 42.5604C59.1618 42.5599 58.4551 42.4848 57.7628 42.3365C55.7085 45.4403 53.0147 48.0903 49.8539 50.1171C46.6931 52.1439 43.1347 53.5028 39.4065 54.1069C38.9655 55.3745 38.0858 56.4516 36.9193 57.1519C35.7529 57.8522 34.3731 58.1317 33.0184 57.9421C31.6637 57.7525 30.4193 57.1056 29.5003 56.1134C28.5812 55.1212 28.0454 53.846 27.9853 52.5082C27.9252 51.1704 28.3446 49.854 29.1711 48.7868C29.9976 47.7195 31.1792 46.9683 32.5117 46.6631C33.8442 46.3578 35.2437 46.5178 36.4684 47.1152C37.6932 47.7127 38.6661 48.71 39.2191 49.935C44.4679 48.985 49.2097 46.2629 52.618 42.243C56.0263 38.2231 57.8849 33.1603 57.87 27.937C57.87 15.5969 47.6106 5.55765 35 5.55765C22.3894 5.55765 12.13 15.5969 12.13 27.937C12.1293 31.7527 13.1259 35.5052 15.025 38.8378C15.0893 38.9478 15.1376 39.0661 15.1685 39.1892C15.3519 39.6881 15.3323 40.2369 15.1137 40.7221C14.8951 41.2072 14.4943 41.5916 13.9941 41.7956C12.7695 42.2999 11.4542 42.5596 10.1255 42.5594C9.96914 42.5594 9.81244 42.5558 9.65541 42.5488C6.98902 42.4321 4.47872 41.2856 2.67492 39.3605C0.87113 37.4355 -0.0789323 34.889 0.033057 32.2795C0.0780773 31.239 0.0529562 30.3105 0.0283997 29.4127C0.00553673 28.5674 -0.0183141 27.6932 0.0209199 26.781C0.138012 24.2332 1.25805 21.8284 3.14645 20.0705C5.03485 18.3126 7.54511 17.3379 10.1515 17.3505C14.3368 7.98008 23.8988 1.41461 35 1.41461C46.1012 1.41461 55.6633 7.98008 59.8487 17.3507C62.4553 17.3361 64.9664 18.31 66.8551 20.0679C68.7438 21.8259 69.8634 24.2313 69.9789 26.7795C70.0183 27.6931 69.9946 28.5671 69.9715 29.4124C69.9472 30.3104 69.9219 31.2392 69.9669 32.2805ZM52.7548 27.937C52.7538 30.5986 52.128 33.2245 50.9258 35.6121C49.7236 37.9998 47.9771 40.0853 45.8209 41.7079C43.6647 43.3305 41.1565 44.4468 38.4897 44.9708C35.8229 45.4948 33.0687 45.4124 30.4395 44.7301L23.2531 48.7912C22.8905 48.9961 22.4739 49.0912 22.0561 49.0644C21.6383 49.0377 21.2379 48.8902 20.9057 48.6408C20.5735 48.3914 20.3244 48.0511 20.1898 47.6631C20.0552 47.2751 20.0412 46.8568 20.1497 46.461L21.9863 39.7565C18.9447 36.5394 17.2523 32.3197 17.2459 27.937C17.2459 18.3544 25.21 10.5591 35 10.5591C44.79 10.5591 52.7548 18.3544 52.7548 27.937ZM30.064 27.937C30.064 27.3876 29.841 26.8607 29.444 26.4722C29.047 26.0837 28.5085 25.8654 27.9471 25.8654H27.9435C27.525 25.8662 27.1161 25.9883 26.7685 26.2164C26.4209 26.4445 26.1502 26.7683 25.9905 27.1469C25.8309 27.5255 25.7896 27.9419 25.8717 28.3435C25.9538 28.745 26.1558 29.1138 26.452 29.4031C26.7482 29.6924 27.1254 29.8893 27.5359 29.9689C27.9465 30.0486 28.3719 30.0073 28.7585 29.8504C29.1451 29.6935 29.4755 29.428 29.7079 29.0874C29.9404 28.7468 30.0644 28.3465 30.0644 27.937H30.064ZM37.1174 27.937C37.1172 27.8691 37.1134 27.8014 37.1061 27.7339C37.0994 27.6663 37.0891 27.5989 37.0752 27.5323C37.0625 27.4659 37.0455 27.4004 37.0242 27.3362C37.0046 27.2713 36.9806 27.2078 36.9552 27.1443C36.9298 27.0807 36.8988 27.0213 36.8663 26.962C36.8341 26.9022 36.7987 26.8442 36.7605 26.788C36.7219 26.7312 36.6804 26.6763 36.6361 26.6236C36.5926 26.5708 36.546 26.5206 36.4965 26.4731C36.4486 26.4247 36.3963 26.3792 36.3427 26.335C36.2889 26.2935 36.2325 26.2521 36.1746 26.2148C36.1172 26.1774 36.0579 26.1428 35.9969 26.1113C35.9361 26.0795 35.8727 26.0505 35.8091 26.0243C35.7455 25.9982 35.6806 25.9756 35.6145 25.9566C35.4825 25.9151 35.3461 25.8882 35.208 25.8765C35.0007 25.8569 34.7916 25.8667 34.5871 25.9055C34.519 25.9191 34.4517 25.9361 34.3854 25.9566C34.3192 25.9756 34.2542 25.9982 34.1906 26.0243C34.1271 26.0505 34.0636 26.0795 34.0029 26.1113C33.9422 26.143 33.883 26.1775 33.825 26.2148C33.7091 26.2901 33.6014 26.3766 33.5033 26.4731C33.4538 26.5206 33.4071 26.5709 33.3635 26.6236C33.3198 26.6763 33.2788 26.7312 33.2408 26.788C33.202 26.8441 33.1662 26.9022 33.1336 26.962C33.101 27.0211 33.0717 27.082 33.0459 27.1443C33.0191 27.207 32.9956 27.2711 32.9754 27.3362C32.9557 27.3997 32.9388 27.466 32.9247 27.5323C32.9108 27.599 32.9003 27.6663 32.8935 27.7339C32.8866 27.8016 32.8836 27.8693 32.8836 27.937C32.8836 28.0046 32.8866 28.0737 32.8935 28.1413C32.9004 28.2086 32.9109 28.2754 32.9247 28.3416C32.9388 28.4079 32.9557 28.4742 32.9754 28.5391C32.9956 28.6037 33.0191 28.6673 33.0459 28.7297C33.0717 28.7924 33.101 28.8537 33.1336 28.9133C33.1659 28.9727 33.2027 29.0307 33.2408 29.0873C33.2788 29.1437 33.3198 29.1981 33.3635 29.2503C33.4074 29.3032 33.4541 29.3539 33.5033 29.4022C33.5527 29.4492 33.6035 29.4961 33.6586 29.5389C33.7116 29.5821 33.7672 29.6222 33.825 29.6591C33.883 29.6964 33.9421 29.7323 34.0029 29.764C34.1255 29.8266 34.2535 29.8783 34.3854 29.9187C34.4516 29.938 34.5193 29.9546 34.5871 29.9684C34.7231 29.9957 34.8617 30.0091 35.0006 30.0085C35.5614 30.007 36.0989 29.7892 36.4965 29.4022C36.5941 29.3053 36.6824 29.1999 36.7605 29.0873C36.7986 29.0307 36.8338 28.9727 36.8663 28.9133C36.8988 28.8539 36.9284 28.7918 36.9552 28.7297C36.982 28.6675 37.0046 28.6026 37.0242 28.5391C37.0453 28.4743 37.0624 28.4084 37.0752 28.3416C37.089 28.2754 37.0993 28.2086 37.1061 28.1413C37.1133 28.0734 37.1169 28.005 37.1169 27.9367L37.1174 27.937ZM44.1738 27.937C44.1738 27.3876 43.9508 26.8607 43.5538 26.4722C43.1568 26.0837 42.6183 25.8654 42.0569 25.8654H42.0528C41.6343 25.8662 41.2254 25.9884 40.8778 26.2165C40.5302 26.4446 40.2595 26.7684 40.0999 27.147C39.9403 27.5256 39.899 27.942 39.9811 28.3435C40.0633 28.7451 40.2652 29.1138 40.5614 29.4031C40.8577 29.6925 41.2349 29.8893 41.6454 29.969C42.0559 30.0486 42.4814 30.0073 42.868 29.8504C43.2545 29.6935 43.5849 29.428 43.8174 29.0874C44.0498 28.7468 44.1738 28.3465 44.1738 27.937Z" fill="#C22ACD"/>
<mask id="path-2-inside-1_106_460" fill="white">
<path d="M69.9669 30.8659C70.0786 33.4764 69.1275 36.0237 67.3223 37.9489C65.5171 39.8741 63.0052 41.0199 60.3377 41.1351C60.1817 41.1422 60.026 41.1457 59.8705 41.1457C59.1618 41.1453 58.4551 41.0702 57.7628 40.9219C55.7085 44.0257 53.0147 46.6757 49.8539 48.7025C46.6931 50.7293 43.1347 52.0882 39.4065 52.6922C38.9655 53.9599 38.0858 55.037 36.9193 55.7373C35.7529 56.4376 34.3731 56.7171 33.0184 56.5275C31.6637 56.3379 30.4193 55.691 29.5003 54.6988C28.5812 53.7066 28.0454 52.4314 27.9853 51.0936C27.9252 49.7558 28.3446 48.4394 29.1711 47.3721C29.9976 46.3048 31.1792 45.5537 32.5117 45.2485C33.8442 44.9432 35.2437 45.1032 36.4684 45.7006C37.6932 46.298 38.6661 47.2954 39.2191 48.5203C44.4679 47.5704 49.2097 44.8483 52.618 40.8284C56.0263 36.8084 57.8849 31.7456 57.87 26.5223C57.87 14.1823 47.6106 4.14304 35 4.14304C22.3894 4.14304 12.13 14.1823 12.13 26.5223C12.1293 30.3381 13.1259 34.0906 15.025 37.4232C15.0893 37.5332 15.1376 37.6515 15.1685 37.7746C15.3519 38.2735 15.3323 38.8223 15.1137 39.3074C14.8951 39.7926 14.4943 40.1769 13.9941 40.3809C12.7695 40.8853 11.4542 41.145 10.1255 41.1448C9.96914 41.1448 9.81244 41.1412 9.65541 41.1341C6.98902 41.0175 4.47872 39.871 2.67492 37.9459C0.87113 36.0209 -0.0789323 33.4744 0.033057 30.8649C0.0780773 29.8243 0.0529562 28.8959 0.0283997 27.9981C0.00553673 27.1528 -0.0183141 26.2786 0.0209199 25.3664C0.138012 22.8185 1.25805 20.4138 3.14645 18.6559C5.03485 16.898 7.54511 15.9233 10.1515 15.9359C14.3368 6.56547 23.8988 0 35 0C46.1012 0 55.6633 6.56547 59.8487 15.9361C62.4553 15.9215 64.9664 16.8954 66.8551 18.6533C68.7438 20.4113 69.8634 22.8167 69.9789 25.3649C70.0183 26.2785 69.9946 27.1525 69.9715 27.9978C69.9472 28.8957 69.9219 29.8246 69.9669 30.8659ZM52.7548 26.5223C52.7538 29.184 52.128 31.8099 50.9258 34.1975C49.7236 36.5851 47.9771 38.6707 45.8209 40.2933C43.6647 41.9159 41.1565 43.0322 38.4897 43.5562C35.8229 44.0802 33.0687 43.9978 30.4395 43.3154L23.2531 47.3766C22.8905 47.5815 22.4739 47.6766 22.0561 47.6498C21.6383 47.623 21.2379 47.4756 20.9057 47.2262C20.5735 46.9768 20.3244 46.6365 20.1898 46.2485C20.0552 45.8605 20.0412 45.4422 20.1497 45.0464L21.9863 38.3419C18.9447 35.1248 17.2523 30.9051 17.2459 26.5223C17.2459 16.9398 25.21 9.14451 35 9.14451C44.79 9.14451 52.7548 16.9398 52.7548 26.5223ZM30.064 26.5223C30.064 25.9729 29.841 25.446 29.444 25.0576C29.047 24.6691 28.5085 24.4508 27.9471 24.4508H27.9435C27.525 24.4516 27.1161 24.5737 26.7685 24.8018C26.4209 25.0299 26.1502 25.3537 25.9905 25.7323C25.8309 26.1109 25.7896 26.5273 25.8717 26.9288C25.9538 27.3304 26.1558 27.6992 26.452 27.9885C26.7482 28.2778 27.1254 28.4747 27.5359 28.5543C27.9465 28.634 28.3719 28.5927 28.7585 28.4358C29.1451 28.2789 29.4755 28.0134 29.7079 27.6728C29.9404 27.3322 30.064 26.9319 30.064 26.5223ZM37.1174 26.5223C37.1172 26.4545 37.1134 26.3868 37.1061 26.3193C37.0994 26.2516 37.0891 26.1843 37.0752 26.1177C37.0625 26.0513 37.0455 25.9858 37.0242 25.9216C37.0046 25.8567 36.9806 25.7932 36.9552 25.7296C36.9298 25.6661 36.8988 25.6067 36.8663 25.5473C36.834 25.4876 36.7987 25.4295 36.7604 25.3733C36.7219 25.3165 36.6804 25.2617 36.6361 25.209C36.5926 25.1562 36.546 25.1059 36.4965 25.0585C36.4486 25.0101 36.3963 24.9646 36.3427 24.9204C36.2889 24.8789 36.2325 24.8375 36.1746 24.8002C36.1172 24.7628 36.0579 24.7282 35.9969 24.6966C35.9361 24.6649 35.8727 24.6359 35.8091 24.6096C35.7455 24.5836 35.6806 24.561 35.6145 24.542C35.4825 24.5005 35.3461 24.4736 35.208 24.4619C35.0007 24.4423 34.7915 24.4521 34.5871 24.4909C34.519 24.5045 34.4517 24.5215 34.3854 24.542C34.3192 24.561 34.2542 24.5836 34.1906 24.6096C34.1271 24.6359 34.0636 24.6649 34.0029 24.6966C33.9422 24.7284 33.883 24.7629 33.825 24.8002C33.7091 24.8755 33.6013 24.962 33.5033 25.0585C33.4538 25.106 33.4071 25.1562 33.3635 25.209C33.3198 25.2617 33.2788 25.3166 33.2408 25.3733C33.202 25.4295 33.1662 25.4876 33.1336 25.5473C33.101 25.6065 33.0717 25.6674 33.0459 25.7296C33.0191 25.7924 32.9956 25.8565 32.9754 25.9216C32.9557 25.9851 32.9388 26.0514 32.9247 26.1177C32.9107 26.1843 32.9003 26.2516 32.8935 26.3193C32.8866 26.387 32.8836 26.4547 32.8836 26.5223C32.8836 26.59 32.8866 26.6591 32.8935 26.7267C32.9004 26.794 32.9109 26.8608 32.9247 26.927C32.9388 26.9933 32.9557 27.0596 32.9754 27.1245C32.9956 27.1891 33.0191 27.2527 33.0459 27.315C33.0717 27.3778 33.101 27.4391 33.1336 27.4987C33.1659 27.5581 33.2027 27.6161 33.2408 27.6727C33.2788 27.7291 33.3198 27.7834 33.3635 27.8357C33.4074 27.8886 33.4541 27.9393 33.5033 27.9876C33.5527 28.0346 33.6035 28.0815 33.6586 28.1243C33.7116 28.1674 33.7672 28.2076 33.825 28.2445C33.883 28.2818 33.9421 28.3177 34.0029 28.3494C34.1255 28.4119 34.2535 28.4637 34.3854 28.5041C34.4516 28.5234 34.5193 28.54 34.5871 28.5538C34.7231 28.5811 34.8617 28.5945 35.0006 28.5939C35.5613 28.5924 36.0989 28.3745 36.4965 27.9876C36.5941 27.8907 36.6824 27.7853 36.7604 27.6727C36.7986 27.6161 36.8338 27.5581 36.8663 27.4987C36.8988 27.4393 36.9284 27.3772 36.9552 27.315C36.982 27.2529 37.0046 27.188 37.0242 27.1245C37.0453 27.0597 37.0624 26.9938 37.0752 26.927C37.089 26.8608 37.0993 26.794 37.1061 26.7267C37.1133 26.6587 37.1173 26.5907 37.1174 26.5223ZM44.1738 26.5223C44.1738 25.9729 43.9508 25.446 43.5538 25.0576C43.1568 24.6691 42.6183 24.4508 42.0569 24.4508H42.0528C41.6343 24.4516 41.2254 24.5738 40.8778 24.8019C40.5302 25.03 40.2595 25.3538 40.0999 25.7324C39.9403 26.111 39.899 26.5274 39.9811 26.9289C40.0633 27.3305 40.2652 27.6992 40.5614 27.9885C40.8577 28.2778 41.2349 28.4747 41.6454 28.5543C42.0559 28.6339 42.4814 28.5927 42.868 28.4358C43.2545 28.2789 43.5849 28.0134 43.8174 27.6728C44.0498 27.3322 44.1738 26.9319 44.1738 26.5223Z"/>
</mask>
<path d="M69.9669 30.8659C70.0786 33.4764 69.1275 36.0237 67.3223 37.9489C65.5171 39.8741 63.0052 41.0199 60.3377 41.1351C60.1817 41.1422 60.026 41.1457 59.8705 41.1457C59.1618 41.1453 58.4551 41.0702 57.7628 40.9219C55.7085 44.0257 53.0147 46.6757 49.8539 48.7025C46.6931 50.7293 43.1347 52.0882 39.4065 52.6922C38.9655 53.9599 38.0858 55.037 36.9193 55.7373C35.7529 56.4376 34.3731 56.7171 33.0184 56.5275C31.6637 56.3379 30.4193 55.691 29.5003 54.6988C28.5812 53.7066 28.0454 52.4314 27.9853 51.0936C27.9252 49.7558 28.3446 48.4394 29.1711 47.3721C29.9976 46.3048 31.1792 45.5537 32.5117 45.2485C33.8442 44.9432 35.2437 45.1032 36.4684 45.7006C37.6932 46.298 38.6661 47.2954 39.2191 48.5203C44.4679 47.5704 49.2097 44.8483 52.618 40.8284C56.0263 36.8084 57.8849 31.7456 57.87 26.5223C57.87 14.1823 47.6106 4.14304 35 4.14304C22.3894 4.14304 12.13 14.1823 12.13 26.5223C12.1293 30.3381 13.1259 34.0906 15.025 37.4232C15.0893 37.5332 15.1376 37.6515 15.1685 37.7746C15.3519 38.2735 15.3323 38.8223 15.1137 39.3074C14.8951 39.7926 14.4943 40.1769 13.9941 40.3809C12.7695 40.8853 11.4542 41.145 10.1255 41.1448C9.96914 41.1448 9.81244 41.1412 9.65541 41.1341C6.98902 41.0175 4.47872 39.871 2.67492 37.9459C0.87113 36.0209 -0.0789323 33.4744 0.033057 30.8649C0.0780773 29.8243 0.0529562 28.8959 0.0283997 27.9981C0.00553673 27.1528 -0.0183141 26.2786 0.0209199 25.3664C0.138012 22.8185 1.25805 20.4138 3.14645 18.6559C5.03485 16.898 7.54511 15.9233 10.1515 15.9359C14.3368 6.56547 23.8988 0 35 0C46.1012 0 55.6633 6.56547 59.8487 15.9361C62.4553 15.9215 64.9664 16.8954 66.8551 18.6533C68.7438 20.4113 69.8634 22.8167 69.9789 25.3649C70.0183 26.2785 69.9946 27.1525 69.9715 27.9978C69.9472 28.8957 69.9219 29.8246 69.9669 30.8659ZM52.7548 26.5223C52.7538 29.184 52.128 31.8099 50.9258 34.1975C49.7236 36.5851 47.9771 38.6707 45.8209 40.2933C43.6647 41.9159 41.1565 43.0322 38.4897 43.5562C35.8229 44.0802 33.0687 43.9978 30.4395 43.3154L23.2531 47.3766C22.8905 47.5815 22.4739 47.6766 22.0561 47.6498C21.6383 47.623 21.2379 47.4756 20.9057 47.2262C20.5735 46.9768 20.3244 46.6365 20.1898 46.2485C20.0552 45.8605 20.0412 45.4422 20.1497 45.0464L21.9863 38.3419C18.9447 35.1248 17.2523 30.9051 17.2459 26.5223C17.2459 16.9398 25.21 9.14451 35 9.14451C44.79 9.14451 52.7548 16.9398 52.7548 26.5223ZM30.064 26.5223C30.064 25.9729 29.841 25.446 29.444 25.0576C29.047 24.6691 28.5085 24.4508 27.9471 24.4508H27.9435C27.525 24.4516 27.1161 24.5737 26.7685 24.8018C26.4209 25.0299 26.1502 25.3537 25.9905 25.7323C25.8309 26.1109 25.7896 26.5273 25.8717 26.9288C25.9538 27.3304 26.1558 27.6992 26.452 27.9885C26.7482 28.2778 27.1254 28.4747 27.5359 28.5543C27.9465 28.634 28.3719 28.5927 28.7585 28.4358C29.1451 28.2789 29.4755 28.0134 29.7079 27.6728C29.9404 27.3322 30.064 26.9319 30.064 26.5223ZM37.1174 26.5223C37.1172 26.4545 37.1134 26.3868 37.1061 26.3193C37.0994 26.2516 37.0891 26.1843 37.0752 26.1177C37.0625 26.0513 37.0455 25.9858 37.0242 25.9216C37.0046 25.8567 36.9806 25.7932 36.9552 25.7296C36.9298 25.6661 36.8988 25.6067 36.8663 25.5473C36.834 25.4876 36.7987 25.4295 36.7604 25.3733C36.7219 25.3165 36.6804 25.2617 36.6361 25.209C36.5926 25.1562 36.546 25.1059 36.4965 25.0585C36.4486 25.0101 36.3963 24.9646 36.3427 24.9204C36.2889 24.8789 36.2325 24.8375 36.1746 24.8002C36.1172 24.7628 36.0579 24.7282 35.9969 24.6966C35.9361 24.6649 35.8727 24.6359 35.8091 24.6096C35.7455 24.5836 35.6806 24.561 35.6145 24.542C35.4825 24.5005 35.3461 24.4736 35.208 24.4619C35.0007 24.4423 34.7915 24.4521 34.5871 24.4909C34.519 24.5045 34.4517 24.5215 34.3854 24.542C34.3192 24.561 34.2542 24.5836 34.1906 24.6096C34.1271 24.6359 34.0636 24.6649 34.0029 24.6966C33.9422 24.7284 33.883 24.7629 33.825 24.8002C33.7091 24.8755 33.6013 24.962 33.5033 25.0585C33.4538 25.106 33.4071 25.1562 33.3635 25.209C33.3198 25.2617 33.2788 25.3166 33.2408 25.3733C33.202 25.4295 33.1662 25.4876 33.1336 25.5473C33.101 25.6065 33.0717 25.6674 33.0459 25.7296C33.0191 25.7924 32.9956 25.8565 32.9754 25.9216C32.9557 25.9851 32.9388 26.0514 32.9247 26.1177C32.9107 26.1843 32.9003 26.2516 32.8935 26.3193C32.8866 26.387 32.8836 26.4547 32.8836 26.5223C32.8836 26.59 32.8866 26.6591 32.8935 26.7267C32.9004 26.794 32.9109 26.8608 32.9247 26.927C32.9388 26.9933 32.9557 27.0596 32.9754 27.1245C32.9956 27.1891 33.0191 27.2527 33.0459 27.315C33.0717 27.3778 33.101 27.4391 33.1336 27.4987C33.1659 27.5581 33.2027 27.6161 33.2408 27.6727C33.2788 27.7291 33.3198 27.7834 33.3635 27.8357C33.4074 27.8886 33.4541 27.9393 33.5033 27.9876C33.5527 28.0346 33.6035 28.0815 33.6586 28.1243C33.7116 28.1674 33.7672 28.2076 33.825 28.2445C33.883 28.2818 33.9421 28.3177 34.0029 28.3494C34.1255 28.4119 34.2535 28.4637 34.3854 28.5041C34.4516 28.5234 34.5193 28.54 34.5871 28.5538C34.7231 28.5811 34.8617 28.5945 35.0006 28.5939C35.5613 28.5924 36.0989 28.3745 36.4965 27.9876C36.5941 27.8907 36.6824 27.7853 36.7604 27.6727C36.7986 27.6161 36.8338 27.5581 36.8663 27.4987C36.8988 27.4393 36.9284 27.3772 36.9552 27.315C36.982 27.2529 37.0046 27.188 37.0242 27.1245C37.0453 27.0597 37.0624 26.9938 37.0752 26.927C37.089 26.8608 37.0993 26.794 37.1061 26.7267C37.1133 26.6587 37.1173 26.5907 37.1174 26.5223ZM44.1738 26.5223C44.1738 25.9729 43.9508 25.446 43.5538 25.0576C43.1568 24.6691 42.6183 24.4508 42.0569 24.4508H42.0528C41.6343 24.4516 41.2254 24.5738 40.8778 24.8019C40.5302 25.03 40.2595 25.3538 40.0999 25.7324C39.9403 26.111 39.899 26.5274 39.9811 26.9289C40.0633 27.3305 40.2652 27.6992 40.5614 27.9885C40.8577 28.2778 41.2349 28.4747 41.6454 28.5543C42.0559 28.6339 42.4814 28.5927 42.868 28.4358C43.2545 28.2789 43.5849 28.0134 43.8174 27.6728C44.0498 27.3322 44.1738 26.9319 44.1738 26.5223Z" fill="url(#paint0_radial_106_460)" stroke="url(#paint1_linear_106_460)" stroke-width="1.6" mask="url(#path-2-inside-1_106_460)"/>
<defs>
<radialGradient id="paint0_radial_106_460" cx="0" cy="0" r="1" gradientUnits="userSpaceOnUse" gradientTransform="translate(11.2 55.1707) rotate(13.707) scale(41.7902 52.7228)">
<stop stop-color="#F7A0FF"/>
<stop offset="1" stop-color="white"/>
</radialGradient>
<linearGradient id="paint1_linear_106_460" x1="35" y1="0" x2="12.9073" y2="55.013" gradientUnits="userSpaceOnUse">
<stop stop-color="#F153FF" stop-opacity="0"/>
<stop offset="1" stop-color="#F153FF"/>
</linearGradient>
</defs>
</svg>
