<svg width="50" height="51" viewBox="0 0 50 51" fill="none" xmlns="http://www.w3.org/2000/svg">
<path fill-rule="evenodd" clip-rule="evenodd" d="M25.9728 12.8569C26.5106 12.387 27.2059 12.1289 27.9297 12.1289C29.5462 12.1289 30.8594 13.4178 30.8594 15.0012C30.8594 16.5846 29.5462 17.8734 27.9297 17.8734C27.2059 17.8734 26.5106 17.6154 25.9728 17.1456C25.0396 16.3252 23.5352 16.9743 23.5352 18.2185V25.054H18.9547C19.0776 24.5884 19.1406 24.106 19.1406 23.6179C19.1406 20.4497 16.5113 17.8734 13.2812 17.8734C10.0512 17.8734 7.42188 20.4497 7.42188 23.6179C7.42167 24.1024 7.48415 24.585 7.60781 25.054H0V6.28871C0 3.91298 1.97129 1.98035 4.39453 1.98035H23.5352V11.7839C23.5352 13.0279 25.0396 13.6773 25.9728 12.8569ZM26.4648 1.98035H45.6055C48.0287 1.98035 50 3.91298 50 6.28871V25.054H40.0004C38.7387 25.054 38.067 26.52 38.9046 27.4453C39.3909 27.9796 39.6484 28.6429 39.6484 29.3624C39.6484 30.9458 38.3353 32.2346 36.7188 32.2346C35.1022 32.2346 33.7891 30.9458 33.7891 29.3624C33.7891 28.6429 34.0466 27.9796 34.5329 27.4453C35.3456 26.5456 34.6894 25.054 33.4371 25.054H26.4648V20.5647C26.9435 20.6849 27.4356 20.7456 27.9297 20.7457C31.1598 20.7457 33.7891 18.1694 33.7891 15.0012C33.7891 11.833 31.1598 9.25669 27.9297 9.25669C27.4356 9.25671 26.9435 9.3175 26.4648 9.43765V1.98035ZM22.0703 32.2346C22.5682 32.2346 23.0603 32.2963 23.5352 32.4168V27.9262H16.5629C15.3012 27.9262 14.6296 26.4601 15.4671 25.535C15.9534 25.0006 16.2109 24.3372 16.2109 23.6178C16.2109 22.0345 14.8978 20.7456 13.2812 20.7456C11.6647 20.7456 10.3516 22.0345 10.3516 23.6178C10.3516 24.3373 10.6091 25.0006 11.0954 25.535C11.933 26.46 11.2613 27.9262 9.99961 27.9262H0V46.6915C0 49.0672 1.97129 50.9999 4.39453 50.9999H23.5352V43.5412C23.0567 43.6625 22.5645 43.7238 22.0703 43.7235C18.8402 43.7235 16.2109 41.1472 16.2109 37.979C16.2109 34.8109 18.8402 32.2346 22.0703 32.2346ZM42.5781 29.3623C42.5783 28.8778 42.5159 28.3953 42.3922 27.9262H50V46.6915C50 49.0672 48.0287 50.9999 45.6055 50.9999H26.4648V41.1963C26.4648 39.9596 24.9725 39.3028 24.0272 40.122C23.4779 40.5988 22.8027 40.8513 22.0703 40.8513C20.4538 40.8513 19.1406 39.5624 19.1406 37.979C19.1406 36.3957 20.4538 35.1068 22.0703 35.1068C22.8027 35.1068 23.4779 35.3593 24.0272 35.8361C24.9705 36.6567 26.4648 35.9981 26.4648 34.7617V27.9262H31.0677C30.9448 28.3936 30.8594 28.8713 30.8594 29.3623C30.8594 32.5305 33.4887 35.1068 36.7188 35.1068C39.9488 35.1068 42.5781 32.5305 42.5781 29.3623Z" fill="#03CC87"/>
<mask id="path-2-inside-1_106_434" fill="white">
<path fill-rule="evenodd" clip-rule="evenodd" d="M25.9728 10.8765C26.5106 10.4066 27.2059 10.1486 27.9297 10.1486C29.5462 10.1486 30.8594 11.4375 30.8594 13.0208C30.8594 14.6042 29.5462 15.8931 27.9297 15.8931C27.2059 15.8931 26.5106 15.6351 25.9728 15.1652C25.0396 14.3448 23.5352 14.994 23.5352 16.2381V23.0737H18.9547C19.0776 22.6081 19.1406 22.1257 19.1406 21.6376C19.1406 18.4694 16.5113 15.8931 13.2812 15.8931C10.0512 15.8931 7.42188 18.4694 7.42188 21.6376C7.42167 22.122 7.48415 22.6046 7.60781 23.0737H0V4.30836C0 1.93264 1.97129 0 4.39453 0H23.5352V9.80354C23.5352 11.0476 25.0396 11.6969 25.9728 10.8765ZM26.4648 0H45.6055C48.0287 0 50 1.93264 50 4.30836V23.0737H40.0004C38.7387 23.0737 38.067 24.5397 38.9046 25.4649C39.3909 25.9993 39.6484 26.6625 39.6484 27.382C39.6484 28.9654 38.3353 30.2543 36.7188 30.2543C35.1022 30.2543 33.7891 28.9654 33.7891 27.382C33.7891 26.6625 34.0466 25.9993 34.5329 25.4649C35.3456 24.5652 34.6894 23.0737 33.4371 23.0737H26.4648V18.5844C26.9435 18.7045 27.4356 18.7653 27.9297 18.7653C31.1598 18.7653 33.7891 16.189 33.7891 13.0208C33.7891 9.85265 31.1598 7.27635 27.9297 7.27635C27.4356 7.27636 26.9435 7.33716 26.4648 7.4573V0ZM22.0703 30.2543C22.5682 30.2543 23.0603 30.316 23.5352 30.4366V25.9459H16.5629C15.3012 25.9459 14.6296 24.4798 15.4671 23.5547C15.9534 23.0204 16.2109 22.357 16.2109 21.6376C16.2109 20.0542 14.8978 18.7653 13.2812 18.7653C11.6647 18.7653 10.3516 20.0542 10.3516 21.6376C10.3516 22.3571 10.6091 23.0204 11.0954 23.5547C11.933 24.4797 11.2613 25.9459 9.99961 25.9459H0V44.7112C0 47.087 1.97129 49.0196 4.39453 49.0196H23.5352V41.561C23.0567 41.6823 22.5645 41.7435 22.0703 41.7433C18.8402 41.7433 16.2109 39.167 16.2109 35.9988C16.2109 32.8306 18.8402 30.2543 22.0703 30.2543ZM42.5781 27.382C42.5783 26.8976 42.5159 26.415 42.3922 25.9459H50V44.7112C50 47.087 48.0287 49.0196 45.6055 49.0196H26.4648V39.2161C26.4648 37.9793 24.9725 37.3225 24.0272 38.1418C23.4779 38.6185 22.8027 38.871 22.0703 38.871C20.4538 38.871 19.1406 37.5821 19.1406 35.9988C19.1406 34.4154 20.4538 33.1265 22.0703 33.1265C22.8027 33.1265 23.4779 33.379 24.0272 33.8558C24.9705 34.6764 26.4648 34.0178 26.4648 32.7815V25.9459H31.0677C30.9448 26.4133 30.8594 26.891 30.8594 27.382C30.8594 30.5502 33.4887 33.1265 36.7188 33.1265C39.9488 33.1265 42.5781 30.5502 42.5781 27.382Z"/>
</mask>
<path fill-rule="evenodd" clip-rule="evenodd" d="M25.9728 10.8765C26.5106 10.4066 27.2059 10.1486 27.9297 10.1486C29.5462 10.1486 30.8594 11.4375 30.8594 13.0208C30.8594 14.6042 29.5462 15.8931 27.9297 15.8931C27.2059 15.8931 26.5106 15.6351 25.9728 15.1652C25.0396 14.3448 23.5352 14.994 23.5352 16.2381V23.0737H18.9547C19.0776 22.6081 19.1406 22.1257 19.1406 21.6376C19.1406 18.4694 16.5113 15.8931 13.2812 15.8931C10.0512 15.8931 7.42188 18.4694 7.42188 21.6376C7.42167 22.122 7.48415 22.6046 7.60781 23.0737H0V4.30836C0 1.93264 1.97129 0 4.39453 0H23.5352V9.80354C23.5352 11.0476 25.0396 11.6969 25.9728 10.8765ZM26.4648 0H45.6055C48.0287 0 50 1.93264 50 4.30836V23.0737H40.0004C38.7387 23.0737 38.067 24.5397 38.9046 25.4649C39.3909 25.9993 39.6484 26.6625 39.6484 27.382C39.6484 28.9654 38.3353 30.2543 36.7188 30.2543C35.1022 30.2543 33.7891 28.9654 33.7891 27.382C33.7891 26.6625 34.0466 25.9993 34.5329 25.4649C35.3456 24.5652 34.6894 23.0737 33.4371 23.0737H26.4648V18.5844C26.9435 18.7045 27.4356 18.7653 27.9297 18.7653C31.1598 18.7653 33.7891 16.189 33.7891 13.0208C33.7891 9.85265 31.1598 7.27635 27.9297 7.27635C27.4356 7.27636 26.9435 7.33716 26.4648 7.4573V0ZM22.0703 30.2543C22.5682 30.2543 23.0603 30.316 23.5352 30.4366V25.9459H16.5629C15.3012 25.9459 14.6296 24.4798 15.4671 23.5547C15.9534 23.0204 16.2109 22.357 16.2109 21.6376C16.2109 20.0542 14.8978 18.7653 13.2812 18.7653C11.6647 18.7653 10.3516 20.0542 10.3516 21.6376C10.3516 22.3571 10.6091 23.0204 11.0954 23.5547C11.933 24.4797 11.2613 25.9459 9.99961 25.9459H0V44.7112C0 47.087 1.97129 49.0196 4.39453 49.0196H23.5352V41.561C23.0567 41.6823 22.5645 41.7435 22.0703 41.7433C18.8402 41.7433 16.2109 39.167 16.2109 35.9988C16.2109 32.8306 18.8402 30.2543 22.0703 30.2543ZM42.5781 27.382C42.5783 26.8976 42.5159 26.415 42.3922 25.9459H50V44.7112C50 47.087 48.0287 49.0196 45.6055 49.0196H26.4648V39.2161C26.4648 37.9793 24.9725 37.3225 24.0272 38.1418C23.4779 38.6185 22.8027 38.871 22.0703 38.871C20.4538 38.871 19.1406 37.5821 19.1406 35.9988C19.1406 34.4154 20.4538 33.1265 22.0703 33.1265C22.8027 33.1265 23.4779 33.379 24.0272 33.8558C24.9705 34.6764 26.4648 34.0178 26.4648 32.7815V25.9459H31.0677C30.9448 26.4133 30.8594 26.891 30.8594 27.382C30.8594 30.5502 33.4887 33.1265 36.7188 33.1265C39.9488 33.1265 42.5781 30.5502 42.5781 27.382Z" fill="url(#paint0_radial_106_434)"/>
<path d="M25.9728 10.8765L25.6438 10.5L25.6426 10.501L25.9728 10.8765ZM25.9728 15.1652L25.6426 15.5408L25.6438 15.5418L25.9728 15.1652ZM23.5352 23.0737V23.5737H24.0352V23.0737H23.5352ZM18.9547 23.0737L18.4713 22.946L18.3055 23.5737H18.9547V23.0737ZM7.42188 21.6376L7.92188 21.6378V21.6376H7.42188ZM7.60781 23.0737V23.5737H8.25671L8.09129 22.9462L7.60781 23.0737ZM0 23.0737H-0.5V23.5737H0V23.0737ZM23.5352 0H24.0352V-0.5H23.5352V0ZM26.4648 0V-0.5H25.9648V0H26.4648ZM50 23.0737V23.5737H50.5V23.0737H50ZM38.9046 25.4649L38.5339 25.8005L38.5348 25.8015L38.9046 25.4649ZM34.5329 25.4649L34.9027 25.8015L34.9039 25.8001L34.5329 25.4649ZM26.4648 23.0737H25.9648V23.5737H26.4648V23.0737ZM26.4648 18.5844L26.5866 18.0994L25.9648 17.9434V18.5844H26.4648ZM27.9297 18.7653L27.9297 19.2653H27.9297V18.7653ZM27.9297 7.27635V6.77635H27.9297L27.9297 7.27635ZM26.4648 7.4573H25.9648V8.09831L26.5866 7.94226L26.4648 7.4573ZM23.5352 30.4366L23.4121 30.9212L24.0352 31.0793V30.4366H23.5352ZM23.5352 25.9459H24.0352V25.4459H23.5352V25.9459ZM15.4671 23.5547L15.0973 23.2181L15.0964 23.2191L15.4671 23.5547ZM11.0954 23.5547L11.4661 23.2191L11.4652 23.2181L11.0954 23.5547ZM0 25.9459V25.4459H-0.5V25.9459H0ZM23.5352 49.0196V49.5196H24.0352V49.0196H23.5352ZM23.5352 41.561H24.0352V40.9184L23.4123 41.0763L23.5352 41.561ZM22.0703 41.7433L22.0706 41.2433H22.0703V41.7433ZM42.3922 25.9459V25.4459H41.7433L41.9087 26.0734L42.3922 25.9459ZM42.5781 27.382L42.0781 27.3818V27.382H42.5781ZM50 25.9459H50.5V25.4459H50V25.9459ZM26.4648 49.0196H25.9648V49.5196H26.4648V49.0196ZM24.0272 38.1418L23.6998 37.7639L23.6995 37.7642L24.0272 38.1418ZM24.0272 33.8558L24.3554 33.4786L24.355 33.4782L24.0272 33.8558ZM26.4648 25.9459V25.4459H25.9648V25.9459H26.4648ZM31.0677 25.9459L31.5513 26.073L31.7161 25.4459H31.0677V25.9459ZM27.9297 9.64859C27.0871 9.64859 26.2745 9.94903 25.6438 10.5L26.3017 11.2531C26.7468 10.8642 27.3246 10.6486 27.9297 10.6486V9.64859ZM31.3594 13.0208C31.3594 11.1522 29.8131 9.64859 27.9297 9.64859V10.6486C29.2793 10.6486 30.3594 11.7227 30.3594 13.0208H31.3594ZM27.9297 16.3931C29.8131 16.3931 31.3594 14.8895 31.3594 13.0208H30.3594C30.3594 14.3189 29.2793 15.3931 27.9297 15.3931V16.3931ZM25.6438 15.5418C26.2745 16.0926 27.0871 16.3931 27.9297 16.3931V15.3931C27.3246 15.3931 26.7468 15.1775 26.3017 14.7887L25.6438 15.5418ZM24.0352 16.2381C24.0352 15.445 25.0167 14.9905 25.6426 15.5408L26.3029 14.7897C25.0624 13.6992 23.0352 14.5429 23.0352 16.2381H24.0352ZM24.0352 23.0737V16.2381H23.0352V23.0737H24.0352ZM18.9547 23.5737H23.5352V22.5737H18.9547V23.5737ZM18.6406 21.6376C18.6406 22.0826 18.5832 22.5221 18.4713 22.946L19.4381 23.2013C19.5721 22.694 19.6406 22.1687 19.6406 21.6376H18.6406ZM13.2812 16.3931C16.2446 16.3931 18.6406 18.7549 18.6406 21.6376H19.6406C19.6406 18.1839 16.778 15.3931 13.2812 15.3931V16.3931ZM7.92188 21.6376C7.92188 18.7549 10.3179 16.3931 13.2812 16.3931V15.3931C9.78449 15.3931 6.92188 18.1839 6.92188 21.6376H7.92188ZM8.09129 22.9462C7.9786 22.5188 7.92169 22.0791 7.92188 21.6378L6.92188 21.6374C6.92165 22.165 6.9897 22.6905 7.12433 23.2011L8.09129 22.9462ZM0 23.5737H7.60781V22.5737H0V23.5737ZM-0.5 4.30836V23.0737H0.5V4.30836H-0.5ZM4.39453 -0.5C1.70453 -0.5 -0.5 1.64721 -0.5 4.30836H0.5C0.5 2.21807 2.23805 0.5 4.39453 0.5V-0.5ZM23.5352 -0.5H4.39453V0.5H23.5352V-0.5ZM24.0352 9.80354V0H23.0352V9.80354H24.0352ZM25.6426 10.501C25.0167 11.0512 24.0352 10.5967 24.0352 9.80354H23.0352C23.0352 11.4985 25.0624 12.3426 26.3029 11.252L25.6426 10.501ZM45.6055 -0.5H26.4648V0.5H45.6055V-0.5ZM50.5 4.30836C50.5 1.64721 48.2955 -0.5 45.6055 -0.5V0.5C47.7619 0.5 49.5 2.21807 49.5 4.30836H50.5ZM50.5 23.0737V4.30836H49.5V23.0737H50.5ZM40.0004 23.5737H50V22.5737H40.0004V23.5737ZM39.2753 25.1294C38.742 24.5403 39.1522 23.5737 40.0004 23.5737V22.5737C38.3251 22.5737 37.392 24.5391 38.5339 25.8005L39.2753 25.1294ZM40.1484 27.382C40.1484 26.5374 39.844 25.7542 39.2744 25.1284L38.5348 25.8015C38.9378 26.2443 39.1484 26.7877 39.1484 27.382H40.1484ZM36.7188 30.7543C38.6022 30.7543 40.1484 29.2507 40.1484 27.382H39.1484C39.1484 28.6801 38.0683 29.7543 36.7188 29.7543V30.7543ZM33.2891 27.382C33.2891 29.2507 34.8353 30.7543 36.7188 30.7543V29.7543C35.3692 29.7543 34.2891 28.6801 34.2891 27.382H33.2891ZM34.1631 25.1284C33.5935 25.7542 33.2891 26.5374 33.2891 27.382H34.2891C34.2891 26.7877 34.4997 26.2443 34.9027 25.8015L34.1631 25.1284ZM33.4371 23.5737C34.2656 23.5737 34.6777 24.5587 34.1619 25.1298L34.9039 25.8001C36.0135 24.5718 35.1131 22.5737 33.4371 22.5737V23.5737ZM26.4648 23.5737H33.4371V22.5737H26.4648V23.5737ZM25.9648 18.5844V23.0737H26.9648V18.5844H25.9648ZM27.9297 18.2653C27.4766 18.2653 27.0254 18.2096 26.5866 18.0994L26.3431 19.0693C26.8616 19.1995 27.3946 19.2653 27.9297 19.2653L27.9297 18.2653ZM33.2891 13.0208C33.2891 15.9035 30.8931 18.2653 27.9297 18.2653V19.2653C31.4264 19.2653 34.2891 16.4745 34.2891 13.0208H33.2891ZM27.9297 7.77635C30.8931 7.77635 33.2891 10.1382 33.2891 13.0208H34.2891C34.2891 9.56714 31.4264 6.77635 27.9297 6.77635V7.77635ZM26.5866 7.94226C27.0254 7.83211 27.4766 7.77636 27.9297 7.77635L27.9297 6.77635C27.3946 6.77637 26.8616 6.8422 26.3431 6.97234L26.5866 7.94226ZM25.9648 0V7.4573H26.9648V0H25.9648ZM23.6582 29.9519C23.1429 29.8212 22.6095 29.7543 22.0703 29.7543V30.7543C22.5268 30.7543 22.9776 30.8109 23.4121 30.9212L23.6582 29.9519ZM23.0352 25.9459V30.4366H24.0352V25.9459H23.0352ZM16.5629 26.4459H23.5352V25.4459H16.5629V26.4459ZM15.0964 23.2191C13.9546 24.4804 14.8875 26.4459 16.5629 26.4459V25.4459C15.7148 25.4459 15.3046 24.4793 15.8378 23.8902L15.0964 23.2191ZM15.7109 21.6376C15.7109 22.2318 15.5003 22.7754 15.0973 23.2181L15.8369 23.8912C16.4065 23.2654 16.7109 22.4821 16.7109 21.6376H15.7109ZM13.2812 19.2653C14.6308 19.2653 15.7109 20.3395 15.7109 21.6376H16.7109C16.7109 19.7689 15.1647 18.2653 13.2812 18.2653V19.2653ZM10.8516 21.6376C10.8516 20.3395 11.9317 19.2653 13.2812 19.2653V18.2653C11.3978 18.2653 9.85156 19.7689 9.85156 21.6376H10.8516ZM11.4652 23.2181C11.0622 22.7753 10.8516 22.2319 10.8516 21.6376H9.85156C9.85156 22.4822 10.156 23.2654 10.7256 23.8912L11.4652 23.2181ZM9.99961 26.4459C11.6749 26.4459 12.6081 24.4803 11.466 23.2191L10.7248 23.8903C11.2579 24.4791 10.8478 25.4459 9.99961 25.4459V26.4459ZM0 26.4459H9.99961V25.4459H0V26.4459ZM0.5 44.7112V25.9459H-0.5V44.7112H0.5ZM4.39453 48.5196C2.23805 48.5196 0.5 46.8015 0.5 44.7112H-0.5C-0.5 47.3724 1.70453 49.5196 4.39453 49.5196V48.5196ZM23.5352 48.5196H4.39453V49.5196H23.5352V48.5196ZM23.0352 41.561V49.0196H24.0352V41.561H23.0352ZM22.0701 42.2433C22.6057 42.2435 23.1393 42.1771 23.658 42.0456L23.4123 41.0763C22.9741 41.1874 22.5233 41.2435 22.0706 41.2433L22.0701 42.2433ZM15.7109 35.9988C15.7109 39.4525 18.5736 42.2433 22.0703 42.2433V41.2433C19.1069 41.2433 16.7109 38.8814 16.7109 35.9988H15.7109ZM22.0703 29.7543C18.5736 29.7543 15.7109 32.5451 15.7109 35.9988H16.7109C16.7109 33.1161 19.1069 30.7543 22.0703 30.7543V29.7543ZM41.9087 26.0734C42.0214 26.5008 42.0783 26.9405 42.0781 27.3818L43.0781 27.3823C43.0784 26.8546 43.0103 26.3292 42.8757 25.8185L41.9087 26.0734ZM50 25.4459H42.3922V26.4459H50V25.4459ZM50.5 44.7112V25.9459H49.5V44.7112H50.5ZM45.6055 49.5196C48.2955 49.5196 50.5 47.3724 50.5 44.7112H49.5C49.5 46.8015 47.7619 48.5196 45.6055 48.5196V49.5196ZM26.4648 49.5196H45.6055V48.5196H26.4648V49.5196ZM25.9648 39.2161V49.0196H26.9648V39.2161H25.9648ZM24.3547 38.5196C24.9925 37.9668 25.9648 38.4292 25.9648 39.2161H26.9648C26.9648 37.5293 24.9524 36.6782 23.6998 37.7639L24.3547 38.5196ZM22.0703 39.371C22.9229 39.371 23.7145 39.0753 24.355 38.5194L23.6995 37.7642C23.2414 38.1618 22.6826 38.371 22.0703 38.371V39.371ZM18.6406 35.9988C18.6406 37.8674 20.1869 39.371 22.0703 39.371V38.371C20.7207 38.371 19.6406 37.2969 19.6406 35.9988H18.6406ZM22.0703 32.6265C20.1869 32.6265 18.6406 34.1301 18.6406 35.9988H19.6406C19.6406 34.7007 20.7207 33.6265 22.0703 33.6265V32.6265ZM24.355 33.4782C23.7145 32.9223 22.9229 32.6265 22.0703 32.6265V33.6265C22.6826 33.6265 23.2414 33.8357 23.6995 34.2334L24.355 33.4782ZM25.9648 32.7815C25.9648 33.5692 24.9901 34.0307 24.3554 33.4786L23.6991 34.233C24.951 35.3221 26.9648 34.4664 26.9648 32.7815H25.9648ZM25.9648 25.9459V32.7815H26.9648V25.9459H25.9648ZM31.0677 25.4459H26.4648V26.4459H31.0677V25.4459ZM31.3594 27.382C31.3594 26.9484 31.4349 26.5158 31.5513 26.073L30.5841 25.8188C30.4548 26.3108 30.3594 26.8336 30.3594 27.382H31.3594ZM36.7188 32.6265C33.7553 32.6265 31.3594 30.2647 31.3594 27.382H30.3594C30.3594 30.8357 33.222 33.6265 36.7188 33.6265V32.6265ZM42.0781 27.382C42.0781 30.2647 39.6822 32.6265 36.7188 32.6265V33.6265C40.2155 33.6265 43.0781 30.8357 43.0781 27.382H42.0781Z" fill="url(#paint1_linear_106_434)" mask="url(#path-2-inside-1_106_434)"/>
<defs>
<radialGradient id="paint0_radial_106_434" cx="0" cy="0" r="1" gradientUnits="userSpaceOnUse" gradientTransform="translate(-6.5 59.5) rotate(3.74299) scale(53.6144 53.6793)">
<stop stop-color="#00F3A0"/>
<stop offset="1" stop-color="#EDFFF9"/>
</radialGradient>
<linearGradient id="paint1_linear_106_434" x1="50" y1="0.625426" x2="0.964912" y2="49.3649" gradientUnits="userSpaceOnUse">
<stop stop-color="#00F3A0" stop-opacity="0"/>
<stop offset="1" stop-color="#00F3A0"/>
</linearGradient>
</defs>
</svg>
