<svg width="26" height="26" viewBox="0 0 26 26" fill="none" xmlns="http://www.w3.org/2000/svg">
<path d="M2.70255 11.8741C2.19082 11.8756 1.68995 12.0256 1.25788 12.3069C0.825823 12.5882 0.480228 12.9893 0.261083 13.4637C0.041937 13.938 -0.0418031 14.4664 0.0195501 14.9875C0.0809034 15.5087 0.284843 16.0014 0.607774 16.4086L7.49191 25.0594C7.73736 25.3721 8.05199 25.6202 8.40967 25.783C8.76735 25.9459 9.15774 26.0188 9.54843 25.9959C10.384 25.9498 11.1384 25.4913 11.6194 24.7374L25.9195 1.11236C25.9218 1.10844 25.9243 1.10452 25.9268 1.10066C26.0609 0.889322 26.0174 0.470508 25.7405 0.207405C25.6644 0.135154 25.5747 0.0796445 25.4769 0.0442961C25.3791 0.00894768 25.2753 -0.00549164 25.1719 0.00186772C25.0685 0.00922709 24.9676 0.0382294 24.8755 0.087088C24.7834 0.135947 24.7021 0.203627 24.6364 0.285962C24.6313 0.292435 24.626 0.298811 24.6206 0.305089L10.1988 17.0204C10.1439 17.084 10.0772 17.1358 10.0027 17.1728C9.92812 17.2097 9.84715 17.2311 9.76447 17.2357C9.68179 17.2403 9.59904 17.228 9.52104 17.1995C9.44303 17.171 9.37132 17.1269 9.31008 17.0697L4.52374 12.6016C4.02664 12.1342 3.37691 11.8746 2.70255 11.8741Z" fill="#5596FF"/>
</svg>
