<svg width="19" height="19" viewBox="0 0 19 19" fill="none" xmlns="http://www.w3.org/2000/svg">
<path d="M12.3465 9.70665C12.3807 9.77048 12.5233 9.98701 12.8299 10.1494C12.8558 10.1625 12.8827 10.1775 12.9077 10.1916C12.9142 10.1944 12.9226 10.1982 12.9272 10.2009C15.2413 11.4219 16.9421 11.9438 18.1914 12.0358C18.3359 12.0465 18.4658 11.9486 18.4956 11.8049C18.6413 11.1033 18.714 10.3692 18.714 9.61469C18.714 7.54557 18.1788 5.62569 17.1324 4.09865C16.4536 3.11404 15.5775 2.27642 14.4837 1.66015C13.1215 0.873255 11.4445 0.429688 9.45063 0.429688H1.72117C0.962127 0.429688 0.34668 1.05303 0.34668 1.82181V17.4067C0.34668 18.1757 0.962127 18.7988 1.72117 18.7988H9.45063C11.6639 18.7988 13.5354 18.2079 15.0181 17.1986C15.8441 16.6321 16.5738 15.9175 17.1322 15.0809C17.3007 14.8357 17.4557 14.5802 17.5969 14.3155C17.6739 14.1713 17.6155 13.9905 17.47 13.9187C15.3111 12.8535 13.6669 11.4747 12.703 10.5534C12.703 10.5515 12.703 10.5515 12.703 10.5515C12.6529 10.5065 12.6086 10.4671 12.5677 10.4314C12.3928 10.2841 12.2241 10.1997 12.1455 10.1659L12.1139 10.1528C11.4135 9.88004 11.0115 10.1205 10.1111 10.9557C10.1032 10.963 10.0915 10.9532 10.0971 10.944C10.9818 9.49496 10.9531 9.19994 9.81908 7.94428C9.81193 7.93635 9.82164 7.92427 9.83067 7.92996C11.2595 8.82504 11.5525 8.79691 12.7914 7.64564C12.7992 7.63839 12.811 7.64823 12.8054 7.65737C12.1962 8.65837 12.023 9.11039 12.3465 9.70665ZM14.6009 8.52518C14.293 9.03483 14.304 9.15784 14.7004 9.60037C14.7074 9.60814 14.698 9.61987 14.6892 9.61435C14.186 9.30242 14.0645 9.31363 13.6285 9.7151C13.6208 9.72218 13.6092 9.71269 13.6147 9.70372C13.9218 9.19407 13.9107 9.07106 13.5143 8.62939C13.5073 8.62162 13.5167 8.60989 13.5256 8.61541C14.0288 8.92648 14.1502 8.91527 14.5871 8.51379C14.5948 8.50672 14.6064 8.51621 14.6009 8.52518ZM11.6511 10.8395C11.537 11.0336 11.5431 11.0962 11.6913 11.2661C11.6983 11.2741 11.6888 11.2858 11.6797 11.2803C11.4871 11.1648 11.4251 11.1702 11.2576 11.3198C11.2498 11.3269 11.2382 11.3172 11.2437 11.308C11.3578 11.114 11.3517 11.0513 11.2035 10.8814C11.1965 10.8735 11.206 10.8617 11.215 10.8672C11.4077 10.9827 11.4697 10.9773 11.6371 10.8277C11.645 10.8207 11.6564 10.8303 11.6511 10.8395ZM13.3276 15.5791C12.2703 16.3736 10.9929 16.8841 9.60462 16.9995C5.22341 17.3638 1.49325 13.6786 1.74604 9.23358C1.96596 5.36776 5.13058 2.30178 9.00144 2.30178C9.12852 2.30178 9.25457 2.30506 9.37994 2.31179C9.38829 2.3123 9.39135 2.32283 9.38471 2.328C7.62252 3.67096 6.48276 5.80822 6.48276 8.21446C6.48276 12.1339 9.50804 15.3391 13.3227 15.5627C13.331 15.5633 13.3344 15.5741 13.3276 15.5791ZM11.0053 7.48812C11.1198 7.29317 11.1137 7.23037 10.9655 7.06025C10.9585 7.05232 10.968 7.04059 10.9771 7.04611C11.1697 7.16153 11.2317 7.15618 11.3995 7.00642C11.4074 6.99935 11.4189 7.00901 11.4135 7.01816C11.2992 7.21311 11.3052 7.27574 11.453 7.44482C11.46 7.45275 11.4505 7.46449 11.4414 7.45896C11.2489 7.34389 11.1869 7.34993 11.0193 7.49985C11.0113 7.50693 10.9999 7.49727 11.0053 7.48812Z" fill="white"/>
</svg>
