<svg width="24" height="24" viewBox="0 0 24 24" fill="none" xmlns="http://www.w3.org/2000/svg"> <path d="M11.9008 4.36721C11.5964 4.36721 11.3406 4.26245 11.1342 4.05294C10.9279 3.84427 10.8247 3.58536 10.8247 3.2762V1.09504C10.8247 0.785877 10.9279 0.526963 11.1342 0.3183C11.3406 0.108785 11.5964 0.00488281 11.9008 0.00488281C12.206 0.00488281 12.4618 0.108785 12.6682 0.3183C12.8745 0.526963 12.9777 0.785877 12.9777 1.09504V3.2762C12.9777 3.58536 12.8745 3.84427 12.6682 4.05294C12.4618 4.26245 12.206 4.36721 11.9008 4.36721ZM17.2315 6.60288C17.0337 6.40274 16.9348 6.15235 16.9348 5.85255C16.9348 5.55276 17.0337 5.29384 17.2315 5.07581L18.739 3.52149C18.9539 3.30346 19.2096 3.19444 19.5055 3.19444C19.8022 3.19444 20.058 3.30346 20.2729 3.52149C20.4707 3.72164 20.5688 3.97628 20.5688 4.28544C20.5688 4.59375 20.4707 4.84841 20.2729 5.04856L18.739 6.60288C18.5412 6.80218 18.2896 6.90268 17.9852 6.90268C17.68 6.90268 17.4285 6.80218 17.2315 6.60288ZM20.5151 13.091C20.2098 13.091 19.954 12.9871 19.7477 12.7776C19.5413 12.5689 19.4382 12.31 19.4382 12.0009C19.4382 11.6917 19.5413 11.4328 19.7477 11.2241C19.954 11.0146 20.2098 10.9107 20.5151 10.9107H22.6688C22.9741 10.9107 23.2299 11.0146 23.4362 11.2241C23.6426 11.4328 23.7457 11.6917 23.7457 12.0009C23.7457 12.31 23.6426 12.5689 23.4362 12.7776C23.2299 12.9871 22.9741 13.091 22.6688 13.091H20.5151ZM11.9008 23.9968C11.5964 23.9968 11.3406 23.893 11.1342 23.6834C10.9279 23.4748 10.8247 23.2159 10.8247 22.9067V20.7255C10.8247 20.4164 10.9279 20.1575 11.1342 19.9488C11.3406 19.7393 11.5964 19.6345 11.9008 19.6345C12.206 19.6345 12.4618 19.7393 12.6682 19.9488C12.8745 20.1575 12.9777 20.4164 12.9777 20.7255V22.9067C12.9777 23.2159 12.8745 23.4748 12.6682 23.6834C12.4618 23.893 12.206 23.9968 11.9008 23.9968ZM5.06339 6.60288L3.52947 5.07581C3.31375 4.85778 3.20632 4.59375 3.20632 4.28544C3.20632 3.97628 3.31375 3.72164 3.52947 3.52149C3.72643 3.32134 3.97796 3.22169 4.28321 3.22169C4.58846 3.22169 4.83914 3.32134 5.03695 3.52149L6.57087 5.07581C6.76869 5.27596 6.86759 5.52976 6.86759 5.83892C6.86759 6.14808 6.76869 6.40274 6.57087 6.60288C6.35601 6.80218 6.10447 6.90268 5.81713 6.90268C5.53064 6.90268 5.27911 6.80218 5.06339 6.60288ZM18.739 20.4802L17.2315 18.9259C17.0337 18.7079 16.9348 18.449 16.9348 18.1492C16.9348 17.8494 17.0337 17.599 17.2315 17.3989C17.4285 17.1996 17.6749 17.099 17.9716 17.099C18.2675 17.099 18.5233 17.1996 18.739 17.3989L20.2729 18.9259C20.4886 19.1261 20.5918 19.3807 20.5824 19.689C20.5739 19.9982 20.4707 20.2622 20.2729 20.4802C20.058 20.6983 19.7971 20.8073 19.4927 20.8073C19.1875 20.8073 18.936 20.6983 18.739 20.4802ZM1.13353 13.091C0.828286 13.091 0.572497 12.9871 0.366157 12.7776C0.159816 12.5689 0.0566406 12.31 0.0566406 12.0009C0.0566406 11.6917 0.159816 11.4328 0.366157 11.2241C0.572497 11.0146 0.828286 10.9107 1.13353 10.9107H3.28732C3.59171 10.9107 3.84752 11.0146 4.05386 11.2241C4.2602 11.4328 4.36335 11.6917 4.36335 12.0009C4.36335 12.31 4.2602 12.5689 4.05386 12.7776C3.84752 12.9871 3.59171 13.091 3.28732 13.091H1.13353ZM3.52947 20.4802C3.33165 20.2801 3.23275 20.0254 3.23275 19.7163C3.23275 19.408 3.33165 19.1533 3.52947 18.9532L5.06339 17.3989C5.2612 17.1996 5.50763 17.099 5.8035 17.099C6.10022 17.099 6.35601 17.1996 6.57087 17.3989C6.78659 17.6177 6.89402 17.8766 6.89402 18.1764C6.89402 18.4762 6.78659 18.7351 6.57087 18.9532L5.06339 20.4802C4.84852 20.6983 4.58846 20.8073 4.28321 20.8073C3.97796 20.8073 3.72643 20.6983 3.52947 20.4802ZM11.9008 18.5444C10.1068 18.5444 8.58142 17.9082 7.32462 16.6357C6.06867 15.3633 5.44025 13.8184 5.44025 12.0009C5.44025 10.1834 6.06867 8.63841 7.32462 7.36599C8.58142 6.09357 10.1068 5.45737 11.9008 5.45737C13.6956 5.45737 15.221 6.09357 16.4778 7.36599C17.7337 8.63841 18.3621 10.1834 18.3621 12.0009C18.3621 13.8184 17.7337 15.3633 16.4778 16.6357C15.221 17.9082 13.6956 18.5444 11.9008 18.5444Z" fill="#8E7BFF"/> </svg>