<svg width="50" height="50" viewBox="0 0 50 50" fill="none" xmlns="http://www.w3.org/2000/svg">
<g clip-path="url(#clip0_1143_240)">
<path d="M32.6658 25.2482C32.759 25.4197 33.1471 26.0017 33.9818 26.438C34.0523 26.4733 34.1255 26.5136 34.1937 26.5516C34.2113 26.5591 34.2341 26.5693 34.2466 26.5767C40.546 29.8583 45.1761 31.261 48.577 31.5082C48.9702 31.537 49.324 31.274 49.4051 30.8878C49.8016 29.0019 49.9996 27.0288 49.9996 25.001C49.9996 19.4398 48.5426 14.2797 45.6941 10.1754C43.8462 7.52902 41.4614 5.27772 38.4839 3.62136C34.7757 1.5064 30.2105 0.314209 24.7828 0.314209H3.74165C1.67537 0.314209 0 1.98958 0 4.05586V45.9439C0 48.0106 1.67537 49.6855 3.74165 49.6855H24.7828C30.8077 49.6855 35.9025 48.0973 39.9386 45.3846C42.1871 43.8618 44.1736 41.9411 45.6936 39.6926C46.1522 39.0337 46.5742 38.347 46.9586 37.6356C47.1682 37.248 47.0092 36.762 46.6132 36.5691C40.7361 33.7062 36.2605 30.0002 33.6363 27.524C33.6363 27.5189 33.6363 27.5189 33.6363 27.5189C33.5 27.3979 33.3794 27.2922 33.2682 27.1962C32.7919 26.8002 32.3329 26.5734 32.1186 26.4826L32.0328 26.4473C30.1261 25.7142 29.0317 26.3606 26.5806 28.6054C26.5593 28.6249 26.5273 28.5984 26.5426 28.5739C28.951 24.6792 28.8727 23.8863 25.7858 20.5114C25.7663 20.4901 25.7927 20.4576 25.8173 20.4729C29.7069 22.8786 30.5045 22.803 33.877 19.7087C33.8983 19.6893 33.9303 19.7157 33.915 19.7403C32.2568 22.4307 31.7852 23.6456 32.6658 25.2482ZM38.803 22.0727C37.9646 23.4425 37.9947 23.7731 39.0738 24.9625C39.0928 24.9834 39.0673 25.0149 39.0432 25.0001C37.6734 24.1617 37.3427 24.1918 36.1557 25.2709C36.1348 25.2899 36.1033 25.2644 36.1181 25.2403C36.9542 23.8705 36.924 23.5399 35.845 22.3528C35.826 22.3319 35.8515 22.3004 35.8756 22.3152C37.2454 23.1513 37.576 23.1211 38.7654 22.0421C38.7863 22.0231 38.8178 22.0486 38.803 22.0727ZM30.773 28.2929C30.4623 28.8145 30.479 28.9829 30.8824 29.4396C30.9014 29.4609 30.8754 29.4925 30.8509 29.4776C30.3264 29.1674 30.1576 29.1818 29.7018 29.5838C29.6805 29.6028 29.6489 29.5769 29.6638 29.5523C29.9744 29.0306 29.9578 28.8623 29.5543 28.4055C29.5353 28.3842 29.5613 28.3527 29.5859 28.3675C30.1103 28.6777 30.2791 28.6634 30.7349 28.2613C30.7563 28.2423 30.7873 28.2683 30.773 28.2929ZM35.3367 41.0318C32.4585 43.1672 28.9812 44.5393 25.202 44.8495C13.2755 45.8284 3.12121 35.9236 3.80935 23.9767C4.40799 13.5864 13.0227 5.34589 23.56 5.34589C23.9059 5.34589 24.2491 5.3547 24.5904 5.37278C24.6131 5.37417 24.6214 5.40246 24.6033 5.41637C19.8063 9.02586 16.7036 14.7703 16.7036 21.2376C16.7036 31.7721 24.9391 40.3868 35.3233 40.9878C35.346 40.9892 35.3553 41.0184 35.3367 41.0318ZM29.015 19.2854C29.3267 18.7614 29.31 18.5926 28.9065 18.1354C28.8875 18.114 28.9135 18.0825 28.9381 18.0974C29.4625 18.4076 29.6313 18.3932 30.0881 17.9907C30.1094 17.9717 30.1409 17.9977 30.1261 18.0222C29.8149 18.5462 29.8312 18.7145 30.2337 19.169C30.2527 19.1903 30.2267 19.2218 30.2021 19.207C29.6781 18.8977 29.5094 18.9139 29.0531 19.3169C29.0313 19.3359 29.0002 19.3099 29.015 19.2854Z" fill="#443A96"/>
</g>
<defs>
<clipPath id="clip0_1143_240">
<rect width="50" height="50" fill="white"/>
</clipPath>
</defs>
</svg>
