<svg width="541" height="26" viewBox="0 0 541 26" fill="none" xmlns="http://www.w3.org/2000/svg">
<path d="M187.552 1.00513H180.439C179.953 1.00513 179.538 1.35837 179.463 1.83966L176.587 20.0758C176.529 20.4349 176.807 20.7616 177.173 20.7616H180.822C181.162 20.7616 181.452 20.5144 181.505 20.1773L182.32 15.0067C182.395 14.5269 182.81 14.1722 183.296 14.1722H185.547C190.233 14.1722 192.937 11.9056 193.643 7.41204C193.961 5.44713 193.657 3.90318 192.736 2.82138C191.724 1.6336 189.931 1.00513 187.552 1.00513ZM188.373 7.6652C187.985 10.2188 186.034 10.2188 184.149 10.2188H183.075L183.828 5.45303C183.873 5.16455 184.122 4.9526 184.414 4.9526H184.905C186.189 4.9526 187.402 4.9526 188.027 5.68411C188.401 6.11977 188.515 6.76885 188.373 7.6652Z" fill="#009ADE"/>
<path d="M136.815 1.00513H129.702C129.216 1.00513 128.801 1.35837 128.726 1.83966L125.85 20.0758C125.792 20.4349 126.07 20.7616 126.435 20.7616H129.831C130.317 20.7616 130.732 20.4084 130.807 19.9271L131.583 15.0067C131.658 14.5269 132.073 14.1722 132.559 14.1722H134.81C139.495 14.1722 142.2 11.9056 142.906 7.41204C143.224 5.44713 142.919 3.90318 141.999 2.82138C140.987 1.6336 139.194 1.00513 136.815 1.00513ZM137.635 7.6652C137.246 10.2188 135.296 10.2188 133.41 10.2188H132.337L133.089 5.45303C133.135 5.16455 133.384 4.9526 133.675 4.9526H134.167C135.45 4.9526 136.663 4.9526 137.289 5.68411C137.664 6.11977 137.778 6.76885 137.635 7.6652Z" fill="#002F87"/>
<path d="M158.077 7.57989H154.67C154.379 7.57989 154.13 7.79183 154.085 8.08031L153.934 9.0326L153.696 8.68818C152.958 7.61816 151.314 7.2605 149.673 7.2605C145.91 7.2605 142.695 10.1115 142.07 14.1104C141.744 16.1048 142.207 18.0123 143.337 19.3428C144.376 20.5659 145.86 21.0737 147.627 21.0737C150.659 21.0737 152.342 19.125 152.342 19.125L152.19 20.0714C152.133 20.432 152.411 20.7573 152.776 20.7573H155.844C156.329 20.7573 156.744 20.404 156.82 19.9227L158.661 8.26576C158.72 7.90369 158.442 7.57989 158.077 7.57989ZM153.329 14.2076C153.001 16.1534 151.455 17.4589 149.486 17.4589C148.498 17.4589 147.708 17.141 147.198 16.539C146.695 15.9429 146.505 15.0936 146.664 14.1472C146.97 12.2191 148.541 10.8709 150.481 10.8709C151.448 10.8709 152.234 11.1918 152.752 11.7982C153.275 12.4105 153.479 13.2656 153.329 14.2076Z" fill="#002F87"/>
<path d="M208.801 7.57989H205.395C205.104 7.57989 204.855 7.79183 204.809 8.08031L204.659 9.0326L204.42 8.68818C203.683 7.61816 202.039 7.2605 200.397 7.2605C196.635 7.2605 193.42 10.1115 192.794 14.1104C192.469 16.1048 192.931 18.0123 194.062 19.3428C195.101 20.5659 196.585 21.0737 198.351 21.0737C201.384 21.0737 203.066 19.125 203.066 19.125L202.915 20.0714C202.857 20.432 203.135 20.7573 203.5 20.7573H206.568C207.054 20.7573 207.469 20.404 207.544 19.9227L209.386 8.26576C209.445 7.90369 209.166 7.57989 208.801 7.57989ZM204.055 14.2076C203.727 16.1534 202.182 17.4589 200.212 17.4589C199.224 17.4589 198.434 17.141 197.924 16.539C197.421 15.9429 197.231 15.0936 197.39 14.1472C197.696 12.2191 199.267 10.8709 201.207 10.8709C202.174 10.8709 202.96 11.1918 203.478 11.7982C203.999 12.4105 204.204 13.2656 204.055 14.2076Z" fill="#009ADE"/>
<path d="M176.212 7.58228H172.788C172.461 7.58228 172.155 7.74418 171.971 8.01499L167.249 14.9694L165.247 8.28728C165.122 7.86928 164.736 7.58228 164.3 7.58228H160.935C160.529 7.58228 160.243 7.98261 160.374 8.36676L164.144 19.4291L160.598 24.4304C160.32 24.8234 160.601 25.3665 161.082 25.3665H164.502C164.826 25.3665 165.129 25.2076 165.315 24.9411L176.699 8.51247C176.972 8.11949 176.691 7.58228 176.212 7.58228Z" fill="#002F87"/>
<path d="M212.818 1.50336L209.899 20.0721C209.843 20.4312 210.121 20.7565 210.485 20.7565H213.422C213.907 20.7565 214.323 20.4033 214.398 19.922L217.275 1.68587C217.333 1.32674 217.055 1 216.69 1H213.404C213.113 1.00294 212.864 1.21488 212.818 1.50336Z" fill="#009ADE"/>
<path d="M415.464 6.99413H417.909L416.686 3.88525L415.464 6.99413Z" fill="#228FE0"/>
<path d="M445.789 5.88336C446.011 5.77228 446.122 5.43902 446.122 5.10575C446.233 4.6614 446.011 4.43922 445.789 4.32813C445.566 4.21704 445.233 4.21704 444.9 4.21704H442.678V5.99445H444.9C445.233 5.99445 445.566 5.99445 445.789 5.88336Z" fill="#228FE0"/>
<path d="M428.239 11.9962L428.794 10.6631V11.9962H444.236V9.10786H444.458C444.681 9.10786 444.681 9.10786 444.681 9.44112V11.8851H452.68V11.2185C453.347 11.5518 454.347 11.8851 455.68 11.8851H459.013L459.68 10.1077H461.235L461.902 11.8851H468.346V10.2187L469.346 11.8851H474.568V1H469.568V2.33307L468.901 1H463.68V2.33307L463.013 1H455.902C454.68 1 453.68 1.22218 452.791 1.66653V1H447.792V1.66653C447.236 1.22218 446.569 1 445.681 1H427.794L426.572 3.77721L425.35 1H419.684V2.33307L419.017 1H414.24L412.018 6.22116L409.462 11.9978H412.018H415.128L415.795 10.2204H417.351L418.017 11.9978H424.461V10.6647L425.017 11.9978L428.239 11.9962ZM453.125 3.44395C453.68 2.77742 454.68 2.55523 455.902 2.55523H457.68V4.22157H455.902C455.236 4.22157 454.902 4.33266 454.458 4.66593C454.125 4.99919 453.902 5.66572 453.902 6.44334C453.902 7.33205 454.013 7.8875 454.458 8.33185C454.791 8.66512 455.236 8.77621 455.791 8.77621H456.569L459.124 2.66632H461.902L465.013 10.1093V2.66632H467.79L471.012 8.10968V2.66632H472.901V10.3314H470.455L466.9 4.44375V10.3314H463.122L462.456 8.66512H458.567L457.901 10.4425H455.79C454.901 10.4425 453.79 10.2204 453.123 9.55382C452.456 8.88729 452.123 7.99858 452.123 6.55443C452.125 5.44193 452.347 4.33266 453.125 3.44395ZM449.347 2.44415H451.236V10.3314H449.347V2.44415ZM440.794 2.55523H445.016C446.016 2.55523 446.682 2.55524 447.238 2.8885C447.793 3.22177 448.127 3.77722 448.127 4.66593C448.127 5.8879 447.349 6.55443 446.793 6.77661C447.349 6.8877 447.682 7.22096 447.904 7.44314C448.127 7.8875 448.238 8.22077 448.238 8.8873V10.4425H446.349V9.44112C446.349 8.99677 446.349 8.33024 446.016 7.88589C445.682 7.55262 445.349 7.55262 444.682 7.55262H442.682V10.4409H440.794V2.55523ZM433.35 2.55523H439.571V4.22157H435.238V5.66573H439.46V7.22096H435.238V8.77621H439.571V10.4425H433.35V2.55523ZM423.13 4.21996V10.3298H419.352L418.574 8.66351H414.797L414.13 10.4409H412.019L415.352 2.55523H418.13L421.241 9.99818V2.55523H424.241L426.685 7.8875L428.907 2.55523H432.018V10.3314H430.129V4.22157L427.463 10.3314H425.796L423.13 4.21996Z" fill="#228FE0"/>
<path d="M460.565 3.88525L459.231 6.99413H461.787L460.565 3.88525Z" fill="#228FE0"/>
<path d="M440.348 22.9918V16.6614L437.459 19.7719L440.348 22.9918Z" fill="#228FE0"/>
<path d="M428.462 17.4377V18.8819H432.573V20.4371H428.462V22.1019H433.017L435.128 19.7706L433.129 17.4377H428.462Z" fill="#228FE0"/>
<path d="M444.57 17.4377H442.237V19.4373H444.682C445.348 19.4373 445.793 19.1041 445.793 18.4375C445.682 17.771 445.237 17.4377 444.57 17.4377Z" fill="#228FE0"/>
<path d="M478.901 19.3269V14.3279H477.568H474.235C473.235 14.3279 472.457 14.5501 471.902 14.9944V14.3279H466.791C466.013 14.3279 465.013 14.5501 464.569 14.9944V14.3279H455.569V14.9944C454.903 14.439 453.681 14.3279 453.125 14.3279H447.126V14.9944C446.57 14.439 445.237 14.3279 444.57 14.3279H437.904L436.348 15.9942L434.904 14.3279H424.906V25.213H434.682L436.237 23.5466L437.682 25.213H443.681V22.6579H444.459C445.237 22.6579 446.237 22.6579 447.014 22.3247V25.3241H452.014V22.4358H452.236C452.57 22.4358 452.57 22.4357 452.57 22.769V25.3241H467.678C468.678 25.3241 469.678 25.1019 470.234 24.6575V25.3241H475.011C476.011 25.3241 477.011 25.213 477.678 24.7686C478.789 24.1021 479.455 22.8801 479.455 21.4359C479.457 20.6599 479.235 19.8823 478.901 19.3269ZM444.462 21.1043H442.24V23.7704H438.685L436.463 21.2154L434.13 23.7704H426.797V15.8831H434.241L436.463 18.4382L438.796 15.8831H444.684C446.129 15.8831 447.795 16.3275 447.795 18.4382C447.684 20.6599 446.129 21.1043 444.462 21.1043ZM455.573 20.6599C455.795 20.9932 455.906 21.4376 455.906 22.1041V23.6593H454.017V22.6579C454.017 22.2136 454.017 21.4359 453.684 21.1027C453.462 20.7694 453.017 20.7694 452.351 20.7694H450.351V23.6577H448.462V15.7704H452.684C453.573 15.7704 454.351 15.7704 454.906 16.1037C455.462 16.437 455.906 16.9924 455.906 17.8811C455.906 19.1031 455.128 19.7696 454.573 19.9918C455.128 20.2156 455.462 20.4378 455.573 20.6599ZM463.237 17.4384H458.904V18.8825H463.126V20.4378H458.904V21.993H463.237V23.6593H457.015V15.772H463.237V17.4384ZM467.904 23.6577H464.348V21.9914H467.904C468.237 21.9914 468.459 21.9914 468.681 21.7692C468.793 21.6581 468.904 21.4359 468.904 21.2138C468.904 20.9916 468.793 20.7694 468.681 20.6583C468.57 20.5472 468.348 20.4361 468.015 20.4361C466.237 20.3251 464.126 20.4362 464.126 17.9922C464.126 16.8813 464.793 15.6593 466.793 15.6593H470.459V17.5478H467.015C466.682 17.5478 466.459 17.5478 466.237 17.6589C466.015 17.77 466.015 17.9922 466.015 18.2144C466.015 18.5476 466.237 18.6587 466.459 18.7698C466.682 18.8809 466.904 18.8809 467.126 18.8809H468.126C469.126 18.8809 469.792 19.1031 470.237 19.5474C470.57 19.8807 470.792 20.4361 470.792 21.2138C470.792 22.8801 469.792 23.6577 467.904 23.6577ZM477.457 22.8801C477.013 23.3244 476.235 23.6577 475.124 23.6577H471.569V21.9914H475.124C475.457 21.9914 475.679 21.9914 475.902 21.7692C476.013 21.6581 476.124 21.4359 476.124 21.2138C476.124 20.9916 476.013 20.7694 475.902 20.6583C475.791 20.5472 475.568 20.4361 475.235 20.4361C473.457 20.3251 471.346 20.4362 471.346 17.9922C471.346 16.8813 472.013 15.6593 474.013 15.6593H477.679V17.5478H474.346C474.013 17.5478 473.791 17.5478 473.568 17.6589C473.346 17.77 473.346 17.9922 473.346 18.2144C473.346 18.5476 473.457 18.6587 473.791 18.7698C474.013 18.8809 474.235 18.8809 474.457 18.8809H475.457C476.457 18.8809 477.124 19.1031 477.568 19.5474C477.679 19.5474 477.679 19.6585 477.679 19.6585C478.013 20.1029 478.124 20.6583 478.124 21.2138C478.124 21.8803 477.901 22.4357 477.457 22.8801Z" fill="#228FE0"/>
<path d="M453.571 17.6611C453.349 17.55 453.015 17.55 452.682 17.55H450.46V19.3275H452.682C453.015 19.3275 453.349 19.3275 453.571 19.2164C453.793 19.1053 453.904 18.772 453.904 18.4388C454.015 17.9944 453.793 17.7722 453.571 17.6611Z" fill="#228FE0"/>
<path d="M512.043 1C509.445 1 507.443 2.67834 507.443 5.60081V13.9355C507.66 14.9632 508.742 15.722 509.933 15.722C511.286 15.722 512.261 14.7483 512.261 13.5568V9.33614H515.941V13.5027C515.941 15.8302 512.964 17.0202 510.799 17.0202C509.554 17.0202 508.363 16.6416 507.497 15.9925V25.1926H513.343C515.4 25.1926 517.781 23.2438 517.781 20.7556V1H512.043Z" fill="#1174CE"/>
<path d="M532.504 15.6059H535.048C535.697 15.6059 536.292 15.0109 536.292 14.3618C536.292 13.7127 535.697 13.1177 535.048 13.1177H532.504V15.6059Z" fill="#1BCC38"/>
<path d="M535.372 1C532.72 1 530.771 2.67834 530.771 5.54526V9.33321H537.59C538.564 9.33321 539.377 10.1446 539.377 11.1197C539.377 12.0949 538.565 12.9063 537.59 12.9063C538.672 12.9063 539.539 13.6636 539.539 14.6387C539.539 15.6138 538.728 16.3711 537.59 16.3711H530.717V25.1926H536.562C538.62 25.1926 541 23.2438 541 20.7556V1H535.372Z" fill="#1BCC38"/>
<path d="M536.243 11.3386C536.243 10.6895 535.648 10.0945 534.999 10.0945H532.509V12.5301H535.053C535.702 12.5301 536.243 11.9892 536.243 11.3386Z" fill="#1BCC38"/>
<path d="M523.628 1C520.975 1 519.026 2.67834 519.026 5.54526V10.2002C519.676 9.65923 520.487 9.28058 521.354 9.28058H527.525V10.5788C526.064 10.2543 524.656 10.092 523.952 10.092C522.438 10.092 521.192 11.3361 521.192 12.8522C521.192 14.3682 522.436 15.6124 523.952 15.6124C524.656 15.6124 526.064 15.5042 527.525 15.1796V16.3697H521.354C520.489 16.3697 519.621 16.0451 519.026 15.4501V25.1912H524.872C526.929 25.1912 529.31 23.2424 529.31 20.7541V1H523.628Z" fill="#E20E37"/>
<path d="M368.476 25.9922C375.655 25.9922 381.474 20.1736 381.474 12.9961C381.474 5.81855 375.655 0 368.476 0C361.298 0 355.479 5.81855 355.479 12.9961C355.479 20.1736 361.298 25.9922 368.476 25.9922Z" fill="#FBB231"/>
<path d="M350.847 25.9922C358.025 25.9922 363.845 20.1736 363.845 12.9961C363.845 5.81855 358.025 0 350.847 0C343.668 0 337.849 5.81855 337.849 12.9961C337.849 20.1736 343.668 25.9922 350.847 25.9922Z" fill="#EC1B2E"/>
<path fill-rule="evenodd" clip-rule="evenodd" d="M358.037 4.9891H364.936V4.28442H358.634L358.037 4.9891Z" fill="#FBB231"/>
<path fill-rule="evenodd" clip-rule="evenodd" d="M357.003 6.56185H364.935V5.85718H357.419L357.003 6.56185Z" fill="#FBB231"/>
<path fill-rule="evenodd" clip-rule="evenodd" d="M356.232 8.1258H364.935V7.41968H356.538L356.232 8.1258Z" fill="#FBB231"/>
<path fill-rule="evenodd" clip-rule="evenodd" d="M355.708 9.69198H364.941V8.9873H355.928L355.708 9.69198Z" fill="#FBB231"/>
<path fill-rule="evenodd" clip-rule="evenodd" d="M356.007 17.265H364.955V16.5603H355.789L356.007 17.265Z" fill="#FBB231"/>
<path fill-rule="evenodd" clip-rule="evenodd" d="M356.668 18.8392H364.955V18.1331H356.34L356.668 18.8392Z" fill="#FBB231"/>
<path fill-rule="evenodd" clip-rule="evenodd" d="M357.593 20.4002H364.951V19.6956H357.151L357.593 20.4002Z" fill="#FBB231"/>
<path fill-rule="evenodd" clip-rule="evenodd" d="M358.877 21.9671H364.956V21.2581H358.259L358.877 21.9671Z" fill="#FBB231"/>
<path fill-rule="evenodd" clip-rule="evenodd" d="M355.395 11.2545H364.938V10.5498H355.53L355.395 11.2545Z" fill="#FBB231"/>
<path fill-rule="evenodd" clip-rule="evenodd" d="M361.209 15.7022H364.848V14.9976H361.34L361.209 15.7022Z" fill="#FBB231"/>
<path fill-rule="evenodd" clip-rule="evenodd" d="M361.5 14.1404H364.85V13.4299H361.631L361.5 14.1404Z" fill="#FBB231"/>
<path fill-rule="evenodd" clip-rule="evenodd" d="M355.15 13.4351H356.096V14.145H355.194L355.15 13.4351Z" fill="#FBB231"/>
<path fill-rule="evenodd" clip-rule="evenodd" d="M353.378 12.5773L353.316 12.573L353.256 12.5643L353.198 12.5557L353.142 12.547L353.09 12.5384L353.032 12.5297L352.975 12.521L352.913 12.5109L352.853 12.5023L352.782 12.4979L352.704 12.4936L352.62 12.4893H352.528L352.428 12.4936L352.314 12.5023L352.187 12.5109L352.099 12.5254L352.016 12.5384L351.941 12.5643L351.876 12.5903L351.814 12.6207L351.758 12.6568L351.713 12.7001L351.674 12.7391L351.648 12.7882L351.627 12.8358L351.618 12.8878V12.9412L351.631 12.9976L351.648 13.0539L351.683 13.1116L351.728 13.1679L351.814 13.2517L351.92 13.3167L352.042 13.3744L352.174 13.4221L352.314 13.4669L352.458 13.5145L352.603 13.5665L352.743 13.6243L352.874 13.6979L352.997 13.7903L353.107 13.9001L353.198 14.0358L353.269 14.2019L353.312 14.3997L353.329 14.6351L353.312 14.9109L353.282 15.1174L353.23 15.2964L353.159 15.4625L353.072 15.6069L352.971 15.7339L352.857 15.8437L352.734 15.9404L352.598 16.0242L352.458 16.0892L352.314 16.1469L352.165 16.1903L352.012 16.2249L351.863 16.2509L351.717 16.2639L351.573 16.2726L351.437 16.2769H351.25L351.075 16.2726H350.922L350.776 16.2682L350.644 16.2639L350.527 16.2552L350.422 16.2466L350.321 16.2336L350.229 16.2249L350.146 16.2076L350.062 16.1946L349.989 16.1729L349.914 16.1556L349.843 16.1282L349.774 16.1022L349.698 16.0762L349.896 15.1087L349.935 15.1174L349.984 15.1304L350.045 15.1477L350.12 15.165L350.198 15.1823L350.286 15.1997L350.383 15.2228L350.487 15.2401L350.597 15.2574L350.711 15.2748L350.829 15.2878L350.952 15.3008L351.079 15.3051L351.206 15.3094H351.333L351.46 15.3051L351.586 15.2791L351.687 15.2444L351.767 15.1953L351.827 15.1347L351.872 15.074L351.907 15.0033L351.928 14.9325L351.946 14.8675L351.954 14.7405L351.915 14.6307L351.84 14.5441L351.732 14.469L351.601 14.404L351.446 14.3376L351.276 14.2769L351.105 14.2062L350.93 14.1268L350.763 14.0358L350.61 13.9217L350.47 13.786L350.36 13.6199L350.282 13.4221L350.242 13.1853L350.246 12.9051L350.269 12.7347L350.299 12.573L350.343 12.4243L350.396 12.2842L350.465 12.1528L350.545 12.0387L350.636 11.929L350.746 11.8322L350.873 11.7499L351.013 11.6792L351.17 11.6142L351.346 11.5651L351.543 11.5261L351.758 11.4958L351.993 11.4785L352.252 11.4741H352.415L352.564 11.4785L352.7 11.4828L352.822 11.4871L352.931 11.4958L353.032 11.5044L353.12 11.5131L353.198 11.5218L353.273 11.5304L353.334 11.5434L353.391 11.5521L353.443 11.5608L353.488 11.5694L353.527 11.5738L353.566 11.5839L353.601 11.5882L353.378 12.5773Z" fill="white"/>
<path fill-rule="evenodd" clip-rule="evenodd" d="M354.426 10.509H355.639L355.458 11.5675H356.19L356.032 12.5581L355.262 12.5364L354.842 14.9797L354.837 15.0663L354.859 15.1414L354.902 15.1977L354.96 15.2468L355.038 15.2771L355.126 15.3031L355.221 15.3205L355.327 15.3291L355.424 15.3248L355.512 15.3161L355.59 15.3031L355.66 15.2858L355.717 15.2685L355.756 15.2555L355.783 15.2468L355.792 15.2425L355.639 16.0569L355.607 16.0786L355.577 16.0959L355.546 16.1132L355.516 16.1306L355.484 16.1436L355.45 16.158L355.411 16.171L355.372 16.184L355.327 16.197L355.284 16.2057L355.232 16.2143L355.178 16.223L355.122 16.2316L355.055 16.2403L354.986 16.249L354.911 16.2576H354.579L354.403 16.2446L354.249 16.2273L354.109 16.2013L353.991 16.171L353.891 16.1306L353.808 16.0872L353.732 16.0353L353.676 15.9775L353.633 15.9168L353.601 15.8418L353.579 15.7681L353.566 15.6844L353.562 15.5919V15.4966L353.575 15.3956L353.588 15.2858L354.426 10.509Z" fill="white"/>
<path fill-rule="evenodd" clip-rule="evenodd" d="M367.6 11.8289L367.542 11.7986L367.486 11.7726L367.424 11.7423L367.359 11.7105L367.293 11.6845L367.219 11.6585L367.144 11.6325L367.066 11.6065L366.982 11.5849L366.898 11.5661L366.807 11.5488L366.715 11.5358L366.614 11.5271L366.514 11.5184H366.409H366.299H366.189L366.075 11.5271L365.957 11.5401L365.834 11.5618L365.713 11.5979L365.59 11.6455L365.467 11.7062L365.344 11.7856L365.226 11.8823L365.112 11.9964L365.002 12.1365L364.898 12.2982L364.801 12.4903L364.709 12.7098L364.625 12.9552L364.556 13.2354L364.53 13.3928L364.512 13.5458L364.504 13.6989L364.508 13.8476L364.521 13.9978L364.552 14.1379L364.59 14.2693L364.64 14.4007L364.705 14.5177L364.784 14.6317L364.875 14.7328L364.98 14.8252L365.099 14.9032L365.235 14.9696L365.383 15.026L365.549 15.0649L365.607 15.0794L365.672 15.0924L365.752 15.101L365.838 15.1097L365.935 15.1184H366.036H366.146L366.256 15.1097L366.368 15.0967L366.482 15.075L366.592 15.0433L366.702 15.0086L366.812 14.961L366.913 14.9032L367.004 14.8339L367.092 14.7545L366.894 15.9241L366.868 15.9458L366.842 15.9718L366.807 16.0021L366.767 16.0295L366.719 16.0642L366.659 16.0945L366.588 16.1248L366.508 16.1523L366.409 16.1826L366.295 16.2043L366.163 16.2216L366.01 16.2389L365.838 16.2476L365.642 16.2519L365.418 16.2476L365.174 16.2346L364.972 16.2129L364.771 16.1696L364.569 16.1032L364.368 16.0165L364.175 15.9111L363.991 15.7797L363.815 15.6267L363.653 15.4505L363.509 15.2541L363.386 15.0346L363.281 14.7891L363.203 14.522L363.151 14.2289L363.132 13.9184L363.14 13.5762L363.19 13.2137L363.224 13.0332L363.263 12.8585L363.308 12.6881L363.351 12.5264L363.399 12.3719L363.457 12.2188L363.513 12.0744L363.575 11.9387L363.64 11.8029L363.707 11.6758L363.78 11.5531L363.86 11.439L363.938 11.3307L364.026 11.2253L364.114 11.1286L364.205 11.0361L364.306 10.9495L364.407 10.8658L364.512 10.7921L364.621 10.7214L364.739 10.6564L364.858 10.5986L364.98 10.5466L365.108 10.4975L365.243 10.4542L365.379 10.4196L365.519 10.3892L365.668 10.3618L365.817 10.3401L365.975 10.3228L366.133 10.3141L366.299 10.3098L366.439 10.3141L366.575 10.3228L366.706 10.3358L366.838 10.3531L366.96 10.3719L367.079 10.3979L367.193 10.4196L367.297 10.4456L367.398 10.4715L367.486 10.4975L367.568 10.525L367.639 10.551L367.7 10.5726L367.753 10.59L367.792 10.6073L367.818 10.6159L367.6 11.8289Z" fill="white"/>
<path fill-rule="evenodd" clip-rule="evenodd" d="M378.183 10.5295L377.877 12.2508L377.851 12.1988L377.817 12.1468L377.778 12.0905L377.734 12.0342L377.682 11.9779L377.626 11.9216L377.559 11.8652L377.489 11.8133L377.409 11.7656L377.321 11.718L377.233 11.679L377.132 11.6443L377.027 11.614L376.912 11.5923L376.79 11.5793L376.663 11.575L376.484 11.5837L376.309 11.6097L376.134 11.6487L375.959 11.7093L375.793 11.7844L375.627 11.8811L375.465 11.9909L375.312 12.118L375.168 12.2623L375.032 12.4197L374.901 12.5945L374.787 12.7909L374.677 13.0017L374.584 13.2255L374.505 13.471L374.44 13.7295L374.401 13.9533L374.379 14.1771L374.375 14.4053L374.388 14.6291L374.423 14.8529L374.47 15.0681L374.541 15.2746L374.629 15.4709L374.735 15.6543L374.857 15.8161L374.997 15.9648L375.155 16.0919L375.33 16.1929L375.522 16.268L375.733 16.3157L375.961 16.333H376.049L376.137 16.3287L376.221 16.32L376.309 16.307L376.397 16.294L376.481 16.2724L376.564 16.2507L376.648 16.2204L376.732 16.1814L376.811 16.1424L376.891 16.0948L376.97 16.0384L377.05 15.9778L377.125 15.907L377.2 15.8276L377.271 15.7395V15.7829L377.183 16.2695H378.396L379.385 10.5411H378.183V10.5295ZM377.58 13.7121L377.567 13.8392L377.545 13.962L377.523 14.0804L377.493 14.1988L377.458 14.3128L377.415 14.4226L377.367 14.528L377.311 14.6291L377.25 14.7258L377.185 14.8139L377.11 14.8933L377.027 14.9684L376.938 15.0348L376.846 15.0868L376.745 15.1345L376.64 15.1648L376.525 15.1908L376.403 15.1995L376.228 15.1648L376.084 15.0681L375.969 14.9237L375.881 14.7446L375.825 14.5381L375.795 14.323L375.786 14.1121L375.808 13.9201L375.834 13.793L375.868 13.6659L375.903 13.5475L375.946 13.4291L375.994 13.315L376.05 13.2096L376.111 13.1085L376.177 13.0118L376.252 12.928L376.328 12.853L376.416 12.7822L376.504 12.7259L376.605 12.6826L376.706 12.6479L376.816 12.6306L376.934 12.6219L377.027 12.6306L377.11 12.6522L377.19 12.6869L377.265 12.7389L377.33 12.7995L377.386 12.8703L377.438 12.954L377.481 13.0421L377.516 13.1432L377.546 13.2486L377.564 13.3584L377.577 13.4724L377.581 13.5952L377.58 13.7121Z" fill="white"/>
<path fill-rule="evenodd" clip-rule="evenodd" d="M349.939 12.4767L349.896 12.3366L349.831 12.2052L349.743 12.0868L349.646 11.9814L349.536 11.8847L349.413 11.8009L349.282 11.7258L349.151 11.6652L349.015 11.6132L348.875 11.5742L348.739 11.5439L348.608 11.5222L348.485 11.5135L348.332 11.5092L348.179 11.5049H348.034H347.894H347.758L347.627 11.5092L347.5 11.5135L347.377 11.5222L347.259 11.5309L347.145 11.5482L347.03 11.5655L346.925 11.5872L346.82 11.6088L346.714 11.6392L346.617 11.6738L346.521 11.7128L346.21 12.7684L346.258 12.7424L346.318 12.7121L346.398 12.6861L346.495 12.6601L346.6 12.6384L346.714 12.6168L346.841 12.5951L346.973 12.5778L347.108 12.5604L347.249 12.5475L347.389 12.5345L347.533 12.5258L347.673 12.5215H347.809L347.94 12.5258L348.063 12.5301L348.177 12.5388L348.283 12.5648L348.375 12.6038L348.459 12.6601L348.53 12.7251L348.582 12.8045L348.621 12.8926L348.638 12.9893L348.629 13.0731L348.608 13.1655L348.582 13.2449L348.573 13.2752H348.56L348.517 13.2709L348.456 13.2666L348.376 13.2622H348.28L348.183 13.2579L348.078 13.2536H347.976H347.929L347.868 13.2579L347.803 13.2622L347.732 13.2666L347.662 13.2752L347.582 13.2796L347.507 13.2882L347.432 13.2969L347.357 13.3056L347.292 13.3142L347.231 13.3186L347.179 13.3272L347.132 13.3316L347.101 13.3359L347.08 13.3402H347.071L346.918 13.3662L346.769 13.4052L346.625 13.4529L346.485 13.5135L346.353 13.5842L346.226 13.668L346.103 13.7604L345.994 13.8615L345.888 13.9713L345.796 14.094L345.716 14.2211L345.645 14.3611L345.589 14.5099L345.546 14.6629L345.52 14.8247L345.507 14.9951V15.0918L345.515 15.1885L345.528 15.2896L345.546 15.3907L345.572 15.4875L345.606 15.5842L345.65 15.681L345.702 15.7734L345.762 15.8615L345.832 15.9452L345.92 16.0246L346.017 16.0954L346.126 16.1604L346.249 16.2167L346.389 16.26L346.542 16.299L346.661 16.3163L346.784 16.3293L346.911 16.325L347.038 16.3163L347.169 16.299L347.296 16.273L347.423 16.2427L347.55 16.2037L347.669 16.1604L347.783 16.1084L347.893 16.0564L347.998 15.9958L348.091 15.9351L348.174 15.8687L348.245 15.7979L348.306 15.7272L348.288 15.7936L348.271 15.9163L348.249 16.0781L348.219 16.2571H349.322L349.497 15.2853L349.939 12.9734L349.965 12.7987V12.6327L349.939 12.4767ZM348.42 14.2499L348.394 14.39L348.363 14.5344L348.329 14.6615L348.316 14.7091L348.294 14.7568L348.268 14.8088L348.238 14.8608L348.203 14.9127L348.16 14.9604L348.108 15.0124L348.052 15.0557L347.985 15.1034L347.91 15.1423L347.826 15.1813L347.738 15.2117L347.637 15.2376L347.523 15.255L347.405 15.268L347.273 15.2723L347.202 15.268L347.133 15.255L347.058 15.229L346.993 15.1857L346.937 15.1192L346.893 15.0312L346.872 14.9127L346.876 14.764L346.889 14.6933L346.915 14.6225L346.945 14.5618L346.989 14.5055L347.036 14.4536L347.088 14.4016L347.145 14.3582L347.205 14.3149L347.262 14.2803L347.322 14.2499L347.379 14.2196L347.435 14.1936L347.483 14.172L347.53 14.1546L347.565 14.1416L347.595 14.133L347.643 14.12L347.695 14.107L347.755 14.094L347.82 14.0853L347.891 14.0767L347.962 14.068L348.037 14.0593L348.114 14.0579H348.179H348.245L348.301 14.0622L348.349 14.0709L348.392 14.0795L348.418 14.0925L348.436 14.1142L348.44 14.1359L348.42 14.2499Z" fill="white"/>
<path fill-rule="evenodd" clip-rule="evenodd" d="M340.286 16.2576H339.095L340.09 10.509H342.161L342.359 13.9198L343.79 10.509H345.955L344.938 16.2576H343.747L344.5 11.9617H344.451L342.669 16.2576H341.325L341.316 16.0786L341.286 15.6006L341.245 14.9219L341.202 14.1436L341.159 13.3595L341.12 12.6722L341.088 12.1725L341.079 11.9617H341.066H341.04H341.014L340.286 16.2576Z" fill="white"/>
<path fill-rule="evenodd" clip-rule="evenodd" d="M371.689 12.4767L371.642 12.3366L371.577 12.2052L371.489 12.0868L371.387 11.9814L371.278 11.8847L371.155 11.8009L371.024 11.7258L370.888 11.6652L370.752 11.6132L370.612 11.5742L370.476 11.5439L370.345 11.5222L370.222 11.5135L370.073 11.5092L369.924 11.5049H369.784H369.649H369.513L369.386 11.5092L369.259 11.5135L369.136 11.5222L369.017 11.5309L368.903 11.5482L368.794 11.5655L368.684 11.5872L368.578 11.6088L368.477 11.6392L368.376 11.6738L368.28 11.7128L367.973 12.7684L368.021 12.7424L368.082 12.7121L368.161 12.6861L368.258 12.6601L368.363 12.6384L368.477 12.6168L368.604 12.5951L368.736 12.5778L368.872 12.5604L369.012 12.5475L369.152 12.5345L369.296 12.5258L369.436 12.5215H369.572L369.703 12.5258L369.826 12.5301L369.932 12.5388L370.028 12.5648L370.121 12.6038L370.2 12.6601L370.267 12.7251L370.323 12.8045L370.358 12.8926L370.375 12.9893L370.366 13.0731L370.353 13.1655L370.34 13.2449L370.332 13.2752H370.314L370.275 13.2709L370.205 13.2666L370.121 13.2622H370.024L369.923 13.2579L369.818 13.2536H369.712H369.665L369.604 13.2579L369.542 13.2622L369.471 13.2666L369.396 13.2752L369.321 13.2796L369.241 13.2882L369.166 13.2969L369.095 13.3056L369.03 13.3142L368.97 13.3186L368.914 13.3272L368.87 13.3316L368.84 13.3359L368.818 13.3402H368.81L368.661 13.3662L368.516 13.4052L368.372 13.4529L368.236 13.5135L368.1 13.5842L367.973 13.668L367.855 13.7604L367.741 13.8615L367.64 13.9713L367.547 14.094L367.464 14.2211L367.399 14.3611L367.342 14.5099L367.303 14.6629L367.277 14.8247L367.269 14.9951V15.0918L367.277 15.1885L367.29 15.2896L367.308 15.3907L367.329 15.4875L367.364 15.5842L367.403 15.681L367.455 15.7734L367.516 15.8615L367.586 15.9452L367.67 16.0246L367.767 16.0954L367.881 16.1604L368.004 16.2167L368.144 16.26L368.301 16.299L368.42 16.3163L368.538 16.3293L368.661 16.325L368.788 16.3163L368.911 16.299L369.033 16.2773L369.156 16.2427L369.275 16.208L369.384 16.1647L369.494 16.1127L369.6 16.0607L369.692 16.0044L369.78 15.9438L369.859 15.8831L369.926 15.8167L369.982 15.7517L369.974 15.8037V15.9221L369.969 16.0795L369.961 16.2586H371.06L371.239 15.2867L371.698 12.9749L371.72 12.8002V12.6341L371.689 12.4767ZM370.17 14.2456L370.153 14.3683L370.131 14.4954L370.114 14.6182L370.101 14.6658L370.083 14.7178L370.062 14.7698L370.031 14.8218L369.992 14.8781L369.945 14.9301L369.893 14.9864L369.832 15.034L369.761 15.086L369.682 15.1293L369.598 15.1683L369.501 15.203L369.4 15.2333L369.286 15.255L369.163 15.268L369.032 15.2723L368.957 15.268L368.882 15.255L368.807 15.229L368.742 15.1857L368.69 15.1192L368.655 15.0312L368.633 14.9127L368.638 14.764L368.651 14.6889L368.677 14.6182L368.707 14.5517L368.746 14.4911L368.794 14.4348L368.841 14.3871L368.898 14.3395L368.954 14.3005L369.01 14.2615L369.071 14.2312L369.123 14.2052L369.179 14.1792L369.227 14.1619L369.27 14.1489L369.305 14.1359L369.335 14.1315L369.379 14.1229L369.435 14.1099L369.491 14.1012L369.556 14.0882L369.623 14.0795L369.693 14.0709L369.764 14.0622L369.841 14.0579L369.906 14.0536H369.972L370.03 14.0579L370.078 14.0622L370.121 14.0752L370.151 14.0882L370.169 14.1099L370.177 14.1359L370.17 14.2456Z" fill="white"/>
<path fill-rule="evenodd" clip-rule="evenodd" d="M371.566 16.2529H372.801L373.244 13.762L373.262 13.6653L373.288 13.5685L373.314 13.4732L373.348 13.3765L373.393 13.2797L373.445 13.1888L373.503 13.1007L373.572 13.0169L373.652 12.9433L373.738 12.8725L373.839 12.8075L373.953 12.7541L374.081 12.7108L374.221 12.6761L374.374 12.6501L374.544 12.64H374.606H374.641H374.654L374.852 11.5151L374.729 11.5238L374.611 11.5368L374.501 11.5585L374.395 11.5902L374.3 11.6249L374.208 11.6682L374.12 11.7173L374.037 11.7693L373.958 11.8299L373.883 11.892L373.813 11.9613L373.743 12.0321L373.678 12.1057L373.611 12.1895L373.546 12.2689L373.484 12.3556L373.615 11.5628H372.385L371.566 16.2529Z" fill="white"/>
<path fill-rule="evenodd" clip-rule="evenodd" d="M359.968 16.2529H361.203H361.224L361.645 13.762L361.662 13.6653L361.685 13.5729L361.707 13.4819L361.737 13.3938L361.772 13.3057L361.816 13.2234L361.868 13.144L361.929 13.0703L362 13.0039L362.079 12.9389L362.175 12.8855L362.28 12.8379L362.403 12.7989L362.538 12.7628L362.687 12.7411L362.858 12.7281H362.871L362.889 12.7324L362.911 12.7368H362.933L362.954 12.7411L362.972 12.7454L362.985 12.7498H362.989L362.993 12.7324L363.006 12.6805L363.025 12.601L363.047 12.5043L363.077 12.3917L363.107 12.2689L363.148 12.1462L363.187 12.0234L363.222 11.9397L363.265 11.8574L363.31 11.7736L363.353 11.6985L363.392 11.6335L363.424 11.5816L363.445 11.5498L363.454 11.5368H363.45L363.432 11.5325L363.409 11.5281L363.379 11.5238H363.349L363.314 11.5195L363.284 11.5151H363.252L363.116 11.5238L362.993 11.5368L362.879 11.5585L362.775 11.5859L362.674 11.6205L362.582 11.6639L362.499 11.7072L362.42 11.7606L362.346 11.8169L362.276 11.8834L362.211 11.9483L362.144 12.0234L362.079 12.0971L362.017 12.1808L361.952 12.2689L361.886 12.3556L362.043 11.5628H360.787L359.968 16.2529Z" fill="white"/>
<path fill-rule="evenodd" clip-rule="evenodd" d="M360.105 12.9643L360.071 12.7015L360.01 12.469L359.922 12.2669L359.812 12.0922L359.681 11.9434L359.536 11.8207L359.379 11.7153L359.209 11.6358L359.034 11.5694L358.855 11.5261L358.676 11.4958L358.497 11.4785L358.326 11.4741L357.971 11.4915L357.656 11.5434L357.371 11.6228L357.117 11.7326L356.898 11.864L356.706 12.0127L356.535 12.1788L356.395 12.3535L356.272 12.5369L356.171 12.729L356.092 12.9167L356.027 13.1044L355.979 13.2878L355.945 13.4582L355.919 13.6199L355.901 13.76L355.88 14.1195L355.893 14.443L355.94 14.7361L356.015 14.9946L356.121 15.2271L356.248 15.4278L356.397 15.6069L356.567 15.7556L356.75 15.8827L356.947 15.9924L357.153 16.0762L357.369 16.1426L357.588 16.1946L357.808 16.2249L358.027 16.2466L358.242 16.2509H358.387L358.523 16.2466H358.641L358.755 16.2422L358.856 16.2336L358.949 16.2249L359.037 16.2162L359.116 16.2033L359.191 16.1903L359.262 16.1729L359.331 16.1513L359.398 16.1296L359.463 16.1036L359.534 16.0776L359.604 16.043L359.675 16.0083L359.85 14.9311L359.723 15.0062L359.6 15.0769L359.473 15.1289L359.35 15.1766L359.232 15.2155L359.109 15.2415L358.99 15.2632L358.872 15.2805L358.754 15.2892L358.64 15.2935H358.521L358.407 15.2892L358.293 15.2805L358.179 15.2675L358.069 15.2545L357.955 15.2372L357.867 15.2199L357.779 15.1896L357.691 15.1506L357.611 15.1029L357.532 15.0509L357.461 14.9845L357.395 14.9195L357.334 14.8444L357.282 14.7693L357.234 14.6856L357.2 14.6062L357.169 14.5224L357.152 14.4387L357.143 14.3549L357.148 14.2755L357.156 14.2235H357.909H359.997L360.019 13.9564L360.085 13.5881L360.116 13.256L360.105 12.9643ZM358.918 13.3672H357.903H357.317L357.33 13.3008L357.347 13.2084L357.373 13.1203L357.403 13.0322L357.442 12.9528L357.481 12.8777L357.529 12.8069L357.581 12.742L357.637 12.6813L357.694 12.6293L357.759 12.5817L357.825 12.5427L357.9 12.508L357.975 12.482L358.05 12.4647L358.13 12.4517L358.213 12.4474L358.293 12.456L358.368 12.469L358.439 12.4864L358.508 12.5124L358.573 12.547L358.64 12.586L358.696 12.6293L358.748 12.6813L358.791 12.742L358.834 12.8069L358.865 12.882L358.895 12.9658L358.912 13.0539L358.921 13.1506L358.925 13.256L358.918 13.3672Z" fill="white"/>
<path d="M271.666 3L268.424 23.1724H273.606L276.847 3H271.666ZM287.297 11.2179C285.487 10.324 284.376 9.71971 284.376 8.80514C284.398 7.9733 285.314 7.12225 287.361 7.12225C289.044 7.0794 290.282 7.47538 291.221 7.86988L291.691 8.07968L292.395 3.85991C291.371 3.46394 289.749 3.02808 287.745 3.02808C282.628 3.02808 279.025 5.6876 279.001 9.49366C278.959 12.3009 281.582 13.8597 283.544 14.7935C285.549 15.7524 286.23 16.3744 286.23 17.2255C286.208 18.5331 284.609 19.1374 283.118 19.1374C281.051 19.1374 279.941 18.8271 278.255 18.0972L277.572 17.7869L276.848 22.1736C278.066 22.7144 280.305 23.1902 282.628 23.2153C288.066 23.2153 291.605 20.5957 291.649 16.5399C291.667 14.3133 290.285 12.6097 287.297 11.2179ZM305.682 3.06354H301.673C300.437 3.06354 299.499 3.41814 298.964 4.68585L291.266 23.1724H296.704L298.203 19.1699H304.287L305.064 23.1887H309.861L305.682 3.06354ZM299.71 15.1304C299.815 15.1407 301.798 8.59681 301.798 8.59681L303.376 15.1304C303.376 15.1304 300.733 15.1304 299.71 15.1304ZM264.094 3L259.017 16.7054L258.464 14.003C257.526 10.884 254.582 7.49607 251.297 5.81319L255.946 23.1532H261.428L269.575 3.00444H264.093V3H264.094Z" fill="#00579F"/>
<path d="M256.764 5.60258C256.368 4.06449 255.106 3.02729 253.394 3.00513H245.354L245.271 3.37893C251.542 4.92441 256.807 9.68199 258.516 14.1574L256.764 5.60258Z" fill="#FAA61A"/>
<line x1="231.777" y1="3.5" x2="231.777" y2="21.7497" stroke="#CDE3FE" stroke-linecap="round"/>
<line x1="112.348" y1="3.5" x2="112.348" y2="21.7497" stroke="#CDE3FE" stroke-linecap="round"/>
<line x1="324.355" y1="3.5" x2="324.355" y2="21.7497" stroke="#CDE3FE" stroke-linecap="round"/>
<line x1="395.968" y1="3.5" x2="395.968" y2="21.7497" stroke="#CDE3FE" stroke-linecap="round"/>
<line x1="493.949" y1="3.5" x2="493.949" y2="21.7497" stroke="#CDE3FE" stroke-linecap="round"/>
<g clip-path="url(#clip0_210_12054)">
<path d="M90.551 4.90194C89.9701 4.90194 89.756 4.59441 89.8475 3.97839L90.1229 2.37716C90.2455 1.76114 90.6123 1.45361 91.2243 1.45361H93.4575C94.0696 1.45361 94.3138 1.76114 94.1921 2.37716L93.9167 3.97839C93.7941 4.59441 93.4575 4.90194 92.8464 4.90194H90.551Z" fill="#72AF00"/>
<path d="M86.5432 24.5464C85.9622 24.5464 85.7482 24.2389 85.8397 23.6229L86.1151 22.0217C86.2377 21.4057 86.6045 21.0981 87.2165 21.0981H89.4497C90.0618 21.0981 90.306 21.4057 90.1843 22.0217L89.909 23.6229C89.7864 24.2388 89.4498 24.5464 88.8386 24.5464H86.5432Z" fill="#72AF00"/>
<path d="M68.7695 6.04175H67.056C66.475 6.04175 65.9856 6.44228 65.8932 7.02697L64.3023 16.1407H62.6199L63.8128 9.36666C64.2108 7.14946 63.3234 6.04083 61.1515 6.04083H48.9144C46.7426 6.04083 45.4572 7.14946 45.0904 9.33534L43.8974 16.1094H40.1648H36.9528C36.4633 16.1094 36.2794 15.8626 36.3718 15.4013L36.5557 14.3544C36.7396 14.4779 36.9839 14.5082 37.2592 14.5082H40.2572C42.2762 14.5082 43.7144 13.4309 44.0812 11.2754L44.4481 9.21194C44.8149 7.08773 43.9888 6.00951 41.9697 6.00951H37.1356C34.994 6.00951 33.7397 7.11809 33.3417 9.30402L32.1488 16.1085H25.6634C25.174 16.1085 24.9901 15.8617 25.0825 15.4004L25.2664 14.3535C25.4503 14.4769 25.6945 14.5073 25.9699 14.5073H28.7538C30.7728 14.5073 31.9969 13.43 32.3638 11.2745L32.7306 9.21102C33.0975 7.08682 32.2714 6.0086 30.2523 6.0086H26.2443H25.8464H21.961H17.953H11.0999L11.1301 5.85483C11.2527 5.20846 11.6195 4.90002 12.2316 4.90002H14.0064C14.5571 4.90002 15.0164 4.4995 15.1079 3.97648L15.5361 1.51343H11.0396C10.0295 1.51343 9.17327 1.7906 8.49993 2.37524C7.82659 2.92953 7.39847 3.76099 7.21549 4.83829L4.5542 20.0494H8.65366L10.4285 9.85739H14.0385L12.2637 20.0494H16.3631L18.0455 10.5655C18.1068 10.1346 18.3511 9.8878 18.749 9.85744H21.1661H21.9611L20.737 16.7549C20.4314 18.5716 21.6546 20.0494 23.4907 20.0494H45.8844C46.6794 20.0494 47.3527 19.4647 47.4753 18.695L48.8521 10.9053C48.9436 10.4127 49.219 10.1973 49.6782 10.1973H52.248L50.6883 19.2805C50.627 19.6811 50.9335 20.0503 51.3617 20.0503H54.0541C54.3907 20.0503 54.6661 19.8036 54.7274 19.496L56.3485 10.1972H58.9485C59.438 10.1972 59.6219 10.444 59.5295 10.9053L58.1901 18.5946C58.0574 19.3542 58.6384 20.0503 59.405 20.0503H66.7193C67.2929 20.0503 67.7833 19.6359 67.883 19.0678L69.9304 7.42658C70.0539 6.71853 69.5032 6.04175 68.7695 6.04175ZM37.0744 11.3371L37.2583 10.3822C37.3196 10.0747 37.5035 9.92004 37.809 9.92004H39.5226C39.8281 9.92004 39.9818 10.0738 39.9205 10.3822L39.7366 11.3371C39.6753 11.6446 39.4914 11.7993 39.1859 11.7993H37.4724C37.1668 11.7993 37.0443 11.6455 37.0744 11.3371ZM25.8162 11.3371L26.0001 10.3822C26.0614 10.0747 26.2453 9.92004 26.5509 9.92004H28.0503C28.3559 9.92004 28.5096 10.0738 28.4483 10.3822L28.2644 11.3371C28.2031 11.6446 28.0192 11.7993 27.7137 11.7993H26.2142C25.8776 11.7993 25.755 11.6455 25.8162 11.3371Z" fill="#333333"/>
<path d="M84.0657 6.04175L82.1994 16.788C81.8326 18.9739 80.5783 20.0521 78.4366 20.0521H72.5624C70.3594 20.0521 69.4116 19.0052 69.8087 16.881L71.7052 6.04266H75.8046L74.2137 15.1564C74.1222 15.6794 74.3052 15.9262 74.7947 15.9262H77.5786C78.068 15.9262 78.3434 15.6794 78.4047 15.2181L80.0258 6.04271L84.0657 6.04175Z" fill="#333333"/>
<path d="M66.4749 3.97839L66.7502 2.37716C66.8729 1.76114 67.2397 1.45361 67.8517 1.45361H70.0849C70.6969 1.45361 70.9412 1.76114 70.8195 2.37716L70.5441 3.97839C70.4215 4.59441 70.0849 4.90194 69.4737 4.90194H67.1491C66.5965 4.90194 66.3522 4.59436 66.4749 3.97839Z" fill="#29ABE2"/>
<path d="M1.52567 8.81238L1.80106 7.21114C1.92367 6.59512 2.2905 6.2876 2.90251 6.2876H5.13568C5.74769 6.2876 5.99196 6.59512 5.87031 7.21114L5.59492 8.81238C5.4723 9.42839 5.13568 9.73592 4.52453 9.73592H2.19992C1.64737 9.73592 1.43326 9.42839 1.52567 8.81238Z" fill="#D4145A"/>
<path d="M82.9945 20.0816L83.6679 16.1711H91.5301C91.8054 16.1711 91.9583 16.0173 92.0196 15.7402L92.1723 14.9087C92.2025 14.6619 92.1111 14.5395 91.8357 14.5395H86.6347C85.5644 14.5395 84.8599 14.2927 84.5543 13.8001C84.2488 13.3075 84.1564 12.5377 84.3403 11.4908L84.7071 9.36664C85.0739 7.18076 86.3593 6.10254 88.501 6.10254H97.4949L96.8216 9.98174H89.0508C88.7755 9.98174 88.6227 10.1355 88.5614 10.4127L88.4086 11.2441C88.3784 11.4909 88.4699 11.6133 88.7453 11.6133H93.9764C95.9342 11.6133 96.7301 12.6299 96.3934 14.6307L96.0266 16.8166C95.6287 19.0024 94.4668 20.1111 92.5081 20.1111H82.9937L82.9945 20.0816Z" fill="#333333"/>
</g>
<defs>
<clipPath id="clip0_210_12054">
<rect width="96.9579" height="24" fill="white" transform="translate(0.89624 1)"/>
</clipPath>
</defs>
</svg>
