<svg width="19" height="40" viewBox="0 0 19 40" fill="none" xmlns="http://www.w3.org/2000/svg">
<path d="M14.4122 36.3021C13.5957 36.3782 12.776 36.194 12.0706 35.7756C11.5553 35.2465 11.3082 34.512 11.3991 33.779C11.4181 33.1688 11.491 32.5614 11.6169 31.9639C11.7387 31.2785 11.8961 30.6 12.0887 29.9309L14.2306 22.5615C14.4515 21.8341 14.5975 21.086 14.6663 20.3288C14.6663 19.5121 14.7751 18.9493 14.7751 18.6226C14.8207 17.1668 14.1991 15.7698 13.087 14.829C11.7192 13.7789 10.0158 13.2627 8.29511 13.3769C7.06203 13.3955 5.83846 13.5973 4.66481 13.9759C3.38213 14.3752 2.03283 14.8532 0.617088 15.4099L0 17.8059C0.417423 17.6606 0.925787 17.4973 1.50653 17.3158C2.0606 17.1517 2.63494 17.066 3.21272 17.0617C4.02323 16.9738 4.83905 17.1729 5.51791 17.6243C5.97901 18.1745 6.19536 18.8892 6.1169 19.6028C6.11487 20.2132 6.04795 20.8217 5.91723 21.4179C5.7901 22.0533 5.62679 22.7248 5.42712 23.4327L3.26716 30.8383C3.09308 31.5267 2.95378 32.2233 2.84974 32.9257C2.76488 33.5271 2.72245 34.1336 2.72261 34.7408C2.71372 36.2066 3.384 37.594 4.53768 38.4981C5.92659 39.5646 7.65431 40.0932 9.40215 39.9865C10.6329 40.0118 11.8594 39.834 13.0325 39.4601C14.061 39.1091 15.4345 38.607 17.1529 37.9535L17.7338 35.6664C17.2683 35.8596 16.7889 36.0173 16.2998 36.1383C15.6811 36.2796 15.0459 36.3345 14.4122 36.3021Z" fill="#302876"/>
<path d="M16.6821 1.36297C15.6942 0.455745 14.3927 -0.0323406 13.0518 0.00166472C11.7117 -0.0285969 10.4114 0.459021 9.42151 1.36297C7.60706 2.92752 7.40444 5.66682 8.96915 7.48143C9.1086 7.64318 9.25975 7.79434 9.42151 7.93379C11.4887 9.78271 14.615 9.78271 16.682 7.93379C18.4964 6.35379 18.6865 3.60217 17.1066 1.78772C16.9752 1.63657 16.8333 1.49462 16.6821 1.36297Z" fill="#302876"/>
</svg>
