<svg width="50" height="50" viewBox="0 0 50 50" fill="none" xmlns="http://www.w3.org/2000/svg">
<path d="M49.9998 25.017C49.9822 25.9047 49.6922 26.7656 49.1688 27.4831C47.1509 30.339 43.8696 34.8814 41.5972 38.0254C40.8102 39.1092 39.7775 39.9914 38.5838 40.5998C37.3901 41.2081 36.0693 41.5253 34.7294 41.5254H19.5522L19.0605 42.0254L8.88583 31.8559L11.2769 29.4576C11.7496 28.984 12.3113 28.6085 12.9297 28.3525C13.5481 28.0966 14.2111 27.9652 14.8804 27.9661H33.1184C33.4524 27.9694 33.7825 28.0385 34.0899 28.1694C34.3972 28.3002 34.6757 28.4903 34.9096 28.7287C35.1434 28.9672 35.328 29.2493 35.4527 29.559C35.5775 29.8688 35.6399 30.2 35.6366 30.5339C35.6333 30.8678 35.5642 31.1977 35.4332 31.5049C35.3023 31.8121 35.1122 32.0905 34.8736 32.3242C34.635 32.5579 34.3528 32.7424 34.0429 32.8671C33.733 32.9917 33.4016 33.0542 33.0675 33.0508H22.8929C22.668 33.0508 22.4524 33.1401 22.2933 33.2991C22.1343 33.458 22.045 33.6735 22.045 33.8983C22.045 34.1231 22.1343 34.3386 22.2933 34.4976C22.4524 34.6565 22.668 34.7458 22.8929 34.7458H33.0675C34.1918 34.7454 35.2698 34.2988 36.0648 33.5042C36.8598 32.7097 37.3065 31.6322 37.3069 30.5085C37.3052 30.1806 37.2683 29.8539 37.1967 29.5339C38.4007 28.4068 43.2845 23.7712 44.2002 22.8644C44.8186 22.2175 45.6649 21.837 46.5594 21.8038C47.4539 21.7705 48.3261 22.0872 48.9908 22.6864C49.3135 22.9821 49.5701 23.3425 49.744 23.7441C49.9179 24.1457 50.005 24.5794 49.9998 25.017ZM0.898758 36.4407L14.4649 50L19.5522 44.9153L5.98607 31.3559L0.898758 36.4407ZM24.6141 26.2712H31.3972V18.6441H24.6141V26.2712ZM34.7887 26.5593C35.4948 26.7973 36.1382 27.1912 36.671 27.7119C37.6546 26.7797 40.9528 23.6525 41.5718 23.0593V11.8644H34.7887V26.5593ZM14.4395 26.2966C14.5858 26.2797 14.733 26.2712 14.8804 26.2712H21.2226V23.7288H14.4395V26.2966ZM25.4585 13.5585C25.5699 13.5586 25.6801 13.5368 25.783 13.4942C25.8859 13.4516 25.9793 13.3891 26.058 13.3103L30.8969 8.47458H36.4811C36.6865 8.47451 36.8849 8.40012 37.0396 8.26517L43.2642 2.82144V5.08475C43.2642 5.30951 43.3535 5.52506 43.5125 5.68399C43.6715 5.84292 43.8872 5.9322 44.1121 5.9322C44.3369 5.9322 44.5526 5.84292 44.7116 5.68399C44.8706 5.52506 44.9599 5.30951 44.9599 5.08475V0.847458C44.9599 0.622698 44.8706 0.407144 44.7116 0.248215C44.5526 0.0892854 44.3369 0 44.1121 0H39.8726C39.6478 0 39.4321 0.0892854 39.2731 0.248215C39.1141 0.407144 39.0248 0.622698 39.0248 0.847458C39.0248 1.07222 39.1141 1.28777 39.2731 1.4467C39.4321 1.60563 39.6478 1.69492 39.8726 1.69492H41.9761L36.1623 6.77966H30.5459C30.4346 6.77967 30.3243 6.80161 30.2214 6.84421C30.1186 6.88682 30.0251 6.94926 29.9464 7.02797L24.8591 12.1119C24.7405 12.2304 24.6598 12.3814 24.6271 12.5458C24.5944 12.7101 24.6112 12.8805 24.6754 13.0353C24.7395 13.1902 24.8482 13.3225 24.9876 13.4156C25.127 13.5087 25.2908 13.5585 25.4585 13.5585ZM9.32673 7.62712C9.49443 7.62712 9.65836 7.57742 9.79779 7.4843C9.93723 7.39118 10.0459 7.25882 10.1101 7.10397C10.1743 6.94912 10.191 6.77872 10.1583 6.61433C10.1256 6.44994 10.0449 6.29894 9.92628 6.18042C9.8077 6.0619 9.65662 5.98119 9.49215 5.94849C9.32767 5.91579 9.15719 5.93257 9.00226 5.99671C8.84733 6.06085 8.71491 6.16948 8.62174 6.30884C8.52858 6.4482 8.47885 6.61205 8.47885 6.77966C8.4795 7.00422 8.56904 7.2194 8.72791 7.37819C8.88678 7.53698 9.10206 7.62647 9.32673 7.62712ZM0.73766 15.4237L1.46684 13.2203L0 11.0169L1.46684 8.81356L0.73766 6.61017L2.94216 5.87288V2.94068H5.87584L6.6135 0.737288L8.818 1.4661L11.0225 0L13.227 1.4661L15.4315 0.737288L16.1692 2.94068H19.1028V5.87288L21.3073 6.61017L20.5782 9.55085L22.045 11.0169L20.5782 13.2203L21.3073 15.4237L19.1028 16.161V19.0932H16.8983L15.4315 21.2966L13.227 20.5678L11.0225 22.0339L8.818 20.5678L6.6135 21.2966L5.87584 19.0932H2.94216V16.161L0.73766 15.4237ZM15.2619 15.2542C15.2619 14.7514 15.1127 14.2599 14.8332 13.8418C14.5537 13.4237 14.1565 13.0978 13.6917 12.9054C13.2269 12.713 12.7155 12.6626 12.222 12.7607C11.7286 12.8588 11.2754 13.101 10.9196 13.4565C10.5639 13.8121 10.3216 14.2651 10.2235 14.7582C10.1253 15.2514 10.1757 15.7626 10.3682 16.2272C10.5608 16.6917 10.8868 17.0888 11.3051 17.3681C11.7234 17.6475 12.2152 17.7966 12.7183 17.7966C13.3923 17.7946 14.0381 17.5262 14.5147 17.0498C14.9913 16.5734 15.26 15.9279 15.2619 15.2542ZM7.12223 12.8814C6.94288 13.0166 6.82438 13.2173 6.7926 13.4396C6.76083 13.6619 6.81837 13.8878 6.95266 14.0678C7.03223 14.1724 7.13477 14.2574 7.25236 14.3161C7.36996 14.3749 7.49949 14.4059 7.63096 14.4068C7.81414 14.4051 7.99214 14.3458 8.1397 14.2373L14.9228 9.15254C15.0119 9.08577 15.0869 9.00211 15.1436 8.90635C15.2004 8.81059 15.2377 8.7046 15.2534 8.59443C15.2692 8.48425 15.263 8.37206 15.2354 8.26425C15.2078 8.15645 15.1592 8.05513 15.0924 7.9661C15.0255 7.87707 14.9418 7.80206 14.846 7.74536C14.7502 7.68866 14.6442 7.65138 14.534 7.63564C14.4237 7.6199 14.3115 7.62601 14.2036 7.65363C14.0958 7.68125 13.9944 7.72984 13.9053 7.79661L7.12223 12.8814ZM6.78308 6.77966C6.78308 7.2825 6.93226 7.77404 7.21176 8.19213C7.49126 8.61022 7.88853 8.93608 8.35332 9.12851C8.81811 9.32093 9.32956 9.37128 9.82298 9.27318C10.3164 9.17509 10.7696 8.93295 11.1254 8.57739C11.4811 8.22183 11.7234 7.76883 11.8215 7.27565C11.9197 6.78248 11.8693 6.2713 11.6768 5.80674C11.4842 5.34218 11.1582 4.94512 10.7399 4.66576C10.3216 4.3864 9.82982 4.23729 9.32673 4.23729C8.65272 4.23926 8.00688 4.50774 7.53027 4.98411C7.05367 5.46047 6.78505 6.10599 6.78308 6.77966ZM12.7183 14.4068C12.5506 14.4068 12.3866 14.4565 12.2472 14.5496C12.1078 14.6427 11.9991 14.7751 11.9349 14.9299C11.8708 15.0848 11.854 15.2552 11.8867 15.4196C11.9194 15.584 12.0001 15.735 12.1187 15.8535C12.2373 15.972 12.3884 16.0527 12.5529 16.0854C12.7173 16.1181 12.8878 16.1013 13.0427 16.0372C13.1977 15.973 13.3301 15.8644 13.4233 15.7251C13.5164 15.5857 13.5662 15.4218 13.5662 15.2542C13.5655 15.0297 13.476 14.8145 13.3171 14.6557C13.1582 14.4969 12.9429 14.4074 12.7183 14.4068Z" fill="url(#paint0_linear_63_2178)"/>
<defs>
<linearGradient id="paint0_linear_63_2178" x1="49.5542" y1="-2.19711" x2="25.0203" y2="50.0095" gradientUnits="userSpaceOnUse">
<stop stop-color="#8746FF"/>
<stop offset="1" stop-color="#8746FF" stop-opacity="0.2"/>
</linearGradient>
</defs>
</svg>
