<svg width="48" height="50" viewBox="0 0 48 50" fill="none" xmlns="http://www.w3.org/2000/svg">
<path fill-rule="evenodd" clip-rule="evenodd" d="M45.6858 25.6478C45.4845 25.2362 45.4845 24.7641 45.6858 24.3526L47.5515 20.5377C48.5903 18.4136 47.7673 15.8818 45.6778 14.7737L41.925 12.7835C41.5201 12.5689 41.2426 12.1868 41.1633 11.7358L40.4294 7.55326C40.0207 5.22457 37.8656 3.65973 35.5239 3.99088L31.3175 4.58561C30.8635 4.64967 30.4145 4.50377 30.0852 4.18531L27.0319 1.23299C25.3317 -0.410947 22.6684 -0.411045 20.9683 1.23299L17.9149 4.18561C17.5855 4.50416 17.1365 4.64977 16.6826 4.5859L12.4762 3.99118C10.1337 3.65983 7.9794 5.22486 7.57071 7.55356L6.83676 11.7359C6.75753 12.187 6.47995 12.569 6.07517 12.7837L2.3224 14.7739C0.232925 15.8819 -0.590125 18.4138 0.448652 20.538L2.31429 24.3528C2.51556 24.7644 2.51556 25.2365 2.31429 25.648L0.448555 29.4628C-0.590223 31.5869 0.232827 34.1186 2.3223 35.2267L6.07507 37.217C6.47995 37.4316 6.75753 37.8136 6.83676 38.2647L7.57071 42.4472C7.94276 44.5671 9.7614 46.0538 11.8516 46.0536C12.0574 46.0536 12.2663 46.0392 12.4763 46.0095L16.6827 45.4148C17.1363 45.3504 17.5856 45.4966 17.915 45.815L20.9683 48.7674C21.8185 49.5894 22.9091 50.0004 24 50.0003C25.0907 50.0002 26.1819 49.5892 27.0318 48.7674L30.0852 45.815C30.4146 45.4966 30.8637 45.3511 31.3175 45.4148L35.5239 46.0095C37.8666 46.3407 40.0207 44.7758 40.4294 42.4471L41.1634 38.2648C41.2427 37.8136 41.5202 37.4317 41.925 37.217L45.6778 35.2267C47.7673 34.1187 48.5903 31.5868 47.5515 29.4627L45.6858 25.6478ZM18.2296 12.0232C21.1462 12.0232 23.5191 14.3949 23.5191 17.3101C23.5191 20.2254 21.1462 22.5971 18.2296 22.5971C15.313 22.5971 12.9401 20.2254 12.9401 17.3101C12.9401 14.3949 15.313 12.0232 18.2296 12.0232ZM15.4994 35.5357C15.2177 35.8173 14.8485 35.9581 14.4794 35.9581C14.1103 35.9581 13.7409 35.8174 13.4594 35.5357C12.896 34.9726 12.896 34.0597 13.4594 33.4966L32.5006 14.4646C33.0638 13.9015 33.9774 13.9015 34.5407 14.4646C35.1041 15.0276 35.1041 15.9406 34.5407 16.5037L15.4994 35.5357ZM29.7703 37.9773C26.8536 37.9773 24.4807 35.6055 24.4807 32.6903C24.4807 29.7751 26.8536 27.4033 29.7703 27.4033C32.6869 27.4033 35.0598 29.7751 35.0598 32.6903C35.0598 35.6055 32.6869 37.9773 29.7703 37.9773ZM29.7702 30.2872C28.4445 30.2872 27.3658 31.3652 27.3658 32.6903C27.3658 34.0154 28.4444 35.0934 29.7702 35.0934C31.0959 35.0934 32.1745 34.0154 32.1745 32.6903C32.1745 31.3652 31.0959 30.2872 29.7702 30.2872ZM15.8251 17.31C15.8251 15.9849 16.9036 14.9069 18.2294 14.9069C19.5551 14.9069 20.6336 15.985 20.6337 17.31C20.6337 18.6352 19.5551 19.7132 18.2294 19.7132C16.9036 19.7132 15.8251 18.6351 15.8251 17.31Z" fill="url(#paint0_linear_63_2183)"/>
<defs>
<linearGradient id="paint0_linear_63_2183" x1="47.572" y1="-2.19712" x2="22.403" y2="49.2184" gradientUnits="userSpaceOnUse">
<stop stop-color="#8746FF"/>
<stop offset="1" stop-color="#8746FF" stop-opacity="0.2"/>
</linearGradient>
</defs>
</svg>
