<svg width="29" height="29" viewBox="0 0 29 29" fill="none" xmlns="http://www.w3.org/2000/svg">
<path d="M28.125 14.0625C28.125 15.2625 26.6508 16.2516 26.3555 17.3578C26.0508 18.5016 26.8219 20.0953 26.243 21.0961C25.6547 22.1133 23.8852 22.2352 23.0602 23.0602C22.2352 23.8852 22.1133 25.6547 21.0961 26.243C20.0953 26.8219 18.5016 26.0508 17.3578 26.3555C16.2516 26.6508 15.2625 28.125 14.0625 28.125C12.8625 28.125 11.8734 26.6508 10.7672 26.3555C9.62344 26.0508 8.02969 26.8219 7.02891 26.243C6.01172 25.6547 5.88984 23.8852 5.06484 23.0602C4.23984 22.2352 2.47031 22.1133 1.88203 21.0961C1.30312 20.0953 2.07422 18.5016 1.76953 17.3578C1.47422 16.2516 0 15.2625 0 14.0625C0 12.8625 1.47422 11.8734 1.76953 10.7672C2.07422 9.62344 1.30312 8.02969 1.88203 7.02891C2.47031 6.01172 4.23984 5.88984 5.06484 5.06484C5.88984 4.23984 6.01172 2.47031 7.02891 1.88203C8.02969 1.30312 9.62344 2.07422 10.7672 1.76953C11.8734 1.47422 12.8625 0 14.0625 0C15.2625 0 16.2516 1.47422 17.3578 1.76953C18.5016 2.07422 20.0953 1.30312 21.0961 1.88203C22.1133 2.47031 22.2352 4.23984 23.0602 5.06484C23.8852 5.88984 25.6547 6.01172 26.243 7.02891C26.8219 8.02969 26.0508 9.62344 26.3555 10.7672C26.6508 11.8734 28.125 12.8625 28.125 14.0625Z" fill="#FF0000"/>
<path d="M10.7435 17.7435L14.279 14.208M17.8146 10.6724L14.279 14.208M14.279 14.208L10.5355 10.4645L17.6066 17.5355" stroke="white" stroke-width="2.5" stroke-linecap="round" stroke-linejoin="round"/>
</svg>
