<svg width="219" height="218" viewBox="0 0 219 218" fill="none" xmlns="http://www.w3.org/2000/svg">
<path d="M124.525 26.3425C126.225 24.9052 128.797 25.4052 129.85 27.3257L129.947 27.5164L136.554 41.4598C138.2 44.933 141.961 46.8565 145.716 46.1911L146.079 46.1189L161.142 42.7725C163.315 42.2901 165.36 43.9286 165.4 46.1185L165.398 46.3328L164.768 61.7498C164.611 65.5898 167.047 69.0405 170.681 70.1962L171.036 70.301L185.929 74.3388C188.077 74.9215 189.126 77.3219 188.144 79.2799L188.043 79.4677L180.32 92.8266C178.397 96.1539 178.951 100.341 181.631 103.053L181.897 103.311L193.207 113.807C194.839 115.321 194.652 117.936 192.873 119.213L192.695 119.331L179.649 127.571C176.4 129.623 174.944 133.589 176.057 137.236L176.173 137.587L181.31 152.138C182.051 154.237 180.671 156.464 178.502 156.769L178.289 156.791L162.908 158.025C159.077 158.332 155.946 161.167 155.237 164.913L155.176 165.278L152.963 180.548C152.643 182.751 150.386 184.083 148.324 183.344L148.125 183.266L133.933 177.21C130.398 175.701 126.308 176.756 123.938 179.744L123.715 180.039L114.658 192.532C113.352 194.334 110.735 194.464 109.252 192.851L109.112 192.69L99.3605 180.731C96.9316 177.753 92.8198 176.787 89.3338 178.331L88.998 178.488L75.1731 185.342C73.1789 186.33 70.8018 185.229 70.2382 183.112L70.1894 182.904L67.1111 167.784C66.3445 164.018 63.1532 161.251 59.3487 160.999L58.9788 160.981L43.5525 160.625C41.3271 160.574 39.734 158.493 40.219 156.357L40.2719 156.15L44.5732 141.332C45.6445 137.641 44.1051 133.708 40.8539 131.716L40.5335 131.53L27.0403 124.045C25.0935 122.965 24.6492 120.382 26.0717 118.716L26.2147 118.558L36.9101 107.436C39.5738 104.666 40.038 100.467 38.0847 97.1928L37.888 96.8784L29.4186 83.9807C28.1969 82.1199 29.0035 79.6269 31.0371 78.8126L31.2379 78.7392L45.876 73.861C49.522 72.6461 51.8847 69.145 51.6771 65.3379L51.6483 64.968L50.1431 49.6113C49.9261 47.3958 51.7993 45.5632 53.9785 45.7874L54.1901 45.8163L69.4186 48.3C73.2117 48.9187 76.9305 46.915 78.5157 43.4472L78.6632 43.1074L84.4664 28.8105C85.3037 26.7479 87.8133 25.9956 89.6388 27.2065L89.8131 27.3292L102.144 36.6066C105.215 38.9168 109.438 38.8711 112.453 36.5375L112.742 36.3042L124.525 26.3425Z" fill="#EFE6FF" stroke="#DECCFF" stroke-width="5"/>
<path d="M120.517 25.9748C123.525 23.4314 128.126 24.4277 129.813 27.9875L136.156 41.3745C137.355 43.9052 140.145 45.2699 142.879 44.6627L157.34 41.4507C161.186 40.5966 164.797 43.6171 164.636 47.553L164.031 62.3543C163.917 65.1524 165.754 67.6574 168.456 68.3902L182.754 72.2667C186.556 73.2975 188.35 77.6502 186.378 81.0605L178.964 93.8854C177.563 96.3098 178.025 99.3813 180.077 101.286L190.936 111.363C193.823 114.043 193.389 118.73 190.058 120.834L177.533 128.744C175.165 130.24 174.147 133.174 175.079 135.815L180.011 149.783C181.322 153.498 178.759 157.447 174.833 157.762L160.066 158.945C157.275 159.169 155.01 161.294 154.608 164.066L152.483 178.726C151.918 182.625 147.813 184.93 144.19 183.384L130.565 177.57C127.989 176.471 124.996 177.3 123.352 179.567L114.658 191.561C112.346 194.75 107.64 194.884 105.15 191.831L95.7879 180.351C94.018 178.181 90.9823 177.524 88.4733 178.767L75.2009 185.347C71.6715 187.096 67.4423 185.028 66.6566 181.168L63.7017 166.652C63.1431 163.908 60.7605 161.915 57.9608 161.85L43.1511 161.508C39.213 161.417 36.4294 157.62 37.5275 153.837L41.657 139.611C42.4377 136.921 41.2541 134.05 38.8052 132.691L25.8508 125.506C22.406 123.595 21.7059 118.94 24.4363 116.1L34.7041 105.422C36.6452 103.404 36.9317 100.311 35.3946 97.9701L27.2633 85.5875C25.1011 82.2948 26.6447 77.8471 30.3818 76.6018L44.4358 71.9187C47.0926 71.0334 48.7836 68.428 48.5104 65.641L47.065 50.898C46.6806 46.9776 50.1143 43.7567 54.0021 44.3908L68.6227 46.7754C71.3865 47.2261 74.0947 45.705 75.1479 43.1103L80.7195 29.3843C82.201 25.7343 86.7383 24.4781 89.8861 26.8463L101.724 35.7522C103.962 37.4358 107.066 37.3474 109.205 35.5394L120.517 25.9748Z" fill="#EFE6FF"/>
</svg>
