<svg width="50" height="50" viewBox="0 0 50 50" fill="none" xmlns="http://www.w3.org/2000/svg">
<path fill-rule="evenodd" clip-rule="evenodd" d="M25.777 0.502472L27.1181 3.32522C27.2449 3.59061 27.4878 3.7762 27.7717 3.81888L30.7699 4.27171C31.4806 4.37935 31.7645 5.28686 31.2503 5.80835L29.0806 8.00568C28.877 8.21354 28.7824 8.51048 28.8306 8.8037L29.3431 11.9067C29.4645 12.6435 28.7217 13.2039 28.0842 12.8569L25.402 11.3926C25.1503 11.2553 24.8485 11.2553 24.5949 11.3926L21.9128 12.8569C21.277 13.2039 20.5324 12.6435 20.6538 11.9067L21.1663 8.8037C21.2145 8.51048 21.1217 8.21354 20.9163 8.00568L18.7503 5.80835C18.236 5.28686 18.5199 4.37935 19.2306 4.27171L22.2288 3.81888C22.511 3.7762 22.7556 3.59247 22.8824 3.32522L24.2235 0.502472C24.5413 -0.167491 25.4592 -0.167491 25.777 0.502472ZM8.63044 10.7486L7.28937 7.92584C6.97151 7.25588 6.05365 7.25588 5.7358 7.92584L4.39473 10.7486C4.26794 11.014 4.0233 11.1996 3.74115 11.2423L0.742939 11.6951C0.032225 11.8027 -0.251703 12.7102 0.262583 13.2317L2.42865 15.4291C2.63401 15.6369 2.72687 15.9338 2.67865 16.2271L2.16615 19.3301C2.04473 20.0668 2.78937 20.6273 3.42508 20.2803L6.10723 18.816C6.3608 18.6787 6.66258 18.6787 6.91437 18.816L9.59651 20.2803C10.234 20.6273 10.9769 20.0668 10.8554 19.3301L10.3429 16.2271C10.2947 15.9338 10.3894 15.6369 10.5929 15.4291L12.7626 13.2317C13.2769 12.7102 12.9929 11.8027 12.2822 11.6951L9.28401 11.2423C9.00008 11.1996 8.75723 11.014 8.63044 10.7486ZM40.1781 35.3757L37.2139 46.4737C36.6603 48.5522 34.8567 49.9998 32.7674 49.9998H18.8031V29.2885L24.696 20.6216C25.321 19.7123 26.3389 19.1555 27.4281 19.1555C29.321 19.1555 30.7674 20.7701 30.7674 22.626C30.7674 22.9415 30.7317 23.257 30.6424 23.5724L29.0889 29.2885H35.7317C38.7853 29.2885 40.9996 32.3135 40.1781 35.3757ZM16.1252 29.2888H12.8574C11.0895 29.2888 9.64308 30.7921 9.64308 32.6294V46.6596C9.64308 48.5154 11.0895 50.0001 12.8574 50.0001H16.1252V29.2888ZM45.605 10.7486L44.264 7.92581C43.9461 7.25585 43.0283 7.25585 42.7068 7.92581L41.3658 10.7486C41.239 11.0158 40.9943 11.1995 40.7122 11.2422L37.714 11.695C37.0033 11.8027 36.7193 12.7102 37.2336 13.2317L39.4033 15.429C39.6086 15.6369 39.7015 15.9338 39.6533 16.227L39.1408 19.33C39.0193 20.0668 39.764 20.6273 40.3997 20.2802L43.0818 18.816C43.3354 18.6786 43.6372 18.6786 43.889 18.816L46.5711 20.2802C47.2086 20.6273 47.9515 20.0668 47.83 19.33L47.3175 16.227C47.2693 15.9338 47.364 15.6369 47.5675 15.429L49.7372 13.2317C50.2515 12.7102 49.9675 11.8027 49.2568 11.695L46.2586 11.2422C45.9747 11.1995 45.7318 11.014 45.605 10.7486Z" fill="url(#paint0_linear_63_2191)"/>
<defs>
<linearGradient id="paint0_linear_63_2191" x1="49.5542" y1="-2.19711" x2="25.0203" y2="50.0095" gradientUnits="userSpaceOnUse">
<stop stop-color="#8746FF"/>
<stop offset="1" stop-color="#8746FF" stop-opacity="0.2"/>
</linearGradient>
</defs>
</svg>
