<svg width="40" height="40" viewBox="0 0 40 40" fill="none" xmlns="http://www.w3.org/2000/svg">
<path d="M20 0.5C27.2312 0.5 32.0616 1.86048 35.1006 4.89941C38.1395 7.93835 39.5 12.7688 39.5 20C39.5 27.2312 38.1395 32.0616 35.1006 35.1006C32.0616 38.1395 27.2312 39.5 20 39.5C12.7688 39.5 7.93835 38.1395 4.89941 35.1006C1.86048 32.0616 0.5 27.2312 0.5 20C0.5 12.7688 1.86048 7.93835 4.89941 4.89941C7.93835 1.86048 12.7688 0.5 20 0.5Z" fill="#EFE6FF" stroke="url(#paint0_radial_63_2154)"/>
<path fill-rule="evenodd" clip-rule="evenodd" d="M25.7863 11.2994C25.6978 11.4606 25.501 11.5162 25.3467 11.4235C25.1923 11.3309 25.1392 11.1252 25.228 10.964L26.33 8.96895C26.4186 8.80777 26.6153 8.75221 26.7696 8.84484C26.9239 8.93746 26.9771 9.14317 26.8883 9.30441L25.7863 11.2994ZM24.2108 13.7271L25.8753 16.7406C26.5006 16.2024 26.6808 15.2554 26.2626 14.4978C25.8442 13.7404 24.9694 13.43 24.2108 13.7271ZM19.1419 11.9946L24.7763 22.1951L24.9476 22.5052C25.0364 22.6657 25.1491 22.803 25.2787 22.9149C25.7349 23.3088 26.3975 23.3888 26.938 23.0626C27.6321 22.6439 27.8721 21.7077 27.4713 20.9822L25.3066 17.0632L23.6592 14.0806L21.4943 10.1615C21.0937 9.43607 20.1979 9.18522 19.5039 9.60406C18.9635 9.93021 18.6983 10.5701 18.7967 11.1799C18.8247 11.3532 18.882 11.524 18.9707 11.6845L19.1419 11.9946ZM17.5282 24.2333C17.2342 24.3473 16.9456 24.4657 16.6631 24.5875L18.2935 26.8813L18.5667 26.6728C18.8267 26.4743 18.8353 26.0722 18.6432 25.802L17.5282 24.2333ZM15.925 23.3653L13.3856 18.768C15.7583 16.8824 17.6234 14.7552 18.7789 12.6895L24.0189 22.1762C21.9636 22.1879 19.581 22.6927 17.1262 23.6678C16.8469 23.7788 16.5668 23.8958 16.286 24.0189L15.925 23.3653ZM13.872 25.748L15.2483 24.9174L15.5488 24.7361L15.8387 24.5613L15.6886 24.2895L15.319 23.6203L15.3007 23.5872L12.8627 19.1734L12.7127 18.9018L12.1223 19.2581L10.2621 20.3806C8.77305 21.2791 8.25818 23.2876 9.11777 24.844C9.96195 26.3723 11.8302 26.9189 13.3072 26.0873C13.3343 26.072 13.3612 26.0563 13.3881 26.04L13.872 25.748ZM19.3882 29.5552C19.5803 29.8254 19.5502 30.1998 19.3117 30.426L18.5674 31.1319C18.4345 31.258 18.2745 31.3139 18.0958 31.2971C17.9171 31.2803 17.7676 31.1964 17.6602 31.0461L14.2619 26.2933L15.9371 25.2825L16.227 25.1075L17.7712 27.2802L19.3882 29.5552ZM28.674 17.2029C28.4954 17.2029 28.3506 17.0515 28.3506 16.8647C28.3506 16.678 28.4954 16.5267 28.674 16.5267H30.878C31.0564 16.5267 31.2014 16.678 31.2014 16.8647C31.2014 17.0515 31.0564 17.2029 30.878 17.2029H28.674ZM28.4487 13.5672C28.2947 13.6598 28.0979 13.6043 28.0091 13.4431C27.9206 13.2819 27.9738 13.0762 28.1278 12.9836L29.9374 11.8916C30.0914 11.799 30.2882 11.8546 30.3771 12.0158C30.4655 12.1769 30.4123 12.3827 30.2581 12.4753L28.4487 13.5672Z" fill="url(#paint1_radial_63_2154)"/>
<defs>
<radialGradient id="paint0_radial_63_2154" cx="0" cy="0" r="1" gradientUnits="userSpaceOnUse" gradientTransform="translate(148 130) rotate(-138.417) scale(189.842)">
<stop stop-color="#8746FF" stop-opacity="0.5"/>
<stop offset="1" stop-color="#EFE6FF"/>
</radialGradient>
<radialGradient id="paint1_radial_63_2154" cx="0" cy="0" r="1" gradientUnits="userSpaceOnUse" gradientTransform="translate(13.9514 31.3) rotate(50.7262) scale(38.624 38.6241)">
<stop stop-color="#5B00FF"/>
<stop offset="1" stop-color="white"/>
</radialGradient>
</defs>
</svg>
