<svg width="40" height="40" viewBox="0 0 40 40" fill="none" xmlns="http://www.w3.org/2000/svg">
<path d="M15.886 11.9461L29.2611 19.989L15.886 28.0533V25.2384C15.886 24.1192 16.4938 23.089 17.4788 22.5309L21.986 19.989L17.4757 17.4286C16.4938 16.8706 15.8891 15.8403 15.8891 14.7272V11.9461H15.886Z" fill="url(#paint0_linear_63_2159)"/>
<path d="M39.9998 24.9902C38.8839 29.2585 36.3747 32.9779 32.9771 35.6455C29.511 38.3714 25.1191 39.9996 20.3314 39.9996C19.0441 39.9996 17.7848 39.88 16.5629 39.6562C11.2359 38.675 6.64456 35.6486 3.65222 31.4386C1.15237 27.9216 -0.225348 23.5736 0.0302478 18.9006C0.600662 8.42622 9.61508 0.0246359 20.2784 0.000105738C25.1222 -0.0152256 29.5702 1.63749 33.0675 4.4094C33.8655 5.04106 34.6136 5.7279 35.3024 6.46994C35.3055 6.47301 35.3087 6.47607 35.3118 6.47914C35.3305 6.5006 35.3523 6.519 35.3741 6.54046C35.3741 6.54353 35.3772 6.54353 35.3772 6.54353C35.3804 6.5466 35.3866 6.55273 35.3897 6.55579C35.5424 6.72137 35.6889 6.89002 35.8354 7.05866C35.8884 7.11999 35.9383 7.17825 35.9882 7.23957C35.9944 7.24877 36.0038 7.25797 36.01 7.26717C36.091 7.35916 36.1658 7.45115 36.2407 7.54313C36.3155 7.63512 36.3903 7.72711 36.462 7.8191C36.4651 7.82523 36.4682 7.8283 36.4713 7.83137C36.4838 7.84976 36.4994 7.86509 36.5118 7.88349C36.5274 7.90189 36.5399 7.91722 36.5524 7.93562C36.6022 8.00001 36.6521 8.0644 36.702 8.13186C36.7176 8.15332 36.7331 8.17172 36.7487 8.19319C36.8204 8.28824 36.889 8.38329 36.9576 8.47835C37.048 8.60713 37.1321 8.73898 37.2101 8.87083C37.235 8.91069 37.2568 8.95055 37.2786 8.99042C37.6745 9.71406 37.8584 10.4806 37.8584 11.2288C37.8584 11.2963 37.8553 11.3637 37.8522 11.4312C37.849 11.4894 37.8459 11.5446 37.8428 11.5998C37.8397 11.6489 37.8335 11.6979 37.8272 11.7439C37.8241 11.7623 37.8241 11.7807 37.821 11.7961C37.8148 11.8543 37.8054 11.9095 37.796 11.9678C37.7898 12.0015 37.7867 12.0322 37.7805 12.0659C37.7805 12.069 37.7773 12.072 37.7773 12.072C37.7711 12.1027 37.7649 12.1364 37.7586 12.1671C37.7524 12.2008 37.7431 12.2345 37.7368 12.2652C37.7212 12.3327 37.7057 12.397 37.687 12.4645C37.6683 12.5289 37.6495 12.5933 37.6277 12.6607C37.6184 12.6945 37.6059 12.7251 37.5966 12.7558C37.5841 12.7895 37.5747 12.8202 37.5623 12.8509C37.5498 12.8815 37.5373 12.9152 37.5249 12.9459C37.475 13.0716 37.4189 13.1973 37.3597 13.3169C37.3285 13.3783 37.2973 13.4396 37.2662 13.4978C37.235 13.5592 37.2007 13.6174 37.1633 13.6726C37.1446 13.7002 37.129 13.7309 37.1103 13.7585C37.0916 13.7861 37.0729 13.8167 37.0542 13.8443C37.0355 13.8719 37.0168 13.8995 36.995 13.9302C36.9763 13.9578 36.9545 13.9854 36.9358 14.013C36.8765 14.0958 36.8142 14.1755 36.7487 14.2552L36.7456 14.2583C36.702 14.3104 36.6583 14.3595 36.6147 14.4116C36.5929 14.4361 36.5679 14.4637 36.5461 14.4852C36.5212 14.5097 36.4994 14.5342 36.4744 14.5588C36.4277 14.6078 36.3778 14.6538 36.3279 14.7029C36.303 14.7274 36.2781 14.7489 36.2531 14.7734C36.2282 14.7949 36.2001 14.8194 36.1752 14.8409C36.1222 14.8869 36.0692 14.9298 36.0162 14.9727C35.9882 14.9942 35.9601 15.0156 35.9321 15.034C35.7887 15.1414 35.6391 15.2395 35.4832 15.3284C35.4583 15.3437 35.4302 15.3591 35.4053 15.3713C35.3741 15.3897 35.343 15.4051 35.3118 15.4235C35.1404 15.5124 34.9596 15.5921 34.7757 15.6626C34.7507 15.6718 34.7227 15.681 34.6977 15.6902C34.651 15.7086 34.6042 15.7209 34.5575 15.7362C34.5263 15.7454 34.4951 15.7546 34.464 15.7638C34.3393 15.8006 34.2115 15.8313 34.0806 15.8589C34.04 15.8681 33.9995 15.8742 33.959 15.8834C33.9309 15.8895 33.8998 15.8926 33.8717 15.8987C33.8343 15.9049 33.7969 15.911 33.7595 15.9171C33.7408 15.9202 33.7221 15.9233 33.7034 15.9233C33.6722 15.9294 33.6379 15.9325 33.6037 15.9355C33.532 15.9417 33.4603 15.9478 33.3855 15.9539C33.3574 15.957 33.3262 15.957 33.2982 15.9601C33.2639 15.9631 33.2296 15.9631 33.1922 15.9631C33.1486 15.9631 33.1049 15.9662 33.0613 15.9662C31.3345 10.6707 26.2911 6.83483 20.3345 6.83483C15.9302 6.83483 12.0214 8.93216 9.58391 12.1671V12.1701C8.96986 12.9827 8.45555 13.8658 8.04722 14.8041C7.62019 15.7853 7.3116 16.8247 7.13705 17.9102C6.95315 19.0601 6.91574 20.2559 7.05601 21.4824C7.25238 23.2394 7.81344 24.8982 8.66439 26.3884C9.06337 27.0876 9.52469 27.7468 10.0421 28.3631C10.1637 28.5072 10.2915 28.6514 10.4193 28.7955C10.7933 29.2002 11.1892 29.5835 11.61 29.9423C11.6661 29.9913 11.7253 30.0373 11.7845 30.0864C11.8344 30.1293 11.8843 30.1692 11.9373 30.209C12.0214 30.2765 12.1056 30.3409 12.1897 30.4053C12.2365 30.4421 12.2864 30.4789 12.3331 30.5126C12.4578 30.6046 12.5825 30.6966 12.7103 30.7824C12.7726 30.8284 12.8381 30.8713 12.9035 30.9112C12.9565 30.948 13.0126 30.9848 13.0656 31.0185C13.0719 31.0216 13.0781 31.0246 13.0843 31.0308C13.1654 31.0829 13.2464 31.132 13.3275 31.181C13.449 31.2577 13.5737 31.3313 13.7015 31.4018C13.7576 31.4325 13.8106 31.4631 13.8667 31.4938C13.8854 31.5061 13.9072 31.5153 13.929 31.5275C13.9851 31.5582 14.0412 31.5888 14.0974 31.6164C14.1067 31.6226 14.1161 31.6256 14.1223 31.6318C14.1877 31.6655 14.2532 31.6992 14.3187 31.7299C14.4589 31.8004 14.5992 31.8679 14.7426 31.9323C14.8143 31.966 14.886 31.9967 14.9577 32.0273C15.0293 32.061 15.101 32.0886 15.1727 32.1193C15.4626 32.2389 15.7587 32.3523 16.058 32.4505C16.1203 32.4719 16.1858 32.4934 16.2481 32.5118C16.2512 32.5118 16.2574 32.5149 16.2606 32.5149C16.273 32.521 16.2855 32.5241 16.298 32.5271C16.3042 32.5302 16.3104 32.5333 16.3167 32.5333C16.3821 32.5547 16.4476 32.5731 16.5099 32.5915C16.5785 32.613 16.6471 32.6314 16.7188 32.6528C16.7375 32.659 16.7562 32.662 16.7749 32.6682C16.9183 32.708 17.0585 32.7418 17.205 32.7755C17.2829 32.7939 17.3609 32.8123 17.4388 32.8276C17.5791 32.8583 17.7193 32.8859 17.8596 32.9104C17.8689 32.9135 17.8783 32.9135 17.8876 32.9165C17.9126 32.9227 17.9344 32.9257 17.9593 32.9288C17.9656 32.9288 17.9718 32.9319 17.978 32.9319C18.0342 32.9441 18.0934 32.9533 18.1526 32.9595C18.2305 32.9717 18.3116 32.984 18.3926 32.9963C19.9511 33.2109 21.4629 33.1618 22.8967 32.8889C23.0868 32.8552 23.2739 32.8153 23.4578 32.7694C23.5824 32.7418 23.704 32.7111 23.8287 32.6774C24.3181 32.5486 24.7981 32.3891 25.2625 32.2082C25.4371 32.1408 25.6116 32.0672 25.7799 31.9936C25.836 31.9691 25.8953 31.9445 25.9514 31.9169C26.0636 31.8648 26.1758 31.8127 26.288 31.7575C26.4532 31.6778 26.6184 31.5919 26.7805 31.503C26.7836 31.503 26.7867 31.4999 26.7899 31.4969C26.8958 31.4386 27.0018 31.3803 27.1078 31.319C27.1608 31.2883 27.2138 31.2577 27.2668 31.224C27.3727 31.1626 27.4787 31.0952 27.5816 31.0277C27.6346 30.997 27.6844 30.9633 27.7374 30.9265C27.7904 30.8928 27.8403 30.8591 27.8902 30.8253C27.9244 30.8039 27.9556 30.7824 27.9899 30.7579C28.1084 30.6782 28.2268 30.5923 28.3421 30.5064C28.3795 30.4788 28.4169 30.4543 28.4512 30.4237C28.5697 30.3347 28.685 30.2458 28.8003 30.1508C28.8346 30.1232 28.8689 30.0956 28.9032 30.068C28.9562 30.025 29.0092 29.979 29.0622 29.9361C29.1089 29.8963 29.1557 29.8564 29.2024 29.8165C29.2492 29.7767 29.2959 29.7368 29.3396 29.6939C29.4767 29.5712 29.6108 29.4455 29.7417 29.3167C29.7853 29.2769 29.8289 29.2309 29.8726 29.1879C29.9536 29.1082 30.0316 29.0285 30.1064 28.9457C30.1562 28.8936 30.2061 28.8415 30.2529 28.7893C30.2934 28.7433 30.337 28.7004 30.3744 28.6544C30.496 28.5164 30.6176 28.3785 30.7329 28.2374C30.7734 28.1914 30.8108 28.1423 30.8482 28.0964C30.8887 28.0473 30.923 28.0013 30.9604 27.9522C30.9978 27.9032 31.0352 27.8541 31.0726 27.8051C31.11 27.756 31.1474 27.7069 31.1817 27.6579C31.2565 27.5567 31.3251 27.4586 31.3968 27.3543C31.4654 27.2562 31.534 27.155 31.5994 27.0538C31.6025 27.0508 31.6025 27.0477 31.6056 27.0446C31.6306 27.0048 31.6555 26.968 31.6805 26.9281C31.7085 26.8852 31.7334 26.8423 31.7615 26.7993C31.7802 26.7717 31.7989 26.7411 31.8145 26.7104C31.8332 26.6828 31.8488 26.6521 31.8675 26.6215C31.908 26.5571 31.9454 26.4927 31.9828 26.4252C32.4878 25.5452 33.4042 24.9749 34.4328 24.9749H39.9998V24.9902Z" fill="url(#paint1_linear_63_2159)"/>
<path d="M34.4262 24.9906C33.3976 24.9906 32.4812 25.5609 31.9762 26.4409C31.9388 26.5053 31.9014 26.5697 31.8609 26.6372C31.8422 26.6678 31.8266 26.6954 31.8079 26.7261C31.7892 26.7568 31.7705 26.7844 31.7549 26.815C31.7269 26.858 31.7019 26.9009 31.6739 26.9438C31.649 26.9837 31.624 27.0235 31.5991 27.0603C31.596 27.0634 31.596 27.0665 31.5929 27.0695C31.5274 27.1707 31.4619 27.2719 31.3902 27.37C31.3186 27.4712 31.2469 27.5724 31.1752 27.6736C31.1409 27.7226 31.1035 27.7717 31.0661 27.8208C31.0287 27.8698 30.9913 27.9189 30.9539 27.9679C30.9165 28.017 30.8791 28.063 30.8417 28.1121C30.8042 28.1611 30.7668 28.2071 30.7263 28.2531C30.611 28.3942 30.4925 28.5352 30.3679 28.6701C30.3273 28.7161 30.2868 28.7621 30.2463 28.805C30.1995 28.8572 30.1497 28.9093 30.0998 28.9614C30.025 29.0442 29.9471 29.1239 29.866 29.2036C29.8255 29.2466 29.7787 29.2895 29.7351 29.3324C29.6042 29.4612 29.4702 29.5869 29.333 29.7096C29.2894 29.7525 29.2426 29.7924 29.1959 29.8322C29.1491 29.8721 29.1024 29.915 29.0556 29.9518C29.0026 29.9978 28.9496 30.0407 28.8966 30.0837C28.8623 30.1113 28.8281 30.1389 28.7938 30.1665C28.6784 30.2584 28.5631 30.3504 28.4447 30.4394C28.4073 30.467 28.373 30.4946 28.3356 30.5221C28.2202 30.608 28.1018 30.6939 27.9833 30.7736C27.9491 30.7981 27.9179 30.8196 27.8836 30.841C27.8337 30.8778 27.7807 30.9116 27.7309 30.9422C27.681 30.976 27.628 31.0097 27.575 31.0434C27.4722 31.1109 27.3662 31.1753 27.2602 31.2397C27.2072 31.2734 27.1542 31.304 27.1012 31.3347C26.9952 31.396 26.8893 31.4543 26.7833 31.5126C26.7802 31.5156 26.7771 31.5156 26.7739 31.5187C26.6119 31.6076 26.4466 31.6935 26.2814 31.7732C26.1692 31.8284 26.057 31.8805 25.9448 31.9326C25.8887 31.9602 25.8326 31.9848 25.7734 32.0093C25.6019 32.0859 25.4305 32.1565 25.256 32.2239C24.7915 32.4079 24.3115 32.5643 23.8221 32.6931C23.7006 32.7268 23.5759 32.7575 23.4512 32.7851C23.2642 32.8311 23.0772 32.8709 22.8901 32.9046C21.4594 33.1806 19.9445 33.2266 18.386 33.012C18.305 32.9997 18.224 32.9874 18.146 32.9752C18.0868 32.966 18.0307 32.9568 17.9715 32.9476C17.9652 32.9476 17.959 32.9445 17.9528 32.9445C17.9278 32.9414 17.906 32.9384 17.8811 32.9322C17.8717 32.9292 17.8624 32.9292 17.853 32.9261C17.7128 32.9016 17.5725 32.874 17.4322 32.8433C17.3543 32.828 17.2764 32.8096 17.1985 32.7912C17.0551 32.7575 16.9117 32.7207 16.7683 32.6839C16.7496 32.6777 16.7309 32.6747 16.7122 32.6685C16.6405 32.6501 16.5719 32.6287 16.5034 32.6072C16.4379 32.5888 16.3724 32.5704 16.3101 32.549C16.3039 32.5459 16.2976 32.5428 16.2914 32.5428C16.2789 32.5398 16.2665 32.5367 16.254 32.5306C16.2509 32.5306 16.2446 32.5275 16.2415 32.5275C16.1761 32.5091 16.1137 32.4876 16.0514 32.4662C15.7522 32.368 15.456 32.2577 15.1662 32.135C15.0945 32.1074 15.0228 32.0767 14.9511 32.043C14.8794 32.0124 14.8077 31.9817 14.736 31.948C14.5926 31.8836 14.4524 31.8161 14.3121 31.7456C14.2466 31.7149 14.1812 31.6812 14.1157 31.6475C14.1064 31.6444 14.097 31.6383 14.0908 31.6321C14.0347 31.6045 13.9786 31.5739 13.9225 31.5432C13.9006 31.531 13.8819 31.5218 13.8601 31.5095C13.804 31.4788 13.7479 31.4482 13.6949 31.4175C13.5702 31.347 13.4456 31.2734 13.3209 31.1967C13.2398 31.1477 13.1588 31.0986 13.0778 31.0465C13.0715 31.0434 13.0653 31.0403 13.059 31.0342C13.0061 31.0005 12.95 30.9637 12.897 30.9269C12.8315 30.884 12.766 30.841 12.7037 30.7981C12.5759 30.7123 12.4481 30.6203 12.3266 30.5283C12.2767 30.4946 12.2299 30.4578 12.1832 30.421C12.099 30.3566 12.0148 30.2922 11.9307 30.2247C11.8777 30.1849 11.8278 30.1419 11.778 30.1021C11.7187 30.053 11.6626 30.007 11.6034 29.958C11.1826 29.5992 10.7867 29.2159 10.4127 28.8112C10.2849 28.6701 10.154 28.526 10.0355 28.3788C9.51811 27.7625 9.0568 27.1033 8.65782 26.4041C7.80687 24.9139 7.24581 23.2551 7.04944 21.4981C6.91229 20.2716 6.94657 19.0758 7.13048 17.9259C7.30503 16.8404 7.61362 15.801 8.04065 14.8198C8.45209 13.8815 8.9664 12.9984 9.57734 12.1858V12.1828C12.018 8.94786 15.9267 6.84746 20.3311 6.84746C26.2877 6.84746 31.331 10.6834 33.0579 15.9788C33.1015 15.9788 33.1451 15.9788 33.1888 15.9758C33.2231 15.9758 33.2605 15.9727 33.2947 15.9727C33.3228 15.9727 33.354 15.9696 33.382 15.9666C33.4568 15.9604 33.5285 15.9574 33.6002 15.9482C33.6345 15.9451 33.6657 15.942 33.7 15.9359C33.7187 15.9328 33.7374 15.9298 33.7561 15.9298C33.7935 15.9236 33.8309 15.9206 33.8683 15.9114C33.8994 15.9052 33.9275 15.9022 33.9556 15.896C33.9961 15.8899 34.0397 15.8807 34.0771 15.8715C34.208 15.8439 34.3358 15.8132 34.4605 15.7764C34.4917 15.7672 34.5229 15.758 34.554 15.7488C34.6008 15.7335 34.6475 15.7182 34.6943 15.7029C34.7223 15.6937 34.7473 15.6845 34.7722 15.6753C34.9592 15.6047 35.1369 15.525 35.3083 15.4361C35.3395 15.4177 35.3707 15.4024 35.4019 15.384C35.4299 15.3686 35.4548 15.3564 35.4798 15.341C35.6356 15.2521 35.7852 15.1509 35.9286 15.0467C35.9567 15.0252 35.9847 15.0068 36.0128 14.9853C36.0658 14.9424 36.1219 14.8995 36.1718 14.8535C36.1998 14.832 36.2247 14.8075 36.2497 14.786C36.2746 14.7646 36.3027 14.74 36.3245 14.7155C36.3744 14.6695 36.4242 14.6205 36.471 14.5714C36.4959 14.5469 36.5177 14.5223 36.5427 14.4978C36.5676 14.4733 36.5894 14.4487 36.6113 14.4242C36.6549 14.3752 36.6985 14.323 36.7422 14.2709C36.7422 14.2709 36.7422 14.2678 36.7453 14.2678C36.8107 14.1881 36.8731 14.1084 36.9323 14.0256C36.951 13.998 36.9728 13.9704 36.9915 13.9428C37.0102 13.9152 37.0321 13.8876 37.0508 13.857C37.0695 13.8294 37.0882 13.8018 37.1069 13.7711C37.1256 13.7435 37.1443 13.7128 37.1599 13.6852C37.1973 13.627 37.2284 13.5687 37.2627 13.5105C37.2939 13.4522 37.3251 13.3909 37.3562 13.3296C37.4154 13.2069 37.4716 13.0843 37.5214 12.9585C37.5339 12.9279 37.5464 12.8972 37.5588 12.8635C37.5713 12.8328 37.5807 12.7991 37.5931 12.7684C37.6056 12.7378 37.6149 12.704 37.6243 12.6734C37.6461 12.609 37.6648 12.5446 37.6835 12.4771C37.7022 12.4127 37.7178 12.3453 37.7334 12.2778C37.7396 12.2441 37.749 12.2104 37.7552 12.1797C37.7614 12.149 37.7677 12.1153 37.7739 12.0847C37.7739 12.0816 37.7739 12.0785 37.777 12.0785C37.7833 12.0448 37.7864 12.0141 37.7926 11.9804C37.802 11.9252 37.8113 11.8669 37.8175 11.8087C37.8207 11.7903 37.8207 11.7719 37.8238 11.7566C37.83 11.7075 37.8331 11.6615 37.8394 11.6124C37.8456 11.5573 37.8487 11.499 37.8487 11.4438C37.8518 11.3763 37.8549 11.3089 37.8549 11.2414C37.8549 10.4933 37.6742 9.72669 37.2752 9.00305C37.2534 8.96319 37.2315 8.92333 37.2066 8.88347C37.1318 8.75162 37.0476 8.61977 36.9541 8.49098C36.8856 8.39593 36.817 8.30087 36.7453 8.20582C36.7297 8.18436 36.7141 8.16289 36.6985 8.14449C36.6487 8.0801 36.5988 8.01264 36.5489 7.94825C36.5364 7.92985 36.5209 7.91452 36.5084 7.89613C36.4959 7.87773 36.4803 7.85933 36.4679 7.844C36.4648 7.83787 36.4616 7.8348 36.4585 7.83173C36.3868 7.73975 36.3151 7.64776 36.2372 7.55577C36.1624 7.46378 36.0876 7.37179 36.0065 7.2798C36.0003 7.27061 35.991 7.26141 35.9847 7.25221V7.24914C35.7946 7.00997 35.5951 6.78307 35.3863 6.56536C35.3831 6.55923 35.3769 6.55617 35.3738 6.5531C35.3738 6.5531 35.3738 6.5531 35.3707 6.55003C35.3489 6.52857 35.3302 6.50711 35.3083 6.48871C35.3052 6.48564 35.3021 6.48257 35.299 6.47951C34.607 5.73747 33.8589 5.05063 33.0641 4.41897C32.0729 3.76279 30.7294 3.10354 28.9777 2.6804C28.9652 2.67733 28.9559 2.67426 28.9434 2.67426C28.133 2.48109 27.2321 2.33697 26.2409 2.26645C21.7399 1.8893 18.3299 3.04835 18.3299 3.04835C17.8842 3.1802 17.4447 3.32738 17.0114 3.48989C16.7995 3.56961 16.5906 3.6524 16.3849 3.74133C16.3756 3.72906 16.3662 3.73519 16.3662 3.73519C9.52747 6.62976 4.71167 13.5595 4.71167 21.6545C4.71167 29.8261 9.62098 36.8141 16.5626 39.6566C17.7813 39.8804 19.0437 40 20.3311 40C25.1188 40 29.5107 38.3718 32.9768 35.6459C36.3744 32.9813 38.8836 29.2588 39.9995 24.9906H34.4262Z" fill="url(#paint2_linear_63_2159)"/>
<path d="M40 24.9888H34.4268C33.4013 24.9888 32.4817 25.5591 31.9768 26.4391C30.0286 29.8427 26.5812 32.308 22.5135 32.9672C21.195 33.1818 19.8111 33.2064 18.3897 33.0071C15.8244 32.6514 13.4835 31.5506 11.6008 29.9469C11.6008 29.9469 11.9905 30.3823 12.7666 30.9741C12.8258 31.0171 12.8882 31.06 12.9505 31.106C12.9599 31.1121 12.9692 31.1213 12.9786 31.1274C13.6082 31.5414 14.2659 31.9185 14.9485 32.262C14.9703 32.2712 14.989 32.2804 15.0108 32.2926C15.0763 32.3264 15.1418 32.357 15.2072 32.3846C16.3979 32.958 17.6634 33.4149 18.9882 33.7368C18.9913 33.7368 18.9944 33.7399 18.9975 33.7399C19.8859 33.9545 20.7992 34.1109 21.7374 34.1998C22.4699 34.2704 23.1961 34.298 23.9131 34.2857C25.057 34.2673 26.1791 34.1477 27.2701 33.9361C27.2919 33.9331 27.3137 33.93 27.3355 33.9269L27.3387 33.9239C32.7155 32.866 37.3599 29.5667 40 24.9888Z" fill="url(#paint3_linear_63_2159)"/>
<defs>
<linearGradient id="paint0_linear_63_2159" x1="7.85231" y1="6.14411" x2="30.3418" y2="34.3658" gradientUnits="userSpaceOnUse">
<stop stop-color="#3D56DE"/>
<stop offset="0.2691" stop-color="#4B79FF"/>
<stop offset="1" stop-color="#90ECFF"/>
</linearGradient>
<linearGradient id="paint1_linear_63_2159" x1="8.49913" y1="5.62616" x2="30.9887" y2="33.8478" gradientUnits="userSpaceOnUse">
<stop stop-color="#5F96FF"/>
<stop offset="0.583" stop-color="#4F54D9"/>
</linearGradient>
<linearGradient id="paint2_linear_63_2159" x1="9.50228" y1="4.82688" x2="31.9918" y2="33.0485" gradientUnits="userSpaceOnUse">
<stop stop-color="#3D56DE"/>
<stop offset="0.2691" stop-color="#4B79FF"/>
<stop offset="1" stop-color="#90ECFF"/>
</linearGradient>
<linearGradient id="paint3_linear_63_2159" x1="8.07505" y1="5.94131" x2="30.5826" y2="34.1856" gradientUnits="userSpaceOnUse">
<stop stop-color="#4F54D9"/>
<stop offset="0.2259" stop-color="#5059DC"/>
<stop offset="0.4952" stop-color="#5468E4"/>
<stop offset="0.7857" stop-color="#5A7FF2"/>
<stop offset="1" stop-color="#5F96FF"/>
</linearGradient>
</defs>
</svg>
