<svg width="99" height="75" viewBox="0 0 99 75" fill="none" xmlns="http://www.w3.org/2000/svg">
<path fill-rule="evenodd" clip-rule="evenodd" d="M74.2494 54.3428C81.7469 52.3034 89.2463 49.6744 97.1263 50.1095C97.5955 50.1339 97.9966 49.775 98.0229 49.303C98.0459 48.832 97.6875 48.4283 97.2173 48.4007C89.1532 47.9562 81.4711 50.604 73.7997 52.6917C73.3455 52.8129 73.0777 53.2854 73.2029 53.7408C73.3248 54.1972 73.7952 54.464 74.2494 54.3428Z" fill="#8746FF"/>
<path fill-rule="evenodd" clip-rule="evenodd" d="M70.3423 43.6836C72.0229 40.8467 74.076 38.4846 76.8996 36.7754C77.303 36.5315 77.4306 36.0061 77.189 35.6011C76.9442 35.1971 76.4186 35.0671 76.0184 35.31C72.9479 37.1682 70.7068 39.7224 68.8793 42.8056C68.6378 43.2111 68.7697 43.737 69.1758 43.9786C69.5786 44.2209 70.104 44.0882 70.3423 43.6836Z" fill="#8746FF"/>
<path fill-rule="evenodd" clip-rule="evenodd" d="M56.9041 22.1897C56.8753 18.2083 58.1156 14.7172 60.7095 11.6897C61.0152 11.3325 60.9748 10.7919 60.6166 10.4842C60.2616 10.1755 59.7227 10.2155 59.417 10.5727C56.5466 13.9243 55.169 17.7892 55.2007 22.1974C55.2029 22.6695 55.5901 23.0504 56.0586 23.0485C56.5305 23.0459 56.9095 22.6608 56.9041 22.1897Z" fill="#8746FF"/>
<path fill-rule="evenodd" clip-rule="evenodd" d="M18.7572 28.1501C18.3474 29.0874 18.02 30.0634 17.7931 31.0661C17.6918 31.5127 17.5555 32.438 17.7045 33.1523C17.8606 33.9141 18.2986 34.4655 19.0431 34.6027C20.0318 34.7841 20.7036 34.5342 21.1533 34.1119C21.5867 33.706 21.8358 33.0879 21.8875 32.3434C21.9856 30.9206 21.3305 28.9862 20.7464 27.945C21.2131 27.0432 21.7645 26.1872 22.3891 25.3861C27.0418 19.4196 36.1684 18.3865 44.7104 22.686C47.7002 24.1916 50.2014 28.4801 52.273 33.2941C55.4995 40.7892 57.5674 49.6186 58.2534 52.1815C58.4242 52.8139 58.594 53.1689 58.6489 53.2336C58.9114 53.5537 59.2106 53.5681 59.4106 53.5477C59.6994 53.5151 59.9024 53.3975 60.0512 53.2531C60.2519 53.0562 60.3816 52.7761 60.371 52.4069C60.3637 52.2034 60.2983 51.9366 60.2082 51.6582C60.1437 51.4657 60.0411 51.2649 60.0387 51.1139C60.0271 50.1454 60.074 49.1824 60.1125 48.2152C60.2345 44.9657 60.7055 41.8143 61.3211 38.6234C63.2762 28.4844 64.933 17.8935 70.4352 8.97228C70.6818 8.57203 70.5598 8.04358 70.1587 7.79472C69.7608 7.5449 69.236 7.66782 68.9862 8.06937C63.3733 17.1675 61.6433 27.9541 59.6486 38.2941C59.1254 41.0083 58.7044 43.6957 58.5049 46.4348C57.3014 42.0536 55.4687 36.0387 53.0859 30.9437C50.9671 26.4123 48.3763 22.6218 45.4701 21.158C36.1127 16.4479 26.1414 17.7943 21.0472 24.3299C20.5024 25.0293 20.005 25.7682 19.5669 26.5394C14.3519 21.4088 6.37343 21.1083 0.846403 25.9542C0.491246 26.2647 0.456864 26.8048 0.765584 27.1608C1.07757 27.5159 1.6147 27.5535 1.96985 27.243C6.95042 22.8765 14.1977 23.2868 18.7572 28.1501ZM19.8433 30.0645C19.6909 30.5184 19.5621 30.9803 19.4535 31.4504C19.3971 31.7022 19.3119 32.1792 19.3449 32.6114C19.3536 32.7123 19.3948 32.8622 19.4153 32.931C19.6737 32.9754 19.866 32.9766 19.9879 32.8613C20.1408 32.7186 20.1697 32.4815 20.1879 32.2208C20.2344 31.5664 20.0736 30.7653 19.8433 30.0645Z" fill="#8746FF"/>
</svg>
