<svg width="82" height="54" viewBox="0 0 82 54" fill="none" xmlns="http://www.w3.org/2000/svg">
<path fill-rule="evenodd" clip-rule="evenodd" d="M38.3811 44.966C47.6349 49.9805 58.2187 53.6637 68.712 52.942C72.5301 52.6799 76.0644 51.579 79.6929 50.4845C79.9474 50.4081 80.0925 50.1383 80.0161 49.8825C79.9385 49.6267 79.6687 49.4816 79.4129 49.5592C75.8544 50.6321 72.3901 51.7203 68.6459 51.9773C58.3014 52.6888 47.8742 49.0259 38.7604 44.0726L38.8253 43.9263C39.5342 42.3392 39.0951 40.0229 37.937 37.5921C36.2774 34.1074 33.1873 30.3631 30.4064 28.295C29.1567 27.3659 27.959 26.7754 26.9714 26.6519C26.2015 26.5552 25.5409 26.7283 25.0306 27.189C23.9437 28.1716 23.9819 29.8477 24.8435 31.7911C26.6443 35.8561 31.9337 41.2091 34.8023 42.9259C35.6983 43.4617 36.6096 43.9886 37.5348 44.5015C37.4177 44.784 37.3019 45.0602 37.1772 45.3237C36.8195 46.0733 36.3805 46.7287 35.5341 47.178C34.2143 47.8767 32.6324 47.9976 31.0135 47.8169C28.4872 47.5331 25.8718 46.506 23.9462 45.624C13.2225 40.7114 7.91154 32.1907 5.06324 23.6369C2.18822 14.9979 1.81151 6.31808 0.960074 1.19803C0.916802 0.934577 0.667354 0.757673 0.403906 0.800945C0.140458 0.844216 -0.0377184 1.09366 0.00682591 1.35711C0.86335 6.51026 1.25151 15.2461 4.14689 23.9424C7.069 32.724 12.5352 41.4598 23.5428 46.5035C25.5486 47.4224 28.2747 48.4825 30.9053 48.7778C32.7266 48.9814 34.502 48.8185 35.9872 48.032C37.3197 47.3256 37.8492 46.2235 38.3811 44.966ZM37.9102 43.6043L37.9433 43.5317C38.5631 42.1445 38.077 40.1336 37.0639 38.0082C35.4692 34.6598 32.5026 31.0593 29.8286 29.0713C28.9123 28.3892 28.0354 27.8992 27.2641 27.693C26.6278 27.5238 26.0755 27.5479 25.6796 27.9068C25.3042 28.2441 25.1553 28.7086 25.1616 29.2495C25.168 29.8846 25.3793 30.6139 25.7267 31.3991C27.4576 35.305 32.542 40.4467 35.2987 42.0961C36.1552 42.6077 37.0257 43.1117 37.9102 43.6043Z" fill="#8746FF"/>
<path fill-rule="evenodd" clip-rule="evenodd" d="M80.9197 48.9882C80.8777 49.1956 80.7364 49.4565 80.5812 49.7352C80.2121 50.3996 79.6865 51.1072 79.4523 51.4508C79.3021 51.6723 79.3607 51.9726 79.5808 52.1228C79.8023 52.273 80.1026 52.2157 80.2528 51.9943C80.5392 51.573 81.2379 50.6287 81.6133 49.846C81.8144 49.426 81.9188 49.0378 81.8959 48.7591C81.8577 48.2844 81.4822 47.9878 80.7377 48.0056C79.857 48.0273 78.2216 48.4689 76.8522 47.9382C76.604 47.8415 76.3227 47.9662 76.2273 48.2144C76.1306 48.4638 76.254 48.7438 76.5034 48.8405C77.8092 49.3458 79.3314 49.1027 80.3559 49.0009C80.5506 48.9818 80.7823 48.9843 80.9197 48.9882Z" fill="#8746FF"/>
</svg>
