<svg width="71" height="91" viewBox="0 0 71 91" fill="none" xmlns="http://www.w3.org/2000/svg">
<path fill-rule="evenodd" clip-rule="evenodd" d="M16.0942 46.8529C34.039 46.8084 47.2672 58.6345 53.8776 74.5198C54.1334 75.1453 54.8539 75.4466 55.4812 75.1851C56.1038 74.9244 56.3986 74.2032 56.138 73.5787C49.1454 56.7623 35.0741 44.3487 16.0853 44.3976C15.4056 44.399 14.8613 44.9497 14.8624 45.6265C14.8645 46.308 15.4145 46.8543 16.0942 46.8529Z" fill="#FFB600"/>
<path fill-rule="evenodd" clip-rule="evenodd" d="M16.8856 60.3376C30.1113 58.285 41.1957 65.5155 47.8575 76.4838C48.1166 76.9162 48.6817 77.0572 49.1148 76.7937C49.5445 76.5315 49.6807 75.9666 49.4182 75.5354C42.3697 63.9237 30.5977 56.3549 16.6027 58.5283C16.1017 58.6058 15.7623 59.0732 15.8393 59.572C15.9176 60.0743 16.3846 60.4151 16.8856 60.3376Z" fill="#FFB600"/>
<path fill-rule="evenodd" clip-rule="evenodd" d="M63.3227 71.7547C59.209 57.812 50.0956 41.8475 37.6277 31.118C29.1789 23.8502 19.1936 18.9755 8.20533 18.61C7.25854 18.5799 6.46836 19.3223 6.43781 20.2686C6.40176 21.2189 7.14441 22.0081 8.09121 22.0382C18.2946 22.3727 27.5371 26.9628 35.3796 33.7159C47.3508 44.0203 56.0873 59.3421 60.0232 72.7247C60.2974 73.632 61.2509 74.153 62.1575 73.8881C63.0655 73.6136 63.5874 72.6606 63.3227 71.7547Z" fill="#FFB600"/>
</svg>
