<svg width="51" height="51" viewBox="0 0 51 51" fill="none" xmlns="http://www.w3.org/2000/svg">
<path fill-rule="evenodd" clip-rule="evenodd" d="M18.0964 39.0105C14.6677 35.5724 10.7469 33.281 6.73085 30.6803C5.94646 30.1725 4.90193 30.3967 4.39464 31.1781C3.88706 31.96 4.11361 33.0072 4.8977 33.5155C8.70594 35.9814 12.4501 38.1301 15.7074 41.3951C16.3662 42.0556 17.4377 42.0578 18.0948 41.3983C18.7564 40.7422 18.7554 39.6706 18.0964 39.0105Z" fill="#00A318"/>
<path fill-rule="evenodd" clip-rule="evenodd" d="M31.02 35.3307C28.9559 24.8742 24.8955 13.7377 19.6001 4.462C19.1372 3.65241 18.1043 3.3696 17.2967 3.83245C16.4892 4.29529 16.2055 5.32633 16.6685 6.13593C21.7881 15.1048 25.7152 25.8754 27.7074 35.9841C27.8893 36.8989 28.7783 37.4945 29.6912 37.3135C30.6041 37.1325 31.2018 36.2455 31.02 35.3307Z" fill="#00A318"/>
<path fill-rule="evenodd" clip-rule="evenodd" d="M38.7685 37.7034C43.5173 32.1689 45.6345 24.7782 46.5817 17.6993C46.7024 16.7741 46.0532 15.9244 45.1333 15.8024C44.2084 15.6779 43.3594 16.3283 43.2339 17.2506C42.3734 23.6988 40.5307 30.4638 36.2065 35.5049C35.5995 36.212 35.6823 37.2792 36.3877 37.8845C37.0928 38.4903 38.1618 38.41 38.7685 37.7034Z" fill="#00A318"/>
</svg>
