<svg width="81" height="51" viewBox="0 0 81 51" fill="none" xmlns="http://www.w3.org/2000/svg">
<g clip-path="url(#clip0_63_5366)">
<path d="M7.97368 48.3875C6.65234 47.2407 37.382 4.82577 64.9307 2.74078C66.0022 2.65976 72.7631 2.14732 73.0792 3.50545C73.5263 5.43039 60.553 9.24181 50.2276 13.93C21.167 27.1245 8.88417 49.1761 7.97368 48.3875Z" fill="#93CE00"/>
<path d="M9.77002 49.2055C8.77623 48.0035 29.8963 27.9158 45.6902 27.1895C46.5712 27.1491 50.2205 26.9817 50.3804 27.7483C50.6159 28.87 43.1927 31.0455 37.0415 33.4325C18.7251 40.5361 10.4202 49.9909 9.77002 49.2055Z" fill="#93CE00"/>
<path d="M11.9007 49.5734C11.5901 49.1348 28.547 36.2864 39.5107 36.6403C40.076 36.6588 42.7916 36.7461 42.8324 37.1985C42.8768 37.6942 39.6586 38.2033 35.82 39.1792C27.4242 41.3129 21.3295 44.3433 18.4696 45.7859C13.4246 48.3307 11.9966 49.7076 11.9012 49.575L11.9007 49.5734Z" fill="#93CE00"/>
</g>
<defs>
<clipPath id="clip0_63_5366">
<rect width="75" height="31" fill="white" transform="translate(0 20.7585) rotate(-16.0682)"/>
</clipPath>
</defs>
</svg>
