<svg width="65" height="61" viewBox="0 0 65 61" fill="none" xmlns="http://www.w3.org/2000/svg">
<path d="M39.09 27.1587C37.5813 25.1456 35.676 22.6352 32.5377 20.0266C30.6567 18.4623 24.1405 13.0415 15.3811 12.3346C7.53953 11.7011 1.69356 15.1529 1.59034 14.8717C1.49222 14.6026 6.79108 11.1736 13.7187 10.6479C26.8046 9.65632 37.1624 19.672 38.8761 21.3291C47.5168 29.6847 49.6662 39.5969 50.8222 44.9288C52.3344 51.9017 52.1822 58.2829 51.6455 58.3455C51.0884 58.4112 50.4654 51.6454 46.7581 41.8499C43.5245 33.305 40.3729 28.8694 39.09 27.1587Z" fill="#0092FF"/>
<path d="M23.9464 27.6657C23.7442 28.2114 28.3923 30.222 31.3526 31.9911C45.0766 40.194 47.728 58.2492 48.1586 58.1017C48.6476 57.9344 45.065 34.7207 31.0216 29.1702C28.4923 28.171 24.1359 27.1547 23.9464 27.6657Z" fill="#0092FF"/>
<path d="M26.5441 36.5617C26.4379 36.9772 30.0457 38.1843 32.383 39.3158C43.2164 44.5569 46.6284 57.7692 46.937 57.6335C47.2865 57.4801 42.769 40.5049 31.9118 37.2457C29.9552 36.6588 26.6441 36.1712 26.5451 36.5606L26.5441 36.5617Z" fill="#0092FF"/>
</svg>
