<svg width="24" height="24" viewBox="0 0 24 24" fill="none" xmlns="http://www.w3.org/2000/svg">
<path d="M22.3895 1.79344C22.3809 1.75198 22.3607 1.71382 22.3312 1.68344C22.3018 1.65305 22.2642 1.63169 22.2231 1.62187C19.4776 0.950624 13.134 3.34266 9.69711 6.77813C9.08412 7.38617 8.52529 8.04648 8.02696 8.75156C6.96712 8.65781 5.90727 8.73609 5.00399 9.12984C2.4554 10.2516 1.71337 13.1784 1.50665 14.4375C1.49492 14.5064 1.49934 14.5771 1.51957 14.644C1.53979 14.7109 1.57526 14.7722 1.62319 14.8231C1.67112 14.874 1.73021 14.9131 1.79579 14.9373C1.86138 14.9615 1.93169 14.9701 2.00118 14.9625L6.09383 14.5111C6.09676 14.8197 6.11537 15.1279 6.14962 15.4345C6.17021 15.6475 6.26475 15.8465 6.4168 15.997L8.00165 17.5781C8.1523 17.73 8.35125 17.8245 8.56415 17.8453C8.8691 17.8794 9.17559 17.898 9.48243 17.9011L9.03337 21.9886C9.02588 22.0581 9.03458 22.1283 9.0588 22.1939C9.08301 22.2594 9.12208 22.3184 9.17294 22.3664C9.2238 22.4143 9.28507 22.4497 9.35194 22.47C9.41881 22.4903 9.48947 22.4948 9.55836 22.4831C10.8151 22.2816 13.7471 21.5395 14.8623 18.9909C15.256 18.0877 15.3366 17.033 15.2457 15.9783C15.9525 15.4799 16.6145 14.9209 17.2243 14.3077C20.672 10.8773 23.0504 4.67531 22.3895 1.79344ZM13.7846 10.2155C13.4698 9.90086 13.2554 9.49995 13.1684 9.06345C13.0815 8.62695 13.126 8.17448 13.2962 7.76326C13.4665 7.35204 13.7549 7.00055 14.1249 6.75325C14.4949 6.50595 14.93 6.37396 15.3751 6.37396C15.8202 6.37396 16.2552 6.50595 16.6253 6.75325C16.9953 7.00055 17.2837 7.35204 17.454 7.76326C17.6242 8.17448 17.6687 8.62695 17.5817 9.06345C17.4948 9.49995 17.2804 9.90086 16.9656 10.2155C16.7568 10.4245 16.5089 10.5904 16.236 10.7035C15.9631 10.8167 15.6705 10.8749 15.3751 10.8749C15.0796 10.8749 14.7871 10.8167 14.5142 10.7035C14.2413 10.5904 13.9934 10.4245 13.7846 10.2155Z" fill="white"/>
<path d="M7.89375 18.7233C7.63687 18.9806 7.22484 19.0809 6.72891 19.1667C5.61469 19.3566 4.63078 18.3937 4.83094 17.2673C4.90734 16.8403 5.13328 16.2417 5.27391 16.1011C5.30464 16.0709 5.3251 16.0319 5.33238 15.9895C5.33965 15.947 5.33337 15.9034 5.31443 15.8647C5.29549 15.8261 5.26485 15.7943 5.22686 15.7741C5.18887 15.7538 5.14547 15.7461 5.10281 15.7519C4.47973 15.8281 3.90006 16.1106 3.45609 16.5544C2.35406 17.6573 2.25 21.75 2.25 21.75C2.25 21.75 6.345 21.6459 7.44703 20.543C7.89218 20.0994 8.17503 19.5188 8.25 18.8948C8.26734 18.6989 8.02875 18.5822 7.89375 18.7233Z" fill="white"/>
</svg>
