<svg width="367" height="571" viewBox="0 0 367 571" fill="none" xmlns="http://www.w3.org/2000/svg">
<path d="M273.577 161.235C273.376 160.885 273.495 160.44 273.844 160.239C274.192 160.037 274.639 160.156 274.84 160.506L276.663 163.663C276.864 164.012 276.744 164.458 276.396 164.659C276.047 164.86 275.601 164.741 275.4 164.392L273.577 161.235ZM286.605 164.659C286.953 164.86 287.4 164.741 287.601 164.392L289.424 161.235C289.625 160.885 289.506 160.44 289.157 160.239C288.808 160.037 288.362 160.156 288.161 160.506L286.338 163.663C286.136 164.012 286.256 164.458 286.605 164.659ZM271.292 173.5C271.292 173.098 270.966 172.771 270.562 172.771H266.917C266.513 172.771 266.188 173.098 266.188 173.5C266.188 173.903 266.513 174.229 266.917 174.229H270.562C270.966 174.229 271.292 173.903 271.292 173.5ZM287.601 182.607C287.4 182.258 286.953 182.139 286.605 182.34C286.256 182.542 286.137 182.987 286.338 183.336L288.161 186.494C288.362 186.843 288.808 186.962 289.157 186.761C289.506 186.559 289.625 186.114 289.424 185.765L287.601 182.607ZM276.396 182.34C276.047 182.139 275.601 182.258 275.4 182.607L273.577 185.765C273.376 186.114 273.495 186.559 273.844 186.761C274.192 186.962 274.639 186.843 274.84 186.494L276.663 183.336C276.864 182.988 276.744 182.542 276.396 182.34ZM288.33 173.5L294.663 166.706C294.881 166.472 294.921 166.123 294.762 165.846C294.603 165.569 294.284 165.427 293.969 165.497L284.915 167.536L282.197 158.702C282.103 158.396 281.821 158.188 281.5 158.188C281.179 158.188 280.897 158.396 280.803 158.702L278.085 167.536L269.031 165.497C268.716 165.426 268.398 165.568 268.239 165.845C268.079 166.122 268.12 166.471 268.338 166.705L274.67 173.5L268.337 180.294C268.119 180.528 268.079 180.877 268.238 181.154C268.397 181.431 268.716 181.573 269.031 181.503L278.085 179.464L280.803 188.298C280.897 188.604 281.18 188.812 281.5 188.812C281.82 188.812 282.103 188.604 282.197 188.298L284.915 179.464L293.969 181.503C294.284 181.573 294.603 181.431 294.762 181.154C294.922 180.877 294.881 180.528 294.663 180.294L288.33 173.5ZM296.083 172.771H292.438C292.034 172.771 291.708 173.098 291.708 173.5C291.708 173.903 292.034 174.229 292.438 174.229H296.083C296.487 174.229 296.812 173.903 296.812 173.5C296.812 173.098 296.487 172.771 296.083 172.771Z" fill="white" fill-opacity="0.1"/>
<g clip-path="url(#clip0_4025_22143)">
<path d="M347.637 518.593L349.096 517.509L350.555 518.593L349.998 516.839L351.456 515.755H349.653L349.096 514L348.539 515.755H346.736L348.195 516.839L347.637 518.593Z" fill="white" fill-opacity="0.1"/>
<path d="M354.957 538.364L353.999 536.909L353.991 536.897H357.171L353.35 531.091L352.586 529.953H354.936L351.398 524.783L350.905 524.063L350.893 524.046H352.225L349.101 518.509L345.977 524.046H347.308L345.536 526.635L344.562 528.059L343.265 529.953H345.6L341.23 536.897H344.21L339.69 543.765L339.694 543.763L339.104 544.661H341.813H347.846V549H350.355V544.661H359.101L354.957 538.364Z" fill="white" fill-opacity="0.1"/>
</g>
<path d="M351.766 21.7694C351.695 21.5067 351.524 21.2828 351.288 21.1468C351.052 21.0108 350.773 20.974 350.51 21.0444L347.218 21.9265L345.42 20.8884L347.388 20.1619C347.92 19.9659 348.191 19.3762 347.995 18.845C347.799 18.3137 347.21 18.0418 346.678 18.238L343.11 19.5548L341.576 18.6692V16.3307L343.11 15.4451L346.678 16.7619C346.795 16.8051 346.915 16.8256 347.033 16.8256C347.45 16.8256 347.842 16.5691 347.995 16.155C348.191 15.6237 347.92 15.0341 347.388 14.838L345.42 14.1116L347.218 13.0735L350.51 13.9556C350.597 13.9789 350.686 13.9905 350.775 13.9905C350.954 13.9905 351.131 13.9439 351.288 13.8531C351.524 13.7171 351.695 13.4932 351.766 13.2305L352.758 9.52799C352.904 8.98098 352.58 8.41873 352.033 8.27216L348.33 7.28006C348.068 7.20965 347.788 7.24657 347.552 7.38253C347.317 7.5185 347.145 7.74245 347.075 8.00515L346.192 11.2974L344.394 12.3355L344.75 10.2675C344.845 9.70935 344.471 9.17922 343.913 9.08332C343.354 8.98734 342.824 9.36229 342.728 9.92038L342.085 13.6691L340.551 14.5547L338.525 13.3852V11.6143L341.45 9.18237C341.885 8.82027 341.945 8.17379 341.583 7.73834C341.221 7.30283 340.574 7.24342 340.139 7.60552L338.525 8.94707V6.87093L340.936 4.46092C341.128 4.26863 341.236 4.00784 341.236 3.7359C341.236 3.46397 341.128 3.20318 340.936 3.01088L338.225 0.300367C337.825 -0.100082 337.175 -0.100082 336.775 0.300367L334.065 3.01075C333.664 3.4112 333.664 4.06041 334.065 4.46085L336.475 6.87086V8.94707L334.861 7.60552C334.426 7.24342 333.779 7.30296 333.417 7.73834C333.055 8.17379 333.115 8.82027 333.55 9.18237L336.475 11.6142V13.3851L334.449 14.5547L332.916 13.6691L332.272 9.92038C332.176 9.36229 331.646 8.98734 331.088 9.08332C330.529 9.17916 330.155 9.70935 330.251 10.2675L330.606 12.3355L328.808 11.2974L327.925 8.00515C327.855 7.74245 327.683 7.5185 327.448 7.38253C327.212 7.24657 326.932 7.20972 326.67 7.28006L322.967 8.27216C322.42 8.41873 322.096 8.98098 322.242 9.52799L323.234 13.2305C323.305 13.4932 323.476 13.7171 323.712 13.8531C323.869 13.9439 324.046 13.9905 324.225 13.9905C324.314 13.9905 324.403 13.9789 324.49 13.9556L327.782 13.0735L329.58 14.1116L327.612 14.838C327.081 15.0341 326.809 15.6237 327.005 16.155C327.158 16.5692 327.55 16.8257 327.967 16.8256C328.085 16.8256 328.205 16.8051 328.322 16.7619L331.89 15.4451L333.424 16.3307V18.6692L331.89 19.5548L328.322 18.238C327.791 18.0419 327.201 18.3137 327.005 18.845C326.809 19.3762 327.081 19.9659 327.612 20.1619L329.58 20.8884L327.782 21.9265L324.49 21.0444C324.227 20.9739 323.948 21.0108 323.712 21.1468C323.477 21.2828 323.305 21.5067 323.234 21.7694L322.242 25.4719C322.096 26.0189 322.42 26.5812 322.967 26.7278L326.67 27.7199C326.757 27.7432 326.846 27.7548 326.935 27.7548C327.114 27.7548 327.29 27.7082 327.448 27.6174C327.683 27.4814 327.855 27.2575 327.925 26.9948L328.808 23.7025L330.606 22.6644L330.251 24.7324C330.155 25.2906 330.529 25.8207 331.088 25.9166C331.146 25.9267 331.205 25.9316 331.262 25.9316C331.753 25.9316 332.186 25.579 332.272 25.0796L332.916 21.3309L334.449 20.4453L336.475 21.615V23.3859L333.55 25.8177C333.115 26.1798 333.055 26.8263 333.417 27.2617C333.779 27.6972 334.426 27.7566 334.861 27.3945L336.475 26.053V28.1292L334.065 30.5392C333.664 30.9397 333.664 31.5889 334.065 31.9893L336.775 34.6997C336.975 34.8999 337.238 35 337.5 35C337.762 35 338.025 34.8998 338.225 34.6996L340.936 31.9892C341.128 31.7969 341.236 31.5362 341.236 31.2642C341.236 30.9923 341.128 30.7315 340.936 30.5392L338.525 28.1291V26.053L340.139 27.3945C340.33 27.5538 340.563 27.6315 340.794 27.6315C341.088 27.6315 341.38 27.5056 341.583 27.2617C341.945 26.8263 341.885 26.1798 341.45 25.8177L338.525 23.3858V21.6147L340.551 20.4453L342.085 21.3309L342.729 25.0796C342.814 25.579 343.248 25.9316 343.738 25.9316C343.796 25.9316 343.854 25.9267 343.913 25.9166C344.471 25.8208 344.846 25.2906 344.75 24.7324L344.395 22.6644L346.193 23.7025L347.075 26.9948C347.145 27.2575 347.317 27.4814 347.552 27.6174C347.71 27.7082 347.887 27.7548 348.065 27.7548C348.154 27.7548 348.243 27.7432 348.331 27.7199L352.033 26.7278C352.58 26.5812 352.905 26.0189 352.758 25.4719L351.766 21.7694Z" fill="white" fill-opacity="0.1"/>
<path d="M2.1875 88.5727V101.698C2.1875 102.905 3.16969 103.885 4.375 103.885H15.3125V88.5727H2.1875Z" fill="white" fill-opacity="0.1"/>
<path d="M32.8125 79.8227H25.8913C26.3878 79.4836 26.8144 79.1468 27.1119 78.8449C28.8772 77.0708 28.8772 74.1833 27.1119 72.4093C25.3969 70.6811 22.4088 70.6855 20.6959 72.4093C19.7466 73.3608 17.2309 77.2349 17.5788 79.8227H17.4213C17.7669 77.2349 15.2513 73.3608 14.3041 72.4093C12.5891 70.6855 9.60094 70.6855 7.88812 72.4093C6.125 74.1833 6.125 77.0708 7.88594 78.8449C8.18563 79.1468 8.61219 79.4836 9.10875 79.8227H2.1875C0.982188 79.8227 0 80.8049 0 82.0102V85.2915C0 85.8952 0.49 86.3852 1.09375 86.3852H15.3125V82.0102H19.6875V86.3852H33.9062C34.51 86.3852 35 85.8952 35 85.2915V82.0102C35 80.8049 34.02 79.8227 32.8125 79.8227ZM15.1834 79.7505C15.1834 79.7505 15.0916 79.8227 14.7788 79.8227C13.2672 79.8227 10.3819 78.2521 9.43906 77.3027C8.5225 76.3796 8.5225 74.8746 9.43906 73.9514C9.88313 73.5052 10.4716 73.2602 11.0972 73.2602C11.7206 73.2602 12.3091 73.5052 12.7531 73.9514C14.2275 75.4346 15.6931 79.2233 15.1834 79.7505ZM20.2191 79.8227C19.9084 79.8227 19.8166 79.7527 19.8166 79.7505C19.3069 79.2233 20.7725 75.4346 22.2469 73.9514C23.1284 73.0611 24.6706 73.0568 25.5609 73.9514C26.4797 74.8746 26.4797 76.3796 25.5609 77.3027C24.6181 78.2521 21.7328 79.8227 20.2191 79.8227Z" fill="white" fill-opacity="0.1"/>
<path d="M19.6875 88.5727V103.885H30.625C31.8325 103.885 32.8125 102.905 32.8125 101.698V88.5727H19.6875Z" fill="white" fill-opacity="0.1"/>
<path d="M273.766 490.769C273.695 490.507 273.524 490.283 273.288 490.147C273.052 490.011 272.773 489.974 272.51 490.044L269.218 490.926L267.42 489.888L269.388 489.162C269.92 488.966 270.191 488.376 269.995 487.845C269.799 487.314 269.21 487.042 268.678 487.238L265.11 488.555L263.576 487.669V485.331L265.11 484.445L268.678 485.762C268.795 485.805 268.915 485.826 269.033 485.826C269.45 485.826 269.842 485.569 269.995 485.155C270.191 484.624 269.92 484.034 269.388 483.838L267.42 483.112L269.218 482.073L272.51 482.956C272.597 482.979 272.686 482.99 272.775 482.99C272.954 482.99 273.131 482.944 273.288 482.853C273.524 482.717 273.695 482.493 273.766 482.23L274.758 478.528C274.904 477.981 274.58 477.419 274.033 477.272L270.33 476.28C270.068 476.21 269.788 476.247 269.552 476.383C269.317 476.519 269.145 476.742 269.075 477.005L268.192 480.297L266.394 481.336L266.75 479.268C266.845 478.709 266.471 478.179 265.913 478.083C265.354 477.987 264.824 478.362 264.728 478.92L264.085 482.669L262.551 483.555L260.525 482.385V480.614L263.45 478.182C263.885 477.82 263.945 477.174 263.583 476.738C263.221 476.303 262.574 476.243 262.139 476.606L260.525 477.947V475.871L262.936 473.461C263.128 473.269 263.236 473.008 263.236 472.736C263.236 472.464 263.128 472.203 262.936 472.011L260.225 469.3C259.825 468.9 259.175 468.9 258.775 469.3L256.065 472.011C255.664 472.411 255.664 473.06 256.065 473.461L258.475 475.871V477.947L256.861 476.606C256.426 476.243 255.779 476.303 255.417 476.738C255.055 477.174 255.115 477.82 255.55 478.182L258.475 480.614V482.385L256.449 483.555L254.916 482.669L254.272 478.92C254.176 478.362 253.646 477.987 253.088 478.083C252.529 478.179 252.155 478.709 252.251 479.268L252.606 481.336L250.808 480.297L249.925 477.005C249.855 476.742 249.683 476.519 249.448 476.383C249.212 476.247 248.932 476.21 248.67 476.28L244.967 477.272C244.42 477.419 244.096 477.981 244.242 478.528L245.234 482.23C245.305 482.493 245.476 482.717 245.712 482.853C245.869 482.944 246.046 482.99 246.225 482.99C246.314 482.99 246.403 482.979 246.49 482.956L249.782 482.073L251.58 483.112L249.612 483.838C249.081 484.034 248.809 484.624 249.005 485.155C249.158 485.569 249.55 485.826 249.967 485.826C250.085 485.826 250.205 485.805 250.322 485.762L253.89 484.445L255.424 485.331V487.669L253.89 488.555L250.322 487.238C249.791 487.042 249.201 487.314 249.005 487.845C248.809 488.376 249.081 488.966 249.612 489.162L251.58 489.888L249.782 490.926L246.49 490.044C246.227 489.974 245.948 490.011 245.712 490.147C245.477 490.283 245.305 490.507 245.234 490.769L244.242 494.472C244.096 495.019 244.42 495.581 244.967 495.728L248.67 496.72C248.757 496.743 248.846 496.755 248.935 496.755C249.114 496.755 249.29 496.708 249.448 496.617C249.683 496.481 249.855 496.257 249.925 495.995L250.808 492.703L252.606 491.664L252.251 493.732C252.155 494.291 252.529 494.821 253.088 494.917C253.146 494.927 253.205 494.932 253.262 494.932C253.753 494.932 254.186 494.579 254.272 494.08L254.916 490.331L256.449 489.445L258.475 490.615V492.386L255.55 494.818C255.115 495.18 255.055 495.826 255.417 496.262C255.779 496.697 256.426 496.757 256.861 496.395L258.475 495.053V497.129L256.065 499.539C255.664 499.94 255.664 500.589 256.065 500.989L258.775 503.7C258.975 503.9 259.238 504 259.5 504C259.762 504 260.025 503.9 260.225 503.7L262.936 500.989C263.128 500.797 263.236 500.536 263.236 500.264C263.236 499.992 263.128 499.731 262.936 499.539L260.525 497.129V495.053L262.139 496.395C262.33 496.554 262.563 496.632 262.794 496.632C263.088 496.632 263.38 496.506 263.583 496.262C263.945 495.826 263.885 495.18 263.45 494.818L260.525 492.386V490.615L262.551 489.445L264.085 490.331L264.729 494.08C264.814 494.579 265.248 494.932 265.738 494.932C265.796 494.932 265.854 494.927 265.913 494.917C266.471 494.821 266.846 494.291 266.75 493.732L266.395 491.664L268.193 492.703L269.075 495.995C269.145 496.257 269.317 496.481 269.552 496.617C269.71 496.708 269.887 496.755 270.065 496.755C270.154 496.755 270.243 496.743 270.331 496.72L274.033 495.728C274.58 495.581 274.905 495.019 274.758 494.472L273.766 490.769Z" fill="white" fill-opacity="0.1"/>
<path d="M92.1875 554.573V567.698C92.1875 568.905 93.1697 569.885 94.375 569.885H105.312V554.573H92.1875Z" fill="white" fill-opacity="0.1"/>
<path d="M122.812 545.823H115.891C116.388 545.484 116.814 545.147 117.112 544.845C118.877 543.071 118.877 540.183 117.112 538.409C115.397 536.681 112.409 536.686 110.696 538.409C109.747 539.361 107.231 543.235 107.579 545.823H107.421C107.767 543.235 105.251 539.361 104.304 538.409C102.589 536.686 99.6009 536.686 97.8881 538.409C96.125 540.183 96.125 543.071 97.8859 544.845C98.1856 545.147 98.6122 545.484 99.1088 545.823H92.1875C90.9822 545.823 90 546.805 90 548.01V551.291C90 551.895 90.49 552.385 91.0938 552.385H105.312V548.01H109.688V552.385H123.906C124.51 552.385 125 551.895 125 551.291V548.01C125 546.805 124.02 545.823 122.812 545.823ZM105.183 545.751C105.183 545.751 105.092 545.823 104.779 545.823C103.267 545.823 100.382 544.252 99.4391 543.303C98.5225 542.38 98.5225 540.875 99.4391 539.951C99.8831 539.505 100.472 539.26 101.097 539.26C101.721 539.26 102.309 539.505 102.753 539.951C104.227 541.435 105.693 545.223 105.183 545.751ZM110.219 545.823C109.908 545.823 109.817 545.753 109.817 545.751C109.307 545.223 110.773 541.435 112.247 539.951C113.128 539.061 114.671 539.057 115.561 539.951C116.48 540.875 116.48 542.38 115.561 543.303C114.618 544.252 111.733 545.823 110.219 545.823Z" fill="white" fill-opacity="0.1"/>
<path d="M109.688 554.573V569.885H120.625C121.832 569.885 122.812 568.905 122.812 567.698V554.573H109.688Z" fill="white" fill-opacity="0.1"/>
<path d="M17 346L21.5915 358.408L34 363L21.5915 367.592L17 380L12.4085 367.592L0 363L12.4085 358.408L17 346Z" fill="white" fill-opacity="0.1"/>
<path d="M178 0L182.592 12.4085L195 17L182.592 21.5915L178 34L173.408 21.5915L161 17L173.408 12.4085L178 0Z" fill="white" fill-opacity="0.1"/>
<path d="M180.745 405.796C181.99 406.384 183.037 407.114 183.882 408.113C185.283 409.76 185.875 411.66 185.678 413.787C185.625 414.376 185.492 414.968 185.35 415.545C185.243 415.991 184.808 416.161 184.423 415.961C184.146 415.82 184.039 415.548 184.106 415.207C184.219 414.597 184.369 413.992 184.397 413.378C184.508 410.996 183.512 409.129 181.564 407.75C181.049 407.387 180.462 407.133 179.906 406.833C179.851 406.806 179.767 406.82 179.701 406.814C179.707 406.883 179.699 406.96 179.72 407.02C179.988 407.683 180.267 408.348 180.534 409.016C180.634 409.262 180.588 409.481 180.396 409.667C180.23 409.83 180.009 409.893 179.798 409.782C179.657 409.707 179.507 409.576 179.445 409.438C178.967 408.311 178.508 407.184 178.051 406.051C177.896 405.663 178.054 405.346 178.468 405.231C179.611 404.909 180.759 404.588 181.907 404.267C182.267 404.169 182.575 404.336 182.668 404.659C182.759 404.988 182.589 405.278 182.227 405.382C181.766 405.514 181.286 405.642 180.745 405.796Z" fill="white"/>
<path d="M156.247 431.646C154.997 431.066 153.946 430.343 153.094 429.35C151.681 427.713 151.076 425.817 151.259 423.688C151.307 423.099 151.436 422.506 151.574 421.928C151.678 421.481 152.111 421.308 152.498 421.506C152.776 421.645 152.884 421.916 152.82 422.258C152.711 422.868 152.566 423.475 152.542 424.089C152.448 426.471 153.457 428.332 155.414 429.697C155.932 430.057 156.52 430.307 157.078 430.604C157.133 430.63 157.217 430.616 157.284 430.621C157.277 430.552 157.285 430.475 157.263 430.415C156.991 429.754 156.707 429.091 156.436 428.425C156.333 428.179 156.377 427.96 156.568 427.772C156.734 427.609 156.954 427.544 157.166 427.654C157.308 427.727 157.459 427.858 157.521 427.995C158.007 429.118 158.474 430.243 158.938 431.372C159.097 431.76 158.94 432.078 158.527 432.196C157.387 432.526 156.241 432.854 155.095 433.183C154.736 433.284 154.427 433.119 154.332 432.796C154.239 432.468 154.407 432.177 154.767 432.07C155.228 431.935 155.706 431.804 156.247 431.646Z" fill="white"/>
<path d="M175.832 404.549L172.939 415.688L169.802 414.873C167.815 414.357 165.796 415.529 165.289 417.482L164.1 422.06L151.292 418.734C149.305 418.218 148.112 416.212 148.619 414.259L152.701 398.542C153.21 396.583 155.227 395.417 157.214 395.933L173.158 400.074C175.14 400.589 176.341 402.59 175.832 404.549Z" fill="white"/>
<g filter="url(#filter0_d_4025_22143)">
<path d="M159.553 406.982C160.465 407.954 161.364 408.911 162.277 409.884C161.9 410.005 161.551 410.115 161.2 410.23C160.334 410.504 159.467 410.777 158.599 411.056C158.525 411.079 158.469 411.083 158.405 411.018C157.543 410.089 156.673 409.164 155.811 408.235C155.796 408.219 155.783 408.197 155.755 408.166C157.018 407.764 158.269 407.366 159.551 406.963C158.635 406.002 157.735 405.051 156.834 404.106C156.841 404.053 156.883 404.058 156.911 404.047C158.113 403.666 159.31 403.284 160.513 402.903C160.58 402.884 160.625 402.877 160.676 402.939C161.546 403.864 162.416 404.789 163.285 405.714C163.3 405.73 163.313 405.752 163.336 405.782C162.074 406.178 160.823 406.576 159.553 406.982Z" fill="#0061FE"/>
<path d="M164.804 413.429C164.374 413.567 163.964 413.697 163.547 413.832C162.739 414.09 161.934 414.343 161.132 414.603C161.051 414.631 161.005 414.619 160.948 414.555C160.088 413.639 159.222 412.721 158.363 411.805C158.344 411.782 158.331 411.76 158.308 411.73C159.35 411.399 160.392 411.068 161.426 410.741C161.615 410.68 161.809 410.621 161.992 410.559C162.06 410.534 162.107 410.541 162.161 410.597C163.035 411.529 163.909 412.461 164.783 413.393C164.783 413.393 164.787 413.401 164.804 413.429Z" fill="#0061FE"/>
<path d="M162.286 409.861C162.891 409.672 163.47 409.482 164.054 409.299C164.686 409.098 165.312 408.896 165.942 408.701C166.003 408.68 166.047 408.655 166.11 408.72C166.984 409.652 167.86 410.579 168.739 411.513C168.754 411.529 168.762 411.543 168.785 411.573C168.61 411.631 168.448 411.686 168.281 411.734C167.232 412.069 166.179 412.398 165.129 412.733C165.035 412.763 164.975 412.76 164.903 412.68C164.036 411.744 163.168 410.813 162.286 409.861Z" fill="#0061FE"/>
<path d="M163.348 405.773C163.872 405.605 164.378 405.439 164.882 405.278C165.59 405.048 166.301 404.826 167.007 404.602C167.073 404.583 167.123 404.559 167.186 404.624C168.054 405.555 168.93 406.481 169.805 407.408C169.82 407.423 169.828 407.438 169.847 407.461C169.672 407.519 169.502 407.578 169.334 407.632C168.286 407.961 167.239 408.291 166.19 408.626C166.136 408.643 166.091 408.674 166.032 408.616C165.149 407.669 164.252 406.731 163.348 405.773Z" fill="#0061FE"/>
</g>
<path d="M188.311 422.989L184.23 438.706C183.721 440.665 181.696 441.835 179.715 441.321L163.771 437.18C161.783 436.664 160.59 434.658 161.099 432.699L163.992 421.56L167.128 422.375C169.11 422.89 171.134 421.719 171.642 419.766L172.831 415.188L185.638 418.514C187.62 419.029 188.819 421.036 188.311 422.989Z" fill="white"/>
<g filter="url(#filter1_d_4025_22143)">
<path d="M176.35 422.182C173.136 421.402 169.699 423.335 168.842 426.633C167.955 430.074 170.23 433.448 173.401 434.224C176.656 435.014 180.103 433.089 180.954 429.79C181.829 426.443 179.731 423.005 176.35 422.182ZM173.53 433.917C170.315 433.143 168.374 429.909 169.162 426.709C169.904 423.711 173.179 421.784 176.205 422.478C179.372 423.204 181.476 426.522 180.64 429.715C179.895 432.585 176.779 434.706 173.53 433.917Z" fill="#0061FE"/>
<path d="M179.376 425.253C179.126 425.315 178.903 425.343 178.707 425.432C178.308 425.614 178.144 425.984 178.22 426.478C178.251 426.711 178.302 426.943 178.38 427.164C178.692 428.029 178.579 428.845 178.118 429.625C177.668 430.383 177.201 431.137 176.739 431.893C176.726 431.92 176.703 431.938 176.643 432.002C176.494 429.963 176.345 427.973 176.198 425.953C176.374 425.987 176.514 426.017 176.663 426.037C176.741 426.046 176.835 426.064 176.887 426.029C176.954 425.985 176.995 425.899 177.021 425.821C177.026 425.803 176.945 425.734 176.893 425.72C176.027 425.495 175.153 425.275 174.286 425.049C174.257 425.042 174.223 425.033 174.192 425.031C174.1 425.031 173.954 424.951 173.935 425.098C173.921 425.173 174.033 425.263 174.087 425.344C174.091 425.351 174.108 425.356 174.12 425.359C174.504 425.422 174.589 425.687 174.614 426.022C174.666 426.625 174.744 427.229 174.804 427.828C174.811 427.897 174.795 427.984 174.761 428.042C174.128 429.008 173.49 429.967 172.857 430.933C172.845 430.954 172.824 430.967 172.764 431.031C172.615 428.992 172.466 427.002 172.312 424.981C172.51 425.002 172.665 425.023 172.817 425.033C172.951 425.037 173.128 425.071 173.158 424.908C173.191 424.735 173.013 424.707 172.886 424.673C172.457 424.568 172.032 424.47 171.601 424.37C171.503 424.345 171.405 424.319 171.303 424.262C172.31 423.375 173.473 422.887 174.834 422.894C176.758 422.895 178.24 423.742 179.376 425.253Z" fill="#0061FE"/>
<path d="M174.909 428.711C175.063 430.301 175.217 431.891 175.377 433.532C175.053 433.52 174.751 433.521 174.453 433.504C173.719 433.459 173.036 433.239 172.388 432.907C172.121 432.771 172.12 432.752 172.28 432.515C173.098 431.292 173.914 430.07 174.737 428.849C174.769 428.796 174.811 428.753 174.855 428.703C174.867 428.706 174.886 428.705 174.909 428.711Z" fill="#0061FE"/>
<path d="M170.732 424.918C170.977 427.347 171.221 429.781 171.466 432.209C171.445 432.216 171.419 432.221 171.399 432.228C170.427 431.386 169.82 430.329 169.61 429.071C169.35 427.532 169.776 426.153 170.661 424.906C170.679 424.911 170.703 424.911 170.732 424.918Z" fill="#0061FE"/>
<path d="M180.145 427.002C180.431 428.395 180.235 429.718 179.509 430.946C178.795 432.152 177.733 432.941 176.35 433.304C176.382 433.252 176.408 433.198 176.439 433.151C177.367 431.763 178.295 430.375 179.217 428.985C179.571 428.451 179.871 427.891 179.999 427.256C180.017 427.163 180.058 427.076 180.087 426.987C180.103 426.997 180.128 426.997 180.145 427.002Z" fill="#0061FE"/>
</g>
<path d="M204.816 182.282C204.866 182.343 205.065 182.545 205.428 182.653C205.458 182.662 205.49 182.672 205.52 182.682C205.527 182.684 205.537 182.686 205.543 182.688C208.279 183.502 210.211 183.699 211.567 183.532C211.724 183.513 211.842 183.38 211.844 183.22C211.85 182.438 211.772 181.637 211.612 180.83C211.172 178.615 210.191 176.675 208.746 175.263C207.81 174.354 206.694 173.643 205.393 173.217C203.767 172.664 201.878 172.546 199.744 172.97L191.471 174.614C190.659 174.775 190.133 175.573 190.296 176.396L193.61 193.075C193.774 193.898 194.565 194.434 195.377 194.272L203.65 192.629C206.019 192.158 207.896 191.128 209.269 189.732C210.032 188.95 210.661 188.03 211.081 187.016C211.209 186.718 211.321 186.411 211.416 186.098C211.467 185.927 211.366 185.746 211.195 185.701C208.658 185.02 206.605 183.894 205.378 183.113C205.377 183.111 205.377 183.111 205.377 183.111C205.314 183.073 205.258 183.041 205.207 183.011C204.988 182.891 204.79 182.836 204.699 182.817L204.662 182.809C203.854 182.666 203.475 183.009 202.689 184.095C202.682 184.104 202.668 184.096 202.672 184.085C203.311 182.346 203.217 182.036 201.736 180.934C201.727 180.927 201.735 180.912 201.746 180.916C203.465 181.57 203.773 181.478 204.854 179.982C204.861 179.973 204.876 179.981 204.871 179.992C204.432 181.192 204.343 181.713 204.816 182.282ZM206.978 180.539C206.757 181.149 206.795 181.279 207.313 181.668C207.322 181.675 207.314 181.689 207.304 181.685C206.699 181.459 206.571 181.496 206.19 182.019C206.183 182.028 206.169 182.02 206.173 182.01C206.393 181.399 206.355 181.27 205.837 180.881C205.828 180.874 205.835 180.86 205.846 180.864C206.451 181.09 206.578 181.052 206.961 180.529C206.967 180.52 206.982 180.528 206.978 180.539ZM204.313 183.643C204.232 183.875 204.252 183.94 204.446 184.091C204.456 184.098 204.448 184.112 204.437 184.108C204.206 184.026 204.141 184.045 203.994 184.24C203.987 184.25 203.972 184.242 203.976 184.231C204.057 183.999 204.037 183.933 203.843 183.783C203.833 183.776 203.841 183.761 203.852 183.765C204.083 183.848 204.148 183.829 204.295 183.633C204.302 183.624 204.316 183.632 204.313 183.643ZM207.115 188.358C206.152 189.434 204.894 190.252 203.432 190.67C198.821 191.992 194.045 188.841 193.37 184.031C192.783 179.847 195.518 175.892 199.661 175.069C199.797 175.042 199.933 175.019 200.069 174.999C200.078 174.998 200.083 175.009 200.077 175.016C198.477 176.828 197.711 179.357 198.223 181.933C199.056 186.127 202.976 188.914 207.106 188.342C207.115 188.341 207.121 188.352 207.115 188.358ZM202.909 180.193C202.99 179.96 202.97 179.894 202.775 179.744C202.766 179.737 202.774 179.722 202.785 179.726C203.015 179.809 203.081 179.79 203.228 179.594C203.235 179.585 203.25 179.593 203.246 179.604C203.165 179.837 203.185 179.902 203.379 180.052C203.388 180.059 203.38 180.073 203.369 180.069C203.139 179.987 203.074 180.007 202.926 180.203C202.919 180.212 202.905 180.204 202.909 180.193Z" fill="white"/>
<defs>
<filter id="filter0_d_4025_22143" x="151.755" y="402.89" width="22.092" height="19.7274" filterUnits="userSpaceOnUse" color-interpolation-filters="sRGB">
<feFlood flood-opacity="0" result="BackgroundImageFix"/>
<feColorMatrix in="SourceAlpha" type="matrix" values="0 0 0 0 0 0 0 0 0 0 0 0 0 0 0 0 0 0 127 0" result="hardAlpha"/>
<feOffset dy="4"/>
<feGaussianBlur stdDeviation="2"/>
<feComposite in2="hardAlpha" operator="out"/>
<feColorMatrix type="matrix" values="0 0 0 0 0 0 0 0 0 0 0 0 0 0 0 0 0 0 0.07 0"/>
<feBlend mode="normal" in2="BackgroundImageFix" result="effect1_dropShadow_4025_22143"/>
<feBlend mode="normal" in="SourceGraphic" in2="effect1_dropShadow_4025_22143" result="shape"/>
</filter>
<filter id="filter1_d_4025_22143" x="164.649" y="422.009" width="20.5039" height="20.3913" filterUnits="userSpaceOnUse" color-interpolation-filters="sRGB">
<feFlood flood-opacity="0" result="BackgroundImageFix"/>
<feColorMatrix in="SourceAlpha" type="matrix" values="0 0 0 0 0 0 0 0 0 0 0 0 0 0 0 0 0 0 127 0" result="hardAlpha"/>
<feOffset dy="4"/>
<feGaussianBlur stdDeviation="2"/>
<feComposite in2="hardAlpha" operator="out"/>
<feColorMatrix type="matrix" values="0 0 0 0 0 0 0 0 0 0 0 0 0 0 0 0 0 0 0.07 0"/>
<feBlend mode="normal" in2="BackgroundImageFix" result="effect1_dropShadow_4025_22143"/>
<feBlend mode="normal" in="SourceGraphic" in2="effect1_dropShadow_4025_22143" result="shape"/>
</filter>
<clipPath id="clip0_4025_22143">
<rect width="34.2046" height="35" fill="white" transform="translate(332 514)"/>
</clipPath>
</defs>
</svg>
