<svg xmlns="http://www.w3.org/2000/svg" width="58" height="51" fill="none"><path fill="#fff" d="M30.41 29.136h-3.75a.527.527 0 0 1-.457-.263l-1.875-3.248a.526.526 0 0 1 0-.527l1.875-3.248a.528.528 0 0 1 .456-.264h3.75c.189 0 .363.101.457.264l1.875 3.248a.526.526 0 0 1 0 .527l-1.875 3.248a.527.527 0 0 1-.456.263Zm-3.446-1.054h3.141l1.572-2.72-1.572-2.721h-3.141l-1.571 2.72 1.57 2.721Z"/><path fill="#fff" d="M39.95 9.403c-.798.306-2.396.92-2.538.596-.016-.035-.007-.106.017-.197l1.842-3.467c.363-.313 1.096-.727 1.75-.724.836.005 2.559-.189 2.19-1.197-.37-1.009-1.825-.073-2.375.228a5 5 0 0 1-.852.351l1.255-2.362s.623-.07 1.107-1.038c.092-.184.12-.375.102-.56.025-.645-.49-1.013-1.03-1.032a.956.956 0 0 0-.162.006c-.019.002-.038.003-.057.007a1.043 1.043 0 0 0-.786.532c-.515.952-.214 1.502-.214 1.502L38.951 4.5a5.027 5.027 0 0 1-.202-.9c-.07-.623-.139-2.352-1.176-2.075-1.038.277-.208 1.798.276 2.48.377.53.46 1.368.414 1.846L36.48 9.35c-.061.073-.115.121-.153.129-.346.07-.761-1.59-.969-2.421-.207-.83-.622-3.735-2.006-2.905-1.383.83.139 2.56.485 3.182.345.622 1.245 2.836 1.176 3.943-.03.484-.987 2.675-2.053 4.987l-2.928 5.75.116.165-.116.238h.283l.115.164.09-.164h.204l3.072-5.78c1.278-2.195 2.518-4.227 2.896-4.529.867-.692 3.196-1.226 3.904-1.3.708-.075 2.997.178 2.883-1.43-.114-1.61-2.731-.283-3.53.024ZM20.426 7.503c-.134.845-.401 2.535-.752 2.496-.039-.004-.096-.047-.162-.113l-2.082-3.33c-.089-.47-.082-1.313.248-1.876.422-.722 1.116-2.311.058-2.496-1.058-.184-.975 1.544-.99 2.17a5.07 5.07 0 0 1-.12.914l-1.419-2.269s.251-.573-.345-1.477a1.013 1.013 0 0 0-.434-.368c-.546-.344-1.123-.082-1.408.375a1.18 1.18 0 0 0-.076.143c-.009.018-.017.034-.024.053-.117.297-.12.641.068.947.568.922 1.194.936 1.194.936l1.5 2.308a4.992 4.992 0 0 1-.881-.276c-.574-.25-2.106-1.056-2.385-.019-.28 1.038 1.454 1.08 2.287 1.001.647-.06 1.414.286 1.805.565l2.14 3.293c.032.09.047.16.034.197-.112.334-1.758-.136-2.58-.371-.823-.236-3.547-1.329-3.52.284.027 1.614 2.286 1.16 2.998 1.172.712.012 3.079.34 4.003.953.404.268 1.823 2.192 3.292 4.271l3.516 5.41.201-.017.148.219.141-.244.2-.018-.097-.16.102-.177-3.47-5.55c-1.263-2.205-2.402-4.295-2.475-4.774-.166-1.096.535-3.38.825-4.03.29-.65 1.654-2.507.204-3.213-1.451-.705-1.61 2.226-1.744 3.07ZM9.018 23.46c.665.538 1.995 1.615 1.786 1.9-.023.03-.09.059-.18.084l-3.923.138c-.453-.159-1.178-.586-1.502-1.154-.414-.727-1.443-2.121-2.132-1.297-.689.824.85 1.616 1.385 1.942.271.164.535.384.73.562l-2.673.094s-.371-.505-1.452-.44a1.008 1.008 0 0 0-.536.191c-.57.302-.632.933-.379 1.408l.026.047c.018.032.039.061.06.09l.034.047c.199.25.496.424.854.414 1.082-.03 1.408-.565 1.408-.565l2.748-.145a5.044 5.044 0 0 1-.679.625c-.504.37-1.967 1.296-1.209 2.056.759.76 1.661-.72 2.01-1.48.271-.591.955-1.082 1.392-1.281l3.921-.207c.094.017.163.038.189.068.233.265-.998 1.455-1.612 2.05-.615.594-2.924 2.406-1.513 3.189 1.41.783 2.147-1.4 2.513-2.01.366-.611 1.834-2.497 2.827-2.99.434-.216 2.809-.483 5.345-.716l6.444-.34.085-.182.263-.019-.14-.244.084-.182-.188.004-.102-.177-6.54.23c-2.54-.01-4.921-.068-5.372-.244-1.032-.404-2.66-2.154-3.078-2.73-.418-.577-1.343-2.686-2.68-1.782-1.337.905 1.121 2.507 1.786 3.046ZM17.134 41.319c.799-.307 2.396-.92 2.538-.597.016.036.007.106-.017.197l-1.842 3.468c-.363.312-1.097.727-1.75.723-.836-.005-2.559.19-2.19 1.197.37 1.009 1.825.073 2.374-.228.279-.152.602-.27.853-.351l-1.256 2.362s-.622.07-1.106 1.038a1.01 1.01 0 0 0-.102.56c-.025.645.49 1.014 1.03 1.032a.935.935 0 0 0 .161-.005l.058-.007c.316-.047.615-.217.786-.533.514-.953.214-1.502.214-1.502l1.248-2.452c.079.252.167.584.202.9.069.623.139 2.352 1.176 2.076 1.038-.277.207-1.799-.277-2.481-.376-.53-.46-1.368-.413-1.846l1.782-3.499c.061-.073.114-.12.153-.129.346-.069.761 1.591.968 2.421.208.83.623 3.736 2.006 2.906 1.384-.83-.138-2.56-.484-3.182-.345-.623-1.245-2.837-1.176-3.943.03-.485.986-2.675 2.053-4.987l2.928-5.75-.116-.166.116-.238h-.283l-.115-.163-.09.163h-.205l-3.07 5.78c-1.279 2.195-2.52 4.228-2.898 4.53-.866.691-3.195 1.226-3.903 1.3-.708.074-2.998-.18-2.883 1.43.114 1.61 2.732.283 3.53-.024ZM36.659 43.22c.134-.845.401-2.535.752-2.496.039.004.096.047.162.113l2.082 3.33c.089.47.081 1.312-.248 1.876-.423.722-1.116 2.31-.058 2.495 1.058.185.975-1.544.989-2.17.007-.317.066-.656.122-.914l1.418 2.269s-.251.574.346 1.477c.113.172.265.293.433.368.547.344 1.124.083 1.409-.375a1.191 1.191 0 0 0 .076-.143c.008-.018.016-.034.023-.053.118-.297.12-.64-.068-.947-.568-.922-1.194-.936-1.194-.936l-1.5-2.308c.258.058.59.148.881.276.574.251 2.107 1.056 2.385.019.28-1.037-1.454-1.079-2.287-1.001-.647.06-1.414-.286-1.805-.565l-2.14-3.293c-.032-.09-.047-.16-.034-.197.113-.334 1.758.136 2.58.371.823.236 3.547 1.33 3.52-.284-.028-1.613-2.286-1.16-2.998-1.172-.712-.011-3.079-.34-4.003-.953-.404-.268-1.823-2.192-3.292-4.27l-3.516-5.411-.201.017-.148-.219-.141.245-.2.017.096.16-.102.178 3.47 5.549c1.262 2.204 2.402 4.295 2.475 4.773.166 1.097-.536 3.38-.826 4.031-.29.65-1.654 2.507-.203 3.212 1.452.706 1.61-2.224 1.745-3.069ZM48.066 27.26c-.665-.538-1.995-1.615-1.786-1.899.023-.031.089-.06.18-.084l3.923-.138c.453.159 1.178.586 1.502 1.153.414.727 1.443 2.122 2.132 1.298.688-.824-.85-1.617-1.385-1.942a5.027 5.027 0 0 1-.73-.562l2.673-.094s.371.505 1.452.44c.205-.013.386-.084.535-.192.572-.301.633-.932.38-1.408a1.235 1.235 0 0 0-.086-.137l-.034-.046a1.042 1.042 0 0 0-.854-.414c-1.082.03-1.408.565-1.408.565l-2.748.145c.179-.194.423-.437.678-.625.505-.371 1.968-1.296 1.21-2.056-.759-.76-1.661.72-2.01 1.48-.272.591-.956 1.082-1.392 1.281l-3.921.207c-.094-.017-.163-.039-.189-.069-.233-.265.997-1.454 1.612-2.049.616-.594 2.924-2.406 1.513-3.19-1.41-.782-2.147 1.4-2.513 2.011-.366.61-1.834 2.496-2.827 2.99-.434.215-2.81.483-5.345.716l-6.443.34-.086.182-.263.02.141.244-.084.181.187-.003.102.177 6.541-.23c2.54.009 4.92.067 5.371.243 1.032.405 2.66 2.154 3.078 2.73.418.577 1.344 2.686 2.68 1.782 1.337-.905-1.121-2.507-1.786-3.046Z"/><path fill="#fff" d="m33.384 16.225-4.876-4.192a.368.368 0 0 0-.497 0l-4.691 4.641a.636.636 0 1 0 .9.9l4.04-4.775 4.294 4.256.032.032a.588.588 0 0 0 .798-.862Z"/><path fill="#fff" d="M28.344 12.541a.29.29 0 0 1-.23-.114l-2.138-2.426a.29.29 0 0 1 0-.35l2.138-2.428a.3.3 0 0 1 .46 0l2.138 2.427a.289.289 0 0 1 0 .35l-2.138 2.428a.29.29 0 0 1-.23.113Zm-1.486-2.716 1.486 1.95 1.486-1.95-1.486-1.95-1.486 1.95ZM23.05 16.6l-6.067 2.126a.368.368 0 0 0-.248.43l1.673 6.384c.004.017.008.035.014.051a.636.636 0 1 0 1.214-.38l-2.113-5.887 5.832-1.591a.588.588 0 1 0-.305-1.133Z"/><path fill="#fff" d="M17.341 19.122a.289.289 0 0 1-.213.143l-3.17.638a.289.289 0 0 1-.304-.175l-1.033-3.065a.3.3 0 0 1 .23-.398l3.171-.639a.289.289 0 0 1 .303.176l1.033 3.065a.29.29 0 0 1-.017.255Zm-3.095-.07 2.432-.313-.946-2.262-2.431.312.945 2.262ZM18.21 25.735l-1.193 6.318a.368.368 0 0 0 .249.43l6.365 1.744c.016.004.034.01.05.013a.636.636 0 1 0 .278-1.242l-6.155-1.113 1.539-5.846a.588.588 0 1 0-1.134-.304Z"/><path fill="#fff" d="M17.539 31.942a.289.289 0 0 1 .016.255l-1.032 3.066a.288.288 0 0 1-.304.175l-3.17-.639a.3.3 0 0 1-.23-.398l1.032-3.065a.289.289 0 0 1 .304-.175l3.17.638a.29.29 0 0 1 .214.143Zm-1.61 2.645.947-2.262-2.432-.312-.946 2.262 2.432.312ZM23.7 34.497l4.876 4.192c.14.127.357.13.497 0l4.692-4.641a.636.636 0 1 0-.9-.9l-4.041 4.775-4.294-4.256a.587.587 0 1 0-.83.83Z"/><path fill="#fff" d="M28.74 38.18a.29.29 0 0 1 .23.113l2.138 2.427a.289.289 0 0 1 0 .35l-2.138 2.427a.3.3 0 0 1-.46 0l-2.138-2.427a.29.29 0 0 1 0-.35l2.139-2.427a.289.289 0 0 1 .23-.113Zm1.486 2.715-1.486-1.95-1.486 1.95 1.486 1.95 1.486-1.95ZM34.034 34.123l6.068-2.127a.368.368 0 0 0 .248-.43l-1.673-6.384a.636.636 0 1 0-1.228.33l2.113 5.887-5.832 1.59a.587.587 0 1 0 .304 1.133Z"/><path fill="#fff" d="M39.744 31.598a.289.289 0 0 1 .213-.142l3.17-.638a.289.289 0 0 1 .304.175l1.033 3.065a.3.3 0 0 1-.23.398l-3.17.638a.289.289 0 0 1-.304-.175l-1.033-3.065a.29.29 0 0 1 .017-.256Zm3.095.071-2.432.312.946 2.262 2.431-.312-.945-2.262ZM38.875 24.986l1.192-6.318a.368.368 0 0 0-.248-.43l-6.365-1.744a.636.636 0 1 0-.329 1.229l6.156 1.113-1.539 5.846a.588.588 0 1 0 1.133.304Z"/><path fill="#fff" d="M39.545 18.778a.289.289 0 0 1-.017-.256l1.033-3.065a.29.29 0 0 1 .303-.175l3.17.638a.3.3 0 0 1 .23.398l-1.032 3.065a.288.288 0 0 1-.303.175l-3.171-.638a.29.29 0 0 1-.213-.142Zm1.608-2.645-.945 2.262 2.432.312.945-2.262-2.431-.312Z"/></svg>