<svg width="30" height="26" viewBox="0 0 30 26" fill="none" xmlns="http://www.w3.org/2000/svg">
<path d="M25.0389 14.2445C24.9669 14.2082 24.8947 14.19 24.822 14.19C24.6654 14.19 24.5275 14.2501 24.4073 14.3706L23.2527 15.525C23.1447 15.6334 23.0905 15.7655 23.0905 15.922V20.5037C23.0905 21.2976 22.8085 21.9768 22.2429 22.5423C21.6777 23.1074 20.9981 23.3901 20.2043 23.3901H5.1954C4.40155 23.3901 3.722 23.1074 3.15682 22.5423C2.59151 21.9768 2.30901 21.2977 2.30901 20.5037V5.49506C2.30901 4.70133 2.59151 4.02185 3.15682 3.45648C3.722 2.89123 4.40155 2.60867 5.1954 2.60867H20.2045C20.4691 2.60867 20.7396 2.64475 21.0162 2.71697C21.0884 2.74085 21.1425 2.75304 21.1781 2.75304C21.3347 2.75304 21.4731 2.69308 21.5933 2.57284L22.4772 1.68889C22.6214 1.54477 22.6757 1.37025 22.6393 1.16598C22.6033 0.97352 22.4949 0.835146 22.3145 0.751048C21.6655 0.450796 20.9616 0.299974 20.204 0.299974H5.1954C3.76427 0.299974 2.54052 0.808103 1.52426 1.82436C0.508129 2.84074 0 4.06431 0 5.4955V20.5045C0 21.9354 0.508129 23.1591 1.52432 24.1754C2.54058 25.1919 3.76433 25.7 5.19546 25.7H20.2043C21.6353 25.7 22.8592 25.1919 23.8754 24.1754C24.8917 23.1591 25.4003 21.9355 25.4003 20.5045V14.7676C25.4002 14.5152 25.2793 14.3409 25.0389 14.2445Z" fill="#0061FE"/>
<path d="M29.5678 3.8898L27.5832 1.90524C27.2946 1.61668 26.9516 1.47237 26.5546 1.47237C26.1581 1.47237 25.8149 1.61668 25.5265 1.90524L13.8547 13.577L9.11061 8.83252C8.82192 8.54377 8.47909 8.39965 8.08235 8.39965C7.68555 8.39965 7.34284 8.54377 7.05409 8.83252L5.06978 10.8168C4.78116 11.1055 4.63672 11.4483 4.63672 11.8453C4.63672 12.2421 4.78116 12.5848 5.06978 12.8735L12.8267 20.6305C13.1154 20.9193 13.4583 21.0634 13.855 21.0634C14.2517 21.0634 14.5945 20.9194 14.8833 20.6305L29.5676 5.94626C29.856 5.6577 30.0006 5.3148 30.0006 4.918C30.0006 4.5212 29.8564 4.17837 29.5678 3.8898Z" fill="#0061FE"/>
</svg>
