<svg width="15" height="15" viewBox="0 0 15 15" fill="none" xmlns="http://www.w3.org/2000/svg">
<circle cx="7.49963" cy="7.5" r="3.75" fill="#8AB7FF"/>
<path fill-rule="evenodd" clip-rule="evenodd" d="M12.9798 8.3995C12.547 11 10.269 13 7.50006 13C4.73111 13 2.45313 11 2.02032 8.3995H0C0.447585 12.1175 3.63479 15 7.50006 15C11.3653 15 14.5525 12.1175 15.0001 8.3995H12.9798ZM2.04765 6.4495C2.5419 3.92299 4.78495 2 7.50006 2C10.2152 2 12.4582 3.92299 12.9525 6.4495H14.9804C14.4659 2.8047 11.3128 0 7.50006 0C3.68728 0 0.534273 2.8047 0.0197449 6.4495H2.04765Z" fill="#0061FE"/>
</svg>
