<svg width="37" height="37" viewBox="0 0 37 37" fill="none" xmlns="http://www.w3.org/2000/svg">
<path d="M36.3656 18.5C36.3656 8.45619 28.2235 0.314087 18.1797 0.314087C8.13588 0.314087 -0.00622559 8.45619 -0.00622559 18.5C-0.00622559 28.5438 8.13588 36.6859 18.1797 36.6859C28.2235 36.6859 36.3656 28.5438 36.3656 18.5Z" fill="white"/>
<path d="M22.7747 10.2201C23.4989 10.3593 24.1395 10.6001 24.7118 11.0098C25.6593 11.684 26.2217 12.6017 26.4055 13.7467C26.4577 14.0634 26.4681 14.3926 26.4723 14.7153C26.477 14.9646 26.2747 15.1133 26.0482 15.0606C25.8855 15.0244 25.7937 14.8959 25.7823 14.7074C25.759 14.3718 25.755 14.0331 25.6868 13.7067C25.424 12.4397 24.6567 11.5941 23.4617 11.1354C23.1463 11.015 22.808 10.9616 22.4794 10.8794C22.4475 10.8728 22.4058 10.8917 22.3707 10.8978C22.3832 10.9331 22.3893 10.9746 22.4083 11.0035C22.6362 11.315 22.8704 11.6265 23.0983 11.9411C23.1838 12.0568 23.1894 12.1783 23.1151 12.3023C23.0505 12.4105 22.9446 12.4737 22.82 12.4441C22.7372 12.4243 22.6417 12.3758 22.591 12.3116C22.1921 11.7849 21.8028 11.255 21.4134 10.7219C21.2804 10.5389 21.3201 10.3507 21.5191 10.2338C22.0676 9.90852 22.6193 9.58323 23.1712 9.25795C23.3444 9.15691 23.5261 9.20288 23.6177 9.36006C23.7092 9.52045 23.6601 9.69583 23.4869 9.80008C23.2655 9.93273 23.0345 10.0653 22.7747 10.2201Z" fill="#0061FE"/>
<path d="M13.553 27.1531C12.8278 27.0189 12.1856 26.7824 11.6105 26.3767C10.6584 25.709 10.0897 24.7952 9.89807 23.6514C9.84379 23.3351 9.83092 23.0061 9.82448 22.6834C9.81819 22.4341 10.0195 22.284 10.2463 22.3352C10.4092 22.3703 10.5018 22.498 10.5147 22.6866C10.5402 23.0221 10.5466 23.3607 10.6168 23.6866C10.8885 24.9517 11.6617 25.7921 12.8597 26.2425C13.176 26.3607 13.5147 26.4118 13.8437 26.4917C13.8757 26.4981 13.9173 26.4789 13.9524 26.4725C13.9395 26.4374 13.9332 26.3958 13.9141 26.3672C13.684 26.0572 13.4475 25.7473 13.2176 25.4342C13.1312 25.3192 13.1248 25.1978 13.1984 25.0732C13.2623 24.9646 13.3677 24.9007 13.4923 24.9293C13.5754 24.9485 13.6712 24.9965 13.7223 25.0604C14.1249 25.5843 14.5178 26.1114 14.9108 26.6419C15.045 26.8239 15.0066 27.0125 14.8085 27.1307C14.2623 27.4597 13.7128 27.7889 13.1633 28.1179C12.9906 28.2202 12.8087 28.1754 12.7159 28.0189C12.6233 27.8591 12.6711 27.6834 12.8438 27.5779C13.0642 27.4438 13.2942 27.3096 13.553 27.1531Z" fill="#0061FE"/>
<path d="M20.0602 10.2372V16.4864H18.3254C17.2263 16.4864 16.3381 17.3778 16.3381 18.4736V21.0423H9.25512C8.15599 21.0423 7.26782 20.1509 7.26782 19.0551V10.2372C7.26782 9.13815 8.15599 8.24997 9.25512 8.24997H18.0729C19.1688 8.24997 20.0602 9.13815 20.0602 10.2372Z" fill="#0061FE"/>
<path d="M11.9509 13.7376C12.5549 14.1242 13.1491 14.5044 13.7529 14.891C13.574 15.006 13.4079 15.1115 13.2417 15.2201C12.8296 15.4821 12.4175 15.7441 12.0052 16.0092C11.9701 16.0316 11.9414 16.0412 11.8999 16.0156C11.328 15.6451 10.7529 15.2776 10.181 14.907C10.1714 14.9005 10.1619 14.891 10.1427 14.8782C10.7433 14.4949 11.3375 14.1146 11.9477 13.7281C11.3439 13.3479 10.7497 12.9709 10.1554 12.5971C10.1522 12.5683 10.1746 12.5651 10.1873 12.5555C10.7593 12.1913 11.328 11.8271 11.8999 11.4629C11.9318 11.4437 11.9542 11.4341 11.9893 11.4597C12.5644 11.8271 13.1395 12.1945 13.7146 12.562C13.7242 12.5683 13.7337 12.5779 13.7497 12.5907C13.1491 12.9709 12.5549 13.3511 11.9509 13.7376Z" fill="#F7F5F2"/>
<path d="M15.5422 16.4097C15.3379 16.5407 15.1428 16.6653 14.9448 16.793C14.5615 17.0391 14.178 17.282 13.7978 17.5279C13.7595 17.5535 13.734 17.5535 13.6957 17.5279C13.127 17.1637 12.555 16.7995 11.9863 16.4352C11.9736 16.4257 11.9639 16.416 11.948 16.4033C12.4432 16.087 12.9384 15.7707 13.4304 15.4576C13.52 15.4001 13.6126 15.3426 13.6987 15.2851C13.7308 15.2628 13.7564 15.2595 13.7915 15.2819C14.3698 15.6525 14.948 16.0231 15.5263 16.3938C15.5263 16.3938 15.5295 16.397 15.5422 16.4097Z" fill="#F7F5F2"/>
<path d="M13.7561 14.8787C14.0436 14.6966 14.3183 14.5177 14.5963 14.342C14.8966 14.1503 15.1938 13.9587 15.4941 13.7701C15.5229 13.7509 15.542 13.7318 15.5835 13.7574C16.1618 14.1279 16.7401 14.4954 17.3215 14.866C17.3312 14.8723 17.3376 14.8787 17.3536 14.8916C17.2705 14.9459 17.1938 14.9969 17.1139 15.0449C16.6155 15.3644 16.1138 15.6807 15.6155 16.0001C15.5708 16.0289 15.5389 16.0354 15.4909 16.0033C14.9158 15.6295 14.3407 15.259 13.7561 14.8787Z" fill="#F7F5F2"/>
<path d="M13.7561 12.5842C14.0053 12.4245 14.2449 12.2679 14.4845 12.1146C14.82 11.8974 15.1587 11.6833 15.4941 11.4693C15.526 11.4501 15.5484 11.4309 15.5899 11.4565C16.165 11.8271 16.7433 12.1945 17.3215 12.5618C17.3312 12.5683 17.3376 12.5747 17.3503 12.5842C17.2672 12.6386 17.1874 12.6929 17.1075 12.744C16.6092 13.0603 16.1108 13.3766 15.6123 13.6961C15.5867 13.712 15.5676 13.7344 15.5292 13.712C14.9446 13.335 14.3536 12.9644 13.7561 12.5842Z" fill="#F7F5F2"/>
<path d="M29.0055 18.2247V27.0425C29.0055 28.1416 28.1141 29.033 27.0184 29.033H18.2004C17.1013 29.033 16.2131 28.1416 16.2131 27.0425V20.7934H17.9481C19.0438 20.7934 19.9352 19.902 19.9352 18.8061V16.2374H27.0184C28.1141 16.2374 29.0055 17.1288 29.0055 18.2247Z" fill="#0061FE"/>
<path d="M22.7 19.4332C20.9299 19.4618 19.4092 20.9475 19.4092 22.7974C19.4124 24.7271 21.0449 26.1903 22.7926 26.1647C24.5849 26.1361 26.1121 24.6536 26.1089 22.8037C26.1121 20.9252 24.5625 19.4043 22.7 19.4332ZM22.8182 25.9858C21.0481 26.0179 19.6073 24.5833 19.5849 22.7942C19.5657 21.1169 21.0034 19.6568 22.6647 19.6089C24.4027 19.5578 25.9396 21.0146 25.9364 22.8069C25.9364 24.4172 24.6073 25.9571 22.8182 25.9858Z" fill="#F7F5F2"/>
<path d="M24.6845 20.634C24.5631 20.701 24.4513 20.7458 24.3618 20.8192C24.1798 20.9695 24.1447 21.1867 24.25 21.4359C24.298 21.5541 24.3555 21.6691 24.4257 21.7746C24.7037 22.1867 24.7549 22.6308 24.6207 23.1037C24.4896 23.5638 24.349 24.0237 24.2117 24.4838C24.2084 24.4998 24.1989 24.5127 24.1766 24.5541C23.8251 23.5031 23.48 22.4775 23.1318 21.4359C23.2277 21.4296 23.3043 21.4264 23.3842 21.4167C23.4258 21.4104 23.4768 21.4072 23.4992 21.3816C23.528 21.3497 23.5375 21.2985 23.5407 21.2537C23.5407 21.2442 23.4897 21.2186 23.4609 21.2186C22.9816 21.2186 22.4993 21.2218 22.02 21.2218C22.004 21.2218 21.9849 21.2218 21.9689 21.2251C21.9209 21.2378 21.8346 21.2154 21.8443 21.2953C21.8475 21.3368 21.9177 21.3689 21.9561 21.404C21.9593 21.4072 21.9689 21.4072 21.9752 21.4072C22.183 21.388 22.2628 21.5158 22.3203 21.6884C22.4289 21.9982 22.5503 22.3049 22.6622 22.6117C22.675 22.6468 22.6782 22.6948 22.6685 22.7299C22.4704 23.3241 22.2691 23.9152 22.071 24.5094C22.068 24.5222 22.0583 24.5318 22.0359 24.5734C21.6845 23.5222 21.3394 22.4967 20.988 21.455C21.0935 21.4391 21.1766 21.4296 21.2565 21.4135C21.3267 21.3975 21.4225 21.3913 21.4162 21.3017C21.4098 21.2059 21.314 21.2154 21.2436 21.2154C21.0072 21.2186 20.774 21.2251 20.5376 21.2315C20.4833 21.2315 20.4289 21.2315 20.3683 21.2154C20.7708 20.6116 21.3075 20.1963 22.0136 20.0142C23.0104 19.7521 23.8922 19.995 24.6845 20.634Z" fill="#F7F5F2"/>
<path d="M22.831 23.0615C23.1249 23.8762 23.4189 24.6909 23.7223 25.5311C23.553 25.5695 23.3965 25.611 23.2399 25.6431C22.8533 25.7197 22.47 25.6973 22.0897 25.611C21.9332 25.5759 21.93 25.5664 21.9812 25.4194C22.24 24.6653 22.4986 23.9113 22.7607 23.1575C22.7703 23.1254 22.7863 23.0967 22.8022 23.0647C22.8086 23.0647 22.8182 23.0615 22.831 23.0615Z" fill="#F7F5F2"/>
<path d="M20.1562 21.637C20.6099 22.8798 21.0635 24.1258 21.5172 25.3686C21.5077 25.375 21.4948 25.3813 21.4853 25.3878C20.8687 25.0779 20.4118 24.6051 20.1338 23.9725C19.7919 23.1993 19.8272 22.4165 20.1179 21.6402C20.1274 21.6402 20.1402 21.637 20.1562 21.637Z" fill="#F7F5F2"/>
<path d="M25.3135 21.4479C25.6489 22.1412 25.7257 22.8631 25.5148 23.6076C25.3072 24.3393 24.863 24.8984 24.1953 25.2785C24.2048 25.2466 24.2113 25.2147 24.2209 25.1859C24.5148 24.3296 24.8087 23.4735 25.0994 22.6172C25.2113 22.2882 25.2911 21.9527 25.2719 21.6012C25.2688 21.5501 25.2784 21.4991 25.2816 21.4479C25.2911 21.4511 25.304 21.4479 25.3135 21.4479Z" fill="#F7F5F2"/>
</svg>
