<svg width="30" height="30" viewBox="0 0 30 30" fill="none" xmlns="http://www.w3.org/2000/svg">
<path d="M27.2379 22.4648L26.6909 24.8375C26.5789 25.3216 26.1481 25.6639 25.6512 25.6639H4.32404C3.82712 25.6639 3.39631 25.3216 3.28435 24.8375L2.7373 22.4648H27.2379Z" fill="white"/>
<path d="M29.8905 10.975L27.7311 20.3323H2.24518L0.0858087 10.975C-0.00909708 10.5623 0.148724 10.1315 0.488892 9.87878C0.830126 9.62605 1.28759 9.5994 1.65442 9.80947L8.25411 13.5812L14.0999 4.81252C14.2908 4.52673 14.6064 4.34972 14.9487 4.33692C15.2942 4.32199 15.6194 4.47768 15.8295 4.74854L22.6851 13.563L28.259 9.84786C28.6226 9.60686 29.0971 9.60899 29.4565 9.85745C29.8169 10.1059 29.9875 10.5495 29.8905 10.975Z" fill="white"/>
</svg>
