<svg width="30" height="30" viewBox="0 0 30 30" fill="none" xmlns="http://www.w3.org/2000/svg">
<g clip-path="url(#clip0_294_24)">
<path d="M15 0.75C11.2306 0.75 7.64516 2.22097 4.8871 4.8871C2.22097 7.64516 0.75 11.2306 0.75 15C0.75 22.8145 7.18548 29.25 15 29.25C18.7694 29.25 22.3548 27.779 25.1129 25.1129C27.779 22.4468 29.25 18.8613 29.25 15C29.25 7.18548 22.8145 0.75 15 0.75ZM19.6887 16.379L13.3452 20.4242C13.0694 20.6081 12.7935 20.7 12.4258 20.7C11.5065 20.7 10.771 19.9645 10.771 19.0452V10.9548C10.771 10.0355 11.5065 9.3 12.4258 9.3C12.7016 9.3 13.0694 9.39194 13.3452 9.57581L19.6887 13.621C20.1484 13.8968 20.4242 14.4484 20.4242 15C20.4242 15.5516 20.1484 16.1032 19.6887 16.379Z" fill="white"/>
</g>
<defs>
<clipPath id="clip0_294_24">
<rect width="30" height="30" fill="white"/>
</clipPath>
</defs>
</svg>
