<svg width="101" height="48" viewBox="0 0 101 48" fill="none" xmlns="http://www.w3.org/2000/svg">
<path d="M64.078 19.57C68.8546 26.2672 73.8011 33.1969 81.099 31.3617C95.8248 27.662 100.704 5.14917 100.907 4.19146L98.4814 3.69327C98.4341 3.91552 93.718 25.6471 80.5029 28.9667C74.8251 30.4062 70.5748 24.4451 66.0936 18.1337C60.6441 10.5018 54.4724 1.84921 44.9062 8.15945C42.9707 9.43223 41.3726 11.155 40.2493 13.1793C33.8557 10.7688 25.4608 9.14584 14.5028 9.22589L17.0449 0.35983C12.7849 4.61759 5.73338 8.84879 -5.6192e-05 11.4447C6.02843 13.2079 13.5824 16.4175 18.3757 20.0386L14.6952 11.689C25.1736 11.6394 33.1467 13.1732 39.2115 15.4405C38.2018 18.4077 37.8668 21.5608 38.231 24.67C39.1771 34.2115 45.33 44.7437 51.3993 47.1776C52.4272 47.6628 53.5745 47.8399 54.7027 47.6875C55.8309 47.5351 56.8916 47.0597 57.7568 46.3187C61.4148 43.2237 62.3245 36.9479 59.9365 30.754C58.6585 27.4404 54.5018 19.3884 42.5046 14.1438C43.4329 12.5742 44.7099 11.2382 46.2366 10.2392C53.3119 5.56232 57.6948 10.6536 64.078 19.57ZM57.6413 31.6239C59.595 36.7788 58.9922 42.045 56.1843 44.4255C55.659 44.8704 55.0139 45.15 54.3306 45.2292C53.6472 45.3083 52.9563 45.1833 52.3451 44.87C47.6224 42.9673 41.6453 33.8116 40.7147 24.4091C40.3963 21.6977 40.6665 18.948 41.5071 16.3472C52.6355 21.2311 56.4742 28.5734 57.6277 31.6333L57.6413 31.6239Z" fill="#0061FE"/>
</svg>
