<svg width="30" height="31" viewBox="0 0 30 31" fill="none" xmlns="http://www.w3.org/2000/svg">
<path d="M28.0969 9.16531L25.4625 19.7047C25.2534 20.5409 24.5053 21.125 23.6428 21.125H7.39688C6.44531 21.125 5.64469 20.4125 5.535 19.4675L3.63656 4.25H2.34375C1.56656 4.25 0.9375 3.62094 0.9375 2.84375C0.9375 2.06656 1.56656 1.4375 2.34375 1.4375H4.86281C5.56594 1.4375 6.16031 1.95688 6.25594 2.6525L6.98906 8H27.1875C27.7969 8 28.245 8.57375 28.0969 9.16531Z" fill="#F7F5F2"/>
<path d="M6.5625 25.8125C6.5625 27.3631 7.82437 28.625 9.375 28.625C10.9256 28.625 12.1875 27.3631 12.1875 25.8125C12.1875 24.2619 10.9256 23 9.375 23C7.82437 23 6.5625 24.2619 6.5625 25.8125Z" fill="#F7F5F2"/>
<path d="M23.4375 25.8125C23.4375 24.2619 22.1756 23 20.625 23C19.0744 23 17.8125 24.2619 17.8125 25.8125C17.8125 27.3631 19.0744 28.625 20.625 28.625C22.1756 28.625 23.4375 27.3631 23.4375 25.8125Z" fill="#F7F5F2"/>
</svg>
