<svg width="118" height="25" viewBox="0 0 118 25" fill="none" xmlns="http://www.w3.org/2000/svg">
<path d="M97.5471 0H11.4529C5.12764 0 0 5.59644 0 12.5C0 19.4036 5.12764 25 11.4529 25H97.5471C103.872 25 109 19.4036 109 12.5C109 5.59644 103.872 0 97.5471 0Z" fill="#0061FE"/>
<path d="M8.93824 9.03586H7.94662L10.65 16.7403L12.1635 12.38L10.9901 9.03586H9.94381V8.30171H14.5769V9.03586H13.492L16.1953 16.7403L17.1671 13.9405C18.4419 10.3535 16.1223 9.23621 16.1223 8.43565C16.1223 7.63512 16.766 6.9862 17.56 6.9862C17.6029 6.9862 17.6447 6.98854 17.6855 6.99238C16.3402 5.71196 14.5261 4.92676 12.53 4.92676C9.92166 4.92676 7.62417 6.26715 6.27734 8.30171H8.93816L8.93824 9.03586Z" fill="white"/>
<path d="M5.01562 12.501C5.01562 15.4006 6.63214 17.9192 9.00591 19.1919L5.6158 9.53027C5.22956 10.4424 5.01562 11.4465 5.01562 12.501Z" fill="white"/>
<path d="M19.0655 8.76953C19.1729 9.40738 19.1404 10.1244 18.9755 10.8441H19.0054L18.8918 11.1713C18.8245 11.4075 18.7398 11.6493 18.6435 11.8868L16.0586 19.1876C18.4274 17.9134 20.0398 15.3975 20.0398 12.5016C20.0398 11.1445 19.6855 9.87108 19.0655 8.76953Z" fill="white"/>
<path d="M10.2109 19.7064C10.9407 19.9448 11.7193 20.0741 12.5278 20.0741C13.2991 20.0741 14.0431 19.9567 14.7435 19.7391L12.5461 13.4766L10.2109 19.7064Z" fill="white"/>
<path d="M18.8776 6.09941C17.1818 4.38979 14.9272 3.44824 12.529 3.44824C10.1308 3.44824 7.87617 4.38979 6.18047 6.09941C4.48469 7.80905 3.55078 10.0821 3.55078 12.5C3.55078 14.9178 4.48469 17.1908 6.18047 18.9005C7.87617 20.6101 10.1308 21.5517 12.529 21.5517C14.9273 21.5517 17.1818 20.6101 18.8776 18.9005C20.5734 17.1908 21.5073 14.9177 21.5073 12.5C21.5073 10.0821 20.5734 7.80905 18.8776 6.09941ZM12.529 20.9132C7.92764 20.9132 4.18413 17.139 4.18413 12.5C4.18413 7.86094 7.92764 4.08678 12.529 4.08678C17.1304 4.08678 20.8739 7.86094 20.8739 12.5C20.8739 17.139 17.1304 20.9132 12.529 20.9132Z" fill="white"/>
<path d="M28.6388 15.6262L30.8183 7.07196H31.9606L31.8329 9.27677L29.5031 18.1038H28.3157L28.6388 15.6262ZM27.008 7.07196L28.7741 15.558L28.932 18.1038H27.6694L25.1367 7.07196H27.008ZM34.4332 15.5352L36.1767 7.07196H38.0555L35.5229 18.1038H34.2603L34.4332 15.5352ZM32.4041 7.07196L34.5609 15.6488L34.8766 18.1038H33.6892L31.397 9.27677L31.2767 7.07196H32.4041ZM38.6868 14.0956V13.9213C38.6868 13.3304 38.772 12.7823 38.9423 12.2772C39.1127 11.767 39.3582 11.325 39.6788 10.9513C40.0045 10.5725 40.4003 10.2794 40.8662 10.0724C41.3372 9.86022 41.8683 9.75418 42.4595 9.75418C43.0557 9.75418 43.5868 9.86022 44.0527 10.0724C44.5237 10.2794 44.922 10.5725 45.2477 10.9513C45.5733 11.325 45.8213 11.767 45.9917 12.2772C46.162 12.7823 46.2472 13.3304 46.2472 13.9213V14.0956C46.2472 14.6866 46.162 15.2347 45.9917 15.7398C45.8213 16.245 45.5733 16.6869 45.2477 17.0657C44.922 17.4395 44.5262 17.7325 44.0602 17.9446C43.5943 18.1518 43.0657 18.2553 42.4745 18.2553C41.8783 18.2553 41.3447 18.1518 40.8737 17.9446C40.4078 17.7325 40.012 17.4395 39.6864 17.0657C39.3607 16.6869 39.1127 16.245 38.9423 15.7398C38.772 15.2347 38.6868 14.6866 38.6868 14.0956ZM40.498 13.9213V14.0956C40.498 14.4644 40.5355 14.8129 40.6107 15.1413C40.6859 15.4695 40.8036 15.7575 40.9639 16.005C41.1243 16.2525 41.3297 16.4469 41.5802 16.5884C41.8307 16.7298 42.1288 16.8006 42.4745 16.8006C42.8102 16.8006 43.1008 16.7298 43.3463 16.5884C43.5968 16.4469 43.8022 16.2525 43.9625 16.005C44.1228 15.7575 44.2406 15.4695 44.3157 15.1413C44.3959 14.8129 44.436 14.4644 44.436 14.0956V13.9213C44.436 13.5577 44.3959 13.2142 44.3157 12.8909C44.2406 12.5626 44.1204 12.2722 43.955 12.0196C43.7947 11.767 43.5893 11.57 43.3387 11.4286C43.0932 11.2821 42.8002 11.2089 42.4595 11.2089C42.1188 11.2089 41.8232 11.2821 41.5727 11.4286C41.3272 11.57 41.1243 11.767 40.9639 12.0196C40.8036 12.2722 40.6859 12.5626 40.6107 12.8909C40.5355 13.2142 40.498 13.5577 40.498 13.9213ZM49.5839 11.4665V18.1038H47.7728V9.90565H49.5013L49.5839 11.4665ZM52.0715 9.85263L52.0564 11.5499C51.9462 11.5296 51.826 11.5144 51.6958 11.5044C51.5705 11.4943 51.4452 11.4892 51.32 11.4892C51.0093 11.4892 50.7363 11.5347 50.5008 11.6256C50.2653 11.7115 50.0675 11.8377 49.9071 12.0044C49.7518 12.1661 49.6316 12.3631 49.5464 12.5955C49.4612 12.8278 49.4111 13.0879 49.3961 13.3758L48.9827 13.4062C48.9827 12.8909 49.0328 12.4136 49.133 11.9741C49.2333 11.5347 49.3836 11.1482 49.5839 10.8149C49.7894 10.4815 50.0449 10.2213 50.3505 10.0344C50.6611 9.84763 51.0194 9.75418 51.4252 9.75418C51.5355 9.75418 51.6532 9.76427 51.7785 9.78444C51.9087 9.80461 52.0064 9.82737 52.0715 9.85263ZM58.0161 16.4065V6.46582H59.8348V18.1038H58.1889L58.0161 16.4065ZM52.7254 14.0956V13.9365C52.7254 13.3152 52.798 12.7495 52.9433 12.2394C53.0886 11.7241 53.299 11.2821 53.5746 10.9134C53.8501 10.5396 54.1858 10.2542 54.5816 10.0572C54.9775 9.85513 55.4234 9.75418 55.9193 9.75418C56.4103 9.75418 56.8413 9.85013 57.2119 10.042C57.5827 10.234 57.8984 10.5093 58.1589 10.8679C58.4195 11.2215 58.6273 11.6458 58.7827 12.1408C58.938 12.6308 59.0482 13.1763 59.1134 13.7774V14.285C59.0482 14.871 58.938 15.4064 58.7827 15.8913C58.6273 16.3763 58.4195 16.7955 58.1589 17.1491C57.8984 17.5026 57.5802 17.7754 57.2045 17.9674C56.8337 18.1594 56.4003 18.2553 55.9043 18.2553C55.4133 18.2553 54.9699 18.1518 54.5741 17.9446C54.1834 17.7375 53.8501 17.4471 53.5746 17.0733C53.299 16.6995 53.0886 16.26 52.9433 15.755C52.798 15.2448 52.7254 14.6917 52.7254 14.0956ZM54.5365 13.9365V14.0956C54.5365 14.4694 54.5691 14.818 54.6342 15.1413C54.7044 15.4645 54.8121 15.7499 54.9574 15.9974C55.1027 16.2399 55.2906 16.4318 55.521 16.5732C55.7565 16.7096 56.0371 16.7778 56.3628 16.7778C56.7736 16.7778 57.1118 16.6869 57.3773 16.505C57.6429 16.3232 57.8508 16.0782 58.0011 15.7701C58.1564 15.4569 58.2616 15.1084 58.3167 14.7245V13.3531C58.2867 13.0551 58.224 12.7773 58.1288 12.5197C58.0386 12.262 57.9159 12.0373 57.7606 11.8453C57.6053 11.6483 57.4124 11.4968 57.1819 11.3907C56.9564 11.2796 56.6884 11.224 56.3778 11.224C56.0471 11.224 55.7665 11.2948 55.5361 11.4362C55.3056 11.5776 55.1152 11.7721 54.9649 12.0196C54.8196 12.2671 54.7119 12.555 54.6418 12.8833C54.5716 13.2117 54.5365 13.5627 54.5365 13.9365ZM66.065 13.9895H63.2167V12.4818H66.065C66.561 12.4818 66.9618 12.401 67.2674 12.2394C67.573 12.0777 67.796 11.8555 67.9363 11.5725C68.0816 11.2846 68.1542 10.9563 68.1542 10.5875C68.1542 10.2391 68.0816 9.91323 67.9363 9.61022C67.796 9.30203 67.573 9.05453 67.2674 8.86763C66.9618 8.68073 66.561 8.58732 66.065 8.58732H63.7954V18.1038H61.909V7.07196H66.065C66.9117 7.07196 67.6307 7.2235 68.2219 7.52657C68.8181 7.82459 69.2715 8.23879 69.5821 8.76918C69.8927 9.29444 70.0481 9.89556 70.0481 10.5725C70.0481 11.2846 69.8927 11.8958 69.5821 12.406C69.2715 12.9162 68.8181 13.3076 68.2219 13.5804C67.6307 13.8531 66.9117 13.9895 66.065 13.9895ZM73.3773 11.4665V18.1038H71.5662V9.90565H73.2947L73.3773 11.4665ZM75.8649 9.85263L75.8499 11.5499C75.7397 11.5296 75.6194 11.5144 75.4891 11.5044C75.3639 11.4943 75.2387 11.4892 75.1134 11.4892C74.8027 11.4892 74.5297 11.5347 74.2942 11.6256C74.0588 11.7115 73.8608 11.8377 73.7006 12.0044C73.5452 12.1661 73.425 12.3631 73.3398 12.5955C73.2546 12.8278 73.2045 13.0879 73.1895 13.3758L72.7761 13.4062C72.7761 12.8909 72.8262 12.4136 72.9265 11.9741C73.0267 11.5347 73.1769 11.1482 73.3773 10.8149C73.5828 10.4815 73.8383 10.2213 74.1439 10.0344C74.4546 9.84763 74.8128 9.75418 75.2186 9.75418C75.3288 9.75418 75.4465 9.76427 75.5718 9.78444C75.7021 9.80461 75.7998 9.82737 75.8649 9.85263ZM80.4344 18.2553C79.8333 18.2553 79.2895 18.1568 78.8038 17.9598C78.3224 17.7577 77.912 17.4774 77.5708 17.1188C77.2356 16.7601 76.9774 16.3383 76.7969 15.8534C76.6165 15.3685 76.5259 14.8457 76.5259 14.285V13.982C76.5259 13.3405 76.6191 12.7596 76.8046 12.2394C76.9893 11.7191 77.2476 11.2745 77.5785 10.9058C77.9094 10.532 78.3002 10.2466 78.7508 10.0496C79.2014 9.85263 79.6905 9.75418 80.2164 9.75418C80.7978 9.75418 81.3058 9.85263 81.7418 10.0496C82.1779 10.2466 82.5388 10.5244 82.8244 10.8831C83.1151 11.2367 83.3297 11.6584 83.4708 12.1484C83.6153 12.6384 83.688 13.1788 83.688 13.7699V14.5502H77.4058V13.2394H81.9V13.0955C81.8898 12.7672 81.8248 12.459 81.7042 12.1712C81.5888 11.8832 81.4109 11.6508 81.1707 11.4741C80.9304 11.2973 80.6097 11.2089 80.2087 11.2089C79.9086 11.2089 79.6401 11.2745 79.4049 11.4059C79.174 11.5322 78.9817 11.7165 78.826 11.959C78.6704 12.2014 78.5507 12.4944 78.4652 12.8379C78.3848 13.1763 78.3446 13.5577 78.3446 13.982V14.285C78.3446 14.6437 78.3925 14.977 78.4874 15.2852C78.5883 15.5882 78.7328 15.8534 78.9235 16.0807C79.1142 16.3081 79.3442 16.4874 79.6153 16.6187C79.8855 16.745 80.1933 16.8081 80.5396 16.8081C80.9757 16.8081 81.3639 16.7197 81.7042 16.543C82.0454 16.3662 82.3404 16.1161 82.5909 15.7928L83.5452 16.7248C83.3699 16.9824 83.1424 17.2299 82.862 17.4673C82.5807 17.6996 82.2378 17.8891 81.8325 18.0356C81.4314 18.182 80.9654 18.2553 80.4344 18.2553ZM89.6632 15.8838C89.6632 15.7019 89.6179 15.5377 89.5281 15.3913C89.4375 15.2397 89.2648 15.1033 89.0091 14.9821C88.7586 14.8609 88.3883 14.7498 87.8966 14.6488C87.4657 14.5528 87.0698 14.4391 86.7098 14.3078C86.3541 14.1714 86.048 14.0072 85.7923 13.8153C85.5375 13.6233 85.3391 13.3961 85.1989 13.1334C85.0587 12.8707 84.9885 12.5676 84.9885 12.2242C84.9885 11.8908 85.0612 11.5751 85.2066 11.2771C85.352 10.9791 85.5597 10.7164 85.8299 10.4891C86.101 10.2618 86.4285 10.0825 86.815 9.95117C87.2057 9.81979 87.641 9.75418 88.1224 9.75418C88.8039 9.75418 89.387 9.8703 89.8736 10.1027C90.3644 10.33 90.7398 10.6406 91.0005 11.0346C91.2613 11.4236 91.3913 11.863 91.3913 12.353H89.5803C89.5803 12.1357 89.5256 11.9338 89.4153 11.7469C89.3101 11.5549 89.1493 11.4008 88.9338 11.2846C88.7184 11.1634 88.4482 11.1028 88.1224 11.1028C87.812 11.1028 87.5538 11.1533 87.3485 11.2544C87.1476 11.3503 86.998 11.4766 86.8971 11.6331C86.8022 11.7898 86.7543 11.9615 86.7543 12.1484C86.7543 12.2848 86.7799 12.4086 86.8295 12.5197C86.8851 12.6257 86.9749 12.7243 87.1006 12.8151C87.2254 12.901 87.3956 12.9819 87.6111 13.0576C87.8317 13.1334 88.107 13.2066 88.4379 13.2774C89.0595 13.4087 89.5931 13.5779 90.0386 13.785C90.4901 13.987 90.8355 14.2497 91.0758 14.573C91.3161 14.8912 91.4366 15.2953 91.4366 15.7852C91.4366 16.1489 91.3588 16.4823 91.2032 16.7854C91.0536 17.0834 90.833 17.3436 90.5422 17.5658C90.2515 17.783 89.9035 17.9522 89.4973 18.0734C89.0972 18.1947 88.6457 18.2553 88.1446 18.2553C87.4084 18.2553 86.785 18.1239 86.2737 17.8613C85.7624 17.5936 85.3742 17.2526 85.1091 16.8384C84.8483 16.4192 84.7183 15.9848 84.7183 15.5352H86.4687C86.4892 15.8737 86.5815 16.1439 86.7474 16.3459C86.9176 16.543 87.1279 16.6869 87.3785 16.7778C87.6341 16.8637 87.8966 16.9066 88.1677 16.9066C88.4935 16.9066 88.7663 16.8637 88.9869 16.7778C89.2075 16.6869 89.3751 16.5656 89.4905 16.4141C89.6051 16.2575 89.6632 16.0807 89.6632 15.8838ZM97.5838 15.8838C97.5838 15.7019 97.5393 15.5377 97.4487 15.3913C97.3589 15.2397 97.1862 15.1033 96.9305 14.9821C96.68 14.8609 96.3088 14.7498 95.818 14.6488C95.3871 14.5528 94.9912 14.4391 94.6303 14.3078C94.2746 14.1714 93.9694 14.0072 93.7137 13.8153C93.458 13.6233 93.2605 13.3961 93.1203 13.1334C92.98 12.8707 92.9099 12.5676 92.9099 12.2242C92.9099 11.8908 92.9826 11.5751 93.1271 11.2771C93.2725 10.9791 93.4811 10.7164 93.7513 10.4891C94.0215 10.2618 94.3499 10.0825 94.7355 9.95117C95.1263 9.81979 95.5624 9.75418 96.0438 9.75418C96.7253 9.75418 97.3084 9.8703 97.7941 10.1027C98.2858 10.33 98.6612 10.6406 98.922 11.0346C99.1827 11.4236 99.3127 11.863 99.3127 12.353H97.5017C97.5017 12.1357 97.4461 11.9338 97.3358 11.7469C97.2306 11.5549 97.0707 11.4008 96.8552 11.2846C96.6398 11.1634 96.3687 11.1028 96.0438 11.1028C95.7325 11.1028 95.4752 11.1533 95.2691 11.2544C95.069 11.3503 94.9185 11.4766 94.8185 11.6331C94.7235 11.7898 94.6757 11.9615 94.6757 12.1484C94.6757 12.2848 94.7005 12.4086 94.7509 12.5197C94.8056 12.6257 94.8963 12.7243 95.0211 12.8151C95.1468 12.901 95.317 12.9819 95.5324 13.0576C95.753 13.1334 96.0284 13.2066 96.3593 13.2774C96.9801 13.4087 97.5136 13.5779 97.96 13.785C98.4106 13.987 98.7561 14.2497 98.9972 14.573C99.2375 14.8912 99.358 15.2953 99.358 15.7852C99.358 16.1489 99.2802 16.4823 99.1246 16.7854C98.9741 17.0834 98.7544 17.3436 98.4636 17.5658C98.1729 17.783 97.8249 17.9522 97.4187 18.0734C97.0177 18.1947 96.5671 18.2553 96.066 18.2553C95.3298 18.2553 94.7056 18.1239 94.1951 17.8613C93.6838 17.5936 93.2956 17.2526 93.0296 16.8384C92.7697 16.4192 92.6389 15.9848 92.6389 15.5352H94.3901C94.4097 15.8737 94.5029 16.1439 94.668 16.3459C94.8381 16.543 95.0493 16.6869 95.2999 16.7778C95.5547 16.8637 95.818 16.9066 96.0882 16.9066C96.414 16.9066 96.6876 16.8637 96.9074 16.7778C97.128 16.6869 97.2956 16.5656 97.411 16.4141C97.5265 16.2575 97.5838 16.0807 97.5838 15.8838Z" fill="white"/>
</svg>
